<svg width="119" height="119" viewBox="0 0 119 119" fill="none" xmlns="http://www.w3.org/2000/svg">
<path d="M88.3203 67.8857C101.15 67.8857 111.562 57.4918 111.562 44.6436V55.7626C111.562 68.5923 101.15 79.0048 88.3203 79.0048H85.5312V73.4267H33.4688V79.0048H26.0312C15.7675 79.0048 7.4375 70.6748 7.4375 60.411V49.292C7.4375 59.5762 15.7675 67.8857 26.0312 67.8857H88.3203Z" fill="#CCD1D9"/>
<path d="M87.3908 75.2788H31.6133C30.585 75.2788 29.7539 74.4477 29.7539 73.4194C29.7539 72.3912 30.585 71.5601 31.6133 71.5601H87.3908C88.419 71.5601 89.2502 72.3912 89.2502 73.4194C89.2502 74.4477 88.419 75.2788 87.3908 75.2788Z" fill="#AAB2BD"/>
<path d="M88.3203 21.4014H88.3017C83.3558 10.4348 72.3111 2.80762 59.5 2.80762C43.2881 2.80762 29.9173 15.007 28.1156 30.7373L27.8906 30.6982H26.0312C15.7675 30.6982 7.4375 39.0282 7.4375 49.292C7.4375 59.5762 15.7675 67.8857 26.0312 67.8857H88.3203C101.15 67.8857 111.562 57.4918 111.562 44.6436C111.562 31.8157 101.15 21.4014 88.3203 21.4014Z" fill="#E6E9ED"/>
<path d="M59.5 43.658C58.4755 43.658 56.802 43.658 55.7812 43.658H35.3281C34.3036 43.658 33.4688 44.4965 33.4688 45.5173V49.2361C33.4688 50.2606 34.3036 51.0955 35.3281 51.0955H63.2188H66.9375H83.6719C84.6964 51.0955 85.5312 50.2606 85.5312 49.2361V45.5173C85.5312 44.4965 84.6964 43.658 83.6719 43.658H59.5Z" fill="#CCD1D9"/>
<path d="M85.5313 106.877L76.2158 116.192V106.877H85.5313Z" fill="#87BCF4"/>
<path d="M85.5312 77.1455V106.877H76.2158V116.192H33.4688V77.1455V71.5674H85.5312V77.1455Z" fill="#5D9CEC"/>
<path d="M55.7812 43.658H35.3281C34.3036 43.658 33.4688 44.4965 33.4688 45.5173V49.2361C33.4688 50.2606 34.3036 51.0955 35.3281 51.0955H63.2188H65.0781L57.6406 43.658C56.9657 43.658 56.2889 43.658 55.7812 43.658Z" fill="#5D9CEC"/>
<path d="M76.2234 88.2979H44.6289C43.6007 88.2979 42.7695 87.4667 42.7695 86.4385C42.7695 85.4102 43.6007 84.5791 44.6289 84.5791H76.2234C77.2516 84.5791 78.0828 85.4102 78.0828 86.4385C78.0828 87.4667 77.2516 88.2979 76.2234 88.2979Z" fill="#4A89DC"/>
<path d="M76.2234 95.7354H44.6289C43.6007 95.7354 42.7695 94.9042 42.7695 93.876C42.7695 92.8477 43.6007 92.0166 44.6289 92.0166H76.2234C77.2516 92.0166 78.0828 92.8477 78.0828 93.876C78.0828 94.9042 77.2516 95.7354 76.2234 95.7354Z" fill="#4A89DC"/>
<path d="M76.2234 101.31H44.6289C43.6007 101.31 42.7695 100.479 42.7695 99.4504C42.7695 98.4222 43.6007 97.5911 44.6289 97.5911H76.2234C77.2516 97.5911 78.0828 98.4222 78.0828 99.4504C78.0828 100.479 77.2516 101.31 76.2234 101.31Z" fill="#4A89DC"/>
</svg>
