<svg width="120" height="120" viewBox="0 0 120 120" fill="none" xmlns="http://www.w3.org/2000/svg">
<path d="M102.787 120H4.63695C2.71133 120 1.15039 118.439 1.15039 116.513V60.2146C1.15039 58.289 2.71133 56.728 4.63695 56.728C6.56258 56.728 8.12352 58.289 8.12352 60.2146V113.027H99.3003V105.332C99.3003 103.406 100.861 101.845 102.787 101.845C104.712 101.845 106.273 103.406 106.273 105.332V116.513C106.273 118.439 104.712 120 102.787 120Z" fill="#F15642"/>
<path d="M4.63672 41.513V40.3903L41.1514 3.48657V41.513H4.63672Z" fill="#FAC2BB"/>
<path d="M115.363 51.4299H45.9736V89.7854H115.363V51.4299Z" fill="#FAC2BB"/>
<path d="M115.363 47.9435H106.274V3.48656C106.274 1.56094 104.713 0 102.787 0H41.1524C41.1095 0 41.0673 0.00492187 41.0244 0.00632813C40.9853 0.00773438 40.9466 0.009375 40.9077 0.0121875C40.757 0.0229688 40.6072 0.0398437 40.4603 0.0696094C40.4572 0.0703125 40.4539 0.07125 40.4504 0.0719531C40.3058 0.101484 40.1645 0.143438 40.025 0.19125C39.9887 0.203906 39.9526 0.216797 39.9165 0.230391C39.7794 0.282422 39.6449 0.340313 39.5155 0.408984C39.5111 0.411328 39.5057 0.413203 39.5012 0.416016C39.3681 0.4875 39.2415 0.570703 39.118 0.659766C39.0864 0.682734 39.0552 0.705703 39.0243 0.729844C38.9019 0.824063 38.7833 0.923672 38.6734 1.03453L2.15918 37.9378C2.07715 38.0205 2.00027 38.1068 1.92762 38.1966C1.8791 38.2561 1.83668 38.3187 1.79262 38.3803C1.77105 38.411 1.74691 38.4403 1.72629 38.4712C1.67613 38.5472 1.63137 38.6259 1.58754 38.7052C1.57676 38.7246 1.5641 38.7431 1.55402 38.7626C1.51113 38.8439 1.47387 38.9269 1.43801 39.0101C1.42934 39.0302 1.41879 39.0495 1.41082 39.0701C1.37801 39.15 1.35082 39.2316 1.32434 39.3134C1.3159 39.3396 1.30559 39.3647 1.29785 39.3907C1.27559 39.4659 1.25801 39.5421 1.24113 39.6183C1.2334 39.6527 1.22332 39.687 1.21629 39.7219C1.2027 39.7922 1.19402 39.8634 1.18488 39.9345C1.17926 39.9759 1.17152 40.0167 1.16754 40.0587C1.16098 40.1297 1.15957 40.2009 1.15699 40.2724C1.15559 40.3116 1.15137 40.3502 1.15137 40.3891V41.5123C1.15137 43.4379 2.7123 44.9988 4.63793 44.9988H41.1526C43.0782 44.9988 44.6392 43.4379 44.6392 41.5123V6.97312H99.3013V47.9435H45.9746C44.049 47.9435 42.4881 49.5045 42.4881 51.4301V89.7841C42.4881 91.7098 44.049 93.2707 45.9746 93.2707H115.363C117.289 93.2707 118.85 91.7098 118.85 89.7841V51.4301C118.85 49.5045 117.289 47.9435 115.363 47.9435ZM11.8813 38.0264L37.6658 11.9672V38.0264H11.8813ZM111.877 86.2976H49.4612V54.9166H111.877V86.2976H111.877Z" fill="#F15642"/>
<path d="M55.1348 63.5202C55.1348 62.6122 55.8502 61.6216 57.0024 61.6216H63.3553C66.9324 61.6216 70.1519 64.0155 70.1519 68.6039C70.1519 72.9515 66.9324 75.3729 63.3553 75.3729H58.7635V79.0051C58.7635 80.2158 57.993 80.9003 57.0024 80.9003C56.0944 80.9003 55.1348 80.2158 55.1348 79.0051V63.5202ZM58.7635 65.0852V71.9368H63.3553C65.1989 71.9368 66.6573 70.3099 66.6573 68.6039C66.6573 66.6812 65.1989 65.0852 63.3553 65.0852H58.7635Z" fill="white"/>
<path d="M75.5383 80.9003C74.6302 80.9003 73.6396 80.405 73.6396 79.1977V63.5753C73.6396 62.5881 74.6302 61.8693 75.5383 61.8693H81.8361C94.4042 61.8693 94.1291 80.9003 82.0837 80.9003H75.5383ZM77.2718 65.2263V77.5467H81.8361C89.2621 77.5467 89.5923 65.2263 81.8361 65.2263H77.2718Z" fill="white"/>
<path d="M98.5861 65.4461V69.8177H105.599C106.59 69.8177 107.58 70.8083 107.58 71.7679C107.58 72.676 106.59 73.4189 105.599 73.4189H98.5861V79.1939C98.5861 80.157 97.9016 80.8965 96.9385 80.8965C95.7278 80.8965 94.9883 80.157 94.9883 79.1939V63.5715C94.9883 62.5843 95.7312 61.8655 96.9385 61.8655H106.593C107.804 61.8655 108.519 62.5843 108.519 63.5715C108.519 64.452 107.804 65.4426 106.593 65.4426H98.5861V65.4461Z" fill="white"/>
</svg>
