<svg width="16" height="16" viewBox="0 0 16 16" fill="none" xmlns="http://www.w3.org/2000/svg">
<path d="M8.68555 11.4375C9.03072 11.4375 9.31055 11.1577 9.31055 10.8125C9.31055 10.4673 9.03072 10.1875 8.68555 10.1875C8.34037 10.1875 8.06055 10.4673 8.06055 10.8125C8.06055 11.1577 8.34037 11.4375 8.68555 11.4375Z" fill="black"/>
<path d="M10.7793 14.75H2.99805C2.3088 14.75 1.74805 14.1892 1.74805 13.5V8.37497C1.74805 7.68572 2.3088 7.12497 2.99805 7.12497H11.998C12.1404 7.12497 12.2533 7.13753 12.3433 7.16331C12.6751 7.25838 13.0211 7.06644 13.1162 6.73462C13.2113 6.40281 13.0194 6.05675 12.6875 5.96166C12.484 5.90334 12.2585 5.875 11.998 5.875H11.2469V3.67081C11.2469 1.64672 9.56464 0 7.49689 0C5.42914 0 3.74689 1.64672 3.74689 3.67081V5.875H2.99805C1.61955 5.875 0.498047 6.9965 0.498047 8.375V13.5C0.498047 14.8785 1.61955 16 2.99805 16H10.7793C11.1245 16 11.4043 15.7202 11.4043 15.375C11.4043 15.0298 11.1245 14.75 10.7793 14.75ZM4.99689 3.67081C4.99689 2.33597 6.11839 1.25 7.49689 1.25C8.87539 1.25 9.99689 2.33597 9.99689 3.67081V5.875H4.99689V3.67081Z" fill="black"/>
<path d="M6.3418 11.4375C6.68697 11.4375 6.9668 11.1577 6.9668 10.8125C6.9668 10.4673 6.68697 10.1875 6.3418 10.1875C5.99662 10.1875 5.7168 10.4673 5.7168 10.8125C5.7168 11.1577 5.99662 11.4375 6.3418 11.4375Z" fill="black"/>
<path d="M15.5014 10.3503C15.4877 9.13816 14.4974 8.15625 13.282 8.15625C12.0582 8.15625 11.0625 9.15194 11.0625 10.3758C11.0625 10.721 11.3423 11.0008 11.6875 11.0008C12.0327 11.0008 12.3125 10.721 12.3125 10.3758C12.3125 9.84119 12.7474 9.40625 13.2821 9.40625C13.8167 9.40625 14.2516 9.84119 14.2516 10.3758C14.2516 10.3815 14.2517 10.3871 14.2518 10.3927C14.2454 10.7755 14.0155 11.1181 13.6623 11.2688C13.0517 11.5296 12.6571 12.1319 12.6571 12.8033V13.3438C12.6571 13.6889 12.9369 13.9688 13.2821 13.9688C13.6272 13.9688 13.9071 13.6889 13.9071 13.3438V12.8033C13.9071 12.6333 14.0037 12.4823 14.1532 12.4185C14.9727 12.0686 15.5022 11.2667 15.502 10.3757C15.502 10.3672 15.5018 10.3587 15.5014 10.3503Z" fill="black"/>
<path d="M13.2793 16C13.6245 16 13.9043 15.7202 13.9043 15.375C13.9043 15.0298 13.6245 14.75 13.2793 14.75C12.9341 14.75 12.6543 15.0298 12.6543 15.375C12.6543 15.7202 12.9341 16 13.2793 16Z" fill="black"/>
<path d="M3.99805 11.4375C4.34322 11.4375 4.62305 11.1577 4.62305 10.8125C4.62305 10.4673 4.34322 10.1875 3.99805 10.1875C3.65287 10.1875 3.37305 10.4673 3.37305 10.8125C3.37305 11.1577 3.65287 11.4375 3.99805 11.4375Z" fill="black"/>
</svg>
