<svg width="171" height="142" viewBox="0 0 171 142" fill="none" xmlns="http://www.w3.org/2000/svg">
<path d="M79.5 22C81.9853 22 84 20.2091 84 18C84 15.7909 81.9853 14 79.5 14C77.0147 14 75 15.7909 75 18C75 20.2091 77.0147 22 79.5 22Z" stroke="#3F3D56" stroke-opacity="0.37" stroke-miterlimit="10"/>
<path d="M87.8426 10.2043L86.8236 9.16507C86.7736 9.11327 86.7141 9.07201 86.6483 9.04369C86.5826 9.01536 86.512 9.00051 86.4405 9.00001C86.3691 8.99951 86.2983 9.01336 86.2322 9.04077C86.1661 9.06817 86.1059 9.10859 86.0553 9.15968L79.6583 15.5949L76.9534 12.8292C76.9036 12.778 76.8444 12.7373 76.7792 12.7093C76.7139 12.6813 76.6439 12.6667 76.573 12.6662C76.5022 12.6657 76.4319 12.6793 76.3663 12.7064C76.3006 12.7334 76.2409 12.7733 76.1904 12.8238L75.1607 13.8576C75.0588 13.9606 75.001 14.1002 75 14.2462C74.999 14.3921 75.0549 14.5326 75.1554 14.637L79.2636 18.8369C79.3651 18.9404 79.5027 18.999 79.6466 19C79.7905 19.001 79.9289 18.9444 80.0318 18.8424L87.8373 10.9836C87.8883 10.933 87.929 10.8726 87.9569 10.8059C87.9849 10.7392 87.9995 10.6675 88 10.5951C88.0005 10.5226 87.9868 10.4508 87.9598 10.3837C87.9328 10.3166 87.893 10.2556 87.8426 10.2043Z" fill="#BDBDBD"/>
<path d="M61.3495 16H3.65045C1.63436 16 0 17.9854 0 20.4346V20.5654C0 23.0146 1.63436 25 3.65045 25H61.3495C63.3656 25 65 23.0146 65 20.5654V20.4346C65 17.9854 63.3656 16 61.3495 16Z" fill="#F2F2F2"/>
<path d="M61.3495 31H3.65045C1.63436 31 0 32.7648 0 34.9418V35.0582C0 37.2352 1.63436 39 3.65045 39H61.3495C63.3656 39 65 37.2352 65 35.0582V34.9418C65 32.7648 63.3656 31 61.3495 31Z" fill="#F2F2F2"/>
<path d="M62.2934 46H3.70662C1.65951 46 0 47.7648 0 49.9418V50.0582C0 52.2352 1.65951 54 3.70662 54H62.2934C64.3405 54 66 52.2352 66 50.0582V49.9418C66 47.7648 64.3405 46 62.2934 46Z" fill="#F2F2F2"/>
<path d="M62.2934 61H3.70661C1.65951 61 0 62.7648 0 64.9418V65.0582C0 67.2352 1.65951 69 3.70661 69H62.2934C64.3405 69 66 67.2352 66 65.0582V64.9418C66 62.7648 64.3405 61 62.2934 61Z" fill="#F2F2F2"/>
<path d="M63.3495 14H5.65045C3.63436 14 2 15.7648 2 17.9418V18.0582C2 20.2352 3.63436 22 5.65045 22H63.3495C65.3656 22 67 20.2352 67 18.0582V17.9418C67 15.7648 65.3656 14 63.3495 14Z" stroke="#3F3D56" stroke-opacity="0.37" stroke-miterlimit="10"/>
<path d="M63.3495 29H5.65045C3.63436 29 2 30.7648 2 32.9418V33.0582C2 35.2352 3.63436 37 5.65045 37H63.3495C65.3656 37 67 35.2352 67 33.0582V32.9418C67 30.7648 65.3656 29 63.3495 29Z" stroke="#3F3D56" stroke-opacity="0.37" stroke-miterlimit="10"/>
<path d="M64.2934 43H5.70662C3.65951 43 2 44.9854 2 47.4346V47.5654C2 50.0146 3.65951 52 5.70662 52H64.2934C66.3405 52 68 50.0146 68 47.5654V47.4346C68 44.9854 66.3405 43 64.2934 43Z" stroke="#3F3D56" stroke-opacity="0.37" stroke-miterlimit="10"/>
<path d="M64.2934 58H5.70661C3.65951 58 2 59.9854 2 62.4346V62.5654C2 65.0146 3.65951 67 5.70661 67H64.2934C66.3405 67 68 65.0146 68 62.5654V62.4346C68 59.9854 66.3405 58 64.2934 58Z" stroke="#3F3D56" stroke-opacity="0.37" stroke-miterlimit="10"/>
<path d="M79.5 37C81.9853 37 84 35.2091 84 33C84 30.7909 81.9853 29 79.5 29C77.0147 29 75 30.7909 75 33C75 35.2091 77.0147 37 79.5 37Z" stroke="#3F3D56" stroke-opacity="0.37" stroke-miterlimit="10"/>
<path d="M79.5 52C81.9853 52 84 50.2091 84 48C84 45.7909 81.9853 44 79.5 44C77.0147 44 75 45.7909 75 48C75 50.2091 77.0147 52 79.5 52Z" stroke="#3F3D56" stroke-opacity="0.37" stroke-miterlimit="10"/>
<path d="M79.5 67C81.9853 67 84 65.2091 84 63C84 60.7909 81.9853 59 79.5 59C77.0147 59 75 60.7909 75 63C75 65.2091 77.0147 67 79.5 67Z" stroke="#3F3D56" stroke-opacity="0.37" stroke-miterlimit="10"/>
<path d="M87.8426 25.2043L86.8236 24.1651C86.7736 24.1133 86.7141 24.072 86.6483 24.0437C86.5826 24.0154 86.512 24.0005 86.4405 24C86.3691 23.9995 86.2983 24.0134 86.2322 24.0408C86.1661 24.0682 86.1059 24.1086 86.0553 24.1597L79.6583 30.5949L76.9534 27.8292C76.9036 27.778 76.8444 27.7373 76.7792 27.7093C76.7139 27.6813 76.6439 27.6667 76.573 27.6662C76.5022 27.6657 76.4319 27.6793 76.3663 27.7064C76.3006 27.7334 76.2409 27.7733 76.1904 27.8238L75.1607 28.8576C75.0588 28.9606 75.001 29.1002 75 29.2462C74.999 29.3921 75.0549 29.5326 75.1554 29.637L79.2636 33.8369C79.3651 33.9404 79.5027 33.999 79.6466 34C79.7905 34.001 79.9289 33.9443 80.0318 33.8424L87.8373 25.9836C87.8883 25.933 87.929 25.8726 87.9569 25.8059C87.9849 25.7392 87.9995 25.6675 88 25.5951C88.0005 25.5226 87.9868 25.4508 87.9598 25.3837C87.9328 25.3166 87.893 25.2556 87.8426 25.2043Z" fill="#BDBDBD"/>
<path d="M127.156 142C147.457 142 163.914 139.441 163.914 136.285C163.914 133.128 147.457 130.569 127.156 130.569C106.855 130.569 90.3975 133.128 90.3975 136.285C90.3975 139.441 106.855 142 127.156 142Z" fill="#F2F2F2"/>
<path d="M133.122 139.857C153.423 139.857 169.88 137.298 169.88 134.142C169.88 130.985 153.423 128.426 133.122 128.426C112.821 128.426 96.3643 130.985 96.3643 134.142C96.3643 137.298 112.821 139.857 133.122 139.857Z" stroke="#3F3D56" stroke-opacity="0.35" stroke-miterlimit="10"/>
<path d="M129.872 128.751L128.268 130.351C128.268 130.351 122.564 133.374 123.277 129.284C123.472 128.068 123.513 126.833 123.4 125.606C123.253 123.895 122.912 122.206 122.386 120.57L127.733 119.503C126.844 122.292 128.309 125.802 129.223 127.589C129.592 128.31 129.872 128.751 129.872 128.751Z" fill="#A67171"/>
<path d="M142.018 125.516C141.978 126.064 141.91 126.609 141.815 127.15C141.815 127.15 137.359 130.173 137.002 126.794C136.771 124.593 137.295 123.599 137.69 123.174L137.697 123.167C137.934 122.916 138.068 122.585 138.072 122.24V118.258L141.993 119.503L141.815 122.882C142.079 123.585 142.082 124.634 142.018 125.516Z" fill="#A67171"/>
<path opacity="0.05" d="M129.872 128.751L128.267 130.351C128.267 130.351 122.564 133.374 123.277 129.284C123.472 128.068 123.513 126.833 123.4 125.607C124.649 125.423 126.128 126.794 126.128 126.794C128.218 129.736 128.781 128.623 129.223 127.589C129.592 128.31 129.872 128.751 129.872 128.751Z" fill="black"/>
<path d="M126.128 127.15C126.128 127.15 123.633 124.838 122.385 126.617C121.138 128.395 122.564 129.818 117.751 133.374C112.938 136.931 117.751 139.243 120.959 137.82C124.168 136.397 130.763 132.663 130.763 132.663C130.763 132.663 130.763 126.794 129.872 126.972C128.98 127.15 129.159 131.418 126.128 127.15Z" fill="#3F3D56"/>
<path opacity="0.05" d="M142.018 125.516C141.978 126.064 141.91 126.609 141.815 127.15C141.815 127.15 137.359 130.173 137.002 126.794C136.771 124.593 137.295 123.599 137.69 123.174C137.845 123.057 138.029 122.985 138.222 122.965C138.415 122.945 138.609 122.978 138.785 123.06C139.498 122.743 140.282 123.272 140.931 123.954C141.371 124.417 141.737 124.943 142.018 125.516Z" fill="black"/>
<path d="M138.785 123.416C138.785 123.416 136.824 122.349 136.468 127.15C136.111 131.952 135.933 131.418 135.933 131.418C135.933 131.418 134.15 135.686 137.894 135.153C141.637 134.619 143.419 134.263 143.241 132.129C143.134 130.843 142.832 128.976 142.609 127.695C142.397 126.426 141.813 125.248 140.932 124.309C140.281 123.626 139.498 123.099 138.785 123.416Z" fill="#3F3D56"/>
<path d="M145.201 100.653C145.201 100.653 145.914 108.122 145.201 110.256C144.768 111.55 144.533 114.812 144.415 117.175C144.337 118.705 144.31 119.859 144.31 119.859C140.923 123.416 137.002 119.859 137.002 119.859C137.002 119.859 137.002 118.61 137.03 116.779C137.068 114.348 137.155 110.885 137.358 107.944C137.54 105.748 137.389 103.537 136.911 101.385C136.584 100.037 136.352 98.6662 136.219 97.2846L135.754 92.2946C134.15 81.091 132.189 80.7354 132.189 80.7354C132.125 80.7852 132.063 80.8403 131.998 80.8972C129.259 83.3904 127.423 92.2092 126.491 97.9159C126.011 100.852 125.772 102.965 125.772 102.965C125.772 102.965 128.089 112.568 127.911 113.813C127.829 114.39 128.054 115.852 128.318 117.25C128.622 118.863 128.981 120.392 128.981 120.392C124.525 125.194 121.494 121.459 121.494 121.459L120.895 118.603L117.395 101.898C117.395 101.898 115.79 91.4054 117.395 83.225C117.913 80.6577 118.268 78.0603 118.459 75.4483C118.659 72.5001 119.135 69.5769 119.879 66.7167C120.097 65.8702 120.338 65.0302 120.603 64.1968C120.603 64.1968 127.296 63.0355 133.599 63.0355C138.326 63.0355 142.832 63.6882 144.132 65.9751C144.431 66.5015 144.703 67.0291 144.948 67.5578C147.205 72.3967 147.272 77.3672 145.023 82.3359C142.527 87.8487 145.201 100.653 145.201 100.653Z" fill="#007EC5"/>
<path d="M130.229 36.0991C130.229 36.0991 120.782 26.496 127.912 27.2074C129.528 27.3692 130.623 27.0811 131.348 26.5405C132.175 25.9252 132.523 24.9826 132.619 23.9992C132.815 22.0377 132.011 19.9162 132.011 19.9162C132.011 19.9162 137.5 12.9161 138.5 19.9162C138.714 21.4161 138 21.5001 138.5 23.5C138.5 24.5 139.801 25.2009 141 25.9999C142.199 26.799 144.838 27.7622 145.914 29.5192C147.875 32.7202 130.229 36.0991 130.229 36.0991Z" fill="#A67171"/>
<path opacity="0.05" d="M130.229 36.0991C130.229 36.0991 120.782 26.4961 127.912 27.2074C129.528 27.3692 130.623 27.0811 131.348 26.5405C129.968 28.8239 128.416 32.9301 135.398 32.5424C141.788 32.1885 141.679 29.6473 140.884 27.9792C142.474 28.5216 144.838 27.7623 145.914 29.5192C147.875 32.7203 130.229 36.0991 130.229 36.0991Z" fill="black"/>
<path opacity="0.1" d="M145.202 68.2871C143.58 70.3909 122.903 67.6327 119.88 66.7168C120.097 65.8703 120.339 65.0304 120.604 64.1969C120.604 64.1969 127.297 63.0356 133.6 63.0356C138.327 63.0356 142.833 63.6883 144.132 65.9752C144.432 66.5016 144.704 67.0292 144.949 67.558C145.063 68.1946 145.202 68.2871 145.202 68.2871Z" fill="black"/>
<path d="M132.19 25.6068C132.19 25.6068 120.158 26.5849 119.623 31.2086C119.112 35.6287 117.573 47.8361 117.573 47.8361C117.573 47.8361 115.791 57.617 122.564 52.9933L122.477 53.2536C121.256 57.0017 120.423 60.8649 119.991 64.7826C119.923 65.3656 119.785 65.8251 119.534 65.9752C118.643 66.5087 143.419 70.0654 145.202 67.7535C145.202 67.7535 144.667 67.3979 144.845 63.3077C145.023 59.2175 143.419 54.9495 143.419 54.9495C143.419 54.9495 141.993 50.6814 143.954 46.5912C145.915 42.5011 145.202 41.2562 145.202 41.2562L151.975 36.099C151.975 36.099 153.438 33.5972 150.764 30.509C149.961 29.5955 148.985 28.8488 147.893 28.3118C146.8 27.7748 145.612 27.458 144.397 27.3794C143.182 27.3009 141 26 141 26C141 26 144.845 32.5423 135.22 33.0758C125.594 33.6093 132.19 25.6068 132.19 25.6068Z" fill="#12ABBF"/>
<path opacity="0.05" d="M124.168 35.3877C124.168 35.3877 124.524 38.233 123.811 39.1222C123.098 40.0114 122.92 44.1016 123.811 46.5912" fill="black"/>
<path opacity="0.1" d="M131.998 80.8972C129.259 83.3904 127.423 92.2092 126.491 97.9159C125.193 89.9721 130.585 76.823 130.585 76.823L131.998 80.8972Z" fill="black"/>
<path opacity="0.1" d="M128.981 120.392C124.525 125.194 121.494 121.459 121.494 121.459L120.896 118.603C122.58 119.477 125.427 120.154 128.318 117.25C128.622 118.863 128.981 120.392 128.981 120.392Z" fill="black"/>
<path opacity="0.1" d="M144.415 117.175C144.337 118.705 144.31 119.859 144.31 119.859C140.923 123.416 137.002 119.859 137.002 119.859C137.002 119.859 137.002 118.61 137.03 116.779C138.501 117.711 141.144 118.737 144.415 117.175Z" fill="black"/>
<path d="M136.285 41.4341H125.955C125.46 41.4341 125.06 41.8339 125.06 42.3271V45.5204C125.06 46.0136 125.46 46.4134 125.955 46.4134H136.285C136.78 46.4134 137.18 46.0136 137.18 45.5204V42.3271C137.18 41.8339 136.78 41.4341 136.285 41.4341Z" fill="#CDD0DB"/>
<path opacity="0.05" d="M136.285 41.4341H125.955C125.46 41.4341 125.06 41.8339 125.06 42.3271V45.5204C125.06 46.0136 125.46 46.4134 125.955 46.4134H136.285C136.78 46.4134 137.18 46.0136 137.18 45.5204V42.3271C137.18 41.8339 136.78 41.4341 136.285 41.4341Z" fill="black"/>
<path d="M136.285 41.6118H125.955C125.46 41.6118 125.06 42.0116 125.06 42.5048V45.6982C125.06 46.1914 125.46 46.5912 125.955 46.5912H136.285C136.78 46.5912 137.18 46.1914 137.18 45.6982V42.5048C137.18 42.0116 136.78 41.6118 136.285 41.6118Z" fill="#3F3D56"/>
<path d="M134.595 44.5461C134.891 44.5461 135.13 44.3073 135.13 44.0126C135.13 43.718 134.891 43.4791 134.595 43.4791C134.3 43.4791 134.061 43.718 134.061 44.0126C134.061 44.3073 134.3 44.5461 134.595 44.5461Z" fill="#9DA7C0"/>
<path opacity="0.05" d="M119.901 49.3192C120.062 48.8413 120.326 48.4043 120.674 48.0387C121.021 47.6731 121.445 47.3878 121.915 47.2027C122.668 46.9242 123.286 46.3705 123.644 45.654C124.347 44.1016 125.595 42.5011 128.803 43.5681C132.012 44.6351 127.912 45.3464 127.912 45.3464C127.912 45.3464 135.22 44.2794 132.368 46.4134C129.516 48.5474 125.951 49.7923 125.951 49.7923L124.196 51.6466C123.944 51.9175 123.638 52.1323 123.297 52.2768C122.957 52.4212 122.589 52.4921 122.219 52.4848C121.849 52.4775 121.485 52.3921 121.15 52.2342C120.815 52.0764 120.518 51.8497 120.277 51.569C120.021 51.2607 119.851 50.89 119.785 50.4948C119.719 50.0995 119.759 49.6939 119.901 49.3192Z" fill="black"/>
<path d="M119.723 48.9635C119.883 48.4856 120.147 48.0486 120.495 47.683C120.843 47.3174 121.266 47.032 121.736 46.847C122.489 46.5685 123.107 46.0148 123.465 45.2983C124.168 43.7459 125.416 42.1454 128.625 43.2124C131.833 44.2794 127.733 44.9907 127.733 44.9907C127.733 44.9907 135.041 43.9237 132.189 46.0577C129.338 48.1917 125.773 49.4366 125.773 49.4366L124.017 51.2909C123.766 51.5618 123.459 51.7766 123.119 51.921C122.778 52.0655 122.411 52.1364 122.04 52.1291C121.67 52.1217 121.306 52.0363 120.971 51.8785C120.637 51.7207 120.339 51.494 120.099 51.2133C119.842 50.905 119.672 50.5343 119.606 50.1391C119.54 49.7438 119.58 49.3382 119.723 48.9635Z" fill="#A67171"/>
<path opacity="0.05" d="M144.845 52.6376L143.597 55.6608L142 54.4889L137.537 51.2149L134.507 49.2588C130.229 46.0577 134.507 45.5242 134.507 45.5242C132.903 44.8129 134.507 44.1016 134.507 44.1016C140.211 42.8567 139.141 47.4804 139.141 47.4804L142.754 49.3495L143.954 49.9701L144.845 52.6376Z" fill="black"/>
<path d="M145.202 52.282L143.954 55.3052L142.357 54.1333L137.893 50.8593L134.863 48.9032C130.585 45.7022 134.863 45.1687 134.863 45.1687C133.259 44.4573 134.863 43.746 134.863 43.746C140.567 42.5011 139.498 47.1248 139.498 47.1248L143.111 48.9939L144.31 49.6145L145.202 52.282Z" fill="#A67171"/>
<path opacity="0.05" d="M145.201 52.2819L143.954 55.3051L142.356 54.1332C143.802 54.1848 145.51 53.4876 143.11 48.9938L144.31 49.6144L145.201 52.2819Z" fill="black"/>
<path d="M151.797 34.3208L152.141 35.7199L151.084 46.0579L150.193 52.9934C150.193 52.9934 149.836 57.6171 145.736 56.3722C141.637 55.1274 141.28 53.8826 141.28 53.8826C141.28 53.8826 147.162 55.8387 143.419 48.9032C143.419 48.9032 145.558 49.9702 145.202 47.1249C144.845 44.2795 145.202 39.3002 145.202 39.3002L151.797 34.3208Z" fill="#12ABBF"/>
<path opacity="0.3" d="M120.96 137.109C118.877 138.032 116.119 137.382 115.756 135.838C115.32 137.876 118.581 138.875 120.96 137.82C124.168 136.397 130.764 132.663 130.764 132.663C130.764 132.663 130.764 132.387 130.755 131.957C130.562 132.065 124.121 135.707 120.96 137.109Z" fill="white"/>
<path opacity="0.3" d="M143.232 132.027C143.026 133.627 141.248 133.963 137.894 134.441C136.188 134.684 135.631 133.93 135.529 133.037C135.417 134.181 135.743 135.459 137.894 135.153C141.637 134.619 143.419 134.263 143.241 132.129C143.238 132.096 143.235 132.061 143.232 132.027Z" fill="white"/>
<g opacity="0.1">
<path opacity="0.1" d="M134.852 4.89992C134.913 4.8086 134.972 4.7136 135.033 4.61951C135.018 4.6258 135.003 4.63027 134.988 4.63729C134.595 4.82794 134.382 5.24862 134.139 5.61126C134.055 5.736 133.966 5.85534 133.873 5.96928C134.249 5.66124 134.578 5.30114 134.852 4.89992Z" fill="black"/>
</g>
<path opacity="0.1" d="M125.059 54.6479C125.059 54.6479 124.598 56.2485 127.628 56.9598C130.658 57.6711 125.059 54.6479 125.059 54.6479Z" fill="black"/>
<path opacity="0.1" d="M123.733 59.3903C123.733 59.3903 122.186 60.5165 125.917 62.4727C129.649 64.4289 123.733 59.3903 123.733 59.3903Z" fill="black"/>
<path opacity="0.1" d="M120.261 78.1813C120.261 78.1813 124.46 76.9957 125.034 75.2174C125.608 73.439 120.261 78.1813 120.261 78.1813Z" fill="black"/>
<path opacity="0.1" d="M120.261 100.707C120.261 100.707 122.07 101.596 123.215 101.478C124.36 101.359 120.261 100.707 120.261 100.707Z" fill="black"/>
<path opacity="0.1" d="M120.896 103.197C120.896 103.197 121.714 103.612 123.215 103.671C124.717 103.73 120.896 103.197 120.896 103.197Z" fill="black"/>
<path d="M151.618 110.018C152.158 110.214 152.735 110.282 153.306 110.217C153.876 110.152 154.423 109.956 154.905 109.643C155.386 109.331 155.788 108.912 156.079 108.418C156.37 107.925 156.542 107.37 156.582 106.799C156.622 106.228 156.528 105.655 156.308 105.126C156.088 104.597 155.748 104.126 155.315 103.751C154.881 103.375 154.366 103.105 153.811 102.962C153.255 102.819 152.673 102.807 152.112 102.926L152.205 104.83L151.302 103.198C150.416 103.614 149.732 104.363 149.399 105.281C149.281 105.603 149.209 105.94 149.186 106.282C149.129 107.084 149.336 107.882 149.775 108.557C150.213 109.231 150.861 109.744 151.618 110.018Z" fill="#ECC8C9"/>
<path d="M156.084 132.094C155.765 130.475 157.146 129.04 158.51 128.107C159.874 127.175 161.467 126.258 161.932 124.675C162.601 122.4 160.609 120.317 159.059 118.52C157.908 117.187 156.921 115.722 156.116 114.157C155.766 113.542 155.528 112.87 155.412 112.173C155.29 111.164 155.615 110.161 155.942 109.199C157.032 105.994 158.197 102.817 159.437 99.6663" stroke="#3F3D56" stroke-width="0.2" stroke-miterlimit="10"/>
<path d="M151.77 109.528C152.31 109.724 152.888 109.792 153.458 109.727C154.028 109.662 154.576 109.465 155.057 109.153C155.538 108.841 155.94 108.422 156.231 107.928C156.523 107.435 156.695 106.88 156.735 106.309C156.774 105.738 156.681 105.165 156.461 104.636C156.241 104.107 155.901 103.636 155.467 103.261C155.034 102.885 154.519 102.615 153.963 102.472C153.407 102.329 152.826 102.317 152.264 102.436L152.357 104.339L151.454 102.708C150.568 103.124 149.884 103.873 149.552 104.791C149.434 105.113 149.362 105.45 149.338 105.791C149.281 106.593 149.488 107.392 149.927 108.066C150.366 108.741 151.013 109.254 151.77 109.528V109.528Z" stroke="#3F3D56" stroke-width="0.2" stroke-miterlimit="10"/>
<path d="M155.631 99.009C155.843 98.4262 156.198 97.9059 156.665 97.4961C157.131 97.0863 157.693 96.8002 158.299 96.6641L158.604 98.4735L159.17 96.5731C159.956 96.5847 160.717 96.8451 161.345 97.3167C161.973 97.7883 162.434 98.4467 162.662 99.1968C162.89 99.9469 162.873 100.75 162.614 101.49C162.355 102.23 161.867 102.869 161.22 103.314C160.573 103.759 159.802 103.987 159.016 103.966C158.231 103.945 157.472 103.676 156.85 103.197C156.229 102.718 155.775 102.054 155.556 101.301C155.337 100.549 155.363 99.7459 155.631 99.009Z" fill="#ECC8C9"/>
<path d="M155.835 98.3556C156.046 97.7728 156.402 97.2525 156.868 96.8427C157.334 96.4329 157.896 96.1467 158.502 96.0106L158.808 97.8201L159.373 95.9197C160.159 95.9313 160.921 96.1917 161.548 96.6633C162.176 97.1349 162.637 97.7932 162.865 98.5433C163.093 99.2934 163.076 100.096 162.817 100.836C162.558 101.576 162.07 102.215 161.423 102.66C160.776 103.105 160.005 103.334 159.219 103.313C158.434 103.292 157.675 103.023 157.054 102.544C156.432 102.065 155.978 101.401 155.759 100.648C155.54 99.8952 155.567 99.0924 155.835 98.3556V98.3556Z" stroke="#3F3D56" stroke-width="0.2" stroke-miterlimit="10"/>
<path d="M158.408 118.557C159.264 118.866 160.204 118.851 161.049 118.514C161.894 118.176 162.585 117.541 162.99 116.728C163.396 115.915 163.487 114.981 163.247 114.105C163.007 113.23 162.452 112.472 161.689 111.978L161.254 113.439L160.946 111.608C160.942 111.607 160.939 111.605 160.936 111.604C160.012 111.27 158.993 111.316 158.102 111.731C157.212 112.146 156.523 112.898 156.188 113.82C155.853 114.741 155.898 115.758 156.315 116.647C156.731 117.535 157.484 118.222 158.408 118.557H158.408Z" fill="#ECC8C9"/>
<path d="M158.585 117.895C159.441 118.205 160.38 118.189 161.225 117.852C162.07 117.515 162.761 116.879 163.167 116.066C163.572 115.253 163.664 114.32 163.424 113.444C163.184 112.568 162.629 111.811 161.865 111.317L161.43 112.777L161.122 110.946C161.119 110.945 161.116 110.944 161.113 110.943C160.655 110.777 160.169 110.703 159.683 110.725C159.197 110.746 158.72 110.864 158.279 111.069C157.838 111.275 157.442 111.565 157.114 111.924C156.785 112.282 156.531 112.701 156.365 113.158C156.199 113.614 156.125 114.099 156.146 114.584C156.168 115.069 156.285 115.545 156.491 115.985C156.698 116.425 156.989 116.82 157.348 117.148C157.707 117.475 158.127 117.729 158.585 117.895V117.895Z" stroke="#3F3D56" stroke-width="0.2" stroke-miterlimit="10"/>
<path d="M154.549 124.698C154.696 125.533 155.127 126.292 155.768 126.848C156.41 127.404 157.224 127.723 158.073 127.752C158.922 127.78 159.756 127.517 160.434 127.005C161.111 126.493 161.592 125.765 161.795 124.941C161.998 124.118 161.911 123.25 161.549 122.483C161.187 121.716 160.571 121.096 159.806 120.728C159.04 120.36 158.171 120.266 157.344 120.462C156.517 120.657 155.782 121.13 155.263 121.802L156.915 124.282L154.658 122.966C154.483 123.526 154.446 124.12 154.549 124.698Z" fill="#ECC8C9"/>
<path d="M154.702 124.208C154.85 125.043 155.28 125.802 155.922 126.358C156.563 126.914 157.377 127.233 158.226 127.262C159.076 127.291 159.909 127.027 160.587 126.515C161.265 126.003 161.745 125.275 161.948 124.451C162.151 123.628 162.065 122.76 161.702 121.993C161.34 121.226 160.725 120.606 159.959 120.238C159.193 119.87 158.324 119.776 157.497 119.972C156.67 120.167 155.935 120.64 155.417 121.312L157.068 123.792L154.812 122.476C154.637 123.036 154.599 123.63 154.702 124.208V124.208Z" stroke="#3F3D56" stroke-width="0.2" stroke-miterlimit="10"/>
<path d="M150.938 134.286C150.938 134.286 154.209 133.008 155.195 132.307C156.181 131.607 160.226 130.771 160.471 131.894C160.715 133.017 165.386 137.48 161.693 137.51C158.001 137.539 153.113 138.114 152.129 137.516C151.146 136.918 150.938 134.286 150.938 134.286Z" fill="#656380"/>
<path opacity="0.2" d="M161.759 137.119C158.067 137.148 153.179 137.723 152.195 137.125C151.446 136.67 151.148 135.036 151.048 134.282C150.978 134.285 150.938 134.286 150.938 134.286C150.938 134.286 151.146 136.918 152.129 137.516C153.113 138.114 158.001 137.539 161.693 137.51C162.759 137.501 163.128 137.123 163.107 136.562C162.959 136.901 162.553 137.112 161.759 137.119Z" fill="black"/>
<path d="M132.5 29C132.5 29 134.128 28.0827 134.335 26.9813C134.542 25.8111 135.204 24.1777 133.686 22.7321C133.686 22.7321 131.409 25.7609 128.995 23.9712C125.89 21.6308 127.063 10.9613 128.167 9.65341C129.271 8.41437 131.203 4.55959 135.549 5.04143C139.896 5.52328 141.965 17.9825 139.137 20.3917C139.137 20.3917 137 23 140.5 27C140.5 27 139.5 26.5 137.835 27.4813C135.213 27.4125 132.5 29 132.5 29Z" fill="#A67171"/>
<path opacity="0.29" d="M133.548 23.8335L133.755 22.6633C133.755 22.6633 135.549 20.9424 135.756 19.7722C135.756 19.7722 135.411 22.9386 134.1 23.9023C132.72 24.866 133.548 23.8335 133.548 23.8335Z" fill="#826E4F"/>
<path d="M127.992 12.3623C127.992 12.3623 124.863 12.3623 124.795 10.4351C124.727 8.50781 127.72 8.50781 127.72 8.50781C127.72 8.50781 123.027 7.57987 124.183 5.43847C125.339 3.22569 130.644 3.72535 130.644 3.72535C130.644 3.72535 128.808 2.08361 129.828 0.513244C130.848 -0.985737 137.785 0.941524 138.533 4.43915C138.533 4.43915 143.838 3.22569 142.886 10.7206C141.865 18.2155 139.621 20 139.621 20C139.621 20 138.057 18.6438 137.785 16.0741C137.785 16.0741 138.669 16.6451 139.213 15.7172C139.757 14.7893 140.029 12.9334 139.417 12.4337C138.873 11.9341 136.969 14.361 136.969 14.361C136.969 14.361 134.657 12.7906 134.997 11.0775C135.337 9.43575 134.113 9.64989 134.113 9.64989C134.113 9.64989 130.44 12.291 128.264 10.7206C128.468 10.7206 128.196 11.1489 127.992 12.3623Z" fill="#432931"/>
</svg>
