<svg width="192" height="192" viewBox="0 0 192 192" fill="none" xmlns="http://www.w3.org/2000/svg">
<circle cx="96" cy="96" r="96" fill="white"/>
<path d="M49.0087 75.1935C46.3708 81.2725 45.0066 87.8276 45.0004 94.4543C44.9942 101.081 46.346 107.639 48.9724 113.723C51.5989 119.807 55.4442 125.288 60.2712 129.828C65.0982 134.368 70.8044 137.871 77.0376 140.12C83.2709 142.37 89.899 143.318 96.5128 142.906C103.127 142.495 109.586 140.732 115.492 137.727C121.399 134.722 126.627 130.539 130.853 125.436C135.08 120.332 138.216 114.416 140.068 108.054L120.039 102.224C118.984 105.85 117.197 109.222 114.788 112.13C112.379 115.039 109.4 117.423 106.034 119.135C102.668 120.848 98.9865 121.852 95.2172 122.087C91.4479 122.321 87.6706 121.781 84.1182 120.499C80.5659 119.217 77.314 117.221 74.5631 114.633C71.8122 112.046 69.6207 108.922 68.1239 105.455C66.6271 101.988 65.8567 98.2505 65.8602 94.4739C65.8638 90.6974 66.6412 86.9616 68.1445 83.4972L49.0087 75.1935Z" fill="#D3D3D3"/>
<path d="M140.803 104.661C142.392 97.6424 142.399 90.3577 140.824 83.3356C139.248 76.3135 136.13 69.7299 131.695 64.0624L115.267 76.9182C117.795 80.1481 119.572 83.9001 120.47 87.902C121.368 91.9039 121.364 96.0555 120.458 100.056L140.803 104.661Z" fill="#D3D3D3"/>
<path d="M129.059 60.9685C124.165 55.6923 118.158 51.5716 111.473 48.905C104.789 46.2383 97.5946 45.0927 90.4126 45.5512L91.7414 66.3686C95.8345 66.1074 99.9344 66.7603 103.744 68.28C107.553 69.7997 110.977 72.1481 113.766 75.1549L129.059 60.9685Z" fill="#D3D3D3"/>
<path d="M86.6228 45.9741C78.966 47.1059 71.6913 50.0539 65.4065 54.5716C59.1218 59.0893 54.0096 65.0455 50.497 71.9426L69.0851 81.4091C71.0869 77.4785 74.0004 74.084 77.582 71.5094C81.1637 68.9347 85.3096 67.2547 89.6732 66.6096L86.6228 45.9741Z" fill="#D3D3D3"/>
</svg>
