<svg width="358" height="51" viewBox="0 0 358 51" fill="none" xmlns="http://www.w3.org/2000/svg">
<path d="M261.184 21.2031L264.875 31.0117L268.558 21.2031H271.432V34H269.217V29.7812L269.437 24.1387L265.657 34H264.066L260.296 24.1475L260.516 29.7812V34H258.301V21.2031H261.184ZM279.13 34.1758C277.776 34.1758 276.678 33.751 275.834 32.9014C274.996 32.0459 274.577 30.9092 274.577 29.4912V29.2275C274.577 28.2783 274.759 27.4316 275.122 26.6875C275.491 25.9375 276.007 25.3545 276.669 24.9385C277.331 24.5225 278.069 24.3145 278.884 24.3145C280.179 24.3145 281.178 24.7275 281.881 25.5537C282.59 26.3799 282.944 27.5488 282.944 29.0605V29.9219H276.73C276.795 30.707 277.056 31.3281 277.513 31.7852C277.976 32.2422 278.556 32.4707 279.253 32.4707C280.231 32.4707 281.028 32.0752 281.643 31.2842L282.795 32.3828C282.414 32.9512 281.904 33.3936 281.266 33.71C280.633 34.0205 279.921 34.1758 279.13 34.1758ZM278.875 26.0283C278.289 26.0283 277.814 26.2334 277.451 26.6436C277.094 27.0537 276.865 27.625 276.766 28.3574H280.835V28.1992C280.788 27.4844 280.598 26.9453 280.264 26.582C279.93 26.2129 279.467 26.0283 278.875 26.0283ZM290.669 26.4414C290.388 26.3945 290.097 26.3711 289.799 26.3711C288.82 26.3711 288.161 26.7461 287.821 27.4961V34H285.685V24.4902H287.724L287.777 25.5537C288.293 24.7275 289.008 24.3145 289.922 24.3145C290.226 24.3145 290.478 24.3555 290.678 24.4375L290.669 26.4414ZM296.829 32.4707C297.362 32.4707 297.804 32.3154 298.156 32.0049C298.508 31.6943 298.695 31.3105 298.719 30.8535H300.731C300.708 31.4453 300.523 31.999 300.178 32.5146C299.832 33.0244 299.363 33.4287 298.771 33.7275C298.179 34.0264 297.541 34.1758 296.855 34.1758C295.525 34.1758 294.47 33.7451 293.691 32.8838C292.912 32.0225 292.522 30.833 292.522 29.3154V29.0957C292.522 27.6484 292.909 26.4912 293.682 25.624C294.456 24.751 295.511 24.3145 296.846 24.3145C297.977 24.3145 298.897 24.6455 299.606 25.3076C300.321 25.9639 300.696 26.8281 300.731 27.9004H298.719C298.695 27.3555 298.508 26.9072 298.156 26.5557C297.81 26.2041 297.368 26.0283 296.829 26.0283C296.137 26.0283 295.604 26.2803 295.229 26.7842C294.854 27.2822 294.664 28.041 294.658 29.0605V29.4033C294.658 30.4346 294.843 31.2051 295.212 31.7148C295.587 32.2188 296.126 32.4707 296.829 32.4707ZM305.529 25.5273C306.226 24.7188 307.108 24.3145 308.174 24.3145C310.202 24.3145 311.23 25.4717 311.259 27.7861V34H309.124V27.8652C309.124 27.209 308.98 26.7461 308.693 26.4766C308.412 26.2012 307.996 26.0635 307.445 26.0635C306.59 26.0635 305.951 26.4443 305.529 27.2061V34H303.393V20.5H305.529V25.5273ZM320.188 34C320.094 33.8184 320.012 33.5225 319.942 33.1123C319.262 33.8213 318.43 34.1758 317.446 34.1758C316.491 34.1758 315.712 33.9033 315.108 33.3584C314.504 32.8135 314.203 32.1396 314.203 31.3369C314.203 30.3232 314.578 29.5469 315.328 29.0078C316.084 28.4629 317.162 28.1904 318.562 28.1904H319.872V27.5664C319.872 27.0742 319.734 26.6816 319.459 26.3887C319.183 26.0898 318.764 25.9404 318.202 25.9404C317.715 25.9404 317.317 26.0635 317.006 26.3096C316.696 26.5498 316.541 26.8574 316.541 27.2324H314.405C314.405 26.7109 314.578 26.2246 314.923 25.7734C315.269 25.3164 315.738 24.959 316.33 24.7012C316.927 24.4434 317.592 24.3145 318.325 24.3145C319.438 24.3145 320.326 24.5957 320.988 25.1582C321.65 25.7148 321.99 26.5 322.007 27.5137V31.8027C322.007 32.6582 322.128 33.3408 322.368 33.8506V34H320.188ZM317.841 32.4619C318.263 32.4619 318.659 32.3594 319.028 32.1543C319.403 31.9492 319.684 31.6738 319.872 31.3281V29.5352H318.72C317.929 29.5352 317.335 29.6729 316.936 29.9482C316.538 30.2236 316.338 30.6133 316.338 31.1172C316.338 31.5273 316.473 31.8555 316.743 32.1016C317.018 32.3418 317.384 32.4619 317.841 32.4619ZM327.306 24.4902L327.368 25.5889C328.071 24.7393 328.994 24.3145 330.136 24.3145C332.117 24.3145 333.125 25.4482 333.16 27.7158V34H331.024V27.8389C331.024 27.2354 330.892 26.79 330.628 26.5029C330.371 26.21 329.946 26.0635 329.354 26.0635C328.493 26.0635 327.851 26.4531 327.429 27.2324V34H325.293V24.4902H327.306ZM339.1 22.1787V24.4902H340.779V26.0723H339.1V31.3809C339.1 31.7441 339.17 32.0078 339.311 32.1719C339.457 32.3301 339.715 32.4092 340.084 32.4092C340.331 32.4092 340.58 32.3799 340.831 32.3213V33.9736C340.345 34.1084 339.876 34.1758 339.425 34.1758C337.785 34.1758 336.964 33.2705 336.964 31.46V26.0723H335.4V24.4902H336.964V22.1787H339.1ZM348.828 31.416C348.828 31.0352 348.67 30.7451 348.354 30.5459C348.043 30.3467 347.525 30.1709 346.798 30.0186C346.072 29.8662 345.465 29.6729 344.979 29.4385C343.912 28.9229 343.379 28.1758 343.379 27.1973C343.379 26.377 343.725 25.6914 344.416 25.1406C345.108 24.5898 345.987 24.3145 347.053 24.3145C348.19 24.3145 349.107 24.5957 349.804 25.1582C350.507 25.7207 350.859 26.4502 350.859 27.3467H348.723C348.723 26.9365 348.571 26.5967 348.266 26.3271C347.961 26.0518 347.557 25.9141 347.053 25.9141C346.584 25.9141 346.201 26.0225 345.902 26.2393C345.609 26.4561 345.462 26.7461 345.462 27.1094C345.462 27.4375 345.6 27.6924 345.875 27.874C346.151 28.0557 346.707 28.2402 347.545 28.4277C348.383 28.6094 349.039 28.8291 349.514 29.0869C349.994 29.3389 350.349 29.6436 350.577 30.001C350.812 30.3584 350.929 30.792 350.929 31.3018C350.929 32.1572 350.575 32.8516 349.866 33.3848C349.157 33.9121 348.228 34.1758 347.079 34.1758C346.3 34.1758 345.606 34.0352 344.996 33.7539C344.387 33.4727 343.912 33.0859 343.573 32.5938C343.233 32.1016 343.063 31.5713 343.063 31.0029H345.137C345.166 31.5068 345.357 31.8965 345.708 32.1719C346.06 32.4414 346.526 32.5762 347.106 32.5762C347.668 32.5762 348.096 32.4707 348.389 32.2598C348.682 32.043 348.828 31.7617 348.828 31.416Z" fill="white"/>
<path d="M67.8785 35.7358H80.4332V37.5518H65.7133V12.128H67.8785V35.7358ZM98.1544 37.5518C97.9449 36.9581 97.811 36.0792 97.7528 34.9151C97.0194 35.8696 96.0824 36.6088 94.9415 37.1327C93.8124 37.6449 92.6134 37.901 91.3445 37.901C89.5285 37.901 88.0559 37.3946 86.9268 36.3818C85.8092 35.3691 85.2505 34.0886 85.2505 32.5403C85.2505 30.7011 86.013 29.246 87.5379 28.175C89.0745 27.104 91.2106 26.5685 93.9462 26.5685H97.7354V24.4208C97.7354 23.0704 97.3163 22.0111 96.4781 21.2428C95.6516 20.4629 94.441 20.0729 92.8462 20.0729C91.3911 20.0729 90.1862 20.4454 89.2317 21.1904C88.2771 21.9355 87.7998 22.8318 87.7998 23.8795L85.7045 23.862C85.7045 22.3603 86.4029 21.0624 87.7998 19.9681C89.1967 18.8622 90.9138 18.3093 92.9509 18.3093C95.058 18.3093 96.7168 18.839 97.9274 19.8983C99.1497 20.946 99.7783 22.4127 99.8133 24.2986V33.2388C99.8133 35.0664 100.005 36.4342 100.389 37.3422V37.5518H98.1544ZM91.589 36.0501C92.9859 36.0501 94.2314 35.7125 95.3257 35.0373C96.4316 34.3621 97.2348 33.46 97.7354 32.3308V28.175H93.9986C91.9149 28.1983 90.2852 28.5824 89.1094 29.3274C87.9337 30.0608 87.3458 31.0736 87.3458 32.3657C87.3458 33.425 87.7358 34.3039 88.5158 35.0024C89.3073 35.7008 90.3317 36.0501 91.589 36.0501ZM122.755 28.2972C122.755 31.2424 122.104 33.5822 120.8 35.3167C119.496 37.0396 117.744 37.901 115.544 37.901C112.913 37.901 110.922 36.9231 109.572 34.9675L109.485 37.5518H107.529V10.7311H109.607V21.4C110.934 19.3395 112.901 18.3093 115.509 18.3093C117.744 18.3093 119.508 19.1649 120.8 20.8761C122.104 22.5757 122.755 24.9446 122.755 27.9829V28.2972ZM120.66 27.9305C120.66 25.4394 120.177 23.5186 119.211 22.1683C118.245 20.8063 116.883 20.1253 115.125 20.1253C113.786 20.1253 112.651 20.4571 111.72 21.1206C110.789 21.7725 110.084 22.7329 109.607 24.0017V32.5229C110.655 34.8976 112.506 36.085 115.16 36.085C116.883 36.085 118.227 35.404 119.193 34.042C120.171 32.68 120.66 30.6429 120.66 27.9305ZM141.455 37.5518C141.245 36.9581 141.111 36.0792 141.053 34.9151C140.32 35.8696 139.382 36.6088 138.242 37.1327C137.112 37.6449 135.913 37.901 134.645 37.901C132.829 37.901 131.356 37.3946 130.227 36.3818C129.109 35.3691 128.551 34.0886 128.551 32.5403C128.551 30.7011 129.313 29.246 130.838 28.175C132.375 27.104 134.511 26.5685 137.246 26.5685H141.035V24.4208C141.035 23.0704 140.616 22.0111 139.778 21.2428C138.952 20.4629 137.741 20.0729 136.146 20.0729C134.691 20.0729 133.486 20.4454 132.532 21.1904C131.577 21.9355 131.1 22.8318 131.1 23.8795L129.005 23.862C129.005 22.3603 129.703 21.0624 131.1 19.9681C132.497 18.8622 134.214 18.3093 136.251 18.3093C138.358 18.3093 140.017 18.839 141.228 19.8983C142.45 20.946 143.078 22.4127 143.113 24.2986V33.2388C143.113 35.0664 143.305 36.4342 143.69 37.3422V37.5518H141.455ZM134.889 36.0501C136.286 36.0501 137.532 35.7125 138.626 35.0373C139.732 34.3621 140.535 33.46 141.035 32.3308V28.175H137.299C135.215 28.1983 133.585 28.5824 132.41 29.3274C131.234 30.0608 130.646 31.0736 130.646 32.3657C130.646 33.425 131.036 34.3039 131.816 35.0024C132.607 35.7008 133.632 36.0501 134.889 36.0501ZM153.186 37.5518H151.091V10.7311H153.186V37.5518ZM172.951 37.5518C172.741 36.9581 172.607 36.0792 172.549 34.9151C171.816 35.8696 170.879 36.6088 169.738 37.1327C168.609 37.6449 167.41 37.901 166.141 37.901C164.325 37.901 162.852 37.3946 161.723 36.3818C160.605 35.3691 160.047 34.0886 160.047 32.5403C160.047 30.7011 160.809 29.246 162.334 28.175C163.871 27.104 166.007 26.5685 168.742 26.5685H172.532V24.4208C172.532 23.0704 172.113 22.0111 171.274 21.2428C170.448 20.4629 169.237 20.0729 167.642 20.0729C166.187 20.0729 164.982 20.4454 164.028 21.1904C163.073 21.9355 162.596 22.8318 162.596 23.8795L160.501 23.862C160.501 22.3603 161.199 21.0624 162.596 19.9681C163.993 18.8622 165.71 18.3093 167.747 18.3093C169.854 18.3093 171.513 18.839 172.724 19.8983C173.946 20.946 174.575 22.4127 174.61 24.2986V33.2388C174.61 35.0664 174.802 36.4342 175.186 37.3422V37.5518H172.951ZM166.385 36.0501C167.782 36.0501 169.028 35.7125 170.122 35.0373C171.228 34.3621 172.031 33.46 172.532 32.3308V28.175H168.795C166.711 28.1983 165.081 28.5824 163.906 29.3274C162.73 30.0608 162.142 31.0736 162.142 32.3657C162.142 33.425 162.532 34.3039 163.312 35.0024C164.104 35.7008 165.128 36.0501 166.385 36.0501ZM197.552 28.2972C197.552 31.2424 196.9 33.5822 195.596 35.3167C194.292 37.0396 192.54 37.901 190.34 37.901C187.709 37.901 185.719 36.9231 184.368 34.9675L184.281 37.5518H182.325V10.7311H184.403V21.4C185.73 19.3395 187.698 18.3093 190.305 18.3093C192.54 18.3093 194.304 19.1649 195.596 20.8761C196.9 22.5757 197.552 24.9446 197.552 27.9829V28.2972ZM195.456 27.9305C195.456 25.4394 194.973 23.5186 194.007 22.1683C193.041 20.8063 191.679 20.1253 189.921 20.1253C188.582 20.1253 187.447 20.4571 186.516 21.1206C185.585 21.7725 184.881 22.7329 184.403 24.0017V32.5229C185.451 34.8976 187.302 36.085 189.956 36.085C191.679 36.085 193.023 35.404 193.99 34.042C194.967 32.68 195.456 30.6429 195.456 27.9305ZM216.251 37.5518C216.041 36.9581 215.907 36.0792 215.849 34.9151C215.116 35.8696 214.179 36.6088 213.038 37.1327C211.909 37.6449 210.71 37.901 209.441 37.901C207.625 37.901 206.152 37.3946 205.023 36.3818C203.906 35.3691 203.347 34.0886 203.347 32.5403C203.347 30.7011 204.109 29.246 205.634 28.175C207.171 27.104 209.307 26.5685 212.043 26.5685H215.832V24.4208C215.832 23.0704 215.413 22.0111 214.574 21.2428C213.748 20.4629 212.537 20.0729 210.942 20.0729C209.487 20.0729 208.283 20.4454 207.328 21.1904C206.373 21.9355 205.896 22.8318 205.896 23.8795L203.801 23.862C203.801 22.3603 204.499 21.0624 205.896 19.9681C207.293 18.8622 209.01 18.3093 211.047 18.3093C213.154 18.3093 214.813 18.839 216.024 19.8983C217.246 20.946 217.875 22.4127 217.91 24.2986V33.2388C217.91 35.0664 218.102 36.4342 218.486 37.3422V37.5518H216.251ZM209.685 36.0501C211.082 36.0501 212.328 35.7125 213.422 35.0373C214.528 34.3621 215.331 33.46 215.832 32.3308V28.175H212.095C210.011 28.1983 208.381 28.5824 207.206 29.3274C206.03 30.0608 205.442 31.0736 205.442 32.3657C205.442 33.425 205.832 34.3039 206.612 35.0024C207.404 35.7008 208.428 36.0501 209.685 36.0501Z" fill="white"/>
<path d="M8.87532 12.9867C14.3241 11.9547 19.3422 16.699 20.6681 18.8184C17.8555 20.6747 15.9173 22.1606 9.26295 21.9668C2.60858 21.773 0.620217 17.6355 0.620217 17.6355C0.620217 17.6355 3.42651 14.0186 8.87532 12.9867Z" fill="white"/>
<path d="M43.5884 12.9867C38.1396 11.9547 33.1216 16.699 31.7956 18.8184C34.6083 20.6747 36.5464 22.1606 43.2008 21.9668C49.8552 21.773 51.8435 17.6355 51.8435 17.6355C51.8435 17.6355 49.0372 14.0186 43.5884 12.9867Z" fill="white"/>
<path d="M24.5778 22.0695C25.7491 28.1515 23.7101 34.5956 20.7629 37.3813C16.9899 40.9476 15.9174 41.9037 15.9174 41.9037C15.9174 41.9037 15.8845 41.7997 15.8285 41.6094C15.3789 40.0798 13.4415 32.9741 15.1422 29.4348C17.3341 24.8732 21.8078 22.4845 24.5778 22.0695C24.8286 22.032 25.0654 22.0106 25.2852 22.0052C26.1448 21.9842 27.0657 22.0109 27.9991 22.1382C29.9422 22.4031 31.9401 23.104 33.5547 24.7186C35.9451 27.1091 38.0125 29.8871 37.8833 34.8617C37.7799 38.8414 36.8927 41.0854 36.462 41.7099C34.0501 40.2455 29.0194 36.1797 28.1925 31.6314C27.6932 28.8852 27.42 25.4756 27.9991 22.1382C27.0657 22.0109 26.1448 21.9842 25.2852 22.0052C25.0654 22.0106 24.8286 22.032 24.5778 22.0695Z" fill="white"/>
<path d="M1.83344 11.0869C4.26691 9.27793 11.0074 7.00382 18.5017 12.379C27.8695 19.098 25.4791 32.9235 20.7629 37.3813C16.9899 40.9476 15.9174 41.9037 15.9174 41.9037M15.9174 41.9037C15.9174 41.9037 15.8845 41.7997 15.8285 41.6094M15.9174 41.9037L15.8285 41.6094M50.869 10.9648C50.4168 10.4479 47.8326 9.47174 47.5741 9.47173C45.0545 8.89028 38.7232 8.69648 33.5547 12.5728C27.0942 17.4182 27.1588 25.9462 28.1925 31.6314C29.0194 36.1797 34.0501 40.2455 36.462 41.7099C36.8927 41.0854 37.7799 38.8414 37.8833 34.8617C38.0125 29.8871 35.9451 27.1091 33.5547 24.7186C31.1643 22.3282 27.9341 21.9406 25.2852 22.0052C22.6364 22.0698 17.5326 24.4602 15.1422 29.4348C13.4415 32.9741 15.3789 40.0798 15.8285 41.6094" stroke="white" stroke-width="0.528156" stroke-linecap="round" stroke-linejoin="round"/>
<path d="M219.395 13.6475C219.395 13.0282 219.538 12.4533 219.823 11.9229C220.111 11.3925 220.508 10.9756 221.014 10.6721C221.523 10.3655 222.072 10.2122 222.661 10.2122C223.249 10.2122 223.797 10.3655 224.302 10.6721C224.811 10.9756 225.208 11.3925 225.493 11.9229C225.782 12.4533 225.926 13.0282 225.926 13.6475C225.926 14.2729 225.78 14.8524 225.489 15.3858C225.198 15.9162 224.799 16.3332 224.293 16.6367C223.79 16.9402 223.246 17.092 222.661 17.092C222.069 17.092 221.52 16.9387 221.014 16.6321C220.511 16.3255 220.116 15.907 219.828 15.3766C219.54 14.8462 219.395 14.2699 219.395 13.6475ZM225.36 13.6475C225.36 13.1386 225.245 12.6664 225.015 12.2311C224.785 11.7926 224.46 11.4431 224.04 11.1825C223.62 10.9189 223.16 10.787 222.661 10.787C222.173 10.787 221.719 10.9127 221.299 11.1641C220.882 11.4155 220.554 11.762 220.315 12.2035C220.076 12.6449 219.957 13.1263 219.957 13.6475C219.957 14.1687 220.075 14.65 220.311 15.0915C220.55 15.533 220.878 15.8825 221.295 16.14C221.715 16.3945 222.17 16.5217 222.661 16.5217C223.151 16.5217 223.606 16.3914 224.026 16.1308C224.45 15.8702 224.778 15.5192 225.011 15.0777C225.244 14.6362 225.36 14.1595 225.36 13.6475ZM221.998 13.997V15.5468H221.304V11.6378H222.596C223.059 11.6378 223.424 11.7436 223.691 11.9551C223.957 12.1636 224.091 12.461 224.091 12.8473C224.091 13.1907 223.918 13.4574 223.571 13.6475C223.758 13.7425 223.889 13.8759 223.962 14.0476C224.039 14.2162 224.077 14.4262 224.077 14.6776C224.077 14.929 224.082 15.1068 224.091 15.2111C224.103 15.3153 224.125 15.4027 224.155 15.4732V15.5468H223.442C223.403 15.4425 223.383 15.1452 223.383 14.6546C223.383 14.4216 223.332 14.2545 223.231 14.1534C223.13 14.0491 222.961 13.997 222.725 13.997H221.998ZM221.998 13.3808H222.624C222.851 13.3808 223.036 13.3317 223.18 13.2336C223.327 13.1355 223.401 13.0067 223.401 12.8473C223.401 12.6327 223.346 12.4809 223.235 12.392C223.128 12.3 222.932 12.2525 222.647 12.2495H221.998V13.3808Z" fill="white"/>
<rect x="241" width="2" height="51" fill="white"/>
</svg>
