<svg width="179" height="34" viewBox="0 0 179 34" fill="none" xmlns="http://www.w3.org/2000/svg">
<path d="M53.5251 24.568H63.4251V26H51.8177V5.95216H53.5251V24.568ZM77.3991 26C77.2338 25.5318 77.1283 24.8388 77.0824 23.9209C76.5041 24.6736 75.7651 25.2565 74.8655 25.6695C73.9751 26.0734 73.0297 26.2754 72.0291 26.2754C70.5971 26.2754 69.4359 25.8761 68.5455 25.0775C67.6643 24.2789 67.2237 23.2691 67.2237 22.0483C67.2237 20.5979 67.8249 19.4505 69.0274 18.606C70.2391 17.7615 71.9235 17.3392 74.0807 17.3392H77.0686V15.6456C77.0686 14.5808 76.7381 13.7455 76.0772 13.1396C75.4255 12.5246 74.4708 12.2171 73.2133 12.2171C72.0658 12.2171 71.1158 12.5109 70.363 13.0983C69.6103 13.6858 69.234 14.3926 69.234 15.2188L67.5817 15.205C67.5817 14.0209 68.1325 12.9974 69.234 12.1345C70.3355 11.2625 71.6895 10.8264 73.2959 10.8264C74.9573 10.8264 76.2654 11.2441 77.2201 12.0794C78.1839 12.9056 78.6796 14.0622 78.7071 15.5492V22.599C78.7071 24.0402 78.8586 25.1188 79.1615 25.8348V26H77.3991ZM72.2219 24.8159C73.3234 24.8159 74.3056 24.5497 75.1685 24.0172C76.0405 23.4848 76.6739 22.7734 77.0686 21.883V18.606H74.122C72.4789 18.6243 71.1938 18.9273 70.2667 19.5147C69.3395 20.093 68.876 20.8917 68.876 21.9106C68.876 22.7459 69.1835 23.4389 69.7985 23.9897C70.4227 24.5405 71.2305 24.8159 72.2219 24.8159ZM96.7981 18.7024C96.7981 21.0248 96.2841 22.8698 95.256 24.2376C94.2279 25.5961 92.8464 26.2754 91.1115 26.2754C89.0369 26.2754 87.4672 25.5043 86.4024 23.9622L86.3336 26H84.7914V4.85063H86.43V13.2636C87.4764 11.6388 89.0277 10.8264 91.0839 10.8264C92.8464 10.8264 94.237 11.5011 95.256 12.8505C96.2841 14.1907 96.7981 16.0587 96.7981 18.4545V18.7024ZM95.1458 18.4132C95.1458 16.4488 94.7649 14.9342 94.003 13.8694C93.2411 12.7954 92.1671 12.2584 90.781 12.2584C89.7254 12.2584 88.8304 12.52 88.096 13.0433C87.3617 13.5573 86.8063 14.3146 86.43 15.3152V22.0345C87.2561 23.9071 88.7156 24.8434 90.8085 24.8434C92.1671 24.8434 93.2273 24.3064 93.9892 23.2324C94.7603 22.1584 95.1458 20.552 95.1458 18.4132ZM111.543 26C111.378 25.5318 111.272 24.8388 111.226 23.9209C110.648 24.6736 109.909 25.2565 109.01 25.6695C108.119 26.0734 107.174 26.2754 106.173 26.2754C104.741 26.2754 103.58 25.8761 102.69 25.0775C101.808 24.2789 101.368 23.2691 101.368 22.0483C101.368 20.5979 101.969 19.4505 103.172 18.606C104.383 17.7615 106.068 17.3392 108.225 17.3392H111.213V15.6456C111.213 14.5808 110.882 13.7455 110.221 13.1396C109.57 12.5246 108.615 12.2171 107.357 12.2171C106.21 12.2171 105.26 12.5109 104.507 13.0983C103.754 13.6858 103.378 14.3926 103.378 15.2188L101.726 15.205C101.726 14.0209 102.277 12.9974 103.378 12.1345C104.48 11.2625 105.834 10.8264 107.44 10.8264C109.101 10.8264 110.41 11.2441 111.364 12.0794C112.328 12.9056 112.824 14.0622 112.851 15.5492V22.599C112.851 24.0402 113.003 25.1188 113.306 25.8348V26H111.543ZM106.366 24.8159C107.468 24.8159 108.45 24.5497 109.313 24.0172C110.185 23.4848 110.818 22.7734 111.213 21.883V18.606H108.266C106.623 18.6243 105.338 18.9273 104.411 19.5147C103.484 20.093 103.02 20.8917 103.02 21.9106C103.02 22.7459 103.328 23.4389 103.943 23.9897C104.567 24.5405 105.375 24.8159 106.366 24.8159ZM120.794 26H119.142V4.85063H120.794V26ZM136.379 26C136.214 25.5318 136.109 24.8388 136.063 23.9209C135.484 24.6736 134.745 25.2565 133.846 25.6695C132.955 26.0734 132.01 26.2754 131.009 26.2754C129.577 26.2754 128.416 25.8761 127.526 25.0775C126.645 24.2789 126.204 23.2691 126.204 22.0483C126.204 20.5979 126.805 19.4505 128.008 18.606C129.219 17.7615 130.904 17.3392 133.061 17.3392H136.049V15.6456C136.049 14.5808 135.718 13.7455 135.058 13.1396C134.406 12.5246 133.451 12.2171 132.194 12.2171C131.046 12.2171 130.096 12.5109 129.343 13.0983C128.591 13.6858 128.214 14.3926 128.214 15.2188L126.562 15.205C126.562 14.0209 127.113 12.9974 128.214 12.1345C129.316 11.2625 130.67 10.8264 132.276 10.8264C133.938 10.8264 135.246 11.2441 136.2 12.0794C137.164 12.9056 137.66 14.0622 137.687 15.5492V22.599C137.687 24.0402 137.839 25.1188 138.142 25.8348V26H136.379ZM131.202 24.8159C132.304 24.8159 133.286 24.5497 134.149 24.0172C135.021 23.4848 135.654 22.7734 136.049 21.883V18.606H133.102C131.459 18.6243 130.174 18.9273 129.247 19.5147C128.32 20.093 127.856 20.8917 127.856 21.9106C127.856 22.7459 128.164 23.4389 128.779 23.9897C129.403 24.5405 130.211 24.8159 131.202 24.8159ZM155.778 18.7024C155.778 21.0248 155.264 22.8698 154.236 24.2376C153.208 25.5961 151.827 26.2754 150.092 26.2754C148.017 26.2754 146.448 25.5043 145.383 23.9622L145.314 26H143.772V4.85063H145.41V13.2636C146.457 11.6388 148.008 10.8264 150.064 10.8264C151.827 10.8264 153.217 11.5011 154.236 12.8505C155.264 14.1907 155.778 16.0587 155.778 18.4545V18.7024ZM154.126 18.4132C154.126 16.4488 153.745 14.9342 152.983 13.8694C152.221 12.7954 151.147 12.2584 149.761 12.2584C148.706 12.2584 147.811 12.52 147.076 13.0433C146.342 13.5573 145.787 14.3146 145.41 15.3152V22.0345C146.236 23.9071 147.696 24.8434 149.789 24.8434C151.147 24.8434 152.208 24.3064 152.969 23.2324C153.741 22.1584 154.126 20.552 154.126 18.4132ZM170.523 26C170.358 25.5318 170.253 24.8388 170.207 23.9209C169.628 24.6736 168.89 25.2565 167.99 25.6695C167.1 26.0734 166.154 26.2754 165.154 26.2754C163.722 26.2754 162.56 25.8761 161.67 25.0775C160.789 24.2789 160.348 23.2691 160.348 22.0483C160.348 20.5979 160.949 19.4505 162.152 18.606C163.364 17.7615 165.048 17.3392 167.205 17.3392H170.193V15.6456C170.193 14.5808 169.863 13.7455 169.202 13.1396C168.55 12.5246 167.595 12.2171 166.338 12.2171C165.19 12.2171 164.24 12.5109 163.487 13.0983C162.735 13.6858 162.358 14.3926 162.358 15.2188L160.706 15.205C160.706 14.0209 161.257 12.9974 162.358 12.1345C163.46 11.2625 164.814 10.8264 166.42 10.8264C168.082 10.8264 169.39 11.2441 170.344 12.0794C171.308 12.9056 171.804 14.0622 171.832 15.5492V22.599C171.832 24.0402 171.983 25.1188 172.286 25.8348V26H170.523ZM165.346 24.8159C166.448 24.8159 167.43 24.5497 168.293 24.0172C169.165 23.4848 169.798 22.7734 170.193 21.883V18.606H167.246C165.603 18.6243 164.318 18.9273 163.391 19.5147C162.464 20.093 162 20.8917 162 21.9106C162 22.7459 162.308 23.4389 162.923 23.9897C163.547 24.5405 164.355 24.8159 165.346 24.8159Z" fill="white"/>
<path d="M6.99861 6.65136C11.2953 5.83762 15.2522 9.57869 16.2978 11.25C14.0799 12.7137 12.5516 13.8855 7.30428 13.7326C2.05701 13.5798 0.489085 10.3172 0.489085 10.3172C0.489085 10.3172 2.70198 7.46509 6.99861 6.65136Z" fill="white"/>
<path d="M34.3715 6.65136C30.0749 5.83762 26.1179 9.57869 25.0723 11.25C27.2902 12.7137 28.8186 13.8855 34.0658 13.7326C39.3131 13.5798 40.881 10.3172 40.881 10.3172C40.881 10.3172 38.6681 7.46509 34.3715 6.65136Z" fill="white"/>
<path d="M19.3803 13.8135C20.3039 18.6094 18.6961 23.6909 16.372 25.8876C13.3969 28.6997 12.5512 29.4537 12.5512 29.4537C12.5512 29.4537 12.5252 29.3717 12.4811 29.2216C12.1265 28.0154 10.5988 22.4122 11.9399 19.6214C13.6683 16.0243 17.196 14.1407 19.3803 13.8135C19.578 13.7839 19.7648 13.767 19.9381 13.7628C20.616 13.7463 21.3421 13.7673 22.0782 13.8676C23.6104 14.0766 25.1858 14.6292 26.459 15.9025C28.344 17.7874 29.9742 19.978 29.8723 23.9007C29.7908 27.0389 29.0912 28.8084 28.7515 29.3008C26.8496 28.1461 22.8827 24.94 22.2306 21.3535C21.8369 19.1879 21.6215 16.4993 22.0782 13.8676C21.3421 13.7673 20.616 13.7463 19.9381 13.7628C19.7648 13.767 19.578 13.7839 19.3803 13.8135Z" fill="white"/>
<path d="M1.44531 5.15318C3.36422 3.72674 8.67942 1.9335 14.589 6.17207C21.9759 11.4703 20.091 22.3724 16.372 25.8876C13.3969 28.6997 12.5512 29.4537 12.5512 29.4537M12.5512 29.4537C12.5512 29.4537 12.5252 29.3717 12.4811 29.2216M12.5512 29.4537L12.4811 29.2216M40.1121 5.0569C39.7555 4.64934 37.7178 3.87957 37.514 3.87956C35.5271 3.42106 30.5346 3.26824 26.459 6.32491C21.3646 10.1457 21.4155 16.8704 22.2306 21.3535C22.8827 24.94 26.8496 28.1461 28.7515 29.3008C29.0912 28.8084 29.7908 27.0389 29.8723 23.9007C29.9742 19.978 28.344 17.7874 26.459 15.9025C24.5741 14.0175 22.0269 13.7118 19.9381 13.7628C17.8494 13.8137 13.8248 15.6987 11.9399 19.6214C10.5988 22.4122 12.1265 28.0154 12.4811 29.2216" stroke="white" stroke-width="0.416476" stroke-linecap="round" stroke-linejoin="round"/>
<path d="M173.003 7.07538C173.003 6.58703 173.116 6.13374 173.341 5.7155C173.568 5.29726 173.881 4.96847 174.28 4.72913C174.681 4.48737 175.114 4.36649 175.578 4.36649C176.042 4.36649 176.474 4.48737 176.873 4.72913C177.274 4.96847 177.587 5.29726 177.812 5.7155C178.039 6.13374 178.153 6.58703 178.153 7.07538C178.153 7.56856 178.038 8.02549 177.808 8.44614C177.579 8.86438 177.264 9.19317 176.865 9.43251C176.469 9.67185 176.04 9.79152 175.578 9.79152C175.111 9.79152 174.679 9.67064 174.28 9.42889C173.883 9.18713 173.571 8.85713 173.344 8.43889C173.117 8.02065 173.003 7.56615 173.003 7.07538ZM177.707 7.07538C177.707 6.67406 177.616 6.30176 177.435 5.95846C177.253 5.61275 176.997 5.33715 176.666 5.13165C176.335 4.92374 175.972 4.81979 175.578 4.81979C175.194 4.81979 174.836 4.91891 174.505 5.11715C174.176 5.31539 173.917 5.58857 173.729 5.9367C173.54 6.28483 173.446 6.66439 173.446 7.07538C173.446 7.48637 173.539 7.86593 173.725 8.21406C173.913 8.56219 174.172 8.83779 174.501 9.04087C174.832 9.24152 175.191 9.34185 175.578 9.34185C175.965 9.34185 176.324 9.23911 176.655 9.03361C176.989 8.82812 177.247 8.55131 177.431 8.20318C177.615 7.85505 177.707 7.47911 177.707 7.07538ZM175.056 7.35098V8.57307H174.508V5.49066H175.527C175.892 5.49066 176.18 5.57407 176.39 5.74088C176.601 5.90528 176.706 6.13978 176.706 6.44439C176.706 6.71516 176.569 6.92549 176.296 7.07538C176.443 7.15033 176.546 7.25549 176.604 7.39087C176.665 7.52384 176.695 7.68944 176.695 7.88768C176.695 8.08592 176.699 8.22614 176.706 8.30834C176.715 8.39054 176.732 8.45944 176.757 8.51504V8.57307H176.194C176.163 8.49087 176.147 8.25636 176.147 7.86955C176.147 7.68582 176.107 7.55406 176.028 7.47428C175.948 7.39208 175.815 7.35098 175.629 7.35098H175.056ZM175.056 6.86505H175.549C175.728 6.86505 175.874 6.82637 175.988 6.74901C176.104 6.67165 176.162 6.57011 176.162 6.44439C176.162 6.27516 176.118 6.15549 176.031 6.08539C175.947 6.01286 175.792 5.97539 175.567 5.97297H175.056V6.86505Z" fill="white"/>
</svg>
