<svg width="227" height="43" viewBox="0 0 227 43" fill="none" xmlns="http://www.w3.org/2000/svg">
<path d="M67.8786 31.7357H80.4333V33.5517H65.7134V8.12792H67.8786V31.7357ZM98.1546 33.5517C97.945 32.958 97.8112 32.0791 97.7529 30.915C97.0196 31.8696 96.0825 32.6088 94.9417 33.1326C93.8125 33.6448 92.6135 33.9009 91.3446 33.9009C89.5286 33.9009 88.0561 33.3946 86.9269 32.3818C85.8094 31.369 85.2506 30.0885 85.2506 28.5403C85.2506 26.701 86.0131 25.2459 87.538 24.1749C89.0746 23.104 91.2107 22.5685 93.9464 22.5685H97.7355V20.4207C97.7355 19.0704 97.3164 18.0111 96.4783 17.2428C95.6518 16.4628 94.4411 16.0729 92.8463 16.0729C91.3912 16.0729 90.1863 16.4454 89.2318 17.1904C88.2772 17.9354 87.8 18.8318 87.8 19.8794L85.7046 19.862C85.7046 18.3603 86.403 17.0623 87.8 15.9681C89.1969 14.8622 90.9139 14.3093 92.9511 14.3093C95.0581 14.3093 96.7169 14.8389 97.9276 15.8982C99.1499 16.9459 99.7785 18.4127 99.8134 20.2985V29.2388C99.8134 31.0664 100.005 32.4342 100.39 33.3422V33.5517H98.1546ZM91.5891 32.05C92.986 32.05 94.2316 31.7124 95.3258 31.0373C96.4317 30.3621 97.2349 29.4599 97.7355 28.3308V24.1749H93.9988C91.915 24.1982 90.2853 24.5824 89.1096 25.3274C87.9338 26.0608 87.346 27.0735 87.346 28.3657C87.346 29.425 87.7359 30.3039 88.5159 31.0024C89.3075 31.7008 90.3319 32.05 91.5891 32.05ZM122.756 24.2972C122.756 27.2423 122.104 29.5822 120.8 31.3167C119.496 33.0395 117.744 33.9009 115.544 33.9009C112.913 33.9009 110.923 32.9231 109.572 30.9674L109.485 33.5517H107.529V6.73101H109.607V17.3999C110.934 15.3395 112.902 14.3093 115.509 14.3093C117.744 14.3093 119.508 15.1649 120.8 16.8761C122.104 18.5757 122.756 20.9446 122.756 23.9829V24.2972ZM120.66 23.9305C120.66 21.4393 120.177 19.5186 119.211 18.1682C118.245 16.8062 116.883 16.1252 115.125 16.1252C113.786 16.1252 112.651 16.457 111.72 17.1205C110.789 17.7724 110.084 18.7328 109.607 20.0017V28.5228C110.655 30.8976 112.506 32.085 115.16 32.085C116.883 32.085 118.227 31.404 119.193 30.042C120.171 28.68 120.66 26.6428 120.66 23.9305ZM141.455 33.5517C141.245 32.958 141.111 32.0791 141.053 30.915C140.32 31.8696 139.383 32.6088 138.242 33.1326C137.113 33.6448 135.914 33.9009 134.645 33.9009C132.829 33.9009 131.356 33.3946 130.227 32.3818C129.109 31.369 128.551 30.0885 128.551 28.5403C128.551 26.701 129.313 25.2459 130.838 24.1749C132.375 23.104 134.511 22.5685 137.246 22.5685H141.036V20.4207C141.036 19.0704 140.616 18.0111 139.778 17.2428C138.952 16.4628 137.741 16.0729 136.146 16.0729C134.691 16.0729 133.486 16.4454 132.532 17.1904C131.577 17.9354 131.1 18.8318 131.1 19.8794L129.005 19.862C129.005 18.3603 129.703 17.0623 131.1 15.9681C132.497 14.8622 134.214 14.3093 136.251 14.3093C138.358 14.3093 140.017 14.8389 141.228 15.8982C142.45 16.9459 143.079 18.4127 143.113 20.2985V29.2388C143.113 31.0664 143.306 32.4342 143.69 33.3422V33.5517H141.455ZM134.889 32.05C136.286 32.05 137.532 31.7124 138.626 31.0373C139.732 30.3621 140.535 29.4599 141.036 28.3308V24.1749H137.299C135.215 24.1982 133.585 24.5824 132.41 25.3274C131.234 26.0608 130.646 27.0735 130.646 28.3657C130.646 29.425 131.036 30.3039 131.816 31.0024C132.608 31.7008 133.632 32.05 134.889 32.05ZM153.187 33.5517H151.091V6.73101H153.187V33.5517ZM172.951 33.5517C172.741 32.958 172.607 32.0791 172.549 30.915C171.816 31.8696 170.879 32.6088 169.738 33.1326C168.609 33.6448 167.41 33.9009 166.141 33.9009C164.325 33.9009 162.852 33.3946 161.723 32.3818C160.606 31.369 160.047 30.0885 160.047 28.5403C160.047 26.701 160.809 25.2459 162.334 24.1749C163.871 23.104 166.007 22.5685 168.743 22.5685H172.532V20.4207C172.532 19.0704 172.113 18.0111 171.274 17.2428C170.448 16.4628 169.237 16.0729 167.643 16.0729C166.187 16.0729 164.983 16.4454 164.028 17.1904C163.073 17.9354 162.596 18.8318 162.596 19.8794L160.501 19.862C160.501 18.3603 161.199 17.0623 162.596 15.9681C163.993 14.8622 165.71 14.3093 167.747 14.3093C169.854 14.3093 171.513 14.8389 172.724 15.8982C173.946 16.9459 174.575 18.4127 174.61 20.2985V29.2388C174.61 31.0664 174.802 32.4342 175.186 33.3422V33.5517H172.951ZM166.385 32.05C167.782 32.05 169.028 31.7124 170.122 31.0373C171.228 30.3621 172.031 29.4599 172.532 28.3308V24.1749H168.795C166.711 24.1982 165.082 24.5824 163.906 25.3274C162.73 26.0608 162.142 27.0735 162.142 28.3657C162.142 29.425 162.532 30.3039 163.312 31.0024C164.104 31.7008 165.128 32.05 166.385 32.05ZM197.552 24.2972C197.552 27.2423 196.9 29.5822 195.596 31.3167C194.292 33.0395 192.54 33.9009 190.34 33.9009C187.709 33.9009 185.719 32.9231 184.368 30.9674L184.281 33.5517H182.325V6.73101H184.403V17.3999C185.73 15.3395 187.698 14.3093 190.305 14.3093C192.54 14.3093 194.304 15.1649 195.596 16.8761C196.9 18.5757 197.552 20.9446 197.552 23.9829V24.2972ZM195.456 23.9305C195.456 21.4393 194.973 19.5186 194.007 18.1682C193.041 16.8062 191.679 16.1252 189.921 16.1252C188.582 16.1252 187.447 16.457 186.516 17.1205C185.585 17.7724 184.881 18.7328 184.403 20.0017V28.5228C185.451 30.8976 187.302 32.085 189.956 32.085C191.679 32.085 193.023 31.404 193.99 30.042C194.968 28.68 195.456 26.6428 195.456 23.9305ZM216.251 33.5517C216.041 32.958 215.907 32.0791 215.849 30.915C215.116 31.8696 214.179 32.6088 213.038 33.1326C211.909 33.6448 210.71 33.9009 209.441 33.9009C207.625 33.9009 206.152 33.3946 205.023 32.3818C203.906 31.369 203.347 30.0885 203.347 28.5403C203.347 26.701 204.109 25.2459 205.634 24.1749C207.171 23.104 209.307 22.5685 212.043 22.5685H215.832V20.4207C215.832 19.0704 215.413 18.0111 214.575 17.2428C213.748 16.4628 212.537 16.0729 210.943 16.0729C209.487 16.0729 208.283 16.4454 207.328 17.1904C206.374 17.9354 205.896 18.8318 205.896 19.8794L203.801 19.862C203.801 18.3603 204.499 17.0623 205.896 15.9681C207.293 14.8622 209.01 14.3093 211.047 14.3093C213.154 14.3093 214.813 14.8389 216.024 15.8982C217.246 16.9459 217.875 18.4127 217.91 20.2985V29.2388C217.91 31.0664 218.102 32.4342 218.486 33.3422V33.5517H216.251ZM209.685 32.05C211.082 32.05 212.328 31.7124 213.422 31.0373C214.528 30.3621 215.331 29.4599 215.832 28.3308V24.1749H212.095C210.011 24.1982 208.382 24.5824 207.206 25.3274C206.03 26.0608 205.442 27.0735 205.442 28.3657C205.442 29.425 205.832 30.3039 206.612 31.0024C207.404 31.7008 208.428 32.05 209.685 32.05Z" fill="white"/>
<path d="M8.87519 8.9866C14.324 7.95465 19.3421 12.6989 20.668 14.8184C17.8554 16.6747 15.9172 18.1606 9.26283 17.9668C2.60846 17.7729 0.620094 13.6355 0.620094 13.6355C0.620094 13.6355 3.42639 10.0185 8.87519 8.9866Z" fill="white"/>
<path d="M43.5882 8.9866C38.1394 7.95465 33.1213 12.6989 31.7954 14.8184C34.608 16.6747 36.5462 18.1606 43.2005 17.9668C49.8549 17.7729 51.8433 13.6355 51.8433 13.6355C51.8433 13.6355 49.037 10.0185 43.5882 8.9866Z" fill="white"/>
<path d="M24.5779 18.0695C25.7491 24.1515 23.7102 30.5956 20.7629 33.3813C16.99 36.9476 15.9175 37.9037 15.9175 37.9037C15.9175 37.9037 15.8846 37.7997 15.8286 37.6094C15.3789 36.0798 13.4416 28.9741 15.1422 25.4349C17.3342 20.8732 21.8078 18.4845 24.5779 18.0695C24.8286 18.032 25.0654 18.0106 25.2853 18.0052C26.1449 17.9843 27.0657 18.0109 27.9992 18.1382C29.9422 18.4031 31.9401 19.104 33.5548 20.7187C35.9452 23.1091 38.0126 25.8871 37.8834 30.8617C37.78 34.8414 36.8928 37.0854 36.4621 37.7099C34.0501 36.2455 29.0195 32.1797 28.1925 27.6314C27.6932 24.8852 27.42 21.4756 27.9992 18.1382C27.0657 18.0109 26.1449 17.9843 25.2853 18.0052C25.0654 18.0106 24.8286 18.032 24.5779 18.0695Z" fill="white"/>
<path d="M1.8335 7.08689C4.26697 5.27794 11.0075 3.00382 18.5017 8.379C27.8695 15.098 25.4791 28.9236 20.7629 33.3813C16.99 36.9476 15.9175 37.9037 15.9175 37.9037M15.9175 37.9037C15.9175 37.9037 15.8846 37.7997 15.8286 37.6094M15.9175 37.9037L15.8286 37.6094M50.8691 6.96478C50.4168 6.44794 47.8326 5.47174 47.5742 5.47174C45.0546 4.89029 38.7232 4.69649 33.5548 8.57282C27.0943 13.4182 27.1589 21.9462 28.1925 27.6314C29.0195 32.1797 34.0501 36.2455 36.4621 37.7099C36.8928 37.0854 37.78 34.8414 37.8834 30.8617C38.0126 25.8871 35.9452 23.1091 33.5548 20.7187C31.1644 18.3283 27.9341 17.9406 25.2853 18.0052C22.6365 18.0698 17.5326 20.4602 15.1422 25.4349C13.4416 28.9741 15.3789 36.0798 15.8286 37.6094" stroke="white" stroke-width="0.528156" stroke-linecap="round" stroke-linejoin="round"/>
<path d="M219.395 9.64748C219.395 9.02818 219.538 8.45333 219.823 7.92294C220.111 7.39255 220.508 6.97559 221.014 6.67207C221.523 6.36548 222.072 6.21219 222.661 6.21219C223.249 6.21219 223.797 6.36548 224.302 6.67207C224.811 6.97559 225.208 7.39255 225.493 7.92294C225.782 8.45333 225.926 9.02818 225.926 9.64748C225.926 10.2729 225.78 10.8524 225.489 11.3858C225.198 11.9162 224.799 12.3332 224.293 12.6367C223.79 12.9402 223.246 13.092 222.661 13.092C222.069 13.092 221.52 12.9387 221.014 12.6321C220.511 12.3255 220.116 11.907 219.828 11.3766C219.54 10.8462 219.395 10.2699 219.395 9.64748ZM225.36 9.64748C225.36 9.13855 225.245 8.66641 225.015 8.23106C224.785 7.79264 224.46 7.44313 224.04 7.18253C223.62 6.91887 223.16 6.78704 222.661 6.78704C222.173 6.78704 221.719 6.91274 221.299 7.16414C220.882 7.41554 220.554 7.76198 220.315 8.20347C220.076 8.64495 219.957 9.12629 219.957 9.64748C219.957 10.1687 220.075 10.65 220.311 11.0915C220.55 11.533 220.878 11.8825 221.295 12.14C221.715 12.3945 222.17 12.5217 222.661 12.5217C223.151 12.5217 223.606 12.3914 224.026 12.1308C224.45 11.8702 224.778 11.5192 225.011 11.0777C225.244 10.6362 225.36 10.1595 225.36 9.64748ZM221.998 9.99699V11.5468H221.304V7.63781H222.596C223.059 7.63781 223.424 7.74359 223.691 7.95513C223.957 8.16361 224.091 8.461 224.091 8.8473C224.091 9.19067 223.918 9.4574 223.571 9.64748C223.758 9.74253 223.889 9.87589 223.962 10.0476C224.039 10.2162 224.077 10.4262 224.077 10.6776C224.077 10.929 224.082 11.1068 224.091 11.2111C224.103 11.3153 224.125 11.4027 224.155 11.4732V11.5468H223.442C223.403 11.4425 223.383 11.1452 223.383 10.6546C223.383 10.4216 223.332 10.2545 223.231 10.1534C223.13 10.0491 222.961 9.99699 222.725 9.99699H221.998ZM221.998 9.38075H222.624C222.851 9.38075 223.036 9.3317 223.18 9.23359C223.327 9.13549 223.401 9.00672 223.401 8.8473C223.401 8.63269 223.346 8.48093 223.235 8.39202C223.128 8.30004 222.932 8.25252 222.647 8.24945H221.998V9.38075Z" fill="white"/>
</svg>
