<svg width="28" height="24" viewBox="0 0 28 24" fill="none" xmlns="http://www.w3.org/2000/svg">
<path d="M8.79792 16.0002H8.79917C8.80021 16.0002 8.80125 16 8.80229 16H23.3067C23.6638 16 23.9777 15.7631 24.0758 15.4198L27.2758 4.21979C27.3448 3.97833 27.2965 3.71875 27.1454 3.51833C26.9942 3.31792 26.7577 3.2 26.5067 3.2H6.95292L6.38104 0.626458C6.29958 0.260417 5.975 0 5.6 0H0.8C0.358125 0 0 0.358125 0 0.8C0 1.24188 0.358125 1.6 0.8 1.6H4.95833C5.05958 2.05604 7.695 13.9156 7.84667 14.5979C6.99646 14.9675 6.4 15.8152 6.4 16.8C6.4 18.1233 7.47667 19.2 8.8 19.2H23.3067C23.7485 19.2 24.1067 18.8419 24.1067 18.4C24.1067 17.9581 23.7485 17.6 23.3067 17.6H8.8C8.35896 17.6 8 17.241 8 16.8C8 16.3596 8.35771 16.0013 8.79792 16.0002ZM25.446 4.8L22.7031 14.4H9.44167L7.30833 4.8H25.446Z" fill="black"/>
<path d="M8 21.6C8 22.9233 9.07667 24 10.4 24C11.7233 24 12.8 22.9233 12.8 21.6C12.8 20.2767 11.7233 19.2 10.4 19.2C9.07667 19.2 8 20.2767 8 21.6ZM10.4 20.8C10.841 20.8 11.2 21.159 11.2 21.6C11.2 22.0411 10.841 22.4 10.4 22.4C9.95896 22.4 9.6 22.0411 9.6 21.6C9.6 21.159 9.95896 20.8 10.4 20.8Z" fill="black"/>
<path d="M19.3066 21.6C19.3066 22.9233 20.3833 24 21.7066 24C23.03 24 24.1066 22.9233 24.1066 21.6C24.1066 20.2767 23.03 19.2 21.7066 19.2C20.3833 19.2 19.3066 20.2767 19.3066 21.6ZM21.7066 20.8C22.1477 20.8 22.5066 21.159 22.5066 21.6C22.5066 22.0411 22.1477 22.4 21.7066 22.4C21.2656 22.4 20.9066 22.0411 20.9066 21.6C20.9066 21.159 21.2656 20.8 21.7066 20.8Z" fill="black"/>
</svg>
