<svg width="122" height="122" viewBox="0 0 122 122" fill="none" xmlns="http://www.w3.org/2000/svg">
<path d="M113.586 0H92.5518V113.586H113.586C118.233 113.586 122 109.819 122 105.172V8.41379C122 3.76731 118.233 0 113.586 0Z" fill="#259DD9"/>
<path d="M92.5517 0H37.862C33.2156 0 29.4482 3.76731 29.4482 8.41379V105.172C29.4482 109.819 33.2156 113.586 37.862 113.586H105.172C109.819 113.586 113.586 109.819 113.586 105.172V21.0345L92.5517 0Z" fill="#B4E7FD"/>
<path d="M48.3799 113.586H105.173C109.819 113.586 113.587 109.819 113.587 105.172V48.3793L48.3799 113.586Z" fill="#94D5F1"/>
<path d="M105.172 25.2414H113.585V21.0345L96.7578 4.20691V16.8276C96.7578 21.4741 100.525 25.2414 105.172 25.2414Z" fill="#5AC6D4"/>
<path d="M113.586 21.0345H100.966C96.3191 21.0345 92.5518 17.2672 92.5518 12.6207V0L113.586 21.0345Z" fill="#D3F1FE"/>
<path d="M61 12.6206H86.2414V16.8275H61V12.6206Z" fill="#3FB7C7"/>
<path d="M61 21.0344H73.6207V25.2413H61V21.0344Z" fill="#3FB7C7"/>
<path d="M77.8271 21.0344H86.2409V25.2413H77.8271V21.0344Z" fill="#3FB7C7"/>
<path d="M61 29.4482H86.2414V33.6551H61V29.4482Z" fill="#3FB7C7"/>
<path d="M105.173 46.2759V42.069H37.8623V46.2759H82.0347V52.5862H37.8623V56.7931H82.0347V63.1035H61.0002V67.3103H82.0347V73.6207H73.6209V77.8276H82.0347V84.1379H73.6209V88.3448H82.0347V94.6552H69.414V98.8621H105.173V94.6552H86.2416V88.3448H105.173V84.1379H86.2416V77.8276H105.173V73.6207H86.2416V67.3103H105.173V63.1035H86.2416V56.7931H105.173V52.5862H86.2416V46.2759H105.173Z" fill="#3FB7C7"/>
<path d="M69.4141 103.069H105.173V107.276H69.4141V103.069Z" fill="#3FB7C7"/>
<path d="M42.7203 35V27.0554H40.3091V25.077H42.7203V22.5422H40.3091V20.5637H42.7203V12.9283H45.9352L48.872 20.5637H52.5197V12.9283H54.9618V20.5637H57.373V22.5422H54.9618V25.077H57.373V27.0554H54.9618V35H51.7159L48.7792 27.0554H45.1315V35H42.7203ZM45.0697 20.5637H46.368L45.0697 16.7306H44.946L45.0697 20.5637ZM45.1315 25.077H48.0373L47.1099 22.5422H45.0697L45.1315 25.077ZM50.5103 25.077H52.5815L52.5197 22.5422H49.583L50.5103 25.077ZM52.5197 30.6413H52.6433L52.5506 27.0554H51.2522L52.5197 30.6413Z" fill="#3FB7C7"/>
<path d="M0 113.586H67.3103V122H0V113.586Z" fill="#4CB449"/>
<path d="M4.20703 84.1379H12.6208V113.586H4.20703V84.1379Z" fill="#4CB449"/>
<path d="M21.0342 84.1379H29.448V113.586H21.0342V84.1379Z" fill="#4CB449"/>
<path d="M37.8623 84.1379H46.2761V113.586H37.8623V84.1379Z" fill="#4CB449"/>
<path d="M54.6895 84.1379H63.1033V113.586H54.6895V84.1379Z" fill="#4CB449"/>
<path d="M67.3103 73.6207L33.6552 63.1035L0 73.6207V84.1379H67.3103V73.6207Z" fill="#4CB449"/>
<path d="M37.862 73.6207C37.862 75.9439 35.9784 77.8276 33.6551 77.8276C31.3319 77.8276 29.4482 75.9439 29.4482 73.6207C29.4482 71.2974 31.3319 69.4138 33.6551 69.4138C35.9784 69.4138 37.862 71.2974 37.862 73.6207Z" fill="white"/>
<path d="M4.20703 84.1379H12.6208V88.3448H4.20703V84.1379Z" fill="#31952E"/>
<path d="M21.0342 84.1379H29.448V88.3448H21.0342V84.1379Z" fill="#31952E"/>
<path d="M37.8623 84.1379H46.2761V88.3448H37.8623V84.1379Z" fill="#31952E"/>
<path d="M54.6895 84.1379H63.1033V88.3448H54.6895V84.1379Z" fill="#31952E"/>
</svg>
