<svg width="67" height="44" viewBox="0 0 67 44" fill="none" xmlns="http://www.w3.org/2000/svg">
<g opacity="0.3">
<path d="M11.6417 6.11495C18.5618 4.80438 24.9348 10.8296 26.6187 13.5214C23.0466 15.8789 20.5852 17.766 12.134 17.5199C3.68293 17.2737 1.15768 12.0191 1.15768 12.0191C1.15768 12.0191 4.7217 7.42553 11.6417 6.11495Z" fill="#12191D"/>
<path d="M55.7274 6.11495C48.8074 4.80438 42.4344 10.8296 40.7504 13.5214C44.3225 15.8789 46.784 17.766 55.2351 17.5199C63.6862 17.2737 66.2115 12.0191 66.2115 12.0191C66.2115 12.0191 62.6474 7.42553 55.7274 6.11495Z" fill="#12191D"/>
<path d="M31.5838 17.6501C33.0713 25.3742 30.4818 33.5583 26.7388 37.0962C21.9471 41.6254 20.5851 42.8397 20.5851 42.8397C20.5851 42.8397 20.5433 42.7076 20.4722 42.4659C19.9011 40.5233 17.4406 31.499 19.6005 27.0041C22.3843 21.2107 28.0659 18.1771 31.5838 17.6501C31.9023 17.6024 32.203 17.5752 32.4823 17.5684C33.574 17.5418 34.7434 17.5756 35.929 17.7373C38.3966 18.0737 40.934 18.9638 42.9846 21.0145C46.0205 24.0503 48.6461 27.5785 48.482 33.8963C48.3507 38.9505 47.2239 41.8004 46.6769 42.5936C43.6137 40.7338 37.2247 35.5701 36.1745 29.7938C35.5404 26.306 35.1934 21.9758 35.929 17.7373C34.7434 17.5756 33.574 17.5418 32.4823 17.5684C32.203 17.5752 31.9023 17.6024 31.5838 17.6501Z" fill="#12191D"/>
<path d="M2.69824 3.70202C5.78878 1.40463 14.3493 -1.48352 23.8671 5.34301C35.7643 13.8762 32.7284 31.4348 26.7388 37.0962C21.9471 41.6254 20.5851 42.8397 20.5851 42.8397M20.5851 42.8397C20.5851 42.8397 20.5433 42.7076 20.4722 42.4659M20.5851 42.8397L20.4722 42.4659M64.9739 3.54694C64.3996 2.89054 61.1176 1.65076 60.7894 1.65076C57.5895 0.912311 49.5486 0.666177 42.9846 5.58916C34.7797 11.7429 34.8617 22.5734 36.1745 29.7938C37.2247 35.5701 43.6137 40.7338 46.6769 42.5936C47.2239 41.8004 48.3507 38.9505 48.482 33.8963C48.6461 27.5785 46.0205 24.0503 42.9846 21.0145C39.9488 17.9787 35.8463 17.4864 32.4823 17.5684C29.1182 17.6505 22.6363 20.6863 19.6005 27.0041C17.4406 31.499 19.9011 40.5233 20.4722 42.4659" stroke="#12191D" stroke-width="0.416476" stroke-linecap="round" stroke-linejoin="round"/>
</g>
</svg>
