<svg width="480" height="523" viewBox="0 0 480 523" fill="none" xmlns="http://www.w3.org/2000/svg">
<g filter="url(#filter0_d)">
<rect x="56" y="58" width="316.923" height="412" rx="28.9365" fill="white"/>
</g>
<rect x="69.7792" y="74.5352" width="289.365" height="380.308" rx="15.1572" fill="#CEE3EE"/>
<rect x="94.5819" y="312.916" width="74.408" height="74.408" rx="6.88963" fill="#4F4F4F" fill-opacity="0.3"/>
<rect x="177.257" y="312.916" width="74.408" height="74.408" rx="6.88963" fill="#4F4F4F" fill-opacity="0.3"/>
<rect x="259.933" y="312.916" width="74.408" height="74.408" rx="6.88963" fill="#4F4F4F" fill-opacity="0.3"/>
<path d="M94.5819 410.749C94.5819 406.944 97.6665 403.859 101.472 403.859H162.1C165.905 403.859 168.99 406.944 168.99 410.749V454.843H94.5819V410.749Z" fill="#4F4F4F" fill-opacity="0.3"/>
<path d="M177.257 410.749C177.257 406.944 180.342 403.859 184.147 403.859H244.776C248.581 403.859 251.666 406.944 251.666 410.749V454.843H177.257V410.749Z" fill="#4F4F4F" fill-opacity="0.3"/>
<path d="M259.933 410.749C259.933 406.944 263.018 403.859 266.823 403.859H327.451C331.256 403.859 334.341 406.944 334.341 410.749V454.843H259.933V410.749Z" fill="#4F4F4F" fill-opacity="0.3"/>
<g filter="url(#filter1_d)">
<rect x="195.171" y="296.381" width="249.405" height="59.2508" rx="8.26756" fill="white"/>
</g>
<path d="M223.738 325.847C223.738 326.431 223.6 326.983 223.324 327.501C223.049 328.019 222.608 328.443 222.002 328.774C221.395 329.094 220.618 329.253 219.67 329.253H217.587V333.916H215.702V322.424H219.67C220.552 322.424 221.296 322.579 221.902 322.887C222.52 323.185 222.977 323.593 223.275 324.111C223.583 324.629 223.738 325.208 223.738 325.847ZM219.67 327.716C220.387 327.716 220.921 327.556 221.274 327.236C221.627 326.905 221.803 326.443 221.803 325.847C221.803 324.591 221.092 323.962 219.67 323.962H217.587V327.716H219.67ZM224.907 329.32C224.907 328.405 225.095 327.594 225.469 326.889C225.855 326.183 226.373 325.638 227.024 325.252C227.685 324.855 228.413 324.657 229.206 324.657C229.923 324.657 230.546 324.8 231.075 325.087C231.615 325.362 232.045 325.709 232.364 326.128V324.806H234.266V333.916H232.364V332.561C232.045 332.99 231.609 333.349 231.058 333.635C230.507 333.922 229.879 334.065 229.173 334.065C228.391 334.065 227.674 333.867 227.024 333.47C226.373 333.062 225.855 332.5 225.469 331.783C225.095 331.056 224.907 330.235 224.907 329.32ZM232.364 329.353C232.364 328.724 232.232 328.179 231.968 327.716C231.714 327.253 231.378 326.9 230.959 326.657C230.54 326.415 230.088 326.294 229.603 326.294C229.118 326.294 228.666 326.415 228.247 326.657C227.828 326.889 227.487 327.236 227.222 327.699C226.969 328.151 226.842 328.691 226.842 329.32C226.842 329.948 226.969 330.499 227.222 330.973C227.487 331.447 227.828 331.811 228.247 332.064C228.677 332.307 229.129 332.428 229.603 332.428C230.088 332.428 230.54 332.307 230.959 332.064C231.378 331.822 231.714 331.469 231.968 331.006C232.232 330.532 232.364 329.981 232.364 329.353ZM244.943 324.806L239.354 338.199H237.403L239.255 333.768L235.667 324.806H237.767L240.33 331.75L242.992 324.806H244.943ZM252.546 332.395H256.432V333.916H250.661V322.424H252.546V332.395ZM257.38 329.32C257.38 328.405 257.567 327.594 257.942 326.889C258.328 326.183 258.846 325.638 259.496 325.252C260.158 324.855 260.885 324.657 261.679 324.657C262.396 324.657 263.018 324.8 263.548 325.087C264.088 325.362 264.518 325.709 264.837 326.128V324.806H266.739V333.916H264.837V332.561C264.518 332.99 264.082 333.349 263.531 333.635C262.98 333.922 262.351 334.065 261.646 334.065C260.863 334.065 260.147 333.867 259.496 333.47C258.846 333.062 258.328 332.5 257.942 331.783C257.567 331.056 257.38 330.235 257.38 329.32ZM264.837 329.353C264.837 328.724 264.705 328.179 264.44 327.716C264.187 327.253 263.851 326.9 263.432 326.657C263.013 326.415 262.561 326.294 262.076 326.294C261.591 326.294 261.139 326.415 260.72 326.657C260.301 326.889 259.959 327.236 259.695 327.699C259.441 328.151 259.315 328.691 259.315 329.32C259.315 329.948 259.441 330.499 259.695 330.973C259.959 331.447 260.301 331.811 260.72 332.064C261.15 332.307 261.602 332.428 262.076 332.428C262.561 332.428 263.013 332.307 263.432 332.064C263.851 331.822 264.187 331.469 264.44 331.006C264.705 330.532 264.837 329.981 264.837 329.353ZM271.414 326.343V331.387C271.414 331.728 271.491 331.976 271.645 332.131C271.811 332.274 272.086 332.346 272.472 332.346H273.63V333.916H272.141C271.293 333.916 270.642 333.718 270.19 333.321C269.738 332.924 269.512 332.279 269.512 331.387V326.343H268.438V324.806H269.512V322.54H271.414V324.806H273.63V326.343H271.414ZM283.717 329.138C283.717 329.479 283.695 329.788 283.651 330.064H276.69C276.745 330.791 277.015 331.375 277.5 331.816C277.985 332.257 278.58 332.478 279.286 332.478C280.3 332.478 281.016 332.053 281.435 331.205H283.469C283.194 332.042 282.692 332.731 281.964 333.272C281.248 333.801 280.355 334.065 279.286 334.065C278.415 334.065 277.632 333.872 276.938 333.486C276.254 333.09 275.714 332.538 275.317 331.833C274.931 331.116 274.739 330.29 274.739 329.353C274.739 328.416 274.926 327.594 275.301 326.889C275.687 326.172 276.221 325.621 276.905 325.235C277.599 324.85 278.393 324.657 279.286 324.657C280.146 324.657 280.912 324.844 281.584 325.219C282.257 325.594 282.78 326.123 283.155 326.806C283.53 327.479 283.717 328.256 283.717 329.138ZM281.749 328.542C281.738 327.848 281.49 327.291 281.005 326.872C280.52 326.454 279.92 326.244 279.203 326.244C278.553 326.244 277.996 326.454 277.533 326.872C277.07 327.28 276.794 327.837 276.706 328.542H281.749ZM287.457 326.128C287.733 325.665 288.097 325.307 288.549 325.054C289.011 324.789 289.557 324.657 290.185 324.657V326.608H289.706C288.967 326.608 288.405 326.795 288.019 327.17C287.645 327.545 287.457 328.195 287.457 329.121V333.916H285.572V324.806H287.457V326.128ZM308.449 324.806L305.622 333.916H303.638L301.802 327.187L299.967 333.916H297.983L295.139 324.806H297.057L298.958 332.131L300.893 324.806H302.861L304.712 332.098L306.597 324.806H308.449ZM310.817 323.598C310.475 323.598 310.189 323.483 309.957 323.251C309.726 323.02 309.61 322.733 309.61 322.391C309.61 322.05 309.726 321.763 309.957 321.532C310.189 321.3 310.475 321.184 310.817 321.184C311.148 321.184 311.429 321.3 311.66 321.532C311.892 321.763 312.008 322.05 312.008 322.391C312.008 322.733 311.892 323.02 311.66 323.251C311.429 323.483 311.148 323.598 310.817 323.598ZM311.743 324.806V333.916H309.858V324.806H311.743ZM316.417 326.343V331.387C316.417 331.728 316.494 331.976 316.649 332.131C316.814 332.274 317.09 332.346 317.475 332.346H318.633V333.916H317.145C316.296 333.916 315.646 333.718 315.194 333.321C314.742 332.924 314.516 332.279 314.516 331.387V326.343H313.441V324.806H314.516V322.54H316.417V324.806H318.633V326.343H316.417ZM325.083 324.657C325.777 324.657 326.394 324.806 326.935 325.103C327.486 325.401 327.916 325.842 328.224 326.426C328.544 327.01 328.704 327.716 328.704 328.542V333.916H326.835V328.824C326.835 328.008 326.631 327.385 326.224 326.955C325.816 326.514 325.259 326.294 324.554 326.294C323.848 326.294 323.286 326.514 322.867 326.955C322.459 327.385 322.255 328.008 322.255 328.824V333.916H320.37V321.68H322.255V325.864C322.575 325.478 322.977 325.18 323.462 324.971C323.958 324.761 324.498 324.657 325.083 324.657ZM338.658 331.37H342.979V333.916H335.359V320.374H338.658V331.37ZM343.897 328.515C343.897 327.409 344.103 326.438 344.514 325.602C344.939 324.766 345.511 324.123 346.231 323.673C346.951 323.223 347.755 322.998 348.643 322.998C349.401 322.998 350.064 323.152 350.63 323.461C351.208 323.769 351.652 324.174 351.961 324.676V323.152H355.259V333.916H351.961V332.392C351.639 332.894 351.189 333.299 350.61 333.608C350.044 333.916 349.382 334.071 348.623 334.071C347.749 334.071 346.951 333.846 346.231 333.396C345.511 332.933 344.939 332.283 344.514 331.447C344.103 330.598 343.897 329.621 343.897 328.515ZM351.961 328.534C351.961 327.711 351.729 327.062 351.266 326.586C350.816 326.11 350.263 325.872 349.607 325.872C348.951 325.872 348.392 326.11 347.929 326.586C347.479 327.049 347.254 327.692 347.254 328.515C347.254 329.338 347.479 329.994 347.929 330.483C348.392 330.958 348.951 331.196 349.607 331.196C350.263 331.196 350.816 330.958 351.266 330.483C351.729 330.007 351.961 329.357 351.961 328.534ZM360.945 324.676C361.253 324.174 361.697 323.769 362.276 323.461C362.854 323.152 363.517 322.998 364.263 322.998C365.15 322.998 365.954 323.223 366.674 323.673C367.394 324.123 367.96 324.766 368.372 325.602C368.796 326.438 369.008 327.409 369.008 328.515C369.008 329.621 368.796 330.598 368.372 331.447C367.96 332.283 367.394 332.933 366.674 333.396C365.954 333.846 365.15 334.071 364.263 334.071C363.504 334.071 362.842 333.923 362.276 333.627C361.71 333.318 361.266 332.913 360.945 332.412V333.916H357.646V319.641H360.945V324.676ZM365.652 328.515C365.652 327.692 365.42 327.049 364.957 326.586C364.507 326.11 363.948 325.872 363.279 325.872C362.623 325.872 362.063 326.11 361.6 326.586C361.15 327.062 360.925 327.711 360.925 328.534C360.925 329.357 361.15 330.007 361.6 330.483C362.063 330.958 362.623 331.196 363.279 331.196C363.935 331.196 364.494 330.958 364.957 330.483C365.42 329.994 365.652 329.338 365.652 328.515ZM370.083 328.515C370.083 327.409 370.289 326.438 370.7 325.602C371.125 324.766 371.697 324.123 372.417 323.673C373.137 323.223 373.941 322.998 374.829 322.998C375.587 322.998 376.25 323.152 376.815 323.461C377.394 323.769 377.838 324.174 378.147 324.676V323.152H381.445V333.916H378.147V332.392C377.825 332.894 377.375 333.299 376.796 333.608C376.23 333.916 375.568 334.071 374.809 334.071C373.935 334.071 373.137 333.846 372.417 333.396C371.697 332.933 371.125 332.283 370.7 331.447C370.289 330.598 370.083 329.621 370.083 328.515ZM378.147 328.534C378.147 327.711 377.915 327.062 377.452 326.586C377.002 326.11 376.449 325.872 375.793 325.872C375.137 325.872 374.578 326.11 374.115 326.586C373.665 327.049 373.44 327.692 373.44 328.515C373.44 329.338 373.665 329.994 374.115 330.483C374.578 330.958 375.137 331.196 375.793 331.196C376.449 331.196 377.002 330.958 377.452 330.483C377.915 330.007 378.147 329.357 378.147 328.534ZM387.131 319.641V333.916H383.832V319.641H387.131ZM388.865 328.515C388.865 327.409 389.071 326.438 389.483 325.602C389.907 324.766 390.479 324.123 391.199 323.673C391.92 323.223 392.723 322.998 393.611 322.998C394.37 322.998 395.032 323.152 395.598 323.461C396.177 323.769 396.62 324.174 396.929 324.676V323.152H400.228V333.916H396.929V332.392C396.607 332.894 396.157 333.299 395.579 333.608C395.013 333.916 394.35 334.071 393.592 334.071C392.717 334.071 391.92 333.846 391.199 333.396C390.479 332.933 389.907 332.283 389.483 331.447C389.071 330.598 388.865 329.621 388.865 328.515ZM396.929 328.534C396.929 327.711 396.697 327.062 396.234 326.586C395.784 326.11 395.231 325.872 394.575 325.872C393.92 325.872 393.36 326.11 392.897 326.586C392.447 327.049 392.222 327.692 392.222 328.515C392.222 329.338 392.447 329.994 392.897 330.483C393.36 330.958 393.92 331.196 394.575 331.196C395.231 331.196 395.784 330.958 396.234 330.483C396.697 330.007 396.929 329.357 396.929 328.534ZM405.913 324.676C406.222 324.174 406.665 323.769 407.244 323.461C407.823 323.152 408.485 322.998 409.231 322.998C410.118 322.998 410.922 323.223 411.642 323.673C412.363 324.123 412.928 324.766 413.34 325.602C413.764 326.438 413.977 327.409 413.977 328.515C413.977 329.621 413.764 330.598 413.34 331.447C412.928 332.283 412.363 332.933 411.642 333.396C410.922 333.846 410.118 334.071 409.231 334.071C408.472 334.071 407.81 333.923 407.244 333.627C406.678 333.318 406.234 332.913 405.913 332.412V333.916H402.614V319.641H405.913V324.676ZM410.62 328.515C410.62 327.692 410.388 327.049 409.925 326.586C409.475 326.11 408.916 325.872 408.247 325.872C407.591 325.872 407.032 326.11 406.569 326.586C406.119 327.062 405.894 327.711 405.894 328.534C405.894 329.357 406.119 330.007 406.569 330.483C407.032 330.958 407.591 331.196 408.247 331.196C408.903 331.196 409.462 330.958 409.925 330.483C410.388 329.994 410.62 329.338 410.62 328.515ZM415.051 328.515C415.051 327.409 415.257 326.438 415.669 325.602C416.093 324.766 416.665 324.123 417.385 323.673C418.106 323.223 418.909 322.998 419.797 322.998C420.556 322.998 421.218 323.152 421.784 323.461C422.363 323.769 422.806 324.174 423.115 324.676V323.152H426.414V333.916H423.115V332.392C422.793 332.894 422.343 333.299 421.764 333.608C421.199 333.916 420.536 334.071 419.778 334.071C418.903 334.071 418.106 333.846 417.385 333.396C416.665 332.933 416.093 332.283 415.669 331.447C415.257 330.598 415.051 329.621 415.051 328.515ZM423.115 328.534C423.115 327.711 422.883 327.062 422.42 326.586C421.97 326.11 421.417 325.872 420.761 325.872C420.105 325.872 419.546 326.11 419.083 326.586C418.633 327.049 418.408 327.692 418.408 328.515C418.408 329.338 418.633 329.994 419.083 330.483C419.546 330.958 420.105 331.196 420.761 331.196C421.417 331.196 421.97 330.958 422.42 330.483C422.883 330.007 423.115 329.357 423.115 328.534ZM430.343 334.071C429.765 334.071 429.289 333.904 428.916 333.569C428.556 333.222 428.376 332.798 428.376 332.296C428.376 331.782 428.556 331.351 428.916 331.003C429.289 330.656 429.765 330.483 430.343 330.483C430.909 330.483 431.372 330.656 431.732 331.003C432.105 331.351 432.292 331.782 432.292 332.296C432.292 332.798 432.105 333.222 431.732 333.569C431.372 333.904 430.909 334.071 430.343 334.071Z" fill="#4F4F4F"/>
<path d="M147.097 267.241V258.742H144.518V256.625H147.097V253.914H144.518V251.797H147.097V243.629H150.537L153.678 251.797H157.581V243.629H160.193V251.797H162.773V253.914H160.193V256.625H162.773V258.742H160.193V267.241H156.721L153.579 258.742H149.677V267.241H147.097ZM149.611 251.797H151L149.611 247.696H149.478L149.611 251.797ZM149.677 256.625H152.785L151.793 253.914H149.611L149.677 256.625ZM155.431 256.625H157.647L157.581 253.914H154.439L155.431 256.625ZM157.581 262.578H157.713L157.614 258.742H156.225L157.581 262.578ZM173.185 246.076V243.331H179.403V267.241H176.36V246.076H173.185ZM199.817 245.944H188.21V253.484C188.717 252.778 189.466 252.205 190.458 251.764C191.451 251.301 192.52 251.07 193.666 251.07C195.496 251.07 196.984 251.455 198.131 252.227C199.277 252.977 200.093 253.958 200.578 255.17C201.085 256.361 201.339 257.628 201.339 258.973C201.339 260.561 201.041 261.983 200.446 263.239C199.85 264.496 198.935 265.488 197.701 266.216C196.488 266.943 194.978 267.307 193.17 267.307C190.855 267.307 188.981 266.712 187.548 265.521C186.115 264.331 185.244 262.743 184.936 260.759H187.879C188.166 262.016 188.772 262.997 189.698 263.702C190.624 264.408 191.792 264.761 193.203 264.761C194.945 264.761 196.257 264.242 197.139 263.206C198.02 262.148 198.461 260.759 198.461 259.039C198.461 257.32 198.02 255.997 197.139 255.071C196.257 254.123 194.956 253.649 193.236 253.649C192.068 253.649 191.043 253.936 190.161 254.509C189.301 255.06 188.673 255.821 188.276 256.791H185.432V243.298H199.817V245.944ZM208.942 263.074L205.238 271.97H203.221L205.635 263.074H208.942ZM211.894 255.038C211.894 251.246 212.511 248.292 213.746 246.175C214.98 244.037 217.141 242.967 220.227 242.967C223.292 242.967 225.441 244.037 226.676 246.175C227.911 248.292 228.528 251.246 228.528 255.038C228.528 258.896 227.911 261.894 226.676 264.033C225.441 266.172 223.292 267.241 220.227 267.241C217.141 267.241 214.98 266.172 213.746 264.033C212.511 261.894 211.894 258.896 211.894 255.038ZM225.552 255.038C225.552 253.12 225.419 251.499 225.155 250.177C224.912 248.832 224.394 247.751 223.6 246.936C222.829 246.12 221.704 245.712 220.227 245.712C218.728 245.712 217.582 246.12 216.788 246.936C216.016 247.751 215.498 248.832 215.234 250.177C214.991 251.499 214.87 253.12 214.87 255.038C214.87 257.022 214.991 258.687 215.234 260.032C215.498 261.376 216.016 262.457 216.788 263.272C217.582 264.088 218.728 264.496 220.227 264.496C221.704 264.496 222.829 264.088 223.6 263.272C224.394 262.457 224.912 261.376 225.155 260.032C225.419 258.687 225.552 257.022 225.552 255.038ZM232.659 255.038C232.659 251.246 233.277 248.292 234.511 246.175C235.746 244.037 237.907 242.967 240.993 242.967C244.058 242.967 246.207 244.037 247.442 246.175C248.676 248.292 249.294 251.246 249.294 255.038C249.294 258.896 248.676 261.894 247.442 264.033C246.207 266.172 244.058 267.241 240.993 267.241C237.907 267.241 235.746 266.172 234.511 264.033C233.277 261.894 232.659 258.896 232.659 255.038ZM246.317 255.038C246.317 253.12 246.185 251.499 245.921 250.177C245.678 248.832 245.16 247.751 244.366 246.936C243.595 246.12 242.47 245.712 240.993 245.712C239.494 245.712 238.347 246.12 237.554 246.936C236.782 247.751 236.264 248.832 235.999 250.177C235.757 251.499 235.636 253.12 235.636 255.038C235.636 257.022 235.757 258.687 235.999 260.032C236.264 261.376 236.782 262.457 237.554 263.272C238.347 264.088 239.494 264.496 240.993 264.496C242.47 264.496 243.595 264.088 244.366 263.272C245.16 262.457 245.678 261.376 245.921 260.032C246.185 258.687 246.317 257.022 246.317 255.038ZM253.425 255.038C253.425 251.246 254.042 248.292 255.277 246.175C256.512 244.037 258.672 242.967 261.759 242.967C264.823 242.967 266.973 244.037 268.208 246.175C269.442 248.292 270.06 251.246 270.06 255.038C270.06 258.896 269.442 261.894 268.208 264.033C266.973 266.172 264.823 267.241 261.759 267.241C258.672 267.241 256.512 266.172 255.277 264.033C254.042 261.894 253.425 258.896 253.425 255.038ZM267.083 255.038C267.083 253.12 266.951 251.499 266.686 250.177C266.444 248.832 265.926 247.751 265.132 246.936C264.36 246.12 263.236 245.712 261.759 245.712C260.26 245.712 259.113 246.12 258.32 246.936C257.548 247.751 257.03 248.832 256.765 250.177C256.523 251.499 256.402 253.12 256.402 255.038C256.402 257.022 256.523 258.687 256.765 260.032C257.03 261.376 257.548 262.457 258.32 263.272C259.113 264.088 260.26 264.496 261.759 264.496C263.236 264.496 264.36 264.088 265.132 263.272C265.926 262.457 266.444 261.376 266.686 260.032C266.951 258.687 267.083 257.022 267.083 255.038Z" fill="#4F4F4F"/>
<path d="M230.127 124.141H190.197C186.87 124.141 184.147 126.861 184.147 130.19V207.654C184.147 210.983 186.87 213.706 190.197 213.706H230.127C233.454 213.706 236.177 210.988 236.177 207.656V130.19C236.177 126.861 233.454 124.141 230.127 124.141ZM203.775 128.501H216.549C216.954 128.501 217.281 128.829 217.281 129.235C217.281 129.64 216.954 129.967 216.549 129.967H203.775C203.37 129.967 203.043 129.64 203.043 129.235C203.043 128.829 203.37 128.501 203.775 128.501ZM210.162 210.681C208.491 210.681 207.137 209.327 207.137 207.654C207.137 205.98 208.491 204.629 210.162 204.629C211.833 204.629 213.187 205.98 213.187 207.654C213.187 209.327 211.833 210.681 210.162 210.681ZM231.967 202.51H188.357V133.734H231.967V202.51Z" fill="#4F4F4F"/>
<defs>
<filter id="filter0_d" x="0.882946" y="0.127093" width="427.157" height="522.234" filterUnits="userSpaceOnUse" color-interpolation-filters="sRGB">
<feFlood flood-opacity="0" result="BackgroundImageFix"/>
<feColorMatrix in="SourceAlpha" type="matrix" values="0 0 0 0 0 0 0 0 0 0 0 0 0 0 0 0 0 0 127 0"/>
<feOffset dy="-2.75585"/>
<feGaussianBlur stdDeviation="27.5585"/>
<feColorMatrix type="matrix" values="0 0 0 0 0 0 0 0 0 0 0 0 0 0 0 0 0 0 0.1 0"/>
<feBlend mode="normal" in2="BackgroundImageFix" result="effect1_dropShadow"/>
<feBlend mode="normal" in="SourceGraphic" in2="effect1_dropShadow" result="shape"/>
</filter>
<filter id="filter1_d" x="160.722" y="275.712" width="318.301" height="128.147" filterUnits="userSpaceOnUse" color-interpolation-filters="sRGB">
<feFlood flood-opacity="0" result="BackgroundImageFix"/>
<feColorMatrix in="SourceAlpha" type="matrix" values="0 0 0 0 0 0 0 0 0 0 0 0 0 0 0 0 0 0 127 0"/>
<feOffset dy="13.7793"/>
<feGaussianBlur stdDeviation="17.2241"/>
<feColorMatrix type="matrix" values="0 0 0 0 0 0 0 0 0 0 0 0 0 0 0 0 0 0 0.15 0"/>
<feBlend mode="normal" in2="BackgroundImageFix" result="effect1_dropShadow"/>
<feBlend mode="normal" in="SourceGraphic" in2="effect1_dropShadow" result="shape"/>
</filter>
</defs>
</svg>
