<svg width="237" height="180" viewBox="0 0 237 180" fill="none" xmlns="http://www.w3.org/2000/svg">
<g clip-path="url(#clip0)">
<path d="M75.04 137.118L92.3908 170.912L91.8623 176.735C91.8623 176.735 87.8109 177.794 89.3082 178.588C90.8054 179.382 93.8 179.294 94.1523 178.412C94.5046 177.529 97.1468 168.882 96.3542 168.441C95.5615 168 93.7119 167.206 93.7119 167.206L85.609 136.588L75.04 137.118Z" fill="#A67171"/>
<path d="M92.1262 172.765L92.3904 171C92.3904 171 93.8877 170.912 93.7996 169.588C93.7116 168.265 93.2712 166.5 95.2088 166.412C97.0584 166.323 98.0272 171.706 98.0272 171.706L96.3538 177.618L94.5923 179.912L89.3959 180.088L87.8105 177.441L92.1262 172.765Z" fill="#1F3054"/>
<path opacity="0.28" d="M91.5098 151.059C91.1575 151.5 87.6345 157.412 83.9353 157.5C80.2362 157.676 87.8987 149.206 89.0437 149.471C90.2767 149.912 91.5098 151.059 91.5098 151.059Z" fill="#C98075"/>
<path d="M79.0915 85.5882C79.0915 85.5882 87.5467 93.2646 85.4329 102.971C78.2108 136.676 94.4166 151.147 94.4166 151.147C94.4166 151.147 86.4898 156 82.9668 154.765C82.9668 154.765 52.7572 119.823 70.6364 89.0293C74.864 81.8823 79.0915 85.5882 79.0915 85.5882Z" fill="#007EC5"/>
<path opacity="0.53" d="M74.0359 100.921C74.0359 100.921 74.3001 106.833 60.5604 114.686C46.8207 122.539 51.9291 100.921 51.9291 100.921C51.9291 100.921 70.601 92.0979 74.0359 100.921Z" fill="#007EC5"/>
<path d="M35.0536 111.794L9.4238 140.382C9.4238 140.382 1.49707 137.294 1.49707 138.353C1.49707 138.353 8.63113 145.147 9.15958 144.618C9.68803 144 11.4495 141.706 11.4495 141.706L42.4519 117.088L35.0536 111.794Z" fill="#A67171"/>
<path d="M11.6259 142.588C11.6259 142.588 10.9213 141.353 10.1286 141.706C9.33593 142.059 9.51208 139.412 9.51208 139.412L0.616524 135.882L0 141L11.0094 147.618L11.6259 142.588Z" fill="#1F3054"/>
<path opacity="0.28" d="M24.8372 132.441C24.8372 132.441 18.4077 130.412 18.9362 127.235C19.3765 124.059 26.0702 128.382 26.0702 128.382L26.4225 131.824L24.8372 132.441Z" fill="#C98075"/>
<path d="M84.9926 95.9117C84.9926 95.9117 84.1999 107.471 74.5117 109.323C40.779 115.941 29.5935 134.382 29.5935 134.382C29.5935 134.382 22.0191 129 21.7549 125.294C21.7549 125.294 41.8359 83.647 77.242 88.0587C85.433 88.9411 84.9926 95.9117 84.9926 95.9117Z" fill="#007EC5"/>
<path d="M84.6402 59.647C84.6402 59.647 87.5467 58.9411 88.4274 58.3235C89.3963 57.7058 92.7431 55.0588 92.7431 53.0294C92.7431 53.0294 89.044 53.4705 88.6917 50.5588C88.1632 46.7646 96.5303 40.147 98.1157 40.0588C99.7891 39.9705 103.752 38.647 106.395 42.0882C109.037 45.5294 101.727 55.5882 98.0276 55.3235C98.0276 55.3235 92.7431 60.7058 93.6239 62.9999C93.6239 62.9999 87.7228 63.9705 86.0494 62.0294C84.376 59.9117 84.6402 59.647 84.6402 59.647Z" fill="#E4A6A9"/>
<path opacity="0.29" d="M91.7742 53.5588L92.7431 52.9412C92.7431 52.9412 95.2092 53.0294 96.178 52.4117C96.178 52.4117 93.7119 54.4412 92.1265 54.0882C90.5412 53.7353 91.7742 53.5588 91.7742 53.5588Z" fill="#826E4F"/>
<path d="M69.8438 22.2353C70.0199 22.1471 70.196 22.0588 70.3722 22.0588C70.5483 22.0588 70.7245 22.1471 70.9006 22.2353C71.0768 22.4118 71.0768 22.5883 71.1649 22.7647C71.1649 22.853 71.1649 22.9412 71.1649 23.0294C71.1649 23.1177 71.1649 23.2059 71.0768 23.2941C70.9887 23.1177 70.9887 22.9412 70.9006 22.853C70.8126 22.6765 70.8126 22.5883 70.6364 22.5C70.4603 22.3235 70.196 22.2353 69.8438 22.2353Z" fill="#6C543B"/>
<path d="M80.9403 95.5588C80.9403 95.5588 79.2669 87.0882 78.9146 85.5C78.5623 83.9118 95.7369 70.4118 96.1773 68.2941C96.7057 66.1765 96.5296 57.3529 89.4836 56.3823C82.3495 55.4118 70.8117 57.7941 71.164 62.2941C71.6044 66.7941 68.9621 77.9118 65.8795 84.6176C63.9419 88.7647 67.7291 93.0882 70.8998 95.7353C72.8374 97.4118 75.5678 97.8529 77.9458 96.7941L80.9403 95.5588Z" fill="#DF74AE"/>
<path d="M101.286 40.7646C101.286 40.7646 103.4 41.294 102.871 43.3234C102.343 45.441 84.2876 66.0881 88.8675 77.5587C93.5355 88.941 108.949 91.941 112.031 85.2352C115.114 78.6175 104.985 77.6469 108.949 73.4999C112.912 69.2646 115.642 66.9705 109.301 62.5587C103.048 58.1469 104.193 56.2058 107.98 52.6763C111.767 49.1469 111.767 39.6175 103.136 38.9999C103.136 38.9999 101.198 37.7646 99.1722 37.3234C97.0584 36.794 95.4731 41.4705 95.4731 41.4705C95.4731 41.4705 100.405 38.3822 101.286 40.7646Z" fill="black"/>
<path d="M90.54 29.4706L91.2446 29.6471C92.3015 25.3236 95.0319 22.2353 97.4099 22.7648C99.7879 23.2942 100.845 27.353 99.7879 31.6765L100.492 31.853C101.637 27 100.316 22.6765 97.4979 22.0589C94.7676 21.353 91.685 24.6177 90.54 29.4706Z" fill="#606060"/>
<path d="M76.8008 60.2647L102.254 66.6176L105.337 32.2059L90.012 27L76.8008 60.2647Z" fill="#4DC9DA"/>
<path d="M92.0381 29.3823L92.7427 29.5588C93.7996 25.2353 96.5299 22.147 98.9079 22.6765C101.286 23.2059 102.343 27.2647 101.286 31.5882L101.991 31.7647C103.136 26.9117 101.814 22.5882 98.996 21.9706C96.2657 21.3529 93.1831 24.6176 92.0381 29.3823Z" fill="#606060"/>
<path d="M71.6045 7.49989L72.3091 7.67636C73.366 3.35283 76.0963 0.264596 78.4743 0.794008C80.8523 1.41165 81.9092 5.38224 80.8523 9.70577L81.5569 9.88224C82.7019 5.0293 81.3808 0.705772 78.5624 0.0881254C75.8321 -0.529522 72.7495 2.73518 71.6045 7.49989Z" fill="#606060"/>
<path d="M57.8652 38.294L83.3189 44.7352L86.4015 10.3234L70.9884 5.11755L57.8652 38.294Z" fill="#2D9CDB"/>
<path d="M73.1025 7.49994L73.8071 7.67641C74.864 3.35288 77.5944 0.264642 79.9724 0.794053C82.3504 1.32347 83.4073 5.38229 82.3504 9.70582L83.055 9.88229C84.288 5.02935 82.9669 0.794054 80.1485 0.0881712C77.3301 -0.617711 74.2475 2.64699 73.1025 7.49994Z" fill="#606060"/>
<path d="M98.9078 91.2352L104.721 63.7941L75.4799 52.7646L69.667 84.2646L98.9078 91.2352Z" fill="#2D9CDB"/>
<path d="M100.053 67.4118C100.669 64.9412 103.047 63.4412 105.513 64.0588C107.979 64.6765 109.477 67.0588 108.86 69.5294C108.244 72 105.866 73.5 103.399 72.8823C101.021 72.2647 99.436 69.8823 100.053 67.4118ZM100.405 67.5C99.8764 69.7059 101.286 72 103.487 72.5294C105.689 73.0588 107.979 71.6471 108.508 69.4412C109.036 67.2353 107.627 64.9412 105.425 64.4118C103.223 63.8823 100.933 65.2941 100.405 67.5Z" fill="#F5F6FF"/>
<path d="M82.3502 78.3529C82.9667 75.8823 85.3448 74.3823 87.8109 75C90.277 75.6176 91.7742 78 91.1577 80.4706C90.5412 82.9412 88.1632 84.4412 85.6971 83.8235C83.3191 83.2059 81.8218 80.7353 82.3502 78.3529ZM82.7025 78.4412C82.1741 80.647 83.5833 82.9412 85.7851 83.4706C87.987 84 90.277 82.5882 90.8054 80.3823C91.3339 78.1765 89.9247 75.8823 87.7228 75.3529C85.5209 74.8235 83.231 76.147 82.7025 78.4412Z" fill="#F5F6FF"/>
<path d="M82.3502 65.4705C82.9667 62.9999 85.3448 61.4999 87.8109 62.1175C90.277 62.7352 91.7742 65.1175 91.1577 67.5881C90.5412 70.0587 88.1632 71.5587 85.6971 70.9411C83.3191 70.4117 81.8218 67.9411 82.3502 65.4705ZM82.7906 65.5587C82.2622 67.7646 83.6713 70.0587 85.8732 70.5881C88.0751 71.1175 90.365 69.7058 90.8935 67.4999C91.4219 65.294 90.0127 62.9999 87.8109 62.4705C85.5209 61.9411 83.319 63.3528 82.7906 65.5587Z" fill="#F5F6FF"/>
<path d="M94.3278 81.9705C94.9443 79.4999 97.3223 77.9999 99.7884 78.6175C102.254 79.2352 103.752 81.6175 103.135 84.0881C102.519 86.5587 100.141 88.0587 97.6746 87.4411C95.2966 86.8234 93.7993 84.3528 94.3278 81.9705ZM94.6801 82.0587C94.1516 84.2646 95.5608 86.5587 97.7627 87.0881C99.9646 87.6175 102.254 86.2058 102.783 83.9999C103.311 81.794 101.902 79.4999 99.7003 78.9705C97.4985 78.3528 95.2085 79.7646 94.6801 82.0587Z" fill="#F5F6FF"/>
<path d="M76.449 84.3529L85.3446 43.4118L56.6322 30.4412L43.8613 75.0882L76.449 84.3529Z" fill="#127CB3"/>
<path d="M74.9515 36.3529C75.6561 36.5294 63.2375 82.7647 63.2375 82.7647L58.9219 78.7059L71.0762 33.9706L74.9515 36.3529Z" fill="#67A1D0"/>
<path d="M90.2767 68.2058L86.8418 71.3823C86.4895 72 45.2705 47.8235 45.2705 47.8235" fill="#67A1D0"/>
<path d="M98.38 103.147L39.0176 89.0294L40.1626 65.1177L102.872 85.5L98.38 103.147Z" fill="#56CCF2"/>
<path d="M93.8882 102C93.8882 102 96.5304 101.206 95.2974 100.147C92.7432 98.0294 91.0698 101.382 91.0698 101.382L85.2568 99.9706C85.2568 100.059 88.6037 104.382 93.8882 102Z" fill="#A67171"/>
<path d="M45.0065 90.3529C45.0065 90.3529 42.9807 88.4999 44.5661 88.0587C47.7368 87.2646 47.8248 91.0587 47.8248 91.0587L53.6378 92.4705C53.5497 92.4705 48.6175 94.9411 45.0065 90.3529Z" fill="#A67171"/>
<path d="M92.5666 44.2058C93.1832 42.1764 95.385 40.9411 97.4108 41.5587C99.4365 42.1764 100.67 44.3823 100.053 46.4117C99.4365 48.4411 97.2346 49.6764 95.2089 49.0588C93.1832 48.4411 91.9501 46.2352 92.5666 44.2058ZM92.8309 44.294C92.3024 46.147 93.3593 48.1764 95.2089 48.7058C97.0585 49.2352 99.0842 48.1764 99.6126 46.3235C100.141 44.4705 99.0842 42.4411 97.2346 41.9117C95.385 41.3823 93.4474 42.4411 92.8309 44.294Z" fill="#F5F6FF"/>
<path d="M89.2201 43.2352C89.8366 41.2058 92.0385 39.9705 94.0642 40.5882C96.0899 41.2058 97.323 43.4117 96.7064 45.4411C96.0899 47.4705 93.888 48.7058 91.8623 48.0882C89.7485 47.4705 88.6035 45.2646 89.2201 43.2352ZM89.4843 43.3235C88.9558 45.1764 90.0127 47.2058 91.8623 47.7352C93.7119 48.2646 95.7376 47.2058 96.2661 45.3529C96.7945 43.4999 95.7376 41.4705 93.888 40.9411C92.0385 40.3235 90.1008 41.3823 89.4843 43.3235Z" fill="#F5F6FF"/>
<path d="M79.7076 19.3235L73.4543 17.0294L70.5479 29.2059L76.8892 31.5L79.7076 19.3235Z" fill="#F5F6FF"/>
</g>
<path d="M150.932 97.3138L152.724 99.8574C152.724 99.8574 167.772 81.3131 176.63 68.3142C174.564 65.7404 174.643 62.2465 172.799 61.683C164.035 72.8169 150.932 97.3138 150.932 97.3138Z" fill="#A67171"/>
<path d="M229.159 155.427L235.065 158.286L236.802 156.12L232.633 153C232.546 153.087 228.116 154.3 229.159 155.427Z" fill="#A67171"/>
<path d="M236.217 156.078C236.217 156.078 226.402 160.585 229.095 166.738L236.912 156.078" fill="#433041"/>
<path d="M195.741 89.2606C196.001 89.694 206.077 103.647 207.814 122.973C208.075 125.833 209.378 128.519 211.81 130.166C216.327 133.112 223.276 137.619 226.924 142.385C232.483 149.752 233.438 152.092 233.438 152.092L230.224 156.771C230.224 156.771 191.571 140.132 187.141 105.033C182.711 69.9347 195.741 89.2606 195.741 89.2606Z" fill="#007EC5"/>
<path opacity="0.35" d="M194.741 128.696C194.741 128.696 203.254 110.757 196.479 106.684C189.79 102.611 186.837 117.603 194.741 128.696Z" fill="#007EC5"/>
<path d="M166.034 173.758C166.902 173.931 168.292 175.751 169.595 175.231C169.942 173.758 172.201 165.698 172.809 163.531L168.205 162.925C167.771 165.698 168.031 171.678 167.25 173.498C167.076 173.844 165.599 173.671 166.034 173.758Z" fill="#A67171"/>
<path d="M194.61 87.7874C188.356 87.7874 181.755 81.4609 181.755 81.4609C181.755 81.4609 181.06 86.1408 179.584 96.2804C178.889 101.047 173.33 125.139 171.94 131.466C170.897 136.146 166.033 154.345 166.033 165.524L173.938 166.738C175.067 162.751 177.065 158.591 177.759 155.298C179.497 146.805 184.535 133.632 186.011 130.079C187.488 126.526 197.737 112.313 199.214 104.253C200.951 95.3271 196.087 87.7874 194.61 87.7874Z" fill="#007EC5"/>
<path d="M126.358 88.4618C126.286 88.3893 126.14 88.3168 125.995 88.2444C125.85 88.2444 125.705 88.2444 125.559 88.3168C125.414 88.3893 125.342 88.5342 125.269 88.6067C125.269 88.6791 125.196 88.7516 125.196 88.824C125.196 88.8965 125.196 88.9689 125.196 89.0414C125.269 88.9689 125.342 88.824 125.414 88.7516C125.487 88.6791 125.559 88.6067 125.632 88.5342C125.85 88.3893 126.14 88.3893 126.358 88.4618Z" fill="#6C543B"/>
<path d="M127.811 77.7383H127.23C127.23 74.4778 125.56 71.797 123.527 71.797C121.493 71.797 119.823 74.4778 119.823 77.7383H119.242C119.242 74.1155 121.13 71.2898 123.527 71.2898C125.923 71.2898 127.811 74.1155 127.811 77.7383Z" fill="#606060"/>
<path d="M133.04 101.866L111.036 102.156L115.175 77.2311L128.755 76.1443L133.04 101.866Z" fill="#75B1B9"/>
<path d="M126.577 77.4485H125.996C125.996 74.188 124.326 71.5072 122.292 71.5072C120.259 71.5072 118.589 74.188 118.589 77.4485H118.008C118.008 73.8257 119.896 71 122.292 71C124.689 71 126.577 73.8257 126.577 77.4485Z" fill="#606060"/>
<path d="M118.879 84.694L124.398 84.1868V93.3161L118.879 93.8233V84.694Z" fill="#F5F6FF"/>
<path d="M86.0547 144.252L86.6356 121.284L112.125 118.023L110.891 144.252H86.0547Z" fill="#E8B97B"/>
<path d="M88.96 121.863L89.9766 98.8952L133.767 95.5623L131.588 121.863H88.96Z" fill="#F0D379"/>
<path d="M105.444 143.093L106.025 108.677L131.515 103.75L133.258 141.861L105.444 143.093Z" fill="#6FCF97"/>
<path d="M84.2895 154H134.381L138 135L84 139.341L84.2895 154Z" fill="#ECC8C9"/>
<path d="M95.5679 108.749H95.1321C95.1321 107.01 93.9702 105.561 92.5178 105.561C91.0654 105.561 89.9035 107.01 89.9035 108.749H89.4678C89.4678 106.793 90.8476 105.271 92.5178 105.271C94.1881 105.271 95.5679 106.793 95.5679 108.749Z" fill="#606060"/>
<path d="M99.2715 121.719L83.6582 121.864L86.563 108.459L96.2215 107.88L99.2715 121.719Z" fill="#9BC2F8"/>
<path d="M94.6961 108.604H94.2604C94.2604 106.865 93.0985 105.416 91.6461 105.416C90.1937 105.416 89.0318 106.865 89.0318 108.604H88.5234C88.5234 106.648 89.9032 105.126 91.5735 105.126C93.3164 105.126 94.6961 106.648 94.6961 108.604Z" fill="#606060"/>
<path d="M173.938 60.4885C173.938 60.4885 175.849 57.1953 176.11 55.8086C176.37 54.3354 177.065 48.9622 175.154 47.1423C175.154 47.1423 172.288 50.9555 169.248 48.7022C165.339 45.7557 166.816 32.3228 168.205 30.6762C169.595 29.1163 172.027 24.2631 177.5 24.8698C182.972 25.4764 185.578 41.1625 182.016 44.1957C182.016 44.1957 182.103 53.7287 185.056 55.0287C185.056 55.0287 180.627 61.3551 177.326 61.0951C174.025 61.0084 173.938 60.4885 173.938 60.4885Z" fill="#A67171"/>
<path opacity="0.29" d="M174.981 48.5289L175.242 47.0556C175.242 47.0556 177.5 44.889 177.761 43.4158C177.761 43.4158 177.326 47.4023 175.676 48.6156C173.939 49.8289 174.981 48.5289 174.981 48.5289Z" fill="#826E4F"/>
<path d="M188.618 53.0354C182.798 50.1755 178.281 56.4152 176.978 57.2819C175.675 58.1485 176.37 54.5086 176.37 54.5086L174.025 57.0219C168.379 68.3748 170.985 67.2482 171.158 73.7479C171.419 83.0209 177.152 95.3271 179.497 96.3671L186.793 92.8139C192.092 90.5606 195.653 88.8274 194.785 85.3608C194.263 83.1076 191.31 78.1678 192.787 71.668C193.829 67.0748 194.35 55.8953 188.618 53.0354Z" fill="#12ABBF"/>
<path d="M167.076 35.0093C167.076 35.0093 163.08 35.0093 162.993 32.6694C162.906 30.3294 166.728 30.3294 166.728 30.3294C166.728 30.3294 160.735 29.2028 162.212 26.6029C163.688 23.9163 170.463 24.523 170.463 24.523C170.463 24.523 168.118 22.5297 169.421 20.6231C170.724 18.8032 179.584 21.1431 180.539 25.3896C180.539 25.3896 187.314 23.9163 186.098 33.016C184.795 42.1157 181.929 44.2823 181.929 44.2823C181.929 44.2823 179.931 42.6357 179.584 39.5158C179.584 39.5158 180.713 40.2091 181.408 39.0825C182.103 37.9558 182.45 35.7026 181.668 35.0959C180.974 34.4893 178.541 37.4358 178.541 37.4358C178.541 37.4358 175.588 35.5293 176.022 33.4493C176.457 31.4561 174.893 31.7161 174.893 31.7161C174.893 31.7161 170.203 34.9226 167.423 33.016C167.684 33.016 167.336 33.536 167.076 35.0093Z" fill="#432931"/>
<path d="M86.5 178C88.433 178 90 176.433 90 174.5C90 172.567 88.433 171 86.5 171C84.567 171 83 172.567 83 174.5C83 176.433 84.567 178 86.5 178Z" fill="#483A87"/>
<path d="M127.5 178C129.433 178 131 176.433 131 174.5C131 172.567 129.433 171 127.5 171C125.567 171 124 172.567 124 174.5C124 176.433 125.567 178 127.5 178Z" fill="#483A87"/>
<path d="M138.922 156.28H79.737L74 116.357L147.855 109.039L138.922 156.28ZM80.3906 155.555H138.269L146.911 109.981L74.8714 117.081L80.3906 155.555Z" fill="#648FB1"/>
<path d="M138.922 170.118H80.6807V169.321H138.922C140.592 169.321 144.078 167.583 144.078 162.366C144.078 157.221 139.067 156.352 138.849 156.28L138.995 155.483C139.067 155.483 144.877 156.497 144.877 162.293C144.877 168.235 140.883 170.118 138.922 170.118Z" fill="#648FB1"/>
<path d="M87.3379 155.843L83.8232 115.711L83.0275 115.78L86.5421 155.912L87.3379 155.843Z" fill="#648FB1"/>
<path d="M96.7315 155.824L95.9512 114.171L95.1525 114.185L95.9328 155.839L96.7315 155.824Z" fill="#648FB1"/>
<path d="M109.648 113.416L108.85 113.386L107.268 155.888L108.066 155.917L109.648 113.416Z" fill="#648FB1"/>
<path d="M123.664 111.908L122.87 111.817L117.79 155.866L118.584 155.958L123.664 111.908Z" fill="#648FB1"/>
<path d="M137.689 110.778L136.9 110.649L129.47 155.836L130.258 155.965L137.689 110.778Z" fill="#648FB1"/>
<path d="M145.538 119.641L145.476 118.847L75.6144 124.314L75.6768 125.108L145.538 119.641Z" fill="#648FB1"/>
<path d="M143.202 133.324L143.169 132.528L77.1375 135.238L77.1703 136.034L143.202 133.324Z" fill="#648FB1"/>
<path d="M140.457 146.97L140.452 146.173L78.725 146.534L78.7297 147.331L140.457 146.97Z" fill="#648FB1"/>
<path d="M169.682 174.971C169.682 174.971 161.256 168.211 157 173.324L170.029 175.578" fill="#433041"/>
<path d="M189.924 61.4623C189.201 60.7476 188.962 59.3973 188.301 59.379C185.414 59.003 180.938 62.284 176.039 66.8972C177.817 67.8119 180.203 69.4836 181.699 72.4631C187.227 66.8994 190.968 62.5161 189.924 61.4623Z" fill="#0895A8"/>
<path d="M151.209 96.2965L152.469 99.167C152.469 99.167 170.607 83.6691 181.7 72.463C180.088 69.5259 177.703 67.8542 176.04 66.8971C164.74 77.7217 151.209 96.2965 151.209 96.2965Z" fill="#A67171"/>
<path d="M147 110.328L148.946 101H150L148.135 110.328L147 111" fill="#648FB1"/>
<path d="M146 109L146.056 99L147 99.411L146.5 109H146Z" fill="#648FB1"/>
<path d="M145 98.4396L146.063 96L151.987 99.5604C151.987 99.5604 154.266 102 151.987 102C149.633 102 145 98.4396 145 98.4396Z" fill="#648FB1"/>
<path d="M152.797 96.1695C152.797 96.1695 148.275 93.3226 147.515 96.2169C146.756 99.1112 148.949 102.03 150.02 100.329C151.127 98.5489 150.464 97.2893 151.539 98.0706C152.613 98.8519 152.797 96.1695 152.797 96.1695Z" fill="#A67171"/>
<path d="M153.867 97.9985C153.867 97.9985 149.345 95.1516 148.586 98.0459C147.826 100.94 150.02 103.859 151.09 102.158C152.197 100.378 151.534 99.1182 152.609 99.8996C153.762 100.717 153.867 97.9985 153.867 97.9985Z" fill="#A67171"/>
<defs>
<clipPath id="clip0">
<rect width="113" height="180" fill="white"/>
</clipPath>
</defs>
</svg>
