<svg width="751" height="513" viewBox="0 0 751 513" fill="none" xmlns="http://www.w3.org/2000/svg">
<path d="M24.3608 254.893L144.458 210.524L532.698 292.67L733.497 258.016" stroke="#259DD9" stroke-width="4" stroke-linecap="round" stroke-linejoin="round"/>
<g filter="url(#filter0_d)">
<path d="M568.835 152.696H196.736C187.979 152.696 180.88 160.345 180.88 169.78V446.541C180.88 455.976 187.979 463.625 196.736 463.625H568.835C577.592 463.625 584.692 455.976 584.692 446.541V169.78C584.692 160.345 577.592 152.696 568.835 152.696Z" fill="#E4E4E4"/>
<path d="M568.835 152.696H196.736C187.979 152.696 180.88 160.345 180.88 169.78V446.541C180.88 455.976 187.979 463.625 196.736 463.625H568.835C577.592 463.625 584.692 455.976 584.692 446.541V169.78C584.692 160.345 577.592 152.696 568.835 152.696Z" fill="white"/>
</g>
<path d="M635.432 449.958H130.139V463.625H635.432V449.958Z" fill="#E4E4E4"/>
<path d="M635.432 449.958H130.139V463.625H635.432V449.958Z" fill="white"/>
<path d="M130.139 463.625H635.432L607.86 468.105C607.547 468.156 607.231 468.181 606.913 468.181H382.785H158.657C158.34 468.181 158.024 468.156 157.711 468.105L130.139 463.625Z" fill="#E4E4E4"/>
<path d="M130.139 463.625H635.432L607.86 468.105C607.547 468.156 607.231 468.181 606.913 468.181H382.785H158.657C158.34 468.181 158.024 468.156 157.711 468.105L130.139 463.625Z" fill="#B2D1E1"/>
<path d="M570.949 174.336H190.394C189.81 174.336 189.336 174.846 189.336 175.475V427.179C189.336 427.808 189.81 428.318 190.394 428.318H570.949C571.533 428.318 572.006 427.808 572.006 427.179V175.475C572.006 174.846 571.533 174.336 570.949 174.336Z" fill="#E4E4E4"/>
<path d="M570.949 174.336H190.394C189.81 174.336 189.336 174.846 189.336 175.475V427.179C189.336 427.808 189.81 428.318 190.394 428.318H570.949C571.533 428.318 572.006 427.808 572.006 427.179V175.475C572.006 174.846 571.533 174.336 570.949 174.336Z" fill="#CEE3EE"/>
<path d="M283.418 207.365C283.418 206.736 283.892 206.226 284.475 206.226H564.606C565.19 206.226 565.663 206.736 565.663 207.365V416.929C565.663 417.557 565.19 418.068 564.606 418.068H284.475C283.892 418.068 283.418 417.557 283.418 416.929V207.365Z" fill="#E4E4E4"/>
<path d="M283.418 207.365C283.418 206.736 283.892 206.226 284.475 206.226H564.606C565.19 206.226 565.663 206.736 565.663 207.365V416.929C565.663 417.557 565.19 418.068 564.606 418.068H284.475C283.892 418.068 283.418 417.557 283.418 416.929V207.365Z" fill="white"/>
<path d="M584.692 443.124H180.88V449.958H584.692V443.124Z" fill="#E4E4E4"/>
<path d="M584.692 443.124H180.88V449.958H584.692V443.124Z" fill="#CEE3EE"/>
<path d="M329.931 449.958H436.698C436.698 453.732 433.858 456.792 430.355 456.792H336.273C332.77 456.792 329.931 453.732 329.931 449.958Z" fill="#E4E4E4"/>
<path d="M329.931 449.958H436.698C436.698 453.732 433.858 456.792 430.355 456.792H336.273C332.77 456.792 329.931 453.732 329.931 449.958Z" fill="#BCC7DB"/>
<path d="M189.336 175.475C189.336 174.846 189.81 174.336 190.394 174.336H277.076V428.318H189.336V175.475Z" fill="#238CC0"/>
<path opacity="0.6" d="M208.893 206.226C213.272 206.226 216.821 202.402 216.821 197.684C216.821 192.966 213.272 189.142 208.893 189.142C204.514 189.142 200.965 192.966 200.965 197.684C200.965 202.402 204.514 206.226 208.893 206.226Z" fill="white"/>
<path d="M138.832 221.689C144.478 224.077 151.14 221.081 153.713 214.998C156.286 208.915 153.794 202.048 148.148 199.66C142.502 197.273 135.84 200.268 133.267 206.351C130.694 212.434 133.186 219.301 138.832 221.689Z" fill="white" stroke="#89FFB3" stroke-width="4"/>
<path d="M12.8817 269.824C18.5276 272.211 25.1901 269.216 27.7627 263.133C30.3353 257.05 27.8439 250.183 22.198 247.795C16.552 245.407 9.88957 248.403 7.31694 254.486C4.74431 260.569 7.23572 267.436 12.8817 269.824Z" fill="white" stroke="#259DD9" stroke-width="4"/>
<path d="M728.574 268.3C734.22 270.688 740.882 267.692 743.455 261.609C746.027 255.526 743.536 248.659 737.89 246.271C732.244 243.884 725.581 246.879 723.009 252.962C720.436 259.045 722.928 265.912 728.574 268.3Z" fill="white" stroke="#259DD9" stroke-width="4"/>
<path d="M298.218 254.061C301.137 254.061 303.503 251.512 303.503 248.367C303.503 245.222 301.137 242.672 298.218 242.672C295.299 242.672 292.932 245.222 292.932 248.367C292.932 251.512 295.299 254.061 298.218 254.061Z" fill="#CEE3EE"/>
<path d="M563.549 191.42C563.549 194.565 561.182 197.115 558.264 197.115C555.345 197.115 552.978 194.565 552.978 191.42C552.978 188.275 555.345 185.725 558.264 185.725C561.182 185.725 563.549 188.275 563.549 191.42Z" fill="white"/>
<path d="M258.048 191.42H225.278C224.11 191.42 223.164 192.44 223.164 193.698C223.164 194.956 224.11 195.976 225.278 195.976H258.048C259.215 195.976 260.162 194.956 260.162 193.698C260.162 192.44 259.215 191.42 258.048 191.42Z" fill="white"/>
<path opacity="0.4" d="M261.219 199.393H225.278C224.11 199.393 223.164 200.412 223.164 201.67C223.164 202.928 224.11 203.948 225.278 203.948H261.219C262.387 203.948 263.333 202.928 263.333 201.67C263.333 200.412 262.387 199.393 261.219 199.393Z" fill="white"/>
<path d="M207.307 238.116C209.058 238.116 210.478 236.587 210.478 234.7C210.478 232.812 209.058 231.283 207.307 231.283C205.556 231.283 204.136 232.812 204.136 234.7C204.136 236.587 205.556 238.116 207.307 238.116Z" fill="white"/>
<path d="M251.706 232.422H218.935C217.768 232.422 216.821 233.441 216.821 234.699C216.821 235.958 217.768 236.977 218.935 236.977H251.706C252.873 236.977 253.82 235.958 253.82 234.699C253.82 233.441 252.873 232.422 251.706 232.422Z" fill="white"/>
<path d="M207.307 263.173C209.058 263.173 210.478 261.643 210.478 259.756C210.478 257.869 209.058 256.339 207.307 256.339C205.556 256.339 204.136 257.869 204.136 259.756C204.136 261.643 205.556 263.173 207.307 263.173Z" fill="white"/>
<path d="M251.706 257.478H218.935C217.768 257.478 216.821 258.498 216.821 259.756C216.821 261.014 217.768 262.034 218.935 262.034H251.706C252.873 262.034 253.82 261.014 253.82 259.756C253.82 258.498 252.873 257.478 251.706 257.478Z" fill="white"/>
<path d="M207.307 288.229C209.058 288.229 210.478 286.7 210.478 284.813C210.478 282.926 209.058 281.396 207.307 281.396C205.556 281.396 204.136 282.926 204.136 284.813C204.136 286.7 205.556 288.229 207.307 288.229Z" fill="white"/>
<path d="M251.706 282.535H218.935C217.768 282.535 216.821 283.555 216.821 284.813C216.821 286.071 217.768 287.09 218.935 287.09H251.706C252.873 287.09 253.82 286.071 253.82 284.813C253.82 283.555 252.873 282.535 251.706 282.535Z" fill="white"/>
<path d="M207.307 313.286C209.058 313.286 210.478 311.756 210.478 309.869C210.478 307.982 209.058 306.452 207.307 306.452C205.556 306.452 204.136 307.982 204.136 309.869C204.136 311.756 205.556 313.286 207.307 313.286Z" fill="white"/>
<path d="M251.706 307.591H218.935C217.768 307.591 216.821 308.611 216.821 309.869C216.821 311.127 217.768 312.147 218.935 312.147H251.706C252.873 312.147 253.82 311.127 253.82 309.869C253.82 308.611 252.873 307.591 251.706 307.591Z" fill="white"/>
<path d="M207.307 338.342C209.058 338.342 210.478 336.813 210.478 334.926C210.478 333.039 209.058 331.509 207.307 331.509C205.556 331.509 204.136 333.039 204.136 334.926C204.136 336.813 205.556 338.342 207.307 338.342Z" fill="white"/>
<path d="M251.706 332.648H218.935C217.768 332.648 216.821 333.668 216.821 334.926C216.821 336.184 217.768 337.203 218.935 337.203H251.706C252.873 337.203 253.82 336.184 253.82 334.926C253.82 333.668 252.873 332.648 251.706 332.648Z" fill="white"/>
<path d="M366.929 246.089H320.417C319.249 246.089 318.303 247.109 318.303 248.367C318.303 249.625 319.249 250.645 320.417 250.645H366.929C368.097 250.645 369.044 249.625 369.044 248.367C369.044 247.109 368.097 246.089 366.929 246.089Z" fill="#CEE3EE"/>
<path d="M334.159 189.142H295.046C293.879 189.142 292.932 190.162 292.932 191.42C292.932 192.678 293.879 193.698 295.046 193.698H334.159C335.327 193.698 336.273 192.678 336.273 191.42C336.273 190.162 335.327 189.142 334.159 189.142Z" fill="white"/>
<path d="M543.464 189.142H514.923C513.755 189.142 512.809 190.162 512.809 191.42C512.809 192.678 513.755 193.698 514.923 193.698H543.464C544.632 193.698 545.579 192.678 545.579 191.42C545.579 190.162 544.632 189.142 543.464 189.142Z" fill="white"/>
<path d="M346.844 221.032H295.046C293.879 221.032 292.932 222.052 292.932 223.31C292.932 224.568 293.879 225.588 295.046 225.588H346.844C348.012 225.588 348.958 224.568 348.958 223.31C348.958 222.052 348.012 221.032 346.844 221.032Z" fill="#8D8DAD"/>
<path d="M537.122 221.032H514.923C513.755 221.032 512.809 222.052 512.809 223.31C512.809 224.568 513.755 225.588 514.923 225.588H537.122C538.29 225.588 539.236 224.568 539.236 223.31C539.236 222.052 538.29 221.032 537.122 221.032Z" fill="#8D8DAD"/>
<path d="M396.528 221.032H388.071C386.904 221.032 385.957 222.052 385.957 223.31C385.957 224.568 386.904 225.588 388.071 225.588H396.528C397.696 225.588 398.642 224.568 398.642 223.31C398.642 222.052 397.696 221.032 396.528 221.032Z" fill="#8D8DAD"/>
<path d="M456.782 221.032H413.441C412.274 221.032 411.327 222.052 411.327 223.31C411.327 224.568 412.274 225.588 413.441 225.588H456.782C457.95 225.588 458.897 224.568 458.897 223.31C458.897 222.052 457.95 221.032 456.782 221.032Z" fill="#8D8DAD"/>
<path d="M385.957 162.947C385.957 161.06 384.537 159.53 382.786 159.53C381.034 159.53 379.614 161.06 379.614 162.947C379.614 164.834 381.034 166.363 382.786 166.363C384.537 166.363 385.957 164.834 385.957 162.947Z" fill="#DAE3F3"/>
<path d="M366.875 268H320.125C318.951 268 318 278.074 318 290.5C318 302.926 318.951 313 320.125 313H366.875C368.049 313 369 302.926 369 290.5C369 278.074 368.049 268 366.875 268Z" fill="#CEE3EE"/>
<path d="M423.875 268H377.125C375.951 268 375 278.074 375 290.5C375 302.926 375.951 313 377.125 313H423.875C425.049 313 426 302.926 426 290.5C426 278.074 425.049 268 423.875 268Z" fill="#CEE3EE"/>
<path d="M480.875 268H434.125C432.951 268 432 278.074 432 290.5C432 302.926 432.951 313 434.125 313H480.875C482.049 313 483 302.926 483 290.5C483 278.074 482.049 268 480.875 268Z" fill="#CEE3EE"/>
<path d="M366.875 322H320.125C318.951 322 318 332.074 318 344.5C318 356.926 318.951 367 320.125 367H366.875C368.049 367 369 356.926 369 344.5C369 332.074 368.049 322 366.875 322Z" fill="#CEE3EE"/>
<path d="M423.875 322H377.125C375.951 322 375 332.074 375 344.5C375 356.926 375.951 367 377.125 367H423.875C425.049 367 426 356.926 426 344.5C426 332.074 425.049 322 423.875 322Z" fill="#CEE3EE"/>
<path d="M480.875 322H434.125C432.951 322 432 332.074 432 344.5C432 356.926 432.951 367 434.125 367H480.875C482.049 367 483 356.926 483 344.5C483 332.074 482.049 322 480.875 322Z" fill="#CEE3EE"/>
<path d="M366.875 398H320.125C318.951 398 318 402.477 318 408C318 413.523 318.951 418 320.125 418H366.875C368.049 418 369 413.523 369 408C369 402.477 368.049 398 366.875 398Z" fill="#CEE3EE"/>
<path d="M423.875 398H377.125C375.951 398 375 402.477 375 408C375 413.523 375.951 418 377.125 418H423.875C425.049 418 426 413.523 426 408C426 402.477 425.049 398 423.875 398Z" fill="#CEE3EE"/>
<path d="M480.875 398H434.125C432.951 398 432 402.477 432 408C432 413.523 432.951 418 434.125 418H480.875C482.049 418 483 413.523 483 408C483 402.477 482.049 398 480.875 398Z" fill="#CEE3EE"/>
<path d="M392.3 246.089H388.071C386.904 246.089 385.957 247.109 385.957 248.367C385.957 249.625 386.904 250.645 388.071 250.645H392.3C393.467 250.645 394.414 249.625 394.414 248.367C394.414 247.109 393.467 246.089 392.3 246.089Z" fill="#CEE3EE"/>
<path d="M366.929 382H320.417C319.249 382 318.303 383.02 318.303 384.278C318.303 385.536 319.249 386.556 320.417 386.556H366.929C368.097 386.556 369.044 385.536 369.044 384.278C369.044 383.02 368.097 382 366.929 382Z" fill="#CEE3EE"/>
<path d="M392.3 382H388.071C386.904 382 385.957 383.02 385.957 384.278C385.957 385.536 386.904 386.556 388.071 386.556H392.3C393.467 386.556 394.414 385.536 394.414 384.278C394.414 383.02 393.467 382 392.3 382Z" fill="#CEE3EE"/>
<path d="M496.952 246.089H413.441C412.274 246.089 411.327 247.109 411.327 248.367C411.327 249.625 412.274 250.645 413.441 250.645H496.952C498.12 250.645 499.066 249.625 499.066 248.367C499.066 247.109 498.12 246.089 496.952 246.089Z" fill="#CEE3EE"/>
<path d="M487.438 246.089H413.441C412.274 246.089 411.327 247.109 411.327 248.367C411.327 249.625 412.274 250.645 413.441 250.645H487.438C488.606 250.645 489.552 249.625 489.552 248.367C489.552 247.109 488.606 246.089 487.438 246.089Z" fill="#DD346B"/>
<path d="M547.693 246.089H514.923C513.755 246.089 512.809 247.109 512.809 248.367C512.809 249.625 513.755 250.645 514.923 250.645H547.693C548.86 250.645 549.807 249.625 549.807 248.367C549.807 247.109 548.86 246.089 547.693 246.089Z" fill="#CEE3EE"/>
<path d="M547.693 267.729H514.923C513.755 267.729 512.809 268.748 512.809 270.006C512.809 271.264 513.755 272.284 514.923 272.284H547.693C548.86 272.284 549.807 271.264 549.807 270.006C549.807 268.748 548.86 267.729 547.693 267.729Z" fill="#CEE3EE"/>
<path d="M547.693 292.785H514.923C513.755 292.785 512.809 293.805 512.809 295.063C512.809 296.321 513.755 297.341 514.923 297.341H547.693C548.86 297.341 549.807 296.321 549.807 295.063C549.807 293.805 548.86 292.785 547.693 292.785Z" fill="#C4C4C4"/>
<path d="M547.693 317.842H514.923C513.755 317.842 512.809 318.861 512.809 320.119C512.809 321.377 513.755 322.397 514.923 322.397H547.693C548.86 322.397 549.807 321.377 549.807 320.119C549.807 318.861 548.86 317.842 547.693 317.842Z" fill="#C4C4C4"/>
<path d="M547.693 342.898H514.923C513.755 342.898 512.809 343.918 512.809 345.176C512.809 346.434 513.755 347.454 514.923 347.454H547.693C548.86 347.454 549.807 346.434 549.807 345.176C549.807 343.918 548.86 342.898 547.693 342.898Z" fill="#C4C4C4"/>
<path d="M547.693 367.955H514.923C513.755 367.955 512.809 368.974 512.809 370.232C512.809 371.491 513.755 372.51 514.923 372.51H547.693C548.86 372.51 549.807 371.491 549.807 370.232C549.807 368.974 548.86 367.955 547.693 367.955Z" fill="#C4C4C4"/>
<path d="M547.693 393.011H514.923C513.755 393.011 512.809 394.031 512.809 395.289C512.809 396.547 513.755 397.567 514.923 397.567H547.693C548.86 397.567 549.807 396.547 549.807 395.289C549.807 394.031 548.86 393.011 547.693 393.011Z" fill="#C4C4C4"/>
<g filter="url(#filter1_d)">
<path d="M606.89 277.979H493.781V432.874H606.89V277.979Z" fill="white"/>
</g>
<path d="M583.106 407.817H518.623C517.747 407.817 517.037 408.582 517.037 409.526C517.037 410.469 517.747 411.234 518.623 411.234H583.106C583.982 411.234 584.691 410.469 584.691 409.526C584.691 408.582 583.982 407.817 583.106 407.817Z" fill="#DAE3F3"/>
<path d="M586.277 399.845H514.394C513.519 399.845 512.809 400.61 512.809 401.553C512.809 402.497 513.519 403.262 514.394 403.262H586.277C587.153 403.262 587.863 402.497 587.863 401.553C587.863 400.61 587.153 399.845 586.277 399.845Z" fill="#DAE3F3"/>
<path d="M580.463 382.761H520.208C517.873 382.761 515.979 384.8 515.979 387.316C515.979 389.833 517.873 391.872 520.208 391.872H580.463C582.798 391.872 584.691 389.833 584.691 387.316C584.691 384.8 582.798 382.761 580.463 382.761Z" fill="#DAE3F3"/>
<path d="M572.006 382.761H520.208C517.873 382.761 515.979 384.8 515.979 387.316C515.979 389.833 517.873 391.872 520.208 391.872H572.006C574.341 391.872 576.234 389.833 576.234 387.316C576.234 384.8 574.341 382.761 572.006 382.761Z" fill="#DD346B"/>
<path d="M562.566 386.027C562.566 386.263 562.512 386.473 562.402 386.655C562.293 386.837 562.142 386.983 561.95 387.092C562.169 387.205 562.342 387.362 562.47 387.563C562.599 387.761 562.662 387.994 562.662 388.263C562.662 388.695 562.526 389.036 562.253 389.287C561.982 389.536 561.611 389.662 561.142 389.662C560.673 389.662 560.302 389.535 560.027 389.285C559.752 389.033 559.615 388.692 559.615 388.263C559.615 387.994 559.679 387.76 559.807 387.559C559.935 387.359 560.107 387.203 560.324 387.092C560.133 386.983 559.982 386.837 559.872 386.655C559.765 386.473 559.711 386.263 559.711 386.027C559.711 385.614 559.839 385.285 560.095 385.04C560.352 384.793 560.699 384.67 561.139 384.67C561.577 384.67 561.923 384.792 562.179 385.036C562.437 385.279 562.566 385.609 562.566 386.027ZM561.765 388.194C561.765 387.982 561.708 387.813 561.594 387.686C561.481 387.559 561.327 387.495 561.136 387.495C560.946 387.495 560.794 387.559 560.68 387.686C560.567 387.811 560.51 387.979 560.51 388.194C560.51 388.4 560.566 388.567 560.677 388.694C560.789 388.82 560.943 388.884 561.142 388.884C561.336 388.884 561.488 388.822 561.597 388.7C561.709 388.577 561.765 388.409 561.765 388.194ZM561.672 386.074C561.672 385.885 561.625 385.733 561.532 385.621C561.439 385.504 561.308 385.446 561.139 385.446C560.972 385.446 560.841 385.502 560.749 385.614C560.656 385.725 560.609 385.878 560.609 386.074C560.609 386.268 560.656 386.424 560.749 386.541C560.841 386.659 560.972 386.719 561.142 386.719C561.311 386.719 561.441 386.659 561.532 386.541C561.625 386.424 561.672 386.268 561.672 386.074ZM565.363 387.653C565.13 387.9 564.857 388.023 564.545 388.023C564.147 388.023 563.828 387.876 563.588 387.582C563.349 387.287 563.229 386.888 563.229 386.388C563.229 386.069 563.293 385.778 563.421 385.514C563.551 385.247 563.732 385.04 563.964 384.893C564.194 384.744 564.454 384.67 564.744 384.67C565.041 384.67 565.305 384.749 565.537 384.91C565.768 385.069 565.948 385.3 566.076 385.6C566.204 385.901 566.268 386.245 566.27 386.631V386.989C566.27 387.798 566.083 388.434 565.71 388.897C565.336 389.36 564.806 389.607 564.121 389.638L563.901 389.641V388.837L564.1 388.834C564.878 388.796 565.299 388.402 565.363 387.653ZM564.765 387.286C564.91 387.286 565.033 387.246 565.137 387.165C565.243 387.085 565.322 386.989 565.376 386.875V386.478C565.376 386.151 565.318 385.897 565.201 385.718C565.086 385.538 564.932 385.446 564.737 385.446C564.558 385.446 564.41 385.536 564.295 385.714C564.179 385.889 564.121 386.11 564.121 386.378C564.121 386.642 564.177 386.861 564.288 387.032C564.402 387.2 564.561 387.286 564.765 387.286ZM566.899 385.671C566.899 385.372 566.989 385.131 567.169 384.946C567.348 384.76 567.583 384.666 567.875 384.666C568.17 384.666 568.408 384.758 568.587 384.943C568.767 385.125 568.857 385.374 568.857 385.687V385.927C568.857 386.228 568.767 386.469 568.587 386.651C568.408 386.834 568.172 386.925 567.881 386.925C567.587 386.925 567.351 386.834 567.169 386.651C566.989 386.467 566.899 386.219 566.899 385.908V385.671ZM567.493 385.927C567.493 386.06 567.529 386.169 567.599 386.251C567.671 386.331 567.765 386.371 567.881 386.371C567.996 386.371 568.088 386.33 568.156 386.248C568.225 386.165 568.259 386.056 568.259 385.917V385.671C568.259 385.538 568.225 385.429 568.156 385.347C568.088 385.264 567.994 385.223 567.875 385.223C567.761 385.223 567.669 385.264 567.599 385.347C567.529 385.427 567.493 385.539 567.493 385.683V385.927ZM569.055 388.403C569.055 388.102 569.146 387.862 569.327 387.679C569.509 387.494 569.744 387.402 570.034 387.402C570.326 387.402 570.563 387.493 570.743 387.675C570.925 387.856 571.015 388.105 571.015 388.424V388.664C571.015 388.961 570.927 389.203 570.749 389.387C570.572 389.571 570.335 389.662 570.04 389.662C569.742 389.662 569.504 389.569 569.324 389.384C569.145 389.199 569.055 388.954 569.055 388.65V388.403ZM569.65 388.664C569.65 388.786 569.687 388.891 569.761 388.977C569.835 389.064 569.928 389.107 570.04 389.107C570.291 389.107 570.417 388.957 570.417 388.657V388.403C570.417 388.27 570.382 388.163 570.312 388.083C570.242 388.001 570.149 387.959 570.034 387.959C569.917 387.959 569.825 388.001 569.754 388.083C569.685 388.163 569.65 388.273 569.65 388.413V388.664ZM568.058 389.231L567.621 388.977L569.823 385.18L570.26 385.434L568.058 389.231Z" fill="white"/>
<path d="M549.5 370C570.211 370 587 353.211 587 332.5C587 311.789 570.211 295 549.5 295C528.789 295 512 311.789 512 332.5C512 353.211 528.789 370 549.5 370Z" fill="#08ADFF"/>
<path d="M587 332.5C587 331.973 586.987 331.449 586.965 330.928L572.389 316.351L527.214 349.167L548.015 369.968C548.508 369.987 549.003 370 549.5 370C570.211 370 587 353.211 587 332.5Z" fill="#238CC0"/>
<path d="M569.744 349.798H529.256C527.257 349.798 525.636 348.178 525.636 346.179V318.822C525.636 316.823 527.257 315.202 529.256 315.202H569.744C571.743 315.202 573.363 316.823 573.363 318.822V346.179C573.363 348.178 571.743 349.798 569.744 349.798Z" fill="#39B5F3"/>
<path d="M569.744 315.202H549.416V349.798H569.744C571.743 349.798 573.364 348.177 573.364 346.178V318.821C573.364 316.822 571.743 315.202 569.744 315.202Z" fill="#259DD9"/>
<path d="M536.497 329.356C536.456 329.315 536.345 329.239 536.161 329.127C535.978 329.015 535.749 328.898 535.475 328.775C535.2 328.653 534.9 328.547 534.574 328.455C534.248 328.363 533.923 328.317 533.597 328.317C533.17 328.317 532.841 328.394 532.613 328.546C532.384 328.699 532.269 328.923 532.269 329.218C532.269 329.401 532.32 329.554 532.422 329.676C532.523 329.798 532.668 329.907 532.857 330.004C533.045 330.101 533.279 330.19 533.559 330.271C533.838 330.353 534.162 330.444 534.528 330.546C535.047 330.688 535.515 330.844 535.932 331.012C536.35 331.18 536.706 331.388 537.001 331.638C537.296 331.887 537.522 332.19 537.68 332.546C537.838 332.902 537.917 333.33 537.917 333.828C537.917 334.439 537.802 334.955 537.573 335.377C537.344 335.8 537.042 336.141 536.665 336.4C536.288 336.66 535.853 336.848 535.36 336.965C534.866 337.082 534.36 337.14 533.841 337.14C533.444 337.14 533.04 337.11 532.627 337.049C532.215 336.988 531.811 336.899 531.414 336.782C531.017 336.665 530.63 336.525 530.254 336.362C529.877 336.199 529.531 336.011 529.216 335.797L530.315 333.614C530.366 333.665 530.503 333.762 530.727 333.904C530.951 334.047 531.226 334.189 531.551 334.331C531.877 334.474 532.243 334.601 532.651 334.713C533.057 334.825 533.47 334.881 533.887 334.881C534.772 334.881 535.215 334.612 535.215 334.072C535.215 333.869 535.149 333.701 535.017 333.568C534.884 333.437 534.701 333.317 534.467 333.21C534.233 333.103 533.958 333.004 533.643 332.912C533.327 332.82 532.981 332.719 532.605 332.607C532.106 332.454 531.674 332.289 531.307 332.111C530.941 331.933 530.636 331.727 530.392 331.493C530.147 331.259 529.967 330.989 529.85 330.684C529.732 330.378 529.674 330.022 529.674 329.615C529.674 329.046 529.781 328.542 529.995 328.104C530.208 327.667 530.498 327.298 530.865 326.998C531.231 326.698 531.656 326.471 532.139 326.318C532.623 326.166 533.134 326.089 533.673 326.089C534.06 326.089 534.437 326.125 534.803 326.196C535.169 326.268 535.518 326.359 535.849 326.471C536.179 326.583 536.492 326.71 536.787 326.853C537.082 326.995 537.347 327.138 537.581 327.28L536.497 329.356Z" fill="#1F4665"/>
<path d="M543.931 337.11C543.157 337.11 542.455 336.952 541.824 336.637C541.193 336.321 540.651 335.906 540.198 335.392C539.746 334.879 539.394 334.291 539.145 333.629C538.896 332.968 538.771 332.286 538.771 331.584C538.771 330.872 538.901 330.185 539.16 329.523C539.42 328.862 539.781 328.279 540.244 327.776C540.707 327.272 541.257 326.87 541.893 326.57C542.529 326.27 543.223 326.119 543.976 326.119C544.75 326.119 545.452 326.277 546.083 326.593C546.713 326.908 547.256 327.325 547.709 327.844C548.161 328.363 548.51 328.954 548.754 329.615C548.999 330.277 549.121 330.948 549.121 331.63C549.121 332.342 548.991 333.029 548.731 333.69C548.472 334.352 548.113 334.934 547.655 335.438C547.197 335.942 546.65 336.346 546.014 336.651C545.378 336.957 544.684 337.11 543.931 337.11ZM541.321 331.615C541.321 332.032 541.379 332.436 541.496 332.828C541.613 333.22 541.781 333.568 542 333.874C542.218 334.179 542.493 334.423 542.824 334.606C543.155 334.79 543.534 334.881 543.961 334.881C544.399 334.881 544.78 334.785 545.106 334.591C545.431 334.398 545.704 334.146 545.922 333.836C546.141 333.525 546.304 333.174 546.411 332.783C546.518 332.391 546.571 331.991 546.571 331.584C546.571 331.167 546.513 330.762 546.396 330.371C546.279 329.979 546.108 329.633 545.885 329.333C545.661 329.033 545.386 328.794 545.06 328.615C544.734 328.437 544.363 328.348 543.946 328.348C543.508 328.348 543.127 328.442 542.801 328.63C542.476 328.819 542.204 329.065 541.985 329.371C541.766 329.676 541.601 330.025 541.489 330.417C541.376 330.808 541.321 331.208 541.321 331.615Z" fill="#1F4665"/>
<path d="M550.586 337.018V326.181H553.089V334.82H558.34V337.018H550.586Z" fill="#1F4665"/>
<path d="M559.576 337.018V326.181H563.621C564.516 326.181 565.3 326.323 565.972 326.608C566.644 326.893 567.206 327.28 567.659 327.768C568.111 328.257 568.453 328.829 568.681 329.486C568.91 330.142 569.025 330.842 569.025 331.585C569.025 332.409 568.897 333.155 568.643 333.821C568.388 334.487 568.025 335.057 567.552 335.53C567.079 336.004 566.508 336.37 565.842 336.629C565.175 336.889 564.435 337.019 563.621 337.019H559.576V337.018ZM566.475 331.584C566.475 331.106 566.412 330.671 566.284 330.279C566.157 329.887 565.972 329.549 565.727 329.264C565.483 328.979 565.183 328.76 564.827 328.607C564.471 328.455 564.069 328.379 563.621 328.379H562.08V334.82H563.621C564.079 334.82 564.486 334.739 564.842 334.576C565.198 334.413 565.496 334.186 565.735 333.897C565.974 333.607 566.157 333.266 566.285 332.874C566.412 332.482 566.475 332.052 566.475 331.584Z" fill="#1F4665"/>
<defs>
<filter id="filter0_d" x="176.88" y="152.696" width="411.812" height="318.929" filterUnits="userSpaceOnUse" color-interpolation-filters="sRGB">
<feFlood flood-opacity="0" result="BackgroundImageFix"/>
<feColorMatrix in="SourceAlpha" type="matrix" values="0 0 0 0 0 0 0 0 0 0 0 0 0 0 0 0 0 0 127 0"/>
<feOffset dy="4"/>
<feGaussianBlur stdDeviation="2"/>
<feColorMatrix type="matrix" values="0 0 0 0 0 0 0 0 0 0 0 0 0 0 0 0 0 0 0.25 0"/>
<feBlend mode="normal" in2="BackgroundImageFix" result="effect1_dropShadow"/>
<feBlend mode="normal" in="SourceGraphic" in2="effect1_dropShadow" result="shape"/>
</filter>
<filter id="filter1_d" x="463.781" y="251.979" width="173.11" height="214.895" filterUnits="userSpaceOnUse" color-interpolation-filters="sRGB">
<feFlood flood-opacity="0" result="BackgroundImageFix"/>
<feColorMatrix in="SourceAlpha" type="matrix" values="0 0 0 0 0 0 0 0 0 0 0 0 0 0 0 0 0 0 127 0"/>
<feOffset dy="4"/>
<feGaussianBlur stdDeviation="15"/>
<feColorMatrix type="matrix" values="0 0 0 0 0 0 0 0 0 0 0 0 0 0 0 0 0 0 0.25 0"/>
<feBlend mode="normal" in2="BackgroundImageFix" result="effect1_dropShadow"/>
<feBlend mode="normal" in="SourceGraphic" in2="effect1_dropShadow" result="shape"/>
</filter>
</defs>
</svg>
