<svg width="24" height="24" viewBox="0 0 24 24" fill="none" xmlns="http://www.w3.org/2000/svg">
<circle cx="12.001" cy="10.5" r="4.18555" stroke="#12191D" stroke-width="0.628894"/>
<path fill-rule="evenodd" clip-rule="evenodd" d="M12 0C5.4 0 0 5.4 0 12C0 18.6 5.4 24 12 24C18.6 24 24 18.6 24 12C24 5.4 18.6 0 12 0ZM17.5078 19.0305H6.66206C5.77063 19.0305 5.02777 19.4033 4.58206 20C2.30781 19.0305 0.707812 15.0305 0.707812 11.8305C0.707812 6.0881 5.50781 0.630469 11.9078 0.630469C18.3078 0.630469 23.1078 6.0881 23.1078 11.8305C23.1078 15.8305 21.3706 18.1356 19.5878 20C19.1078 19.0305 18.3249 19.0305 17.5078 19.0305Z" fill="#12191D"/>
</svg>
