<svg width="240" height="197" viewBox="0 0 240 197" fill="none" xmlns="http://www.w3.org/2000/svg">
<circle cx="96" cy="101" r="96" fill="white"/>
<path d="M94 52C87.5652 52 81.1935 53.2674 75.2485 55.7299C69.3036 58.1924 63.9018 61.8017 59.3518 66.3518C54.8017 70.9018 51.1924 76.3036 48.7299 82.2485C46.2674 88.1935 45 94.5652 45 101C45 107.435 46.2674 113.807 48.7299 119.751C51.1924 125.696 54.8017 131.098 59.3518 135.648C63.9018 140.198 69.3036 143.808 75.2485 146.27C81.1935 148.733 87.5652 150 94 150L94 101L94 52Z" fill="#D3D3D3"/>
<path d="M98 52C104.435 52 110.807 53.2674 116.751 55.7299C122.696 58.1924 128.098 61.8017 132.648 66.3518C137.198 70.9018 140.808 76.3036 143.27 82.2485C145.733 88.1935 147 94.5652 147 101C147 107.435 145.733 113.807 143.27 119.751C140.808 125.696 137.198 131.098 132.648 135.648C128.098 140.198 122.696 143.808 116.751 146.27C110.807 148.733 104.435 150 98 150L98 101L98 52Z" fill="#D3D3D3"/>
<rect x="121" width="119" height="39" rx="19.5" fill="#00486B"/>
<path d="M146.092 14.312V24H144.818V16.776L141.598 24H140.702L137.468 16.762V24H136.194V14.312H137.566L141.15 22.32L144.734 14.312H146.092ZM151.599 24.126C150.88 24.126 150.227 23.9627 149.639 23.636C149.06 23.3093 148.603 22.8473 148.267 22.25C147.94 21.6433 147.777 20.9433 147.777 20.15C147.777 19.366 147.945 18.6753 148.281 18.078C148.626 17.4713 149.093 17.0093 149.681 16.692C150.269 16.3653 150.927 16.202 151.655 16.202C152.383 16.202 153.041 16.3653 153.629 16.692C154.217 17.0093 154.679 17.4667 155.015 18.064C155.36 18.6613 155.533 19.3567 155.533 20.15C155.533 20.9433 155.355 21.6433 155.001 22.25C154.655 22.8473 154.184 23.3093 153.587 23.636C152.989 23.9627 152.327 24.126 151.599 24.126ZM151.599 23.006C152.056 23.006 152.485 22.8987 152.887 22.684C153.288 22.4693 153.61 22.1473 153.853 21.718C154.105 21.2887 154.231 20.766 154.231 20.15C154.231 19.534 154.109 19.0113 153.867 18.582C153.624 18.1527 153.307 17.8353 152.915 17.63C152.523 17.4153 152.098 17.308 151.641 17.308C151.174 17.308 150.745 17.4153 150.353 17.63C149.97 17.8353 149.662 18.1527 149.429 18.582C149.195 19.0113 149.079 19.534 149.079 20.15C149.079 20.7753 149.191 21.3027 149.415 21.732C149.648 22.1613 149.956 22.4833 150.339 22.698C150.721 22.9033 151.141 23.006 151.599 23.006ZM159.924 24.126C159.336 24.126 158.809 24.028 158.342 23.832C157.875 23.6267 157.507 23.3467 157.236 22.992C156.965 22.628 156.816 22.2127 156.788 21.746H158.104C158.141 22.1287 158.319 22.4413 158.636 22.684C158.963 22.9267 159.387 23.048 159.91 23.048C160.395 23.048 160.778 22.9407 161.058 22.726C161.338 22.5113 161.478 22.2407 161.478 21.914C161.478 21.578 161.329 21.3307 161.03 21.172C160.731 21.004 160.269 20.8407 159.644 20.682C159.075 20.5327 158.608 20.3833 158.244 20.234C157.889 20.0753 157.581 19.8467 157.32 19.548C157.068 19.24 156.942 18.8387 156.942 18.344C156.942 17.952 157.059 17.5927 157.292 17.266C157.525 16.9393 157.857 16.6827 158.286 16.496C158.715 16.3 159.205 16.202 159.756 16.202C160.605 16.202 161.291 16.4167 161.814 16.846C162.337 17.2753 162.617 17.8633 162.654 18.61H161.38C161.352 18.2087 161.189 17.8867 160.89 17.644C160.601 17.4013 160.209 17.28 159.714 17.28C159.257 17.28 158.893 17.378 158.622 17.574C158.351 17.77 158.216 18.0267 158.216 18.344C158.216 18.596 158.295 18.806 158.454 18.974C158.622 19.1327 158.827 19.2633 159.07 19.366C159.322 19.4593 159.667 19.5667 160.106 19.688C160.657 19.8373 161.105 19.9867 161.45 20.136C161.795 20.276 162.089 20.4907 162.332 20.78C162.584 21.0693 162.715 21.4473 162.724 21.914C162.724 22.334 162.607 22.712 162.374 23.048C162.141 23.384 161.809 23.65 161.38 23.846C160.96 24.0327 160.475 24.126 159.924 24.126ZM166.076 17.378V21.9C166.076 22.2733 166.156 22.5393 166.314 22.698C166.473 22.8473 166.748 22.922 167.14 22.922H168.078V24H166.93C166.221 24 165.689 23.8367 165.334 23.51C164.98 23.1833 164.802 22.6467 164.802 21.9V17.378H163.808V16.328H164.802V14.396H166.076V16.328H168.078V17.378H166.076ZM179.878 17.098C179.878 17.91 179.598 18.5867 179.038 19.128C178.488 19.66 177.643 19.926 176.504 19.926H174.628V24H173.354V14.242H176.504C177.606 14.242 178.441 14.508 179.01 15.04C179.589 15.572 179.878 16.258 179.878 17.098ZM176.504 18.876C177.214 18.876 177.736 18.722 178.072 18.414C178.408 18.106 178.576 17.6673 178.576 17.098C178.576 15.894 177.886 15.292 176.504 15.292H174.628V18.876H176.504ZM184.808 24.126C184.089 24.126 183.436 23.9627 182.848 23.636C182.269 23.3093 181.812 22.8473 181.476 22.25C181.149 21.6433 180.986 20.9433 180.986 20.15C180.986 19.366 181.154 18.6753 181.49 18.078C181.835 17.4713 182.302 17.0093 182.89 16.692C183.478 16.3653 184.136 16.202 184.864 16.202C185.592 16.202 186.25 16.3653 186.838 16.692C187.426 17.0093 187.888 17.4667 188.224 18.064C188.569 18.6613 188.742 19.3567 188.742 20.15C188.742 20.9433 188.564 21.6433 188.21 22.25C187.864 22.8473 187.393 23.3093 186.796 23.636C186.198 23.9627 185.536 24.126 184.808 24.126ZM184.808 23.006C185.265 23.006 185.694 22.8987 186.096 22.684C186.497 22.4693 186.819 22.1473 187.062 21.718C187.314 21.2887 187.44 20.766 187.44 20.15C187.44 19.534 187.318 19.0113 187.076 18.582C186.833 18.1527 186.516 17.8353 186.124 17.63C185.732 17.4153 185.307 17.308 184.85 17.308C184.383 17.308 183.954 17.4153 183.562 17.63C183.179 17.8353 182.871 18.1527 182.638 18.582C182.404 19.0113 182.288 19.534 182.288 20.15C182.288 20.7753 182.4 21.3027 182.624 21.732C182.857 22.1613 183.165 22.4833 183.548 22.698C183.93 22.9033 184.35 23.006 184.808 23.006ZM191.691 17.742C191.943 17.3033 192.316 16.9393 192.811 16.65C193.315 16.3513 193.898 16.202 194.561 16.202C195.242 16.202 195.858 16.3653 196.409 16.692C196.969 17.0187 197.408 17.4807 197.725 18.078C198.042 18.666 198.201 19.352 198.201 20.136C198.201 20.9107 198.042 21.6013 197.725 22.208C197.408 22.8147 196.969 23.286 196.409 23.622C195.858 23.958 195.242 24.126 194.561 24.126C193.908 24.126 193.329 23.9813 192.825 23.692C192.33 23.3933 191.952 23.0247 191.691 22.586V27.64H190.417V16.328H191.691V17.742ZM196.899 20.136C196.899 19.5573 196.782 19.0533 196.549 18.624C196.316 18.1947 195.998 17.868 195.597 17.644C195.205 17.42 194.771 17.308 194.295 17.308C193.828 17.308 193.394 17.4247 192.993 17.658C192.601 17.882 192.284 18.2133 192.041 18.652C191.808 19.0813 191.691 19.5807 191.691 20.15C191.691 20.7287 191.808 21.2373 192.041 21.676C192.284 22.1053 192.601 22.4367 192.993 22.67C193.394 22.894 193.828 23.006 194.295 23.006C194.771 23.006 195.205 22.894 195.597 22.67C195.998 22.4367 196.316 22.1053 196.549 21.676C196.782 21.2373 196.899 20.724 196.899 20.136ZM206.682 16.328V24H205.408V22.866C205.165 23.258 204.824 23.566 204.386 23.79C203.956 24.0047 203.48 24.112 202.958 24.112C202.36 24.112 201.824 23.9907 201.348 23.748C200.872 23.496 200.494 23.1227 200.214 22.628C199.943 22.1333 199.808 21.5313 199.808 20.822V16.328H201.068V20.654C201.068 21.41 201.259 21.9933 201.642 22.404C202.024 22.8053 202.547 23.006 203.21 23.006C203.891 23.006 204.428 22.796 204.82 22.376C205.212 21.956 205.408 21.3447 205.408 20.542V16.328H206.682ZM210.107 13.64V24H208.833V13.64H210.107ZM211.802 20.136C211.802 19.352 211.961 18.666 212.278 18.078C212.596 17.4807 213.03 17.0187 213.58 16.692C214.14 16.3653 214.761 16.202 215.442 16.202C216.114 16.202 216.698 16.3467 217.192 16.636C217.687 16.9253 218.056 17.2893 218.298 17.728V16.328H219.586V24H218.298V22.572C218.046 23.02 217.668 23.3933 217.164 23.692C216.67 23.9813 216.091 24.126 215.428 24.126C214.747 24.126 214.131 23.958 213.58 23.622C213.03 23.286 212.596 22.8147 212.278 22.208C211.961 21.6013 211.802 20.9107 211.802 20.136ZM218.298 20.15C218.298 19.5713 218.182 19.0673 217.948 18.638C217.715 18.2087 217.398 17.882 216.996 17.658C216.604 17.4247 216.17 17.308 215.694 17.308C215.218 17.308 214.784 17.42 214.392 17.644C214 17.868 213.688 18.1947 213.454 18.624C213.221 19.0533 213.104 19.5573 213.104 20.136C213.104 20.724 213.221 21.2373 213.454 21.676C213.688 22.1053 214 22.4367 214.392 22.67C214.784 22.894 215.218 23.006 215.694 23.006C216.17 23.006 216.604 22.894 216.996 22.67C217.398 22.4367 217.715 22.1053 217.948 21.676C218.182 21.2373 218.298 20.7287 218.298 20.15ZM223.013 17.574C223.237 17.1353 223.554 16.7947 223.965 16.552C224.385 16.3093 224.894 16.188 225.491 16.188V17.504H225.155C223.727 17.504 223.013 18.2787 223.013 19.828V24H221.739V16.328H223.013V17.574Z" fill="white"/>
</svg>
