<svg width="192" height="192" viewBox="0 0 192 192" fill="none" xmlns="http://www.w3.org/2000/svg">
<circle cx="96" cy="96" r="96" fill="white"/>
<path d="M123.392 50.8899C130.663 55.2291 136.671 61.3961 140.819 68.7776C144.967 76.1592 147.11 84.498 147.035 92.9647L98.537 92.5368L123.392 50.8899Z" fill="#D3D3D3"/>
<path d="M69.2826 50.3074C61.8728 54.4046 55.6647 60.3701 51.2757 67.6109C46.8867 74.8517 44.4697 83.1153 44.2652 91.5799L92.7511 92.7513L69.2826 50.3074Z" fill="#D3D3D3"/>
<path d="M120.382 49.1331C113.101 44.8107 104.816 42.4696 96.3496 42.3427C87.8835 42.2158 79.5316 44.3075 72.1247 48.4098L95.6228 90.8372L120.382 49.1331Z" fill="#D3D3D3"/>
<path d="M67.8959 137.613C60.6252 133.273 54.6171 127.106 50.4693 119.725C46.3214 112.343 44.1783 104.005 44.253 95.5378L92.7511 95.9658L67.8959 137.613Z" fill="#D3D3D3"/>
<path d="M122.006 138.195C129.415 134.098 135.623 128.132 140.012 120.892C144.401 113.651 146.818 105.387 147.023 96.9227L98.537 95.7513L122.006 138.195Z" fill="#D3D3D3"/>
<path d="M70.9062 139.369C78.1869 143.692 86.4723 146.033 94.9385 146.16C103.405 146.287 111.756 144.195 119.163 140.093L95.6653 97.6653L70.9062 139.369Z" fill="#D3D3D3"/>
</svg>
