<svg width="70" height="176" viewBox="0 0 70 176" fill="none" xmlns="http://www.w3.org/2000/svg">
<path d="M52.6939 162.974L55.6502 168.399L58.1732 167.655L56.6918 162.968C56.5775 162.989 52.5141 161.533 52.6939 162.974Z" fill="#A67171"/>
<path d="M58 167C58 167 48.4441 166.026 47.3381 171.716L58.5 168" fill="#433041"/>
<path d="M11.5924 169.988C12.362 169.994 13.8559 171.345 14.8776 170.675C14.923 169.336 15.4762 161.95 15.6257 159.965L11.5998 160.205C11.7015 162.689 12.9409 167.846 12.5844 169.559C12.4953 169.889 11.2076 169.985 11.5924 169.988Z" fill="#A67171"/>
<path d="M15.0461 170.581C15.0461 170.581 6.20817 165.497 3.36313 171.207L15.4728 171.109" fill="#433041"/>
<path d="M41.7335 44.1692C41.7335 44.1692 43.8182 40.5766 44.1025 39.0639C44.3867 37.4567 45.1448 31.5951 43.0602 29.6098C43.0602 29.6098 39.9332 33.7696 36.6167 31.3115C32.3526 28.0971 33.9635 13.4431 35.4796 11.6468C36.9957 9.94507 39.6489 4.65073 45.6186 5.31252C51.5883 5.97431 54.431 23.0864 50.546 26.3953C50.546 26.3953 50.6407 36.7949 53.8625 38.2131C53.8625 38.2131 49.0299 45.1146 45.4291 44.831C41.8283 44.7365 41.7335 44.1692 41.7335 44.1692Z" fill="#A67171"/>
<path opacity="0.29" d="M42.8705 31.1224L43.1548 29.5152C43.1548 29.5152 45.6185 27.1516 45.9028 25.5444C45.9028 25.5444 45.429 29.8934 43.6286 31.2169C41.7334 32.5405 42.8705 31.1224 42.8705 31.1224Z" fill="#826E4F"/>
<path d="M34.3252 16.413C34.3252 16.413 30.0285 16.413 29.9351 13.8543C29.8417 11.2955 33.9516 11.2955 33.9516 11.2955C33.9516 11.2955 27.5066 10.0635 29.0945 7.22047C30.6824 4.28263 37.968 4.94601 37.968 4.94601C37.968 4.94601 35.4461 2.76633 36.8472 0.681416C38.2483 -1.30873 47.7757 1.25003 48.8032 5.8937C48.8032 5.8937 56.0888 4.28263 54.7812 14.2334C53.3801 24.1841 50.2977 26.5533 50.2977 26.5533C50.2977 26.5533 48.1493 24.7527 47.7757 21.341C47.7757 21.341 48.99 22.0992 49.7372 20.8672C50.4845 19.6352 50.8581 17.1712 50.0174 16.5078C49.2702 15.8444 46.6548 19.0666 46.6548 19.0666C46.6548 19.0666 43.479 16.9817 43.946 14.7072C44.4131 12.5275 42.7318 12.8118 42.7318 12.8118C42.7318 12.8118 37.6878 16.3183 34.6988 14.2334C34.979 14.2334 34.6054 14.802 34.3252 16.413Z" fill="#432931"/>
<path d="M38.4712 41.9274C37.5339 41.3351 36.9636 39.9521 36.255 40.0873C33.0907 40.3623 29.0889 44.906 24.9488 50.9678C27.0575 51.5262 29.9909 52.7491 32.2825 55.5736C36.8707 48.3517 39.8309 42.8058 38.4712 41.9274Z" fill="#0895A8"/>
<path d="M6.93748 122.749C7.37538 117.951 24.2714 93.8553 32.6646 82.4069H58.9394C60.0342 84.5875 62.0048 90.0391 61.129 94.4004C60.0342 99.852 46.3496 122.749 49.0865 127.655C51.276 131.58 55.1077 152.914 56.7499 163.091L51.276 165.271C48.904 161.455 42.8463 150.334 37.5914 136.378C32.3365 122.422 35.4018 109.12 37.5914 104.213C31.5701 109.12 19.0897 120.023 17.3381 124.384C15.5865 128.746 16.6082 152.006 17.3381 163.091H9.12702C8.21471 151.642 6.49957 127.546 6.93748 122.749Z" fill="#007EC5"/>
<path d="M58.8262 82.4068H32.2431C31.6991 81.3207 32.2431 67.7424 34.4188 60.6817C36.1595 55.0332 34.7813 47.8278 33.8746 44.9311C33.4525 43.5826 33.3523 41.4101 36.3984 39.2376C40.206 36.522 42.578 38.9568 46.3856 40.5862C50.1932 42.2156 57.8084 32.9824 62.1599 40.5862C66.5115 48.1899 62.1599 65.0268 62.1599 70.4581C62.1599 74.8031 59.5514 80.2343 58.8262 82.4068Z" fill="#12ABBF"/>
<path d="M40.7354 41.2989L42.7169 38.5118C42.7169 38.5118 49.3193 43.3905 58.6853 57.818C59.513 61.889 55.14 65.1076 52.8019 62.9515C43.1305 48.8857 40.7354 41.2989 40.7354 41.2989Z" fill="#A67171"/>
<path d="M43.5465 40.7248C43.5465 40.7248 37.5134 42.9774 37.3254 39.3762C37.1373 35.7749 40.4403 32.8672 41.2875 35.1369C42.1581 37.5083 41.0676 38.8324 42.5268 38.1734C44.088 37.4908 43.5465 40.7248 43.5465 40.7248Z" fill="#A67171"/>
<path d="M58.4583 44.0126C57.3527 43.9294 56.2001 42.9757 55.6378 43.4276C52.9726 45.1553 51.5709 51.0455 50.7593 58.3413C52.8836 57.8449 56.0477 57.5483 59.3968 58.9671C60.0596 50.4367 60.0712 44.1502 58.4583 44.0126Z" fill="#0895A8"/>
<path d="M35.0687 35.4105L37.8867 36.6002C37.8867 36.6002 37.0309 43.5988 30.387 55.1349C27.7774 56.7534 22.5769 56.1816 24.2921 50.9295C30.5507 39.1955 35.0687 35.4105 35.0687 35.4105Z" fill="#A67171"/>
<path d="M36.1148 38.1637C36.1148 38.1637 31.862 33.3278 35.1604 31.87C38.4587 30.4122 42.3518 32.4637 40.5324 34.0633C38.6263 35.7212 37.0007 35.1735 38.136 36.3025C39.3297 37.5185 36.1148 38.1637 36.1148 38.1637Z" fill="#A67171"/>
<path d="M20.5283 48.1354C20.2078 48.4559 19.9331 48.8221 19.75 49.2342C19.5211 49.6462 19.3379 50.0582 19.2006 50.5161C19.0632 50.9281 19.0175 51.3859 18.9717 51.798C18.9717 52.2558 19.0175 52.7136 19.109 53.1714C19.109 53.263 19.2006 53.3087 19.2922 53.3087C19.3837 53.3087 19.4295 53.2172 19.4295 53.1256C19.4295 53.034 19.3837 52.9425 19.3837 52.8509C19.3379 52.5305 19.3837 52.21 19.4295 51.8895C19.5211 51.3859 19.6584 50.8823 19.8873 50.4245C20.0247 50.104 20.2078 49.7836 20.3909 49.5089C20.574 49.1884 20.8029 48.9137 21.0318 48.5932C21.1234 48.4559 21.0776 48.2728 20.9861 48.1812C20.9403 48.0896 20.8029 48.0896 20.7114 48.0896C20.6656 48.0439 20.6198 48.0896 20.5283 48.1354Z" fill="#BEBEBE"/>
<path d="M17.003 49.7378C16.9114 49.9667 16.8657 50.1956 16.7741 50.4245C16.6825 50.6992 16.6368 50.9739 16.591 51.2486C16.4994 51.8438 16.4536 52.4389 16.4994 53.0341C16.5452 53.3546 16.5452 53.6292 16.591 53.9039C16.6368 54.1786 16.7283 54.4533 16.8199 54.728C17.003 55.2774 17.2777 55.7352 17.6439 56.193C17.6897 56.2846 17.8271 56.2846 17.9186 56.193C18.0102 56.1015 18.0102 56.0099 17.9186 55.9183C17.8729 55.8725 17.8271 55.8268 17.8271 55.781C17.6897 55.5979 17.5982 55.369 17.4608 55.14C17.3235 54.7738 17.2319 54.4075 17.1861 53.9955C17.1403 53.7666 17.1403 53.5377 17.1403 53.263C17.1403 53.0341 17.1403 52.7594 17.1861 52.5305C17.2319 52.0269 17.2777 51.5233 17.3693 51.0197C17.415 50.6535 17.5066 50.2414 17.5982 49.8752C17.5982 49.7836 17.5982 49.692 17.5524 49.6463C17.5066 49.5547 17.4608 49.5089 17.3693 49.5089C17.3235 49.5089 17.3235 49.5089 17.2777 49.5089C17.1861 49.5089 17.0488 49.6463 17.003 49.7378ZM17.5066 55.14V55.1858C17.5066 55.1858 17.5066 55.1858 17.5066 55.14Z" fill="#BEBEBE"/>
<path d="M53.17 124.022C52.9869 124.572 52.8037 125.121 52.758 125.67C52.6664 126.266 52.6206 126.906 52.6664 127.547C52.758 128.784 53.1242 130.02 53.9483 130.981C54.0398 131.073 54.0856 131.118 54.223 131.118C54.3145 131.118 54.4061 131.118 54.4977 131.027C54.6808 130.889 54.6808 130.661 54.5892 130.477C54.4061 130.249 54.2688 130.02 54.1314 129.745C54.1314 129.791 54.1772 129.791 54.1772 129.836C53.8567 129.287 53.6278 128.646 53.4447 128.051L53.4905 128.143C53.3531 127.547 53.2616 126.998 53.2616 126.403C53.2616 125.808 53.3531 125.167 53.4905 124.617C53.4905 124.617 53.4905 124.617 53.4905 124.572C53.4905 124.572 53.4905 124.572 53.4905 124.526C53.5362 124.388 53.582 124.297 53.6278 124.16C53.6736 124.022 53.6278 123.931 53.4905 123.839C53.4447 123.839 53.4447 123.839 53.3989 123.839C53.3073 123.885 53.2158 123.931 53.17 124.022ZM53.2158 126.357V126.403V126.357ZM53.4905 124.572C53.4905 124.572 53.4905 124.617 53.4905 124.572C53.4905 124.617 53.4905 124.572 53.4905 124.572Z" fill="#BEBEBE"/>
<path d="M55.0934 122.878C54.9561 123.381 54.8645 123.839 54.773 124.343C54.6814 124.846 54.6356 125.35 54.5898 125.854C54.5898 126.357 54.5898 126.861 54.7272 127.364C54.8645 127.868 55.0477 128.417 55.3681 128.829C55.4597 128.967 55.6428 129.012 55.7802 128.921C55.9633 128.875 56.0549 128.646 55.9633 128.463C55.8259 128.234 55.7344 127.959 55.597 127.685C55.5055 127.41 55.4139 127.135 55.3223 126.861C55.185 126.357 55.1392 125.854 55.1392 125.35C55.1392 124.938 55.185 124.526 55.2308 124.114C55.2766 123.702 55.3681 123.29 55.4597 122.878C55.4597 122.786 55.4139 122.695 55.3223 122.695C55.3223 122.695 55.3223 122.695 55.2766 122.695C55.1392 122.74 55.0934 122.786 55.0934 122.878Z" fill="#BEBEBE"/>
<path d="M3.29627 114.942C2.83846 115.308 2.42642 115.72 2.06017 116.178C1.87704 116.407 1.69392 116.636 1.51079 116.865C1.32767 117.139 1.14454 117.414 1.00719 117.689C0.732505 118.192 0.457816 118.742 0.320471 119.291C0.137345 119.886 0 120.481 0 121.122C0 121.214 0 121.305 0.0457816 121.351C0.0915631 121.443 0.183126 121.489 0.274689 121.489C0.457816 121.534 0.640942 121.397 0.640942 121.214C0.732505 120.71 0.824068 120.252 0.915631 119.795C1.05298 119.337 1.19032 118.879 1.37345 118.467C1.55657 118.009 1.7397 117.597 2.01439 117.185C2.19751 116.865 2.38064 116.59 2.60955 116.269C2.79268 115.995 3.02158 115.72 3.29627 115.491C3.38784 115.4 3.4794 115.354 3.52518 115.262C3.57096 115.217 3.61674 115.079 3.57096 115.033C3.52518 114.988 3.4794 114.988 3.43362 114.988C3.34205 114.896 3.34205 114.896 3.29627 114.942ZM0.915631 119.703C0.915631 119.749 0.915631 119.749 0.915631 119.795V119.703Z" fill="#BEBEBE"/>
<path d="M2.2439 118.742C1.96921 119.154 1.7403 119.566 1.55717 120.024C1.32827 120.527 1.14514 121.031 1.00779 121.534C0.87045 122.038 0.778887 122.587 0.778887 123.091C0.733105 123.594 0.778887 124.144 0.916231 124.647C0.916231 124.739 0.962013 124.831 1.05358 124.876C1.14514 124.922 1.2367 124.968 1.32827 124.968C1.51139 124.922 1.69452 124.739 1.64874 124.556C1.60295 124.098 1.55717 123.64 1.55717 123.182C1.55717 123.228 1.55717 123.274 1.55717 123.274C1.55717 122.404 1.69452 121.489 1.92343 120.664C2.06077 120.161 2.28968 119.657 2.51859 119.199C2.51859 119.199 2.51859 119.154 2.56437 119.154C2.61015 119.108 2.61015 119.062 2.65593 119.016C2.70171 118.971 2.70171 118.925 2.70171 118.833C2.70171 118.787 2.65593 118.696 2.61015 118.696C2.56437 118.65 2.51859 118.65 2.4728 118.65C2.33546 118.65 2.28968 118.696 2.2439 118.742Z" fill="#BEBEBE"/>
<path d="M66.6119 38.9143C66.5204 38.9601 66.4288 39.1432 66.5203 39.2806C66.7035 39.5095 66.8408 39.7384 66.9782 39.9673C67.1155 40.1962 67.2529 40.4709 67.3444 40.6998C67.3444 40.654 67.3444 40.654 67.2986 40.6082C67.7107 41.6612 67.9396 42.76 68.1227 43.8587C68.1685 44.225 68.2143 44.637 68.2143 45.0033C68.26 45.4153 68.26 45.7815 68.26 46.1936C68.26 46.4225 68.4432 46.6056 68.6721 46.6056C68.7636 46.6056 68.901 46.5598 68.9468 46.4683C69.0383 46.3767 69.0383 46.2851 69.0841 46.1936C69.1757 45.5526 69.1299 44.9575 69.0841 44.3165C69.0383 43.6756 68.901 43.0347 68.7179 42.3937C68.3516 41.1576 67.7107 40.0131 66.9324 39.0059C66.8866 38.9601 66.8408 38.9143 66.7493 38.8685C66.7035 38.8685 66.7035 38.8685 66.6577 38.8685C66.7035 38.8685 66.6119 38.8685 66.6119 38.9143Z" fill="#BEBEBE"/>
<path d="M66.4286 36.3048C66.3828 36.3506 66.3828 36.4422 66.3828 36.4879C66.3828 36.5795 66.4286 36.5795 66.5202 36.6253C66.5659 36.6711 66.6117 36.6711 66.6575 36.7169C67.0238 37.0373 67.39 37.3578 67.7105 37.7698C68.0767 38.2734 68.3972 38.8228 68.6261 39.418C68.6261 39.3722 68.5803 39.3722 68.5803 39.3264C68.9008 40.1047 69.0839 40.883 69.2213 41.707C69.2213 41.7986 69.3128 41.8902 69.4044 41.936C69.496 41.9817 69.6333 42.0275 69.7249 41.9817C69.8164 41.936 69.908 41.8902 69.9538 41.7986C69.9996 41.707 69.9996 41.6155 69.9996 41.4781C69.8164 40.4252 69.4502 39.4638 68.9008 38.5481C68.3514 37.6325 67.6189 36.8542 66.7491 36.2133C66.7033 36.1675 66.6575 36.1675 66.6117 36.1675C66.6117 36.1675 66.4744 36.2133 66.4286 36.3048Z" fill="#BEBEBE"/>
</svg>
