<svg width="110" height="110" viewBox="0 0 110 110" fill="none" xmlns="http://www.w3.org/2000/svg">
<g opacity="0.3" filter="url(#filter0_d)">
<rect x="25" y="15" width="60" height="60" rx="5" fill="#259DD9"/>
</g>
<path d="M109.023 70.057C109.023 69.2753 108.792 68.5111 108.357 67.8611C107.923 67.211 107.306 66.7044 106.584 66.4053C105.862 66.1062 105.067 66.028 104.3 66.1807C103.534 66.3334 102.83 66.71 102.277 67.263L98.567 70.973V40H64.223L55 49.224V94.024H98.567V82.15L107.867 72.85C108.235 72.4839 108.527 72.0485 108.725 71.5689C108.924 71.0893 109.025 70.5751 109.024 70.056L109.023 70.057ZM87.673 85.2L89.94 87.467L86.766 88.393L87.673 85.2ZM91.6 86.655L90.655 85.71L103.095 73.269L104.041 74.215L91.6 86.655ZM89.422 84.477L88.476 83.531L100.914 71.09L101.86 72.036L89.422 84.477ZM63.722 42.977V48.714H57.974L63.722 42.977ZM96.825 92.281H56.742V50.456H65.456V41.743H96.825V72.715L86.463 83.076L84.228 90.946L92.054 88.663L96.824 83.893L96.825 92.281ZM106.635 71.619L105.27 72.983L102.145 69.858L103.509 68.494C103.923 68.0796 104.486 67.8468 105.072 67.8468C105.658 67.8468 106.22 68.0796 106.634 68.494C107.048 68.9084 107.281 69.4705 107.281 70.0565C107.281 70.6426 107.048 71.2046 106.634 71.619H106.635Z" fill="#259DD9"/>
<path d="M72.6531 76.011L68.9031 80.137C67.8142 79.0451 66.3524 78.4056 64.8115 78.3472C63.2705 78.2888 61.7645 78.8156 60.5961 79.822C59.4276 80.8283 58.6833 82.2395 58.5126 83.7721C58.3419 85.3047 58.7576 86.8451 59.676 88.0838C60.5944 89.3226 61.9476 90.1679 63.4636 90.4499C64.9797 90.7319 66.5463 90.4297 67.8487 89.6041C69.1511 88.7785 70.0929 87.4906 70.4847 85.9991C70.8766 84.5077 70.6895 82.9232 69.9611 81.564L73.9431 77.183L72.6531 76.011ZM68.9411 84.439C68.9467 85.4577 68.5972 86.4465 67.9527 87.2353C67.3081 88.0241 66.4089 88.5637 65.4095 88.7612C64.4102 88.9587 63.3732 88.8018 62.4771 88.3174C61.5809 87.8331 60.8816 87.0516 60.4993 86.1074C60.117 85.1631 60.0757 84.1152 60.3825 83.1439C60.6893 82.1725 61.325 81.3384 62.1803 80.785C63.0356 80.2317 64.057 79.9937 65.0687 80.1119C66.0805 80.2302 67.0195 80.6973 67.7241 81.433L64.4441 85.041L62.4541 83.715L61.4851 85.165L64.7231 87.324L68.6701 82.982C68.8426 83.4486 68.9333 83.9416 68.9381 84.439H68.9411Z" fill="#259DD9"/>
<path d="M68.9031 64.452C67.8142 63.3601 66.3524 62.7206 64.8115 62.6622C63.2705 62.6037 61.7645 63.1306 60.5961 64.1369C59.4276 65.1433 58.6833 66.5545 58.5126 68.0871C58.3419 69.6197 58.7576 71.1601 59.676 72.3988C60.5944 73.6375 61.9476 74.4828 63.4636 74.7648C64.9797 75.0469 66.5463 74.7446 67.8487 73.919C69.1511 73.0934 70.0929 71.8055 70.4847 70.3141C70.8766 68.8226 70.6895 67.2382 69.9611 65.879L73.9431 61.498L72.6531 60.325L68.9031 64.452ZM68.9411 68.752C68.9467 69.7706 68.5972 70.7594 67.9527 71.5483C67.3081 72.3371 66.4089 72.8767 65.4095 73.0742C64.4102 73.2717 63.3732 73.1147 62.4771 72.6304C61.5809 72.146 60.8816 71.3646 60.4993 70.4203C60.117 69.4761 60.0757 68.4282 60.3825 67.4568C60.6893 66.4855 61.325 65.6514 62.1803 65.0979C63.0356 64.5447 64.057 64.3066 65.0687 64.4249C66.0805 64.5432 67.0195 65.0103 67.7241 65.746L64.4441 69.354L62.4541 68.028L61.4851 69.4799L64.7231 71.639L68.6701 67.297C68.8426 67.7636 68.9333 68.2565 68.9381 68.754L68.9411 68.752Z" fill="#259DD9"/>
<path d="M93.3394 67.8831H95.0824V69.6261H93.3394V67.8831Z" fill="#259DD9"/>
<path d="M74.1694 67.8831H91.5964V69.6261H74.1694V67.8831Z" fill="#259DD9"/>
<path d="M74.1694 64.3979H95.0824V66.1409H74.1694V64.3979Z" fill="#259DD9"/>
<path d="M74.1694 71.3691H95.0824V73.1121H74.1694V71.3691Z" fill="#259DD9"/>
<path d="M74.1694 83.5681H83.7544V85.3111H74.1694V83.5681Z" fill="#259DD9"/>
<path d="M74.1694 87.053H83.7544V88.796H74.1694V87.053Z" fill="#259DD9"/>
<path d="M74.1694 80.082H83.7544V81.825H74.1694V80.082Z" fill="#259DD9"/>
<path d="M71.5552 59.1701H90.7252C91.8803 59.1688 92.9878 58.7093 93.8046 57.8925C94.6214 57.0757 95.0809 55.9682 95.0822 54.8131V47.8431C95.0809 46.688 94.6214 45.5805 93.8046 44.7637C92.9878 43.9469 91.8803 43.4874 90.7252 43.4861H71.5552C70.4001 43.4874 69.2926 43.9469 68.4758 44.7637C67.659 45.5805 67.1995 46.688 67.1982 47.8431V54.8141C67.1998 55.9691 67.6594 57.0763 68.4762 57.8929C69.2929 58.7094 70.4002 59.1688 71.5552 59.1701ZM68.9412 47.8421C68.942 47.1491 69.2177 46.4846 69.7077 45.9946C70.1978 45.5045 70.8622 45.2289 71.5552 45.2281H90.7252C91.4182 45.2289 92.0827 45.5045 92.5727 45.9946C93.0628 46.4846 93.3384 47.1491 93.3392 47.8421V54.8131C93.3384 55.5061 93.0628 56.1706 92.5727 56.6606C92.0827 57.1506 91.4182 57.4263 90.7252 57.4271H71.5552C70.8622 57.4263 70.1978 57.1506 69.7077 56.6606C69.2177 56.1706 68.942 55.5061 68.9412 54.8131V47.8421Z" fill="#259DD9"/>
<path d="M91.5962 48.7141H86.3682V53.9421H91.5962V48.7141ZM89.8531 52.1991H88.1102V50.4571H89.8531V52.1991Z" fill="#259DD9"/>
<path d="M83.7544 48.7141H78.5264V53.9421H83.7544V48.7141ZM82.0114 52.1991H80.2684V50.4571H82.0114V52.1991Z" fill="#259DD9"/>
<path d="M75.9121 48.7141H70.6841V53.9421H75.9121V48.7141ZM74.1691 52.1991H72.4261V50.4571H74.1691V52.1991Z" fill="#259DD9"/>
<defs>
<filter id="filter0_d" x="0" y="0" width="110" height="110" filterUnits="userSpaceOnUse" color-interpolation-filters="sRGB">
<feFlood flood-opacity="0" result="BackgroundImageFix"/>
<feColorMatrix in="SourceAlpha" type="matrix" values="0 0 0 0 0 0 0 0 0 0 0 0 0 0 0 0 0 0 127 0"/>
<feOffset dy="10"/>
<feGaussianBlur stdDeviation="12.5"/>
<feColorMatrix type="matrix" values="0 0 0 0 0 0 0 0 0 0 0 0 0 0 0 0 0 0 0.15 0"/>
<feBlend mode="normal" in2="BackgroundImageFix" result="effect1_dropShadow"/>
<feBlend mode="normal" in="SourceGraphic" in2="effect1_dropShadow" result="shape"/>
</filter>
</defs>
</svg>
