<svg width="332" height="533" viewBox="0 0 332 533" fill="none" xmlns="http://www.w3.org/2000/svg">
<path d="M201 21C201 9.40202 191.598 0 180 0H0V533H180C191.598 533 201 523.598 201 512V21Z" fill="#0077A6"/>
<path d="M309 101C309 89.402 299.598 80 288 80H201V480H288C299.598 480 309 470.598 309 459V101Z" fill="#E2E2E2"/>
<path opacity="0.3" d="M59.0453 232.072C87.2873 218.465 121.628 237.028 131.969 246.661C119.327 260.912 110.918 271.861 74.3005 280.539C37.6825 289.216 20.7722 269.534 20.7722 269.534C20.7722 269.534 30.8034 245.679 59.0453 232.072Z" fill="#0C587E" fill-opacity="0.75"/>
<path opacity="0.3" d="M248.478 182.234C217.43 184.526 197.111 217.138 193 230.393C210.95 236.299 223.62 241.476 259.425 230.888C295.229 220.3 300 195.286 300 195.286C300 195.286 279.526 179.941 248.478 182.234Z" fill="#0C587E" fill-opacity="0.75"/>
<g opacity="0.3">
<path d="M158.343 258.62C173.626 290.118 171.94 328.283 159.949 347.799C144.599 372.782 140.151 379.57 140.151 379.57C140.151 379.57 139.82 379.05 139.236 378.092C134.547 370.397 113.59 334.428 117.682 312.619C122.958 284.51 143.85 264.932 158.343 258.62C159.655 258.049 160.915 257.586 162.106 257.236C166.761 255.866 171.82 254.666 177.095 253.998C188.074 252.606 199.991 253.515 211.155 259.973C227.684 269.533 243.018 281.682 249.592 309.034C254.851 330.915 253.297 344.463 251.863 348.502C236.572 344.03 203.2 329.177 192.038 305.551C185.298 291.285 178.82 273.067 177.095 253.998C171.82 254.666 166.761 255.866 162.106 257.236C160.915 257.586 159.655 258.049 158.343 258.62Z" fill="#0C587E" fill-opacity="0.75"/>
<path d="M18.2878 231.875C28.9068 218.443 62.3244 196.18 111.042 214.583C171.94 237.587 179.136 316.569 159.949 347.799C144.599 372.782 140.151 379.57 140.151 379.57M140.151 379.57C140.151 379.57 139.82 379.05 139.236 378.092M140.151 379.57L139.236 378.092M285.419 159.583C282.197 157.421 266.681 155.866 265.273 156.243C250.687 156.749 215.889 164.939 193.385 193.654C165.256 229.548 178.085 276.018 192.038 305.551C203.2 329.177 236.572 344.03 251.863 348.502C253.297 344.463 254.851 330.915 249.592 309.034C243.018 281.682 227.684 269.533 211.155 259.973C194.627 250.412 176.451 253.014 162.106 257.236C147.761 261.458 123.435 281.965 117.682 312.619C113.59 334.428 134.547 370.397 139.236 378.092" stroke="#0C587E" stroke-opacity="0.75" stroke-width="0.528156" stroke-linecap="round" stroke-linejoin="round"/>
</g>
</svg>
