<svg width="74" height="74" viewBox="0 0 74 74" fill="none" xmlns="http://www.w3.org/2000/svg">
<path d="M63.3847 74H2.85903C1.67156 74 0.708984 73.0374 0.708984 71.8499V37.1323C0.708984 35.9449 1.67156 34.9823 2.85903 34.9823C4.0465 34.9823 5.00908 35.9449 5.00908 37.1323V69.6999H61.2348V64.9545C61.2348 63.767 62.1975 62.8044 63.3848 62.8044C64.5721 62.8044 65.5349 63.767 65.5349 64.9545V71.8499C65.5347 73.0374 64.572 74 63.3847 74Z" fill="#F15642"/>
<path d="M2.85938 25.5997V24.9074L25.3768 2.15007V25.5997H2.85938Z" fill="#FAC2BB"/>
<path d="M71.1397 31.7152H28.3496V55.3677H71.1397V31.7152Z" fill="#FAC2BB"/>
<path d="M71.1398 29.5652H65.5346V2.15005C65.5346 0.962578 64.5719 0 63.3845 0H25.3763C25.3498 0 25.3238 0.00303516 25.2974 0.00390234C25.2732 0.00476953 25.2494 0.00578125 25.2254 0.00751563C25.1325 0.0141641 25.0401 0.0245703 24.9495 0.0429258C24.9476 0.0433594 24.9456 0.0439375 24.9434 0.0443711C24.8542 0.062582 24.7671 0.0884531 24.6811 0.117937C24.6587 0.125742 24.6364 0.133691 24.6142 0.142074C24.5296 0.17416 24.4467 0.209859 24.3669 0.252207C24.3641 0.253652 24.3608 0.254809 24.3581 0.256543C24.276 0.300625 24.1979 0.351934 24.1217 0.406855C24.1022 0.42102 24.083 0.435184 24.0639 0.45007C23.9885 0.508172 23.9154 0.569598 23.8476 0.637961L1.33047 23.395C1.27988 23.446 1.23248 23.4992 1.18767 23.5545C1.15775 23.5913 1.13159 23.6298 1.10442 23.6679C1.09113 23.6868 1.07624 23.7049 1.06352 23.7239C1.03259 23.7708 1.00498 23.8193 0.977957 23.8682C0.971309 23.8802 0.963504 23.8916 0.957289 23.9036C0.93084 23.9537 0.907859 24.0049 0.885746 24.0562C0.880398 24.0686 0.873895 24.0805 0.868981 24.0932C0.848746 24.1425 0.83198 24.1928 0.815648 24.2432C0.810445 24.2594 0.804086 24.2749 0.799316 24.2909C0.785586 24.3373 0.774746 24.3843 0.76434 24.4313C0.75957 24.4525 0.753355 24.4736 0.74902 24.4952C0.740637 24.5385 0.735289 24.5825 0.729652 24.6262C0.726184 24.6518 0.721414 24.677 0.718957 24.7028C0.71491 24.7466 0.714043 24.7906 0.712453 24.8347C0.711586 24.8588 0.708984 24.8826 0.708984 24.9066V25.5992C0.708984 26.7867 1.67156 27.7493 2.85903 27.7493H25.3764C26.5639 27.7493 27.5265 26.7867 27.5265 25.5992V4.30009H61.2348V29.5652H28.35C27.1625 29.5652 26.2 30.5277 26.2 31.7152V55.3669C26.2 56.5544 27.1625 57.5169 28.35 57.5169H71.1398C72.3271 57.5169 73.2898 56.5544 73.2898 55.3669V31.7152C73.2898 30.5277 72.3271 29.5652 71.1398 29.5652ZM7.32577 23.4496L23.2262 7.37977V23.4496H7.32577ZM68.9897 53.2168H30.5001V33.8653H68.9899V53.2168H68.9897Z" fill="#F15642"/>
<path d="M34 39.1708C34 38.6109 34.4412 38 35.1517 38H39.0693C41.2752 38 43.2605 39.4763 43.2605 42.3057C43.2605 44.9868 41.2752 46.48 39.0693 46.48H36.2377V48.7198C36.2377 49.4664 35.7626 49.8885 35.1517 49.8885C34.5918 49.8885 34 49.4664 34 48.7198V39.1708ZM36.2377 40.1359V44.3611H39.0693C40.2062 44.3611 41.1055 43.3578 41.1055 42.3057C41.1055 41.1201 40.2062 40.1359 39.0693 40.1359H36.2377Z" fill="white"/>
<path d="M46.5829 49.8885C46.023 49.8885 45.4121 49.5831 45.4121 48.8386V39.2048C45.4121 38.596 46.023 38.1527 46.5829 38.1527H50.4666C58.2169 38.1527 58.0472 49.8885 50.6193 49.8885H46.5829ZM47.6519 40.2229V47.8205H50.4666C55.0459 47.8205 55.2496 40.2229 50.4666 40.2229H47.6519Z" fill="white"/>
<path d="M60.7948 40.3584V43.0543H65.1196C65.7305 43.0543 66.3414 43.6652 66.3414 44.2569C66.3414 44.8169 65.7305 45.275 65.1196 45.275H60.7948V48.8363C60.7948 49.4302 60.3727 49.8862 59.7788 49.8862C59.0322 49.8862 58.5762 49.4302 58.5762 48.8363V39.2025C58.5762 38.5937 59.0343 38.1504 59.7788 38.1504H65.7326C66.4792 38.1504 66.9204 38.5937 66.9204 39.2025C66.9204 39.7454 66.4792 40.3563 65.7326 40.3563H60.7948V40.3584Z" fill="white"/>
</svg>
