<svg width="114" height="102" viewBox="0 0 114 102" fill="none" xmlns="http://www.w3.org/2000/svg">
<path d="M37.0215 27.97V4.132M56.1615 13.876L37.0215 16.834V4.132L56.1615 1V13.876Z" stroke="#259DD9" stroke-width="2" stroke-linecap="round" stroke-linejoin="round"/>
<path d="M76.0605 98.3602V71.5642L67.1865 72.9562V98.3602C67.1865 98.3602 71.8845 103.232 76.0605 98.3602Z" stroke="#4CB449" stroke-width="2" stroke-linecap="round" stroke-linejoin="round"/>
<path d="M20.5547 61.1244L43.6967 57.8184M20.5547 61.1244V41.2884C20.5547 31.8924 25.7747 27.0204 32.2127 30.3264C38.6507 33.6324 43.6967 43.5504 43.6967 52.9464V76.2624M20.5547 61.1244L43.6967 76.2624M43.6967 76.2624L111.905 66.5184M27.6887 29.2824L95.8967 19.7124C97.2887 19.5384 98.8547 19.8864 100.421 20.7564C106.859 24.0624 112.079 33.9804 112.079 43.3764V66.5184" stroke="#4CB449" stroke-width="2" stroke-linecap="round" stroke-linejoin="round"/>
<path d="M5.76501 91.5743C0.371007 87.2243 0.719005 78.0023 7.15701 72.7823L20.555 61.1243L43.697 76.2623L28.385 90.0083C25.775 92.2703 22.643 93.8363 19.511 94.3583C14.291 95.4023 9.07101 94.1843 5.76501 91.5743Z" stroke="#4CB449" stroke-width="2" stroke-linecap="round" stroke-linejoin="round"/>
</svg>
