<svg width="446" height="508" viewBox="0 0 446 508" fill="none" xmlns="http://www.w3.org/2000/svg">
<g filter="url(#filter0_d)">
<rect x="54" y="57" width="307.692" height="400" rx="28.0936" fill="white"/>
</g>
<rect x="67.378" y="73.0536" width="280.936" height="369.231" rx="14.7157" fill="#CEE3EE"/>
<rect x="177.077" y="147.97" width="144.482" height="28.0936" rx="6.68896" fill="#259DD9"/>
<rect x="96.8094" y="137.268" width="72.2408" height="49.4983" rx="6.68896" fill="#4F4F4F" fill-opacity="0.3"/>
<rect x="96.8094" y="197.468" width="72.2408" height="49.4983" rx="6.68896" fill="#4F4F4F" fill-opacity="0.3"/>
<rect x="96.8094" y="257.669" width="72.2408" height="49.4983" rx="6.68896" fill="#4F4F4F" fill-opacity="0.3"/>
<g filter="url(#filter1_d)">
<rect x="177.077" y="208.171" width="235.452" height="77.592" rx="8.02676" fill="white"/>
</g>
<path d="M205.92 229.729V240.886H204.09V236.006H198.84V240.886H197.01V229.729H198.84V234.513H204.09V229.729H205.92ZM209.26 230.869C208.928 230.869 208.65 230.756 208.425 230.532C208.201 230.307 208.088 230.029 208.088 229.697C208.088 229.365 208.201 229.087 208.425 228.862C208.65 228.637 208.928 228.525 209.26 228.525C209.581 228.525 209.854 228.637 210.079 228.862C210.304 229.087 210.416 229.365 210.416 229.697C210.416 230.029 210.304 230.307 210.079 230.532C209.854 230.756 209.581 230.869 209.26 230.869ZM210.159 232.041V240.886H208.329V232.041H210.159ZM214.568 238.687L212.626 243.118H211.438L212.578 238.687H214.568ZM228.3 232.041L222.874 245.044H220.98L222.778 240.742L219.294 232.041H221.333L223.821 238.783L226.406 232.041H228.3ZM233.518 241.031C232.683 241.031 231.929 240.843 231.255 240.469C230.58 240.084 230.051 239.548 229.665 238.863C229.28 238.168 229.087 237.365 229.087 236.455C229.087 235.556 229.285 234.759 229.681 234.063C230.077 233.368 230.618 232.833 231.303 232.458C231.988 232.084 232.753 231.896 233.598 231.896C234.444 231.896 235.209 232.084 235.894 232.458C236.579 232.833 237.12 233.368 237.515 234.063C237.911 234.759 238.109 235.556 238.109 236.455C238.109 237.354 237.906 238.152 237.499 238.847C237.093 239.543 236.536 240.084 235.83 240.469C235.134 240.843 234.364 241.031 233.518 241.031ZM233.518 239.441C233.989 239.441 234.428 239.329 234.835 239.104C235.252 238.88 235.589 238.542 235.846 238.093C236.103 237.643 236.231 237.098 236.231 236.455C236.231 235.813 236.108 235.273 235.862 234.834C235.616 234.385 235.289 234.047 234.883 233.823C234.476 233.598 234.037 233.486 233.566 233.486C233.095 233.486 232.657 233.598 232.25 233.823C231.854 234.047 231.538 234.385 231.303 234.834C231.067 235.273 230.95 235.813 230.95 236.455C230.95 237.408 231.19 238.146 231.672 238.671C232.164 239.185 232.78 239.441 233.518 239.441ZM247.929 232.041V240.886H246.099V239.843C245.81 240.207 245.43 240.496 244.959 240.71C244.499 240.913 244.007 241.015 243.483 241.015C242.787 241.015 242.161 240.87 241.604 240.581C241.058 240.292 240.625 239.864 240.304 239.297C239.994 238.73 239.838 238.045 239.838 237.242V232.041H241.652V236.969C241.652 237.761 241.85 238.371 242.246 238.799C242.642 239.217 243.183 239.425 243.868 239.425C244.553 239.425 245.093 239.217 245.489 238.799C245.896 238.371 246.099 237.761 246.099 236.969V232.041H247.929ZM259.089 231.896C259.764 231.896 260.363 232.041 260.887 232.33C261.423 232.619 261.84 233.047 262.14 233.614C262.45 234.181 262.605 234.866 262.605 235.669V240.886H260.791V235.942C260.791 235.15 260.593 234.545 260.197 234.128C259.801 233.7 259.261 233.486 258.576 233.486C257.891 233.486 257.345 233.7 256.938 234.128C256.542 234.545 256.344 235.15 256.344 235.942V240.886H254.514V229.007H256.344V233.068C256.655 232.694 257.045 232.405 257.516 232.201C257.998 231.998 258.522 231.896 259.089 231.896ZM264.329 236.423C264.329 235.535 264.511 234.748 264.875 234.063C265.25 233.379 265.753 232.849 266.384 232.474C267.026 232.089 267.733 231.896 268.503 231.896C269.199 231.896 269.804 232.035 270.317 232.314C270.842 232.581 271.259 232.918 271.57 233.325V232.041H273.416V240.886H271.57V239.57C271.259 239.987 270.837 240.335 270.301 240.613C269.766 240.892 269.156 241.031 268.471 241.031C267.711 241.031 267.016 240.838 266.384 240.453C265.753 240.057 265.25 239.511 264.875 238.815C264.511 238.109 264.329 237.312 264.329 236.423ZM271.57 236.455C271.57 235.845 271.441 235.316 271.184 234.866C270.938 234.417 270.612 234.074 270.205 233.839C269.798 233.603 269.36 233.486 268.889 233.486C268.418 233.486 267.979 233.603 267.572 233.839C267.166 234.063 266.834 234.401 266.577 234.85C266.331 235.289 266.208 235.813 266.208 236.423C266.208 237.033 266.331 237.569 266.577 238.029C266.834 238.489 267.166 238.842 267.572 239.088C267.99 239.324 268.428 239.441 268.889 239.441C269.36 239.441 269.798 239.324 270.205 239.088C270.612 238.853 270.938 238.51 271.184 238.061C271.441 237.601 271.57 237.065 271.57 236.455ZM279.239 239.249L281.743 232.041H283.686L280.315 240.886H278.131L274.776 232.041H276.735L279.239 239.249ZM293.176 236.247C293.176 236.579 293.155 236.878 293.112 237.146H286.353C286.407 237.852 286.669 238.419 287.14 238.847C287.611 239.276 288.189 239.49 288.874 239.49C289.858 239.49 290.554 239.078 290.961 238.253H292.935C292.668 239.067 292.181 239.736 291.474 240.26C290.779 240.774 289.912 241.031 288.874 241.031C288.028 241.031 287.268 240.843 286.594 240.469C285.931 240.084 285.406 239.548 285.021 238.863C284.646 238.168 284.459 237.365 284.459 236.455C284.459 235.546 284.641 234.748 285.005 234.063C285.379 233.368 285.899 232.833 286.562 232.458C287.236 232.084 288.007 231.896 288.874 231.896C289.709 231.896 290.452 232.078 291.105 232.442C291.758 232.806 292.266 233.32 292.63 233.983C292.994 234.636 293.176 235.391 293.176 236.247ZM291.266 235.669C291.255 234.995 291.014 234.454 290.543 234.047C290.072 233.641 289.489 233.437 288.794 233.437C288.162 233.437 287.622 233.641 287.172 234.047C286.723 234.443 286.455 234.984 286.369 235.669H291.266ZM302.358 241.031C301.662 241.031 301.036 240.908 300.48 240.661C299.934 240.405 299.5 240.062 299.179 239.634C298.858 239.195 298.687 238.708 298.666 238.173H300.56C300.592 238.548 300.769 238.863 301.09 239.12C301.422 239.366 301.834 239.49 302.326 239.49C302.84 239.49 303.236 239.393 303.514 239.201C303.803 238.997 303.947 238.74 303.947 238.43C303.947 238.098 303.787 237.852 303.466 237.692C303.155 237.531 302.658 237.354 301.973 237.162C301.309 236.98 300.769 236.803 300.351 236.632C299.934 236.461 299.57 236.199 299.26 235.845C298.96 235.492 298.81 235.027 298.81 234.449C298.81 233.978 298.949 233.55 299.228 233.164C299.506 232.769 299.902 232.458 300.416 232.233C300.94 232.009 301.539 231.896 302.214 231.896C303.22 231.896 304.028 232.153 304.638 232.667C305.258 233.17 305.59 233.86 305.633 234.738H303.803C303.771 234.342 303.61 234.026 303.321 233.791C303.032 233.555 302.642 233.437 302.149 233.437C301.668 233.437 301.298 233.528 301.042 233.71C300.785 233.892 300.656 234.133 300.656 234.433C300.656 234.668 300.742 234.866 300.913 235.027C301.084 235.187 301.293 235.316 301.539 235.412C301.785 235.498 302.149 235.61 302.631 235.749C303.273 235.92 303.797 236.097 304.204 236.279C304.622 236.45 304.98 236.707 305.28 237.049C305.579 237.392 305.735 237.847 305.745 238.414C305.745 238.917 305.606 239.366 305.328 239.762C305.05 240.158 304.654 240.469 304.14 240.694C303.637 240.918 303.043 241.031 302.358 241.031ZM315.733 232.041V240.886H313.903V239.843C313.614 240.207 313.234 240.496 312.764 240.71C312.303 240.913 311.811 241.015 311.287 241.015C310.591 241.015 309.965 240.87 309.408 240.581C308.863 240.292 308.429 239.864 308.108 239.297C307.798 238.73 307.642 238.045 307.642 237.242V232.041H309.457V236.969C309.457 237.761 309.655 238.371 310.051 238.799C310.447 239.217 310.987 239.425 311.672 239.425C312.357 239.425 312.897 239.217 313.293 238.799C313.7 238.371 313.903 237.761 313.903 236.969V232.041H315.733ZM317.538 236.455C317.538 235.546 317.72 234.748 318.084 234.063C318.459 233.368 318.972 232.833 319.625 232.458C320.278 232.084 321.027 231.896 321.873 231.896C322.943 231.896 323.826 232.153 324.521 232.667C325.228 233.17 325.704 233.892 325.95 234.834H323.976C323.815 234.395 323.558 234.053 323.205 233.807C322.852 233.56 322.408 233.437 321.873 233.437C321.123 233.437 320.524 233.705 320.075 234.24C319.636 234.764 319.416 235.503 319.416 236.455C319.416 237.408 319.636 238.152 320.075 238.687C320.524 239.222 321.123 239.49 321.873 239.49C322.932 239.49 323.633 239.024 323.976 238.093H325.95C325.693 238.992 325.212 239.709 324.505 240.244C323.799 240.769 322.921 241.031 321.873 241.031C321.027 241.031 320.278 240.843 319.625 240.469C318.972 240.084 318.459 239.548 318.084 238.863C317.72 238.168 317.538 237.365 317.538 236.455ZM327.164 236.455C327.164 235.546 327.346 234.748 327.71 234.063C328.084 233.368 328.598 232.833 329.251 232.458C329.904 232.084 330.653 231.896 331.498 231.896C332.569 231.896 333.452 232.153 334.147 232.667C334.854 233.17 335.33 233.892 335.576 234.834H333.601C333.441 234.395 333.184 234.053 332.831 233.807C332.478 233.56 332.034 233.437 331.498 233.437C330.749 233.437 330.15 233.705 329.7 234.24C329.262 234.764 329.042 235.503 329.042 236.455C329.042 237.408 329.262 238.152 329.7 238.687C330.15 239.222 330.749 239.49 331.498 239.49C332.558 239.49 333.259 239.024 333.601 238.093H335.576C335.319 238.992 334.838 239.709 334.131 240.244C333.425 240.769 332.547 241.031 331.498 241.031C330.653 241.031 329.904 240.843 329.251 240.469C328.598 240.084 328.084 239.548 327.71 238.863C327.346 238.168 327.164 237.365 327.164 236.455ZM345.507 236.247C345.507 236.579 345.485 236.878 345.443 237.146H338.684C338.738 237.852 339 238.419 339.471 238.847C339.942 239.276 340.52 239.49 341.204 239.49C342.189 239.49 342.885 239.078 343.291 238.253H345.266C344.998 239.067 344.512 239.736 343.805 240.26C343.11 240.774 342.243 241.031 341.204 241.031C340.359 241.031 339.599 240.843 338.925 240.469C338.261 240.084 337.737 239.548 337.352 238.863C336.977 238.168 336.79 237.365 336.79 236.455C336.79 235.546 336.972 234.748 337.336 234.063C337.71 233.368 338.229 232.833 338.893 232.458C339.567 232.084 340.338 231.896 341.204 231.896C342.039 231.896 342.783 232.078 343.436 232.442C344.089 232.806 344.597 233.32 344.961 233.983C345.325 234.636 345.507 235.391 345.507 236.247ZM343.596 235.669C343.586 234.995 343.345 234.454 342.874 234.047C342.403 233.641 341.82 233.437 341.124 233.437C340.493 233.437 339.952 233.641 339.503 234.047C339.053 234.443 338.786 234.984 338.7 235.669H343.596ZM350.519 241.031C349.823 241.031 349.197 240.908 348.64 240.661C348.094 240.405 347.661 240.062 347.34 239.634C347.019 239.195 346.848 238.708 346.826 238.173H348.721C348.753 238.548 348.929 238.863 349.25 239.12C349.582 239.366 349.994 239.49 350.486 239.49C351 239.49 351.396 239.393 351.674 239.201C351.963 238.997 352.108 238.74 352.108 238.43C352.108 238.098 351.947 237.852 351.626 237.692C351.316 237.531 350.818 237.354 350.133 237.162C349.47 236.98 348.929 236.803 348.512 236.632C348.094 236.461 347.731 236.199 347.42 235.845C347.121 235.492 346.971 235.027 346.971 234.449C346.971 233.978 347.11 233.55 347.388 233.164C347.666 232.769 348.062 232.458 348.576 232.233C349.1 232.009 349.7 231.896 350.374 231.896C351.38 231.896 352.188 232.153 352.798 232.667C353.419 233.17 353.751 233.86 353.793 234.738H351.963C351.931 234.342 351.771 234.026 351.482 233.791C351.193 233.555 350.802 233.437 350.31 233.437C349.828 233.437 349.459 233.528 349.202 233.71C348.945 233.892 348.817 234.133 348.817 234.433C348.817 234.668 348.902 234.866 349.074 235.027C349.245 235.187 349.454 235.316 349.7 235.412C349.946 235.498 350.31 235.61 350.791 235.749C351.434 235.92 351.958 236.097 352.365 236.279C352.782 236.45 353.141 236.707 353.44 237.049C353.74 237.392 353.895 237.847 353.906 238.414C353.906 238.917 353.767 239.366 353.488 239.762C353.21 240.158 352.814 240.469 352.3 240.694C351.797 240.918 351.204 241.031 350.519 241.031ZM359.094 241.031C358.398 241.031 357.772 240.908 357.216 240.661C356.67 240.405 356.236 240.062 355.915 239.634C355.594 239.195 355.423 238.708 355.402 238.173H357.296C357.328 238.548 357.505 238.863 357.826 239.12C358.158 239.366 358.57 239.49 359.062 239.49C359.576 239.49 359.972 239.393 360.25 239.201C360.539 238.997 360.683 238.74 360.683 238.43C360.683 238.098 360.523 237.852 360.202 237.692C359.891 237.531 359.394 237.354 358.709 237.162C358.045 236.98 357.505 236.803 357.087 236.632C356.67 236.461 356.306 236.199 355.996 235.845C355.696 235.492 355.546 235.027 355.546 234.449C355.546 233.978 355.685 233.55 355.964 233.164C356.242 232.769 356.638 232.458 357.152 232.233C357.676 232.009 358.275 231.896 358.95 231.896C359.956 231.896 360.764 232.153 361.374 232.667C361.994 233.17 362.326 233.86 362.369 234.738H360.539C360.507 234.342 360.346 234.026 360.057 233.791C359.768 233.555 359.378 233.437 358.885 233.437C358.404 233.437 358.034 233.528 357.778 233.71C357.521 233.892 357.392 234.133 357.392 234.433C357.392 234.668 357.478 234.866 357.649 235.027C357.82 235.187 358.029 235.316 358.275 235.412C358.521 235.498 358.885 235.61 359.367 235.749C360.009 235.92 360.533 236.097 360.94 236.279C361.358 236.45 361.716 236.707 362.016 237.049C362.315 237.392 362.471 237.847 362.481 238.414C362.481 238.917 362.342 239.366 362.064 239.762C361.786 240.158 361.39 240.469 360.876 240.694C360.373 240.918 359.779 241.031 359.094 241.031ZM368.167 233.534H366.53V240.886H364.684V233.534H363.64V232.041H364.684V231.415C364.684 230.398 364.951 229.659 365.486 229.199C366.032 228.728 366.883 228.493 368.039 228.493V230.018C367.482 230.018 367.092 230.125 366.867 230.339C366.642 230.542 366.53 230.901 366.53 231.415V232.041H368.167V233.534ZM377.8 232.041V240.886H375.97V239.843C375.681 240.207 375.301 240.496 374.83 240.71C374.37 240.913 373.877 241.015 373.353 241.015C372.657 241.015 372.031 240.87 371.475 240.581C370.929 240.292 370.495 239.864 370.174 239.297C369.864 238.73 369.709 238.045 369.709 237.242V232.041H371.523V236.969C371.523 237.761 371.721 238.371 372.117 238.799C372.513 239.217 373.053 239.425 373.738 239.425C374.423 239.425 374.964 239.217 375.36 238.799C375.766 238.371 375.97 237.761 375.97 236.969V232.041H377.8ZM382.045 229.007V240.886H380.214V229.007H382.045ZM386.277 229.007V240.886H384.447V229.007H386.277ZM396.643 232.041L391.217 245.044H389.322L391.12 240.742L387.637 232.041H389.675L392.164 238.783L394.748 232.041H396.643ZM207.718 255.896C208.413 255.896 209.034 256.041 209.58 256.33C210.136 256.619 210.57 257.047 210.88 257.614C211.201 258.181 211.362 258.866 211.362 259.669V264.886H209.548V259.942C209.548 259.15 209.35 258.545 208.954 258.128C208.558 257.7 208.017 257.486 207.332 257.486C206.647 257.486 206.102 257.7 205.695 258.128C205.299 258.545 205.101 259.15 205.101 259.942V264.886H203.287V259.942C203.287 259.15 203.089 258.545 202.693 258.128C202.297 257.7 201.756 257.486 201.072 257.486C200.387 257.486 199.841 257.7 199.434 258.128C199.038 258.545 198.84 259.15 198.84 259.942V264.886H197.01V256.041H198.84V257.052C199.14 256.688 199.52 256.405 199.98 256.201C200.44 255.998 200.932 255.896 201.457 255.896C202.163 255.896 202.795 256.046 203.351 256.346C203.908 256.645 204.336 257.079 204.635 257.646C204.903 257.111 205.32 256.688 205.888 256.378C206.455 256.057 207.065 255.896 207.718 255.896ZM213.081 260.423C213.081 259.535 213.262 258.748 213.626 258.063C214.001 257.379 214.504 256.849 215.135 256.474C215.778 256.089 216.484 255.896 217.254 255.896C217.95 255.896 218.555 256.035 219.068 256.314C219.593 256.581 220.01 256.918 220.321 257.325V256.041H222.167V264.886H220.321V263.57C220.01 263.987 219.588 264.335 219.052 264.613C218.517 264.892 217.907 265.031 217.222 265.031C216.462 265.031 215.767 264.838 215.135 264.453C214.504 264.057 214.001 263.511 213.626 262.815C213.262 262.109 213.081 261.312 213.081 260.423ZM220.321 260.455C220.321 259.845 220.192 259.316 219.935 258.866C219.689 258.417 219.363 258.074 218.956 257.839C218.549 257.603 218.111 257.486 217.64 257.486C217.169 257.486 216.73 257.603 216.323 257.839C215.917 258.063 215.585 258.401 215.328 258.85C215.082 259.289 214.959 259.813 214.959 260.423C214.959 261.033 215.082 261.569 215.328 262.029C215.585 262.489 215.917 262.842 216.323 263.088C216.741 263.324 217.18 263.441 217.64 263.441C218.111 263.441 218.549 263.324 218.956 263.088C219.363 262.853 219.689 262.51 219.935 262.061C220.192 261.601 220.321 261.065 220.321 260.455ZM223.961 260.423C223.961 259.535 224.142 258.748 224.506 258.063C224.881 257.379 225.384 256.849 226.015 256.474C226.658 256.089 227.369 255.896 228.151 255.896C228.728 255.896 229.296 256.025 229.852 256.282C230.419 256.528 230.869 256.859 231.201 257.277V253.007H233.047V264.886H231.201V263.554C230.901 263.982 230.484 264.335 229.949 264.613C229.424 264.892 228.819 265.031 228.134 265.031C227.364 265.031 226.658 264.838 226.015 264.453C225.384 264.057 224.881 263.511 224.506 262.815C224.142 262.109 223.961 261.312 223.961 260.423ZM231.201 260.455C231.201 259.845 231.072 259.316 230.815 258.866C230.569 258.417 230.243 258.074 229.836 257.839C229.429 257.603 228.991 257.486 228.52 257.486C228.049 257.486 227.61 257.603 227.203 257.839C226.797 258.063 226.465 258.401 226.208 258.85C225.962 259.289 225.839 259.813 225.839 260.423C225.839 261.033 225.962 261.569 226.208 262.029C226.465 262.489 226.797 262.842 227.203 263.088C227.621 263.324 228.06 263.441 228.52 263.441C228.991 263.441 229.429 263.324 229.836 263.088C230.243 262.853 230.569 262.51 230.815 262.061C231.072 261.601 231.201 261.065 231.201 260.455ZM243.558 260.247C243.558 260.579 243.536 260.878 243.493 261.146H236.735C236.788 261.852 237.051 262.419 237.522 262.847C237.992 263.276 238.57 263.49 239.255 263.49C240.24 263.49 240.936 263.078 241.342 262.253H243.317C243.049 263.067 242.562 263.736 241.856 264.26C241.16 264.774 240.293 265.031 239.255 265.031C238.41 265.031 237.65 264.843 236.976 264.469C236.312 264.084 235.788 263.548 235.402 262.863C235.028 262.168 234.841 261.365 234.841 260.455C234.841 259.546 235.023 258.748 235.386 258.063C235.761 257.368 236.28 256.833 236.944 256.458C237.618 256.084 238.388 255.896 239.255 255.896C240.09 255.896 240.834 256.078 241.487 256.442C242.14 256.806 242.648 257.32 243.012 257.983C243.376 258.636 243.558 259.391 243.558 260.247ZM241.647 259.669C241.637 258.995 241.396 258.454 240.925 258.047C240.454 257.641 239.871 257.437 239.175 257.437C238.544 257.437 238.003 257.641 237.554 258.047C237.104 258.443 236.837 258.984 236.751 259.669H241.647ZM251.359 257.341C251.669 256.934 252.092 256.592 252.627 256.314C253.162 256.035 253.767 255.896 254.441 255.896C255.212 255.896 255.913 256.089 256.544 256.474C257.186 256.849 257.689 257.379 258.053 258.063C258.417 258.748 258.599 259.535 258.599 260.423C258.599 261.312 258.417 262.109 258.053 262.815C257.689 263.511 257.186 264.057 256.544 264.453C255.913 264.838 255.212 265.031 254.441 265.031C253.767 265.031 253.168 264.897 252.643 264.629C252.119 264.351 251.691 264.009 251.359 263.602V269.092H249.529V256.041H251.359V257.341ZM256.737 260.423C256.737 259.813 256.608 259.289 256.352 258.85C256.105 258.401 255.774 258.063 255.356 257.839C254.95 257.603 254.511 257.486 254.04 257.486C253.58 257.486 253.141 257.603 252.723 257.839C252.317 258.074 251.985 258.417 251.728 258.866C251.482 259.316 251.359 259.845 251.359 260.455C251.359 261.065 251.482 261.601 251.728 262.061C251.985 262.51 252.317 262.853 252.723 263.088C253.141 263.324 253.58 263.441 254.04 263.441C254.511 263.441 254.95 263.324 255.356 263.088C255.774 262.842 256.105 262.489 256.352 262.029C256.608 261.569 256.737 261.033 256.737 260.423ZM259.799 260.423C259.799 259.535 259.981 258.748 260.345 258.063C260.719 257.379 261.222 256.849 261.854 256.474C262.496 256.089 263.202 255.896 263.973 255.896C264.668 255.896 265.273 256.035 265.787 256.314C266.311 256.581 266.729 256.918 267.039 257.325V256.041H268.885V264.886H267.039V263.57C266.729 263.987 266.306 264.335 265.771 264.613C265.236 264.892 264.626 265.031 263.941 265.031C263.181 265.031 262.485 264.838 261.854 264.453C261.222 264.057 260.719 263.511 260.345 262.815C259.981 262.109 259.799 261.312 259.799 260.423ZM267.039 260.455C267.039 259.845 266.91 259.316 266.654 258.866C266.407 258.417 266.081 258.074 265.674 257.839C265.268 257.603 264.829 257.486 264.358 257.486C263.887 257.486 263.448 257.603 263.042 257.839C262.635 258.063 262.303 258.401 262.046 258.85C261.8 259.289 261.677 259.813 261.677 260.423C261.677 261.033 261.8 261.569 262.046 262.029C262.303 262.489 262.635 262.842 263.042 263.088C263.459 263.324 263.898 263.441 264.358 263.441C264.829 263.441 265.268 263.324 265.674 263.088C266.081 262.853 266.407 262.51 266.654 262.061C266.91 261.601 267.039 261.065 267.039 260.455ZM279.251 256.041L273.825 269.044H271.931L273.729 264.742L270.245 256.041H272.284L274.772 262.783L277.357 256.041H279.251ZM291.34 255.896C292.036 255.896 292.657 256.041 293.202 256.33C293.759 256.619 294.192 257.047 294.503 257.614C294.824 258.181 294.984 258.866 294.984 259.669V264.886H293.17V259.942C293.17 259.15 292.972 258.545 292.576 258.128C292.18 257.7 291.64 257.486 290.955 257.486C290.27 257.486 289.724 257.7 289.317 258.128C288.921 258.545 288.723 259.15 288.723 259.942V264.886H286.909V259.942C286.909 259.15 286.711 258.545 286.315 258.128C285.919 257.7 285.379 257.486 284.694 257.486C284.009 257.486 283.463 257.7 283.057 258.128C282.661 258.545 282.463 259.15 282.463 259.942V264.886H280.632V256.041H282.463V257.052C282.762 256.688 283.142 256.405 283.602 256.201C284.063 255.998 284.555 255.896 285.079 255.896C285.786 255.896 286.417 256.046 286.974 256.346C287.53 256.645 287.958 257.079 288.258 257.646C288.525 257.111 288.943 256.688 289.51 256.378C290.077 256.057 290.687 255.896 291.34 255.896ZM305.42 260.247C305.42 260.579 305.399 260.878 305.356 261.146H298.597C298.651 261.852 298.913 262.419 299.384 262.847C299.855 263.276 300.433 263.49 301.118 263.49C302.102 263.49 302.798 263.078 303.205 262.253H305.179C304.912 263.067 304.425 263.736 303.718 264.26C303.023 264.774 302.156 265.031 301.118 265.031C300.272 265.031 299.512 264.843 298.838 264.469C298.175 264.084 297.65 263.548 297.265 262.863C296.89 262.168 296.703 261.365 296.703 260.455C296.703 259.546 296.885 258.748 297.249 258.063C297.623 257.368 298.142 256.833 298.806 256.458C299.48 256.084 300.251 255.896 301.118 255.896C301.953 255.896 302.696 256.078 303.349 256.442C304.002 256.806 304.51 257.32 304.874 257.983C305.238 258.636 305.42 259.391 305.42 260.247ZM303.51 259.669C303.499 258.995 303.258 258.454 302.787 258.047C302.316 257.641 301.733 257.437 301.037 257.437C300.406 257.437 299.866 257.641 299.416 258.047C298.967 258.443 298.699 258.984 298.613 259.669H303.51ZM311.684 255.896C312.38 255.896 313 256.041 313.546 256.33C314.103 256.619 314.536 257.047 314.847 257.614C315.157 258.181 315.312 258.866 315.312 259.669V264.886H313.498V259.942C313.498 259.15 313.3 258.545 312.904 258.128C312.508 257.7 311.968 257.486 311.283 257.486C310.598 257.486 310.052 257.7 309.645 258.128C309.249 258.545 309.051 259.15 309.051 259.942V264.886H307.221V256.041H309.051V257.052C309.351 256.688 309.731 256.405 310.191 256.201C310.662 255.998 311.16 255.896 311.684 255.896ZM319.782 257.534V262.43C319.782 262.762 319.857 263.003 320.006 263.152C320.167 263.292 320.434 263.361 320.809 263.361H321.933V264.886H320.488C319.664 264.886 319.032 264.694 318.594 264.308C318.155 263.923 317.935 263.297 317.935 262.43V257.534H316.892V256.041H317.935V253.841H319.782V256.041H321.933V257.534H319.782ZM327.308 254.853V253.183H330.647V264.886H328.801V254.853H327.308ZM339.342 249.732L334.975 267.696H333.177L337.528 249.732H339.342ZM341.375 256.073C341.44 255.078 341.82 254.302 342.515 253.745C343.222 253.189 344.121 252.91 345.212 252.91C345.961 252.91 346.609 253.044 347.155 253.312C347.701 253.579 348.113 253.943 348.391 254.403C348.669 254.863 348.808 255.383 348.808 255.96C348.808 256.624 348.632 257.191 348.278 257.662C347.925 258.133 347.503 258.449 347.01 258.609V258.674C347.642 258.866 348.134 259.219 348.487 259.733C348.84 260.236 349.017 260.884 349.017 261.676C349.017 262.307 348.872 262.869 348.583 263.361C348.295 263.853 347.866 264.244 347.299 264.533C346.732 264.811 346.052 264.95 345.26 264.95C344.105 264.95 343.152 264.656 342.403 264.068C341.664 263.468 341.268 262.612 341.215 261.499H342.981C343.024 262.066 343.243 262.532 343.639 262.896C344.035 263.249 344.57 263.425 345.244 263.425C345.897 263.425 346.4 263.249 346.753 262.896C347.107 262.532 347.283 262.066 347.283 261.499C347.283 260.75 347.042 260.22 346.561 259.91C346.09 259.589 345.362 259.428 344.377 259.428H343.96V257.919H344.394C345.26 257.908 345.919 257.764 346.368 257.486C346.828 257.207 347.058 256.769 347.058 256.169C347.058 255.655 346.892 255.249 346.561 254.949C346.229 254.639 345.758 254.484 345.148 254.484C344.549 254.484 344.083 254.639 343.751 254.949C343.42 255.249 343.222 255.623 343.157 256.073H341.375Z" fill="#4F4F4F"/>
<rect x="96.8094" y="352.652" width="224.749" height="46.8227" rx="6.68896" fill="#4F4F4F"/>
<path d="M178.056 374.753C178.056 375.32 177.923 375.855 177.655 376.358C177.387 376.861 176.959 377.274 176.371 377.595C175.782 377.905 175.028 378.06 174.107 378.06H172.084V382.587H170.254V371.43H174.107C174.963 371.43 175.686 371.58 176.274 371.88C176.874 372.169 177.318 372.565 177.607 373.068C177.906 373.571 178.056 374.132 178.056 374.753ZM174.107 376.567C174.803 376.567 175.322 376.412 175.664 376.102C176.007 375.781 176.178 375.331 176.178 374.753C176.178 373.533 175.488 372.923 174.107 372.923H172.084V376.567H174.107ZM179.192 378.124C179.192 377.236 179.374 376.449 179.738 375.765C180.112 375.08 180.615 374.55 181.247 374.175C181.889 373.79 182.595 373.597 183.366 373.597C184.061 373.597 184.666 373.736 185.18 374.015C185.704 374.282 186.122 374.619 186.432 375.026V373.742H188.278V382.587H186.432V381.271C186.122 381.688 185.699 382.036 185.164 382.314C184.629 382.593 184.018 382.732 183.334 382.732C182.574 382.732 181.878 382.539 181.247 382.154C180.615 381.758 180.112 381.212 179.738 380.516C179.374 379.81 179.192 379.013 179.192 378.124ZM186.432 378.156C186.432 377.546 186.303 377.017 186.047 376.567C185.8 376.118 185.474 375.775 185.067 375.54C184.661 375.304 184.222 375.187 183.751 375.187C183.28 375.187 182.841 375.304 182.435 375.54C182.028 375.765 181.696 376.102 181.439 376.551C181.193 376.99 181.07 377.514 181.07 378.124C181.07 378.734 181.193 379.27 181.439 379.73C181.696 380.19 182.028 380.543 182.435 380.789C182.852 381.025 183.291 381.142 183.751 381.142C184.222 381.142 184.661 381.025 185.067 380.789C185.474 380.554 185.8 380.211 186.047 379.762C186.303 379.302 186.432 378.767 186.432 378.156ZM198.644 373.742L193.218 386.745H191.324L193.122 382.443L189.638 373.742H191.677L194.165 380.484L196.75 373.742H198.644ZM206.026 381.11H209.798V382.587H204.196V371.43H206.026V381.11ZM210.719 378.124C210.719 377.236 210.901 376.449 211.265 375.765C211.639 375.08 212.142 374.55 212.774 374.175C213.416 373.79 214.122 373.597 214.893 373.597C215.588 373.597 216.193 373.736 216.707 374.015C217.231 374.282 217.648 374.619 217.959 375.026V373.742H219.805V382.587H217.959V381.271C217.648 381.688 217.226 382.036 216.691 382.314C216.155 382.593 215.545 382.732 214.861 382.732C214.101 382.732 213.405 382.539 212.774 382.154C212.142 381.758 211.639 381.212 211.265 380.516C210.901 379.81 210.719 379.013 210.719 378.124ZM217.959 378.156C217.959 377.546 217.83 377.017 217.574 376.567C217.327 376.118 217.001 375.775 216.594 375.54C216.188 375.304 215.749 375.187 215.278 375.187C214.807 375.187 214.368 375.304 213.962 375.54C213.555 375.765 213.223 376.102 212.966 376.551C212.72 376.99 212.597 377.514 212.597 378.124C212.597 378.734 212.72 379.27 212.966 379.73C213.223 380.19 213.555 380.543 213.962 380.789C214.379 381.025 214.818 381.142 215.278 381.142C215.749 381.142 216.188 381.025 216.594 380.789C217.001 380.554 217.327 380.211 217.574 379.762C217.83 379.302 217.959 378.767 217.959 378.156ZM224.344 375.235V380.131C224.344 380.463 224.419 380.704 224.569 380.853C224.729 380.993 224.997 381.062 225.371 381.062H226.495V382.587H225.05C224.226 382.587 223.595 382.395 223.156 382.009C222.717 381.624 222.498 380.998 222.498 380.131V375.235H221.454V373.742H222.498V371.542H224.344V373.742H226.495V375.235H224.344ZM236.289 377.948C236.289 378.28 236.267 378.579 236.225 378.847H229.466C229.52 379.553 229.782 380.12 230.253 380.548C230.724 380.977 231.302 381.191 231.986 381.191C232.971 381.191 233.667 380.779 234.073 379.954H236.048C235.78 380.768 235.293 381.437 234.587 381.961C233.891 382.475 233.025 382.732 231.986 382.732C231.141 382.732 230.381 382.544 229.707 382.17C229.043 381.785 228.519 381.249 228.134 380.565C227.759 379.869 227.572 379.066 227.572 378.156C227.572 377.247 227.754 376.449 228.118 375.765C228.492 375.069 229.011 374.534 229.675 374.159C230.349 373.785 231.12 373.597 231.986 373.597C232.821 373.597 233.565 373.779 234.218 374.143C234.871 374.507 235.379 375.021 235.743 375.684C236.107 376.337 236.289 377.092 236.289 377.948ZM234.378 377.37C234.368 376.696 234.127 376.155 233.656 375.748C233.185 375.342 232.602 375.138 231.906 375.138C231.275 375.138 230.734 375.342 230.285 375.748C229.835 376.144 229.568 376.685 229.482 377.37H234.378ZM239.92 375.026C240.187 374.577 240.541 374.229 240.979 373.983C241.429 373.726 241.959 373.597 242.569 373.597V375.492H242.103C241.386 375.492 240.84 375.674 240.466 376.037C240.102 376.401 239.92 377.033 239.92 377.932V382.587H238.09V373.742H239.92V375.026Z" fill="white"/>
<path d="M240.932 160.811C240.932 161.379 240.799 161.914 240.531 162.417C240.264 162.92 239.835 163.332 239.247 163.653C238.658 163.963 237.904 164.119 236.983 164.119H234.961V168.646H233.13V157.488H236.983C237.84 157.488 238.562 157.638 239.151 157.938C239.75 158.227 240.194 158.623 240.483 159.126C240.783 159.629 240.932 160.191 240.932 160.811ZM236.983 162.626C237.679 162.626 238.198 162.47 238.541 162.16C238.883 161.839 239.054 161.389 239.054 160.811C239.054 159.591 238.364 158.981 236.983 158.981H234.961V162.626H236.983ZM242.068 164.183C242.068 163.294 242.25 162.508 242.614 161.823C242.988 161.138 243.491 160.608 244.123 160.234C244.765 159.848 245.471 159.656 246.242 159.656C246.937 159.656 247.542 159.795 248.056 160.073C248.58 160.341 248.998 160.678 249.308 161.084V159.8H251.154V168.646H249.308V167.329C248.998 167.747 248.575 168.094 248.04 168.373C247.505 168.651 246.895 168.79 246.21 168.79C245.45 168.79 244.754 168.597 244.123 168.212C243.491 167.816 242.988 167.27 242.614 166.575C242.25 165.868 242.068 165.071 242.068 164.183ZM249.308 164.215C249.308 163.605 249.18 163.075 248.923 162.626C248.677 162.176 248.35 161.834 247.943 161.598C247.537 161.363 247.098 161.245 246.627 161.245C246.156 161.245 245.717 161.363 245.311 161.598C244.904 161.823 244.572 162.16 244.315 162.609C244.069 163.048 243.946 163.573 243.946 164.183C243.946 164.793 244.069 165.328 244.315 165.788C244.572 166.248 244.904 166.601 245.311 166.848C245.728 167.083 246.167 167.201 246.627 167.201C247.098 167.201 247.537 167.083 247.943 166.848C248.35 166.612 248.677 166.27 248.923 165.82C249.18 165.36 249.308 164.825 249.308 164.215ZM254.489 158.628C254.157 158.628 253.879 158.516 253.654 158.291C253.43 158.066 253.317 157.788 253.317 157.456C253.317 157.125 253.43 156.846 253.654 156.622C253.879 156.397 254.157 156.284 254.489 156.284C254.81 156.284 255.083 156.397 255.308 156.622C255.533 156.846 255.645 157.125 255.645 157.456C255.645 157.788 255.533 158.066 255.308 158.291C255.083 158.516 254.81 158.628 254.489 158.628ZM255.388 159.8V168.646H253.558V159.8H255.388ZM257.181 164.183C257.181 163.294 257.363 162.508 257.727 161.823C258.101 161.138 258.604 160.608 259.236 160.234C259.878 159.848 260.589 159.656 261.371 159.656C261.949 159.656 262.516 159.784 263.072 160.041C263.64 160.287 264.089 160.619 264.421 161.036V156.766H266.267V168.646H264.421V167.313C264.121 167.741 263.704 168.094 263.169 168.373C262.644 168.651 262.04 168.79 261.355 168.79C260.584 168.79 259.878 168.597 259.236 168.212C258.604 167.816 258.101 167.27 257.727 166.575C257.363 165.868 257.181 165.071 257.181 164.183ZM264.421 164.215C264.421 163.605 264.292 163.075 264.036 162.626C263.789 162.176 263.463 161.834 263.056 161.598C262.65 161.363 262.211 161.245 261.74 161.245C261.269 161.245 260.83 161.363 260.424 161.598C260.017 161.823 259.685 162.16 259.428 162.609C259.182 163.048 259.059 163.573 259.059 164.183C259.059 164.793 259.182 165.328 259.428 165.788C259.685 166.248 260.017 166.601 260.424 166.848C260.841 167.083 261.28 167.201 261.74 167.201C262.211 167.201 262.65 167.083 263.056 166.848C263.463 166.612 263.789 166.27 264.036 165.82C264.292 165.36 264.421 164.825 264.421 164.215Z" fill="white"/>
<defs>
<filter id="filter0_d" x="0.488289" y="0.812703" width="414.716" height="507.023" filterUnits="userSpaceOnUse" color-interpolation-filters="sRGB">
<feFlood flood-opacity="0" result="BackgroundImageFix"/>
<feColorMatrix in="SourceAlpha" type="matrix" values="0 0 0 0 0 0 0 0 0 0 0 0 0 0 0 0 0 0 127 0"/>
<feOffset dy="-2.67559"/>
<feGaussianBlur stdDeviation="26.7559"/>
<feColorMatrix type="matrix" values="0 0 0 0 0 0 0 0 0 0 0 0 0 0 0 0 0 0 0.1 0"/>
<feBlend mode="normal" in2="BackgroundImageFix" result="effect1_dropShadow"/>
<feBlend mode="normal" in="SourceGraphic" in2="effect1_dropShadow" result="shape"/>
</filter>
<filter id="filter1_d" x="143.632" y="188.104" width="302.341" height="144.482" filterUnits="userSpaceOnUse" color-interpolation-filters="sRGB">
<feFlood flood-opacity="0" result="BackgroundImageFix"/>
<feColorMatrix in="SourceAlpha" type="matrix" values="0 0 0 0 0 0 0 0 0 0 0 0 0 0 0 0 0 0 127 0"/>
<feOffset dy="13.3779"/>
<feGaussianBlur stdDeviation="16.7224"/>
<feColorMatrix type="matrix" values="0 0 0 0 0 0 0 0 0 0 0 0 0 0 0 0 0 0 0.15 0"/>
<feBlend mode="normal" in2="BackgroundImageFix" result="effect1_dropShadow"/>
<feBlend mode="normal" in="SourceGraphic" in2="effect1_dropShadow" result="shape"/>
</filter>
</defs>
</svg>
