<svg width="262" height="286" viewBox="0 0 262 286" fill="none" xmlns="http://www.w3.org/2000/svg">
<rect opacity="0.1" width="262" height="286" rx="5" fill="#12191D"/>
<path d="M90.5001 134.028C90.5001 134.868 90.2247 135.545 89.6741 136.058C89.1234 136.571 88.2974 136.828 87.1961 136.828H85.2221V141H84.2421V131.214H87.1961C88.2881 131.214 89.1094 131.471 89.6601 131.984C90.2201 132.497 90.5001 133.179 90.5001 134.028ZM87.1961 135.988C88.7267 135.988 89.4921 135.335 89.4921 134.028C89.4921 133.375 89.3101 132.88 88.9461 132.544C88.5821 132.208 87.9987 132.04 87.1961 132.04H85.2221V135.988H87.1961ZM93.1244 134.714C93.3391 134.238 93.6657 133.869 94.1044 133.608C94.5524 133.347 95.0984 133.216 95.7424 133.216V134.238H95.4764C94.7671 134.238 94.1977 134.429 93.7684 134.812C93.3391 135.195 93.1244 135.834 93.1244 136.73V141H92.1444V133.356H93.1244V134.714ZM100.563 141.112C99.844 141.112 99.1953 140.953 98.6167 140.636C98.0473 140.309 97.5947 139.852 97.2587 139.264C96.932 138.667 96.7687 137.971 96.7687 137.178C96.7687 136.385 96.9367 135.694 97.2727 135.106C97.6087 134.509 98.066 134.051 98.6447 133.734C99.2233 133.407 99.872 133.244 100.591 133.244C101.309 133.244 101.958 133.407 102.537 133.734C103.125 134.051 103.582 134.509 103.909 135.106C104.245 135.694 104.413 136.385 104.413 137.178C104.413 137.962 104.245 138.653 103.909 139.25C103.573 139.847 103.111 140.309 102.523 140.636C101.935 140.953 101.281 141.112 100.563 141.112ZM100.563 140.258C101.067 140.258 101.533 140.146 101.963 139.922C102.392 139.689 102.737 139.343 102.999 138.886C103.269 138.419 103.405 137.85 103.405 137.178C103.405 136.506 103.274 135.941 103.013 135.484C102.751 135.017 102.406 134.672 101.977 134.448C101.547 134.215 101.081 134.098 100.577 134.098C100.073 134.098 99.606 134.215 99.1767 134.448C98.7473 134.672 98.402 135.017 98.1407 135.484C97.8887 135.941 97.7627 136.506 97.7627 137.178C97.7627 137.85 97.8887 138.419 98.1407 138.886C98.402 139.343 98.7427 139.689 99.1627 139.922C99.592 140.146 100.059 140.258 100.563 140.258ZM109.209 134.182H107.431V141H106.451V134.182H105.387V133.356H106.451V132.824C106.451 131.993 106.661 131.382 107.081 130.99C107.51 130.598 108.201 130.402 109.153 130.402V131.242C108.518 131.242 108.07 131.363 107.809 131.606C107.557 131.849 107.431 132.255 107.431 132.824V133.356H109.209V134.182ZM111.242 131.914C111.046 131.914 110.878 131.844 110.738 131.704C110.598 131.564 110.528 131.391 110.528 131.186C110.528 130.981 110.598 130.813 110.738 130.682C110.878 130.542 111.046 130.472 111.242 130.472C111.438 130.472 111.606 130.542 111.746 130.682C111.886 130.813 111.956 130.981 111.956 131.186C111.956 131.391 111.886 131.564 111.746 131.704C111.606 131.844 111.438 131.914 111.242 131.914ZM111.732 133.356V141H110.752V133.356H111.732ZM114.931 130.64V141H113.951V130.64H114.931ZM124.066 136.786C124.066 137.122 124.057 137.379 124.038 137.556H117.696C117.724 138.135 117.864 138.629 118.116 139.04C118.368 139.451 118.7 139.763 119.11 139.978C119.521 140.183 119.969 140.286 120.454 140.286C121.089 140.286 121.621 140.132 122.05 139.824C122.489 139.516 122.778 139.101 122.918 138.578H123.954C123.768 139.325 123.366 139.936 122.75 140.412C122.144 140.879 121.378 141.112 120.454 141.112C119.736 141.112 119.092 140.953 118.522 140.636C117.953 140.309 117.505 139.852 117.178 139.264C116.861 138.667 116.702 137.971 116.702 137.178C116.702 136.385 116.861 135.689 117.178 135.092C117.496 134.495 117.939 134.037 118.508 133.72C119.078 133.403 119.726 133.244 120.454 133.244C121.182 133.244 121.817 133.403 122.358 133.72C122.909 134.037 123.329 134.467 123.618 135.008C123.917 135.54 124.066 136.133 124.066 136.786ZM123.072 136.758C123.082 136.189 122.965 135.703 122.722 135.302C122.489 134.901 122.167 134.597 121.756 134.392C121.346 134.187 120.898 134.084 120.412 134.084C119.684 134.084 119.064 134.317 118.55 134.784C118.037 135.251 117.752 135.909 117.696 136.758H123.072ZM130.639 131.214V137.374C130.639 138.345 130.868 139.063 131.325 139.53C131.792 139.997 132.426 140.23 133.229 140.23C134.032 140.23 134.657 140.001 135.105 139.544C135.562 139.077 135.791 138.354 135.791 137.374V131.214H136.771V137.36C136.771 138.601 136.44 139.535 135.777 140.16C135.124 140.785 134.27 141.098 133.215 141.098C132.16 141.098 131.302 140.785 130.639 140.16C129.986 139.535 129.659 138.601 129.659 137.36V131.214H130.639ZM139.923 135.036C140.166 134.523 140.548 134.098 141.071 133.762C141.603 133.417 142.233 133.244 142.961 133.244C143.652 133.244 144.272 133.407 144.823 133.734C145.383 134.051 145.817 134.509 146.125 135.106C146.442 135.694 146.601 136.38 146.601 137.164C146.601 137.948 146.442 138.639 146.125 139.236C145.817 139.833 145.383 140.295 144.823 140.622C144.272 140.949 143.652 141.112 142.961 141.112C142.242 141.112 141.617 140.944 141.085 140.608C140.553 140.263 140.166 139.833 139.923 139.32V144.612H138.957V133.356H139.923V135.036ZM145.607 137.164C145.607 136.529 145.481 135.983 145.229 135.526C144.986 135.059 144.65 134.705 144.221 134.462C143.792 134.219 143.306 134.098 142.765 134.098C142.242 134.098 141.762 134.224 141.323 134.476C140.894 134.728 140.553 135.087 140.301 135.554C140.049 136.021 139.923 136.562 139.923 137.178C139.923 137.794 140.049 138.335 140.301 138.802C140.553 139.269 140.894 139.628 141.323 139.88C141.762 140.132 142.242 140.258 142.765 140.258C143.306 140.258 143.792 140.137 144.221 139.894C144.65 139.642 144.986 139.283 145.229 138.816C145.481 138.34 145.607 137.789 145.607 137.164ZM147.956 137.164C147.956 136.38 148.115 135.694 148.432 135.106C148.75 134.509 149.184 134.051 149.734 133.734C150.294 133.407 150.924 133.244 151.624 133.244C152.296 133.244 152.903 133.407 153.444 133.734C153.986 134.061 154.382 134.485 154.634 135.008V130.64H155.614V141H154.634V139.292C154.401 139.824 154.018 140.263 153.486 140.608C152.954 140.944 152.329 141.112 151.61 141.112C150.91 141.112 150.28 140.949 149.72 140.622C149.17 140.295 148.736 139.833 148.418 139.236C148.11 138.639 147.956 137.948 147.956 137.164ZM154.634 137.178C154.634 136.562 154.508 136.021 154.256 135.554C154.004 135.087 153.659 134.728 153.22 134.476C152.791 134.224 152.315 134.098 151.792 134.098C151.251 134.098 150.766 134.219 150.336 134.462C149.907 134.705 149.566 135.059 149.314 135.526C149.072 135.983 148.95 136.529 148.95 137.164C148.95 137.789 149.072 138.34 149.314 138.816C149.566 139.283 149.907 139.642 150.336 139.894C150.766 140.137 151.251 140.258 151.792 140.258C152.315 140.258 152.791 140.132 153.22 139.88C153.659 139.628 154.004 139.269 154.256 138.802C154.508 138.335 154.634 137.794 154.634 137.178ZM157.403 137.164C157.403 136.38 157.557 135.694 157.865 135.106C158.183 134.509 158.617 134.051 159.167 133.734C159.727 133.407 160.357 133.244 161.057 133.244C161.785 133.244 162.411 133.412 162.933 133.748C163.465 134.084 163.848 134.513 164.081 135.036V133.356H165.061V141H164.081V139.306C163.839 139.829 163.451 140.263 162.919 140.608C162.397 140.944 161.771 141.112 161.043 141.112C160.353 141.112 159.727 140.949 159.167 140.622C158.617 140.295 158.183 139.833 157.865 139.236C157.557 138.639 157.403 137.948 157.403 137.164ZM164.081 137.178C164.081 136.562 163.955 136.021 163.703 135.554C163.451 135.087 163.106 134.728 162.667 134.476C162.238 134.224 161.762 134.098 161.239 134.098C160.698 134.098 160.213 134.219 159.783 134.462C159.354 134.705 159.013 135.059 158.761 135.526C158.519 135.983 158.397 136.529 158.397 137.164C158.397 137.789 158.519 138.34 158.761 138.816C159.013 139.283 159.354 139.642 159.783 139.894C160.213 140.137 160.698 140.258 161.239 140.258C161.762 140.258 162.238 140.132 162.667 139.88C163.106 139.628 163.451 139.269 163.703 138.802C163.955 138.335 164.081 137.794 164.081 137.178ZM168.573 134.182V138.928C168.573 139.395 168.661 139.717 168.839 139.894C169.016 140.071 169.329 140.16 169.777 140.16H170.673V141H169.623C168.932 141 168.419 140.841 168.083 140.524C167.747 140.197 167.579 139.665 167.579 138.928V134.182H166.515V133.356H167.579V131.438H168.573V133.356H170.673V134.182H168.573ZM179.205 136.786C179.205 137.122 179.196 137.379 179.177 137.556H172.835C172.863 138.135 173.003 138.629 173.255 139.04C173.507 139.451 173.838 139.763 174.249 139.978C174.66 140.183 175.108 140.286 175.593 140.286C176.228 140.286 176.76 140.132 177.189 139.824C177.628 139.516 177.917 139.101 178.057 138.578H179.093C178.906 139.325 178.505 139.936 177.889 140.412C177.282 140.879 176.517 141.112 175.593 141.112C174.874 141.112 174.23 140.953 173.661 140.636C173.092 140.309 172.644 139.852 172.317 139.264C172 138.667 171.841 137.971 171.841 137.178C171.841 136.385 172 135.689 172.317 135.092C172.634 134.495 173.078 134.037 173.647 133.72C174.216 133.403 174.865 133.244 175.593 133.244C176.321 133.244 176.956 133.403 177.497 133.72C178.048 134.037 178.468 134.467 178.757 135.008C179.056 135.54 179.205 136.133 179.205 136.786ZM178.211 136.758C178.22 136.189 178.104 135.703 177.861 135.302C177.628 134.901 177.306 134.597 176.895 134.392C176.484 134.187 176.036 134.084 175.551 134.084C174.823 134.084 174.202 134.317 173.689 134.784C173.176 135.251 172.891 135.909 172.835 136.758H178.211Z" fill="#12191D"/>
</svg>
