<svg width="358" height="51" viewBox="0 0 358 51" fill="none" xmlns="http://www.w3.org/2000/svg">
<path d="M264.989 30.7041C264.989 30.1416 264.79 29.708 264.392 29.4033C263.999 29.0986 263.287 28.791 262.256 28.4805C261.225 28.1699 260.404 27.8242 259.795 27.4434C258.629 26.7109 258.046 25.7559 258.046 24.5781C258.046 23.5469 258.465 22.6973 259.303 22.0293C260.146 21.3613 261.239 21.0273 262.581 21.0273C263.472 21.0273 264.266 21.1914 264.963 21.5195C265.66 21.8477 266.208 22.3164 266.606 22.9258C267.005 23.5293 267.204 24.2002 267.204 24.9385H264.989C264.989 24.2705 264.778 23.749 264.356 23.374C263.94 22.9932 263.343 22.8027 262.563 22.8027C261.837 22.8027 261.271 22.958 260.867 23.2686C260.469 23.5791 260.27 24.0127 260.27 24.5693C260.27 25.0381 260.486 25.4307 260.92 25.7471C261.354 26.0576 262.068 26.3623 263.064 26.6611C264.061 26.9541 264.86 27.291 265.464 27.6719C266.067 28.0469 266.51 28.4805 266.791 28.9727C267.072 29.459 267.213 30.0303 267.213 30.6865C267.213 31.7529 266.803 32.6025 265.982 33.2354C265.168 33.8623 264.061 34.1758 262.66 34.1758C261.734 34.1758 260.882 34.0059 260.103 33.666C259.329 33.3203 258.726 32.8457 258.292 32.2422C257.864 31.6387 257.65 30.9355 257.65 30.1328H259.874C259.874 30.8594 260.114 31.4219 260.595 31.8203C261.075 32.2188 261.764 32.418 262.66 32.418C263.434 32.418 264.014 32.2627 264.4 31.9521C264.793 31.6357 264.989 31.2197 264.989 30.7041ZM272.142 25.5273C272.84 24.7188 273.722 24.3145 274.788 24.3145C276.815 24.3145 277.844 25.4717 277.873 27.7861V34H275.737V27.8652C275.737 27.209 275.594 26.7461 275.307 26.4766C275.025 26.2012 274.609 26.0635 274.059 26.0635C273.203 26.0635 272.564 26.4443 272.142 27.2061V34H270.007V20.5H272.142V25.5273ZM280.72 29.1572C280.72 28.2256 280.904 27.3877 281.273 26.6436C281.642 25.8936 282.161 25.3193 282.829 24.9209C283.497 24.5166 284.264 24.3145 285.132 24.3145C286.415 24.3145 287.455 24.7275 288.252 25.5537C289.055 26.3799 289.488 27.4756 289.553 28.8408L289.561 29.3418C289.561 30.2793 289.38 31.1172 289.016 31.8555C288.659 32.5938 288.143 33.165 287.47 33.5693C286.802 33.9736 286.028 34.1758 285.149 34.1758C283.807 34.1758 282.732 33.7305 281.924 32.8398C281.121 31.9434 280.72 30.751 280.72 29.2627V29.1572ZM282.855 29.3418C282.855 30.3203 283.057 31.0879 283.462 31.6445C283.866 32.1953 284.429 32.4707 285.149 32.4707C285.87 32.4707 286.43 32.1895 286.828 31.627C287.232 31.0645 287.434 30.2412 287.434 29.1572C287.434 28.1963 287.226 27.4346 286.81 26.8721C286.4 26.3096 285.841 26.0283 285.132 26.0283C284.434 26.0283 283.881 26.3066 283.471 26.8633C283.06 27.4141 282.855 28.2402 282.855 29.3418ZM300.775 29.3418C300.775 30.8125 300.441 31.9873 299.773 32.8662C299.105 33.7393 298.209 34.1758 297.084 34.1758C296.041 34.1758 295.206 33.833 294.579 33.1475V37.6562H292.443V24.4902H294.412L294.5 25.457C295.127 24.6953 295.979 24.3145 297.057 24.3145C298.218 24.3145 299.126 24.748 299.782 25.6152C300.444 26.4766 300.775 27.6748 300.775 29.21V29.3418ZM298.648 29.1572C298.648 28.208 298.458 27.4551 298.077 26.8984C297.702 26.3418 297.163 26.0635 296.46 26.0635C295.587 26.0635 294.96 26.4238 294.579 27.1445V31.3633C294.966 32.1016 295.598 32.4707 296.477 32.4707C297.157 32.4707 297.687 32.1982 298.068 31.6533C298.455 31.1025 298.648 30.2705 298.648 29.1572ZM311.998 29.3418C311.998 30.8125 311.664 31.9873 310.996 32.8662C310.328 33.7393 309.431 34.1758 308.306 34.1758C307.263 34.1758 306.428 33.833 305.801 33.1475V37.6562H303.666V24.4902H305.634L305.722 25.457C306.349 24.6953 307.202 24.3145 308.28 24.3145C309.44 24.3145 310.348 24.748 311.005 25.6152C311.667 26.4766 311.998 27.6748 311.998 29.21V29.3418ZM309.871 29.1572C309.871 28.208 309.68 27.4551 309.299 26.8984C308.924 26.3418 308.385 26.0635 307.682 26.0635C306.809 26.0635 306.182 26.4238 305.801 27.1445V31.3633C306.188 32.1016 306.821 32.4707 307.7 32.4707C308.38 32.4707 308.91 32.1982 309.291 31.6533C309.677 31.1025 309.871 30.2705 309.871 29.1572ZM319.081 34.1758C317.727 34.1758 316.629 33.751 315.785 32.9014C314.947 32.0459 314.528 30.9092 314.528 29.4912V29.2275C314.528 28.2783 314.71 27.4316 315.073 26.6875C315.442 25.9375 315.958 25.3545 316.62 24.9385C317.282 24.5225 318.02 24.3145 318.835 24.3145C320.129 24.3145 321.129 24.7275 321.832 25.5537C322.541 26.3799 322.895 27.5488 322.895 29.0605V29.9219H316.681C316.746 30.707 317.006 31.3281 317.463 31.7852C317.926 32.2422 318.506 32.4707 319.204 32.4707C320.182 32.4707 320.979 32.0752 321.594 31.2842L322.746 32.3828C322.365 32.9512 321.855 33.3936 321.216 33.71C320.584 34.0205 319.872 34.1758 319.081 34.1758ZM318.826 26.0283C318.24 26.0283 317.765 26.2334 317.402 26.6436C317.045 27.0537 316.816 27.625 316.716 28.3574H320.786V28.1992C320.739 27.4844 320.548 26.9453 320.214 26.582C319.88 26.2129 319.418 26.0283 318.826 26.0283ZM330.62 26.4414C330.338 26.3945 330.048 26.3711 329.75 26.3711C328.771 26.3711 328.112 26.7461 327.772 27.4961V34H325.636V24.4902H327.675L327.728 25.5537C328.244 24.7275 328.959 24.3145 329.873 24.3145C330.177 24.3145 330.429 24.3555 330.628 24.4375L330.62 26.4414ZM338.379 31.416C338.379 31.0352 338.221 30.7451 337.905 30.5459C337.594 30.3467 337.076 30.1709 336.349 30.0186C335.622 29.8662 335.016 29.6729 334.53 29.4385C333.463 28.9229 332.93 28.1758 332.93 27.1973C332.93 26.377 333.276 25.6914 333.967 25.1406C334.659 24.5898 335.538 24.3145 336.604 24.3145C337.741 24.3145 338.658 24.5957 339.355 25.1582C340.058 25.7207 340.41 26.4502 340.41 27.3467H338.274C338.274 26.9365 338.122 26.5967 337.817 26.3271C337.512 26.0518 337.108 25.9141 336.604 25.9141C336.135 25.9141 335.751 26.0225 335.453 26.2393C335.16 26.4561 335.013 26.7461 335.013 27.1094C335.013 27.4375 335.151 27.6924 335.426 27.874C335.702 28.0557 336.258 28.2402 337.096 28.4277C337.934 28.6094 338.59 28.8291 339.065 29.0869C339.545 29.3389 339.9 29.6436 340.128 30.001C340.363 30.3584 340.48 30.792 340.48 31.3018C340.48 32.1572 340.125 32.8516 339.416 33.3848C338.707 33.9121 337.779 34.1758 336.63 34.1758C335.851 34.1758 335.157 34.0352 334.547 33.7539C333.938 33.4727 333.463 33.0859 333.123 32.5938C332.784 32.1016 332.614 31.5713 332.614 31.0029H334.688C334.717 31.5068 334.908 31.8965 335.259 32.1719C335.611 32.4414 336.077 32.5762 336.657 32.5762C337.219 32.5762 337.647 32.4707 337.94 32.2598C338.233 32.043 338.379 31.7617 338.379 31.416Z" fill="#12191D"/>
<path d="M67.8786 36.184H80.4333V38H65.7134V12.5762H67.8786V36.184ZM98.1546 38C97.945 37.4063 97.8112 36.5274 97.7529 35.3633C97.0196 36.3179 96.0825 37.0571 94.9417 37.5809C93.8125 38.0931 92.6135 38.3492 91.3446 38.3492C89.5286 38.3492 88.0561 37.8428 86.9269 36.8301C85.8094 35.8173 85.2506 34.5368 85.2506 32.9886C85.2506 31.1493 86.0131 29.6942 87.538 28.6232C89.0746 27.5523 91.2107 27.0168 93.9464 27.0168H97.7355V24.869C97.7355 23.5187 97.3164 22.4594 96.4783 21.6911C95.6518 20.9111 94.4411 20.5211 92.8463 20.5211C91.3912 20.5211 90.1863 20.8937 89.2318 21.6387C88.2772 22.3837 87.8 23.28 87.8 24.3277L85.7046 24.3103C85.7046 22.8086 86.403 21.5106 87.8 20.4164C89.1969 19.3105 90.9139 18.7575 92.9511 18.7575C95.0581 18.7575 96.7169 19.2872 97.9276 20.3465C99.1499 21.3942 99.7785 22.861 99.8134 24.7468V33.687C99.8134 35.5147 100.005 36.8825 100.39 37.7905V38H98.1546ZM91.5891 36.4983C92.986 36.4983 94.2316 36.1607 95.3258 35.4856C96.4317 34.8104 97.2349 33.9082 97.7355 32.779V28.6232H93.9988C91.915 28.6465 90.2853 29.0307 89.1096 29.7757C87.9338 30.5091 87.346 31.5218 87.346 32.814C87.346 33.8733 87.7359 34.7522 88.5159 35.4506C89.3075 36.1491 90.3319 36.4983 91.5891 36.4983ZM122.756 28.7455C122.756 31.6906 122.104 34.0304 120.8 35.7649C119.496 37.4878 117.744 38.3492 115.544 38.3492C112.913 38.3492 110.923 37.3714 109.572 35.4157L109.485 38H107.529V11.1793H109.607V21.8482C110.934 19.7878 112.902 18.7575 115.509 18.7575C117.744 18.7575 119.508 19.6132 120.8 21.3244C122.104 23.0239 122.756 25.3929 122.756 28.4312V28.7455ZM120.66 28.3788C120.66 25.8876 120.177 23.9669 119.211 22.6165C118.245 21.2545 116.883 20.5735 115.125 20.5735C113.786 20.5735 112.651 20.9053 111.72 21.5688C110.789 22.2207 110.084 23.1811 109.607 24.45V32.9711C110.655 35.3459 112.506 36.5332 115.16 36.5332C116.883 36.5332 118.227 35.8522 119.193 34.4903C120.171 33.1283 120.66 31.0911 120.66 28.3788ZM141.455 38C141.245 37.4063 141.111 36.5274 141.053 35.3633C140.32 36.3179 139.383 37.0571 138.242 37.5809C137.113 38.0931 135.914 38.3492 134.645 38.3492C132.829 38.3492 131.356 37.8428 130.227 36.8301C129.109 35.8173 128.551 34.5368 128.551 32.9886C128.551 31.1493 129.313 29.6942 130.838 28.6232C132.375 27.5523 134.511 27.0168 137.246 27.0168H141.036V24.869C141.036 23.5187 140.616 22.4594 139.778 21.6911C138.952 20.9111 137.741 20.5211 136.146 20.5211C134.691 20.5211 133.486 20.8937 132.532 21.6387C131.577 22.3837 131.1 23.28 131.1 24.3277L129.005 24.3103C129.005 22.8086 129.703 21.5106 131.1 20.4164C132.497 19.3105 134.214 18.7575 136.251 18.7575C138.358 18.7575 140.017 19.2872 141.228 20.3465C142.45 21.3942 143.079 22.861 143.113 24.7468V33.687C143.113 35.5147 143.306 36.8825 143.69 37.7905V38H141.455ZM134.889 36.4983C136.286 36.4983 137.532 36.1607 138.626 35.4856C139.732 34.8104 140.535 33.9082 141.036 32.779V28.6232H137.299C135.215 28.6465 133.585 29.0307 132.41 29.7757C131.234 30.5091 130.646 31.5218 130.646 32.814C130.646 33.8733 131.036 34.7522 131.816 35.4506C132.608 36.1491 133.632 36.4983 134.889 36.4983ZM153.187 38H151.091V11.1793H153.187V38ZM172.951 38C172.741 37.4063 172.607 36.5274 172.549 35.3633C171.816 36.3179 170.879 37.0571 169.738 37.5809C168.609 38.0931 167.41 38.3492 166.141 38.3492C164.325 38.3492 162.852 37.8428 161.723 36.8301C160.606 35.8173 160.047 34.5368 160.047 32.9886C160.047 31.1493 160.809 29.6942 162.334 28.6232C163.871 27.5523 166.007 27.0168 168.743 27.0168H172.532V24.869C172.532 23.5187 172.113 22.4594 171.274 21.6911C170.448 20.9111 169.237 20.5211 167.643 20.5211C166.187 20.5211 164.983 20.8937 164.028 21.6387C163.073 22.3837 162.596 23.28 162.596 24.3277L160.501 24.3103C160.501 22.8086 161.199 21.5106 162.596 20.4164C163.993 19.3105 165.71 18.7575 167.747 18.7575C169.854 18.7575 171.513 19.2872 172.724 20.3465C173.946 21.3942 174.575 22.861 174.61 24.7468V33.687C174.61 35.5147 174.802 36.8825 175.186 37.7905V38H172.951ZM166.385 36.4983C167.782 36.4983 169.028 36.1607 170.122 35.4856C171.228 34.8104 172.031 33.9082 172.532 32.779V28.6232H168.795C166.711 28.6465 165.082 29.0307 163.906 29.7757C162.73 30.5091 162.142 31.5218 162.142 32.814C162.142 33.8733 162.532 34.7522 163.312 35.4506C164.104 36.1491 165.128 36.4983 166.385 36.4983ZM197.552 28.7455C197.552 31.6906 196.9 34.0304 195.596 35.7649C194.292 37.4878 192.54 38.3492 190.34 38.3492C187.709 38.3492 185.719 37.3714 184.368 35.4157L184.281 38H182.325V11.1793H184.403V21.8482C185.73 19.7878 187.698 18.7575 190.305 18.7575C192.54 18.7575 194.304 19.6132 195.596 21.3244C196.9 23.0239 197.552 25.3929 197.552 28.4312V28.7455ZM195.456 28.3788C195.456 25.8876 194.973 23.9669 194.007 22.6165C193.041 21.2545 191.679 20.5735 189.921 20.5735C188.582 20.5735 187.447 20.9053 186.516 21.5688C185.585 22.2207 184.881 23.1811 184.403 24.45V32.9711C185.451 35.3459 187.302 36.5332 189.956 36.5332C191.679 36.5332 193.023 35.8522 193.99 34.4903C194.968 33.1283 195.456 31.0911 195.456 28.3788ZM216.251 38C216.041 37.4063 215.907 36.5274 215.849 35.3633C215.116 36.3179 214.179 37.0571 213.038 37.5809C211.909 38.0931 210.71 38.3492 209.441 38.3492C207.625 38.3492 206.152 37.8428 205.023 36.8301C203.906 35.8173 203.347 34.5368 203.347 32.9886C203.347 31.1493 204.109 29.6942 205.634 28.6232C207.171 27.5523 209.307 27.0168 212.043 27.0168H215.832V24.869C215.832 23.5187 215.413 22.4594 214.575 21.6911C213.748 20.9111 212.537 20.5211 210.943 20.5211C209.487 20.5211 208.283 20.8937 207.328 21.6387C206.374 22.3837 205.896 23.28 205.896 24.3277L203.801 24.3103C203.801 22.8086 204.499 21.5106 205.896 20.4164C207.293 19.3105 209.01 18.7575 211.047 18.7575C213.154 18.7575 214.813 19.2872 216.024 20.3465C217.246 21.3942 217.875 22.861 217.91 24.7468V33.687C217.91 35.5147 218.102 36.8825 218.486 37.7905V38H216.251ZM209.685 36.4983C211.082 36.4983 212.328 36.1607 213.422 35.4856C214.528 34.8104 215.331 33.9082 215.832 32.779V28.6232H212.095C210.011 28.6465 208.382 29.0307 207.206 29.7757C206.03 30.5091 205.442 31.5218 205.442 32.814C205.442 33.8733 205.832 34.7522 206.612 35.4506C207.404 36.1491 208.428 36.4983 209.685 36.4983Z" fill="#12191D"/>
<path d="M8.87519 13.4349C14.324 12.4029 19.3421 17.1472 20.668 19.2667C17.8554 21.1229 15.9172 22.6089 9.26283 22.4151C2.60846 22.2212 0.620094 18.0838 0.620094 18.0838C0.620094 18.0838 3.42639 14.4668 8.87519 13.4349Z" fill="#12191D"/>
<path d="M43.5884 13.4349C38.1396 12.4029 33.1216 17.1472 31.7956 19.2667C34.6083 21.1229 36.5464 22.6089 43.2008 22.4151C49.8552 22.2212 51.8435 18.0838 51.8435 18.0838C51.8435 18.0838 49.0372 14.4668 43.5884 13.4349Z" fill="#12191D"/>
<path d="M24.5779 22.5178C25.7491 28.5997 23.7102 35.0438 20.7629 37.8296C16.99 41.3958 15.9175 42.352 15.9175 42.352C15.9175 42.352 15.8846 42.248 15.8286 42.0576C15.3789 40.528 13.4416 33.4223 15.1422 29.8831C17.3342 25.3214 21.8078 22.9327 24.5779 22.5178C24.8286 22.4802 25.0654 22.4588 25.2853 22.4535C26.1449 22.4325 27.0657 22.4592 27.9992 22.5864C29.9422 22.8514 31.9401 23.5522 33.5548 25.1669C35.9452 27.5573 38.0126 30.3353 37.8834 35.31C37.78 39.2897 36.8928 41.5336 36.4621 42.1581C34.0501 40.6937 29.0195 36.6279 28.1925 32.0797C27.6932 29.3334 27.42 25.9238 27.9992 22.5864C27.0657 22.4592 26.1449 22.4325 25.2853 22.4535C25.0654 22.4588 24.8286 22.4802 24.5779 22.5178Z" fill="#12191D"/>
<path d="M1.8335 11.5351C4.26697 9.72617 11.0075 7.45206 18.5017 12.8272C27.8695 19.5462 25.4791 33.3718 20.7629 37.8296C16.99 41.3958 15.9175 42.352 15.9175 42.352M15.9175 42.352C15.9175 42.352 15.8846 42.248 15.8286 42.0576M15.9175 42.352L15.8286 42.0576M50.8691 11.413C50.4168 10.8962 47.8326 9.91998 47.5742 9.91998C45.0546 9.33853 38.7232 9.14472 33.5548 13.0211C27.0943 17.8665 27.1589 26.3944 28.1925 32.0797C29.0195 36.6279 34.0501 40.6937 36.4621 42.1581C36.8928 41.5336 37.78 39.2897 37.8834 35.31C38.0126 30.3353 35.9452 27.5573 33.5548 25.1669C31.1644 22.7765 27.9341 22.3889 25.2853 22.4535C22.6365 22.5181 17.5326 24.9085 15.1422 29.8831C13.4416 33.4223 15.3789 40.528 15.8286 42.0576" stroke="#12191D" stroke-width="0.528156" stroke-linecap="round" stroke-linejoin="round"/>
<path d="M219.395 14.0957C219.395 13.4764 219.538 12.9016 219.823 12.3712C220.111 11.8408 220.508 11.4238 221.014 11.1203C221.523 10.8137 222.072 10.6604 222.661 10.6604C223.249 10.6604 223.797 10.8137 224.302 11.1203C224.811 11.4238 225.208 11.8408 225.493 12.3712C225.782 12.9016 225.926 13.4764 225.926 14.0957C225.926 14.7212 225.78 15.3006 225.489 15.8341C225.198 16.3645 224.799 16.7814 224.293 17.0849C223.79 17.3885 223.246 17.5402 222.661 17.5402C222.069 17.5402 221.52 17.3869 221.014 17.0803C220.511 16.7738 220.116 16.3553 219.828 15.8249C219.54 15.2945 219.395 14.7181 219.395 14.0957ZM225.36 14.0957C225.36 13.5868 225.245 13.1147 225.015 12.6793C224.785 12.2409 224.46 11.8914 224.04 11.6308C223.62 11.3671 223.16 11.2353 222.661 11.2353C222.173 11.2353 221.719 11.361 221.299 11.6124C220.882 11.8638 220.554 12.2102 220.315 12.6517C220.076 13.0932 219.957 13.5745 219.957 14.0957C219.957 14.6169 220.075 15.0983 220.311 15.5397C220.55 15.9812 220.878 16.3307 221.295 16.5883C221.715 16.8427 222.17 16.97 222.661 16.97C223.151 16.97 223.606 16.8397 224.026 16.5791C224.45 16.3185 224.778 15.9674 225.011 15.5259C225.244 15.0845 225.36 14.6077 225.36 14.0957ZM221.998 14.4452V15.995H221.304V12.0861H222.596C223.059 12.0861 223.424 12.1918 223.691 12.4034C223.957 12.6119 224.091 12.9092 224.091 13.2955C224.091 13.6389 223.918 13.9056 223.571 14.0957C223.758 14.1908 223.889 14.3241 223.962 14.4958C224.039 14.6644 224.077 14.8745 224.077 15.1259C224.077 15.3773 224.082 15.5551 224.091 15.6593C224.103 15.7636 224.125 15.8509 224.155 15.9214V15.995H223.442C223.403 15.8908 223.383 15.5934 223.383 15.1029C223.383 14.8699 223.332 14.7028 223.231 14.6016C223.13 14.4974 222.961 14.4452 222.725 14.4452H221.998ZM221.998 13.829H222.624C222.851 13.829 223.036 13.7799 223.18 13.6818C223.327 13.5837 223.401 13.455 223.401 13.2955C223.401 13.0809 223.346 12.9292 223.235 12.8403C223.128 12.7483 222.932 12.7008 222.647 12.6977H221.998V13.829Z" fill="#12191D"/>
<rect x="241" width="2" height="51" fill="#12191D"/>
</svg>
