<svg width="29" height="24" viewBox="0 0 29 24" fill="none" xmlns="http://www.w3.org/2000/svg">
<path d="M28.7259 11.7441C25.7261 6.95835 20.5263 3.9958 14.8799 3.85534V0H13.9199V3.85534C8.27341 3.9958 3.07365 6.95835 0.0738447 11.7441C-0.0246149 11.9005 -0.0246149 12.0994 0.0738447 12.2558C3.07365 17.0415 8.27341 20.0041 13.9199 20.1446V23.9999H14.8799V20.1446C20.5263 20.0041 25.7261 17.0415 28.7259 12.2558C28.8244 12.0994 28.8244 11.9005 28.7259 11.7441ZM1.05064 11.9999C3.01029 9.0035 5.9246 6.75681 9.321 5.62414C7.51063 7.06581 6.3992 9.2096 6.26438 11.5199H2.39991V12.4799H6.26438C6.3992 14.7903 7.51063 16.9341 9.321 18.3758C5.9246 17.2431 3.01029 14.9964 1.05064 11.9999ZM13.9199 16.3199V19.1754C10.328 18.9315 7.46833 16.0718 7.22437 12.4799H10.0799V11.5199H7.22437C7.46833 7.92807 10.328 5.06842 13.9199 4.82446V7.67997H14.8799V4.82446C18.4717 5.06842 21.3314 7.92801 21.5754 11.5199H18.7198V12.4799H21.5754C21.3314 16.0718 18.4717 18.9315 14.8799 19.1754V16.3199H13.9199ZM27.7491 11.9999C25.7894 14.9964 22.8751 17.2431 19.4787 18.3758C21.2891 16.9341 22.4005 14.7903 22.5353 12.4799H26.3998V11.5199H22.5353C22.4005 9.2096 21.2891 7.06575 19.4787 5.62414C22.8752 6.75687 25.7894 9.0035 27.7491 11.9999Z" fill="black"/>
<path d="M14.3998 8.6394C12.5441 8.6394 11.0398 10.1437 11.0398 11.9994C11.0419 13.8542 12.545 15.3573 14.3998 15.3594C16.2555 15.3594 17.7598 13.8551 17.7598 11.9994C17.7598 10.1437 16.2555 8.6394 14.3998 8.6394ZM14.3998 14.3994C13.0743 14.3994 11.9998 13.3248 11.9998 11.9994C12.0014 10.6746 13.075 9.60096 14.3998 9.5994C15.7252 9.5994 16.7998 10.6739 16.7998 11.9994C16.7998 13.3248 15.7253 14.3994 14.3998 14.3994Z" fill="black"/>
<path d="M2.8799 0C2.61482 0 2.3999 0.214919 2.3999 0.479998V4.31998H3.3599V0.959996H6.71988V0H2.8799Z" fill="black"/>
<path d="M25.9198 0H22.0798V0.959996H25.4398V4.31998H26.3998V0.479998C26.3998 0.214919 26.1849 0 25.9198 0Z" fill="black"/>
<path d="M25.4398 19.6801V23.04H22.0798V24H25.9198C26.1849 24 26.3998 23.7851 26.3998 23.52V19.6801H25.4398Z" fill="black"/>
<path d="M3.3599 23.04V19.6801H2.3999V23.52C2.3999 23.7851 2.61482 24 2.8799 24H6.71988V23.04H3.3599Z" fill="black"/>
</svg>
