<svg width="54" height="49" viewBox="0 0 54 49" fill="none" xmlns="http://www.w3.org/2000/svg">
<path d="M40.9767 20.6851C40.9755 20.6752 40.9748 20.6651 40.9733 20.6553C40.9663 20.6063 40.9569 20.5574 40.9437 20.5092L40.9432 20.5076C40.9309 20.4625 40.9151 20.418 40.8973 20.3739C40.8922 20.3613 40.8866 20.3492 40.8811 20.3368C40.8671 20.3051 40.8514 20.2738 40.8344 20.243C40.827 20.2295 40.8199 20.216 40.8119 20.2028C40.8076 20.1957 40.8042 20.1883 40.7998 20.1811C40.7818 20.1526 40.7622 20.1258 40.7423 20.0993C40.7385 20.0943 40.7355 20.0891 40.7317 20.0842C40.7014 20.0449 40.6687 20.0084 40.6343 19.9739C40.6279 19.9673 40.6209 19.9613 40.6142 19.955C40.5844 19.9262 40.5535 19.8993 40.5212 19.8739C40.513 19.8675 40.505 19.8611 40.4965 19.8549C40.4533 19.8229 40.4088 19.7931 40.3623 19.7672L22.4961 9.61166L32.7829 3.1341L50.0285 12.9367L42.7654 17.5101C42.1986 17.8669 42.0285 18.6158 42.3854 19.1825C42.7422 19.7493 43.4909 19.9194 44.0577 19.5625L53.0349 13.9097C53.3958 13.6826 53.6108 13.2825 53.6011 12.8561C53.5915 12.4297 53.3588 12.04 52.9879 11.8292L33.3502 0.666732C32.9618 0.445777 32.4831 0.456691 32.1048 0.694746L19.498 8.63324C19.4954 8.63482 19.4928 8.63652 19.4902 8.63809L13.1906 12.605C13.1876 12.6068 13.1847 12.6086 13.1819 12.6104L0.566528 20.5544C0.205626 20.7815 -0.00938672 21.1816 0.000314936 21.608C0.00989532 22.0344 0.242614 22.4241 0.613459 22.6349L20.2513 33.7974C20.4373 33.9033 20.644 33.9559 20.8505 33.9559C21.0752 33.9559 21.2996 33.8934 21.4966 33.7694L30.4738 28.1165C31.0406 27.7597 31.2108 27.0108 30.8539 26.4441C30.4972 25.8773 29.7482 25.7071 29.1815 26.0641L20.8186 31.3301L3.57307 21.5273L13.86 15.0497L32.2531 25.5047V39.3516C32.2531 39.7933 32.4931 40.1999 32.8797 40.4133C33.0624 40.5142 33.2642 40.5643 33.4658 40.5643C33.6906 40.5643 33.915 40.5018 34.1119 40.3778L40.4197 36.4058C40.7723 36.1838 40.9863 35.7963 40.9863 35.3796V20.8271C40.9863 20.82 40.9851 20.8132 40.9848 20.806C40.9841 20.7658 40.9814 20.7255 40.9767 20.6851ZM34.6785 37.155V24.7992C34.6785 24.363 34.4442 23.9605 34.065 23.745L16.1884 13.5836L20.1676 11.0778L37.413 20.8805L35.9031 21.8313C35.3363 22.188 35.1661 22.9369 35.523 23.5036C35.7534 23.8698 36.1475 24.0703 36.5504 24.0703C36.7711 24.0703 36.9948 24.01 37.1954 23.8836L38.5607 23.0239V34.7103L34.6785 37.155Z" fill="#259DD9"/>
<path d="M51.7431 16.708L42.766 22.3608C42.1991 22.7175 42.029 23.4664 42.3859 24.0331C42.6163 24.3993 43.0103 24.5998 43.4133 24.5998C43.634 24.5998 43.8576 24.5395 44.0582 24.4131L53.0354 18.7604C53.6022 18.4036 53.7724 17.6547 53.4155 17.088C53.0587 16.5212 52.3098 16.3509 51.7431 16.708Z" fill="#4CB449"/>
<path d="M29.1817 30.915L20.8188 36.181L1.81216 25.3774C1.2303 25.0466 0.489582 25.2498 0.158634 25.8324C-0.172313 26.4146 0.0313001 27.155 0.613642 27.4859L20.2515 38.6484C20.4375 38.7542 20.6442 38.8069 20.8507 38.8069C21.0754 38.8069 21.2997 38.7444 21.4968 38.6204L30.474 32.9675C31.0408 32.6107 31.211 31.8618 30.8541 31.2951C30.4974 30.7282 29.7484 30.5579 29.1817 30.915Z" fill="#4CB449"/>
<path d="M51.7431 21.5588L42.766 27.2116C42.1991 27.5684 42.029 28.3173 42.3859 28.884C42.6163 29.2502 43.0103 29.4507 43.4133 29.4507C43.634 29.4507 43.8576 29.3904 44.0582 29.264L53.0354 23.6112C53.6022 23.2544 53.7724 22.5056 53.4155 21.9389C53.0587 21.3719 52.3098 21.2018 51.7431 21.5588Z" fill="#4CB449"/>
<path d="M29.1817 35.7655L20.8188 41.0316L1.81216 30.228C1.2303 29.8971 0.489582 30.1004 0.158634 30.683C-0.172313 31.2652 0.0313001 32.0055 0.613642 32.3365L20.2515 43.499C20.4375 43.6048 20.6442 43.6575 20.8507 43.6575C21.0754 43.6575 21.2997 43.595 21.4968 43.4709L30.474 37.818C31.0408 37.4613 31.211 36.7124 30.8541 36.1457C30.4974 35.5787 29.7484 35.4085 29.1817 35.7655Z" fill="#4CB449"/>
<path d="M51.7431 26.4096L42.766 32.0624C42.1991 32.4191 42.029 33.168 42.3859 33.7347C42.6163 34.1009 43.0103 34.3014 43.4133 34.3014C43.634 34.3014 43.8576 34.2411 44.0582 34.1147L53.0354 28.462C53.6022 28.1052 53.7724 27.3563 53.4155 26.7896C53.0587 26.2228 52.3098 26.0527 51.7431 26.4096Z" fill="#4CB449"/>
<path d="M29.1817 40.6164L20.8188 45.8824L1.81216 35.0788C1.2303 34.748 0.489582 34.9512 0.158634 35.5338C-0.172313 36.116 0.0313001 36.8564 0.613642 37.1873L20.2515 48.3498C20.4375 48.4557 20.6442 48.5083 20.8507 48.5083C21.0754 48.5083 21.2997 48.4459 21.4968 48.3218L30.474 42.6689C31.0408 42.3121 31.211 41.5633 30.8541 40.9966C30.4974 40.4296 29.7484 40.2594 29.1817 40.6164Z" fill="#4CB449"/>
</svg>
