<svg width="96" height="96" viewBox="0 0 96 96" fill="none" xmlns="http://www.w3.org/2000/svg">
<path d="M63.375 68.6232C65.446 68.6232 67.125 66.9443 67.125 64.8732C67.125 62.8022 65.446 61.1232 63.375 61.1232C61.3039 61.1232 59.625 62.8022 59.625 64.8732C59.625 66.9443 61.3039 68.6232 63.375 68.6232Z" fill="#12191D"/>
<path d="M44.6247 88.4995H14.9999C10.8644 88.4995 7.49996 85.1351 7.49996 80.9996V50.2497C7.49996 46.1143 10.8644 42.7498 14.9999 42.7498H68.9996C73.1351 42.7498 76.4996 46.1143 76.4996 50.2497V57.7497C76.4996 59.8208 78.1784 61.4997 80.2495 61.4997C82.3207 61.4997 83.9995 59.8208 83.9995 57.7497V50.2497C83.9995 41.9788 77.2706 35.2498 68.9996 35.2498H64.4927V22.0248C64.4927 9.88026 54.3993 0 41.9928 0C29.5864 0 19.493 9.88026 19.493 22.0248V35.2498H14.9999C6.72896 35.2498 0 41.9788 0 50.2497V80.9996C0 89.2705 6.72896 95.9995 14.9999 95.9995H44.6247C46.6959 95.9995 48.3747 94.3206 48.3747 92.2495C48.3747 90.1784 46.6959 88.4995 44.6247 88.4995ZM26.9929 22.0248C26.9929 14.0157 33.7219 7.49996 41.9928 7.49996C50.2638 7.49996 56.9927 14.0157 56.9927 22.0248V35.2498H26.9929V22.0248Z" fill="#12191D"/>
<path d="M94.4332 61.0737C92.749 59.8679 90.4062 60.2559 89.2012 61.94L70.7173 87.7586C70.2126 88.344 69.5799 88.4703 69.2409 88.4928C68.8933 88.5159 68.224 88.4718 67.6346 87.9189L55.6894 76.2619C54.2071 74.8152 51.833 74.8446 50.3866 76.3266C48.94 77.8088 48.9689 80.1829 50.4513 81.6294L62.4175 93.307C62.4287 93.3179 62.4398 93.3288 62.4512 93.3395C64.245 95.0474 66.6396 95.9975 69.1033 95.9975C69.315 95.9975 69.5273 95.9905 69.7395 95.9763C72.4234 95.7974 74.9293 94.4922 76.6144 92.3956C76.6579 92.3412 76.6999 92.2859 76.7405 92.2293L95.2994 66.3057C96.5048 64.6218 96.1171 62.2792 94.4332 61.0737Z" fill="#12191D"/>
<path d="M49.125 68.6232C51.196 68.6232 52.875 66.9443 52.875 64.8732C52.875 62.8022 51.196 61.1232 49.125 61.1232C47.0539 61.1232 45.375 62.8022 45.375 64.8732C45.375 66.9443 47.0539 68.6232 49.125 68.6232Z" fill="#12191D"/>
<path d="M21 68.6232C23.071 68.6232 24.75 66.9443 24.75 64.8732C24.75 62.8022 23.071 61.1232 21 61.1232C18.9289 61.1232 17.25 62.8022 17.25 64.8732C17.25 66.9443 18.9289 68.6232 21 68.6232Z" fill="#12191D"/>
<path d="M35.0625 68.6232C37.1335 68.6232 38.8125 66.9443 38.8125 64.8732C38.8125 62.8022 37.1335 61.1232 35.0625 61.1232C32.9914 61.1232 31.3125 62.8022 31.3125 64.8732C31.3125 66.9443 32.9914 68.6232 35.0625 68.6232Z" fill="#12191D"/>
</svg>
