<svg width="74" height="74" viewBox="0 0 74 74" fill="none" xmlns="http://www.w3.org/2000/svg">
<path d="M63.3847 74H2.85903C1.67156 74 0.708984 73.0374 0.708984 71.8499V37.1323C0.708984 35.9449 1.67156 34.9823 2.85903 34.9823C4.0465 34.9823 5.00908 35.9449 5.00908 37.1323V69.6999H61.2348V64.9545C61.2348 63.767 62.1975 62.8044 63.3848 62.8044C64.5721 62.8044 65.5349 63.767 65.5349 64.9545V71.8499C65.5347 73.0374 64.572 74 63.3847 74Z" fill="#507C5C"/>
<path d="M2.85938 25.5997V24.9074L25.3768 2.15007V25.5997H2.85938Z" fill="#CFF09E"/>
<path d="M71.1397 31.7152H28.3496V55.3677H71.1397V31.7152Z" fill="#CFF09E"/>
<path d="M71.1398 29.5652H65.5346V2.15005C65.5346 0.962578 64.5719 0 63.3845 0H25.3763C25.3498 0 25.3238 0.00303516 25.2974 0.00390234C25.2732 0.00476953 25.2494 0.00578125 25.2254 0.00751563C25.1325 0.0141641 25.0401 0.0245703 24.9495 0.0429258C24.9476 0.0433594 24.9456 0.0439375 24.9434 0.0443711C24.8542 0.062582 24.7671 0.0884531 24.6811 0.117937C24.6587 0.125742 24.6364 0.133691 24.6142 0.142074C24.5296 0.17416 24.4467 0.209859 24.3669 0.252207C24.3641 0.253652 24.3608 0.254809 24.3581 0.256543C24.276 0.300625 24.1979 0.351934 24.1217 0.406855C24.1022 0.42102 24.083 0.435184 24.0639 0.45007C23.9885 0.508172 23.9154 0.569598 23.8476 0.637961L1.33047 23.395C1.27988 23.446 1.23248 23.4992 1.18767 23.5545C1.15775 23.5913 1.13159 23.6298 1.10442 23.6679C1.09113 23.6868 1.07624 23.7049 1.06352 23.7239C1.03259 23.7708 1.00498 23.8193 0.977957 23.8682C0.971309 23.8802 0.963504 23.8916 0.957289 23.9036C0.93084 23.9537 0.907859 24.0049 0.885746 24.0562C0.880398 24.0686 0.873895 24.0805 0.868981 24.0932C0.848746 24.1425 0.83198 24.1928 0.815648 24.2432C0.810445 24.2594 0.804086 24.2749 0.799316 24.2909C0.785586 24.3373 0.774746 24.3843 0.76434 24.4313C0.75957 24.4525 0.753355 24.4736 0.74902 24.4952C0.740637 24.5385 0.735289 24.5825 0.729652 24.6262C0.726184 24.6518 0.721414 24.677 0.718957 24.7028C0.71491 24.7466 0.714043 24.7906 0.712453 24.8347C0.711586 24.8588 0.708984 24.8826 0.708984 24.9066V25.5992C0.708984 26.7867 1.67156 27.7493 2.85903 27.7493H25.3764C26.5639 27.7493 27.5265 26.7867 27.5265 25.5992V4.30009H61.2348V29.5652H28.35C27.1625 29.5652 26.2 30.5277 26.2 31.7152V55.3669C26.2 56.5544 27.1625 57.5169 28.35 57.5169H71.1398C72.3271 57.5169 73.2898 56.5544 73.2898 55.3669V31.7152C73.2898 30.5277 72.3271 29.5652 71.1398 29.5652ZM7.32577 23.4496L23.2262 7.37977V23.4496H7.32577ZM68.9897 53.2168H30.5001V33.8653H68.9899V53.2168H68.9897Z" fill="#507C5C"/>
<path d="M36.9553 45.3647L34.6322 49.3107C34.5208 49.4857 34.2981 49.5652 34.0436 49.5652C33.3593 49.5652 32.3887 49.0242 32.3887 48.3402C32.3887 48.1969 32.4364 48.0538 32.532 47.8947L35.2848 43.6465L32.6435 39.4142C32.532 39.2392 32.4844 39.08 32.4844 38.9209C32.4844 38.2527 33.3913 37.7433 34.0915 37.7433C34.4416 37.7433 34.6802 37.8706 34.8393 38.1569L36.9556 41.8482L39.0716 38.1569C39.2308 37.8706 39.4697 37.7433 39.8196 37.7433C40.5197 37.7433 41.4268 38.2525 41.4268 38.9209C41.4268 39.08 41.3788 39.2392 41.2676 39.4142L38.6263 43.6465L41.3791 47.8947C41.4745 48.0538 41.5223 48.1971 41.5223 48.3402C41.5223 49.0244 40.5518 49.5652 39.8676 49.5652C39.6131 49.5652 39.3743 49.4857 39.2789 49.3107L36.9553 45.3647Z" fill="#507C5C"/>
<path d="M43.5899 49.4697C43.0488 49.4697 42.5078 49.2152 42.5078 48.706V38.5864C42.5078 38.0613 43.1286 37.8386 43.7488 37.8386C44.3695 37.8386 44.9897 38.0613 44.9897 38.5864V47.3058H48.6174C49.095 47.3058 49.3336 47.8469 49.3336 48.3879C49.3336 48.9289 49.095 49.4699 48.6174 49.4699H43.5898V49.4697H43.5899Z" fill="#507C5C"/>
<path d="M55.1078 46.3511C55.1078 44.4258 50.0638 44.7598 50.0638 41.0367C50.0638 38.6499 52.1482 37.7431 54.137 37.7431C54.9805 37.7431 57.3035 37.9022 57.3035 39.1435C57.3035 39.573 57.0172 40.4481 56.3168 40.4481C55.744 40.4481 55.4417 39.8436 54.1368 39.8436C53.0072 39.8436 52.5458 40.3049 52.5458 40.7982C52.5458 42.3895 57.5898 42.0871 57.5898 46.0967C57.5898 48.388 55.9191 49.6291 53.6119 49.6291C51.5276 49.6291 49.7773 48.6108 49.7773 47.5605C49.7773 47.0194 50.2549 46.2239 50.8593 46.2239C51.6073 46.2239 52.0844 47.4015 53.5642 47.4015C54.2964 47.4014 55.1078 47.1149 55.1078 46.3511Z" fill="#507C5C"/>
<path d="M62.6504 45.3647L60.3274 49.3107C60.2158 49.4857 59.9931 49.5652 59.7387 49.5652C59.0544 49.5652 58.084 49.0242 58.084 48.3402C58.084 48.1969 58.1317 48.0538 58.2272 47.8947L60.98 43.6465L58.3387 39.4142C58.2272 39.2392 58.1795 39.08 58.1795 38.9209C58.1795 38.2527 59.0866 37.7433 59.7867 37.7433C60.1368 37.7433 60.3754 37.8706 60.5347 38.1569L62.6509 41.8482L64.7671 38.1569C64.9259 37.8706 65.1649 37.7433 65.5149 37.7433C66.2152 37.7433 67.1221 38.2525 67.1221 38.9209C67.1221 39.08 67.0744 39.2392 66.963 39.4142L64.3218 43.6465L67.0745 47.8947C67.1699 48.0538 67.2178 48.1971 67.2178 48.3402C67.2178 49.0244 66.247 49.5652 65.563 49.5652C65.3082 49.5652 65.0696 49.4857 64.9744 49.3107L62.6504 45.3647Z" fill="#507C5C"/>
</svg>
