<svg width="24" height="22" viewBox="0 0 24 22" fill="none" xmlns="http://www.w3.org/2000/svg">
<path d="M11.696 5.5795C12.6667 5.5795 13.446 5.8455 14.034 6.3775C14.6313 6.90017 14.93 7.6235 14.93 8.5475C14.93 9.46217 14.636 10.1622 14.048 10.6475C13.46 11.1235 12.6807 11.3615 11.71 11.3615L11.654 12.4395H9.932L9.862 10.0595H10.492C11.304 10.0595 11.9293 9.95217 12.368 9.7375C12.8067 9.52283 13.026 9.13083 13.026 8.5615C13.026 8.15083 12.9047 7.82417 12.662 7.5815C12.4287 7.33883 12.1067 7.2175 11.696 7.2175C11.2667 7.2175 10.9307 7.33417 10.688 7.5675C10.4547 7.80083 10.338 8.12283 10.338 8.5335H8.49C8.48067 7.96417 8.602 7.4555 8.854 7.0075C9.106 6.5595 9.47467 6.2095 9.96 5.9575C10.4547 5.7055 11.0333 5.5795 11.696 5.5795ZM10.786 15.7855C10.4313 15.7855 10.1373 15.6782 9.904 15.4635C9.68 15.2395 9.568 14.9642 9.568 14.6375C9.568 14.3108 9.68 14.0402 9.904 13.8255C10.1373 13.6015 10.4313 13.4895 10.786 13.4895C11.1313 13.4895 11.416 13.6015 11.64 13.8255C11.864 14.0402 11.976 14.3108 11.976 14.6375C11.976 14.9642 11.864 15.2395 11.64 15.4635C11.416 15.6782 11.1313 15.7855 10.786 15.7855Z" fill="#12191D"/>
<path d="M12 21.3523C11.6583 21.3523 11.3289 21.2285 11.0722 21.0037C10.1026 20.1559 9.16789 19.3592 8.34318 18.6564L8.33897 18.6528C5.92107 16.5923 3.83312 14.8129 2.38037 13.06C0.756407 11.1004 0 9.24243 0 7.21271C0 5.24066 0.676207 3.42133 1.90393 2.0896C3.1463 0.742126 4.851 0 6.70458 0C8.08995 0 9.35869 0.437988 10.4754 1.3017C11.039 1.73767 11.5499 2.27124 12 2.89362C12.4502 2.27124 12.9609 1.73767 13.5247 1.3017C14.6415 0.437988 15.9102 0 17.2956 0C19.149 0 20.8538 0.742126 22.0962 2.0896C23.3239 3.42133 24 5.24066 24 7.21271C24 9.24243 23.2437 11.1004 21.6198 13.0598C20.167 14.8129 18.0793 16.5921 15.6617 18.6524C14.8355 19.3563 13.8993 20.1542 12.9276 21.004C12.6711 21.2285 12.3415 21.3523 12 21.3523ZM6.70458 1.40588C5.24834 1.40588 3.91058 1.98706 2.93737 3.04248C1.9497 4.11383 1.4057 5.59479 1.4057 7.21271C1.4057 8.9198 2.04016 10.4465 3.4627 12.163C4.83764 13.8221 6.88274 15.5649 9.25065 17.5829L9.25505 17.5865C10.0829 18.2921 11.0213 19.0919 11.998 19.9459C12.9805 19.0902 13.9204 18.2891 14.7499 17.5825C17.1176 15.5645 19.1625 13.8221 20.5374 12.163C21.9598 10.4465 22.5943 8.9198 22.5943 7.21271C22.5943 5.59479 22.0503 4.11383 21.0626 3.04248C20.0896 1.98706 18.7516 1.40588 17.2956 1.40588C16.2288 1.40588 15.2494 1.745 14.3846 2.4137C13.6139 3.00989 13.077 3.76355 12.7622 4.29089C12.6004 4.56207 12.3155 4.72394 12 4.72394C11.6845 4.72394 11.3996 4.56207 11.2377 4.29089C10.9231 3.76355 10.3863 3.00989 9.6154 2.4137C8.75059 1.745 7.77116 1.40588 6.70458 1.40588Z" fill="black"/>
</svg>
