<svg width="227" height="43" viewBox="0 0 227 43" fill="none" xmlns="http://www.w3.org/2000/svg">
<path d="M67.8786 31.184H80.4333V33H65.7134V7.57621H67.8786V31.184ZM98.1546 33C97.945 32.4063 97.8112 31.5274 97.7529 30.3633C97.0196 31.3179 96.0825 32.0571 94.9417 32.5809C93.8125 33.0931 92.6135 33.3492 91.3446 33.3492C89.5286 33.3492 88.0561 32.8428 86.9269 31.8301C85.8094 30.8173 85.2506 29.5368 85.2506 27.9886C85.2506 26.1493 86.0131 24.6942 87.538 23.6232C89.0746 22.5523 91.2107 22.0168 93.9464 22.0168H97.7355V19.869C97.7355 18.5187 97.3164 17.4594 96.4783 16.6911C95.6518 15.9111 94.4411 15.5211 92.8463 15.5211C91.3912 15.5211 90.1863 15.8937 89.2318 16.6387C88.2772 17.3837 87.8 18.28 87.8 19.3277L85.7046 19.3103C85.7046 17.8086 86.403 16.5106 87.8 15.4164C89.1969 14.3105 90.9139 13.7575 92.9511 13.7575C95.0581 13.7575 96.7169 14.2872 97.9276 15.3465C99.1499 16.3942 99.7785 17.861 99.8134 19.7468V28.687C99.8134 30.5147 100.005 31.8825 100.39 32.7905V33H98.1546ZM91.5891 31.4983C92.986 31.4983 94.2316 31.1607 95.3258 30.4856C96.4317 29.8104 97.2349 28.9082 97.7355 27.779V23.6232H93.9988C91.915 23.6465 90.2853 24.0307 89.1096 24.7757C87.9338 25.5091 87.346 26.5218 87.346 27.814C87.346 28.8733 87.7359 29.7522 88.5159 30.4506C89.3075 31.1491 90.3319 31.4983 91.5891 31.4983ZM122.756 23.7455C122.756 26.6906 122.104 29.0304 120.8 30.7649C119.496 32.4878 117.744 33.3492 115.544 33.3492C112.913 33.3492 110.923 32.3714 109.572 30.4157L109.485 33H107.529V6.1793H109.607V16.8482C110.934 14.7878 112.902 13.7575 115.509 13.7575C117.744 13.7575 119.508 14.6132 120.8 16.3244C122.104 18.0239 122.756 20.3929 122.756 23.4312V23.7455ZM120.66 23.3788C120.66 20.8876 120.177 18.9669 119.211 17.6165C118.245 16.2545 116.883 15.5735 115.125 15.5735C113.786 15.5735 112.651 15.9053 111.72 16.5688C110.789 17.2207 110.084 18.1811 109.607 19.45V27.9711C110.655 30.3459 112.506 31.5332 115.16 31.5332C116.883 31.5332 118.227 30.8522 119.193 29.4903C120.171 28.1283 120.66 26.0911 120.66 23.3788ZM141.455 33C141.245 32.4063 141.111 31.5274 141.053 30.3633C140.32 31.3179 139.383 32.0571 138.242 32.5809C137.113 33.0931 135.914 33.3492 134.645 33.3492C132.829 33.3492 131.356 32.8428 130.227 31.8301C129.109 30.8173 128.551 29.5368 128.551 27.9886C128.551 26.1493 129.313 24.6942 130.838 23.6232C132.375 22.5523 134.511 22.0168 137.246 22.0168H141.036V19.869C141.036 18.5187 140.616 17.4594 139.778 16.6911C138.952 15.9111 137.741 15.5211 136.146 15.5211C134.691 15.5211 133.486 15.8937 132.532 16.6387C131.577 17.3837 131.1 18.28 131.1 19.3277L129.005 19.3103C129.005 17.8086 129.703 16.5106 131.1 15.4164C132.497 14.3105 134.214 13.7575 136.251 13.7575C138.358 13.7575 140.017 14.2872 141.228 15.3465C142.45 16.3942 143.079 17.861 143.113 19.7468V28.687C143.113 30.5147 143.306 31.8825 143.69 32.7905V33H141.455ZM134.889 31.4983C136.286 31.4983 137.532 31.1607 138.626 30.4856C139.732 29.8104 140.535 28.9082 141.036 27.779V23.6232H137.299C135.215 23.6465 133.585 24.0307 132.41 24.7757C131.234 25.5091 130.646 26.5218 130.646 27.814C130.646 28.8733 131.036 29.7522 131.816 30.4506C132.608 31.1491 133.632 31.4983 134.889 31.4983ZM153.187 33H151.091V6.1793H153.187V33ZM172.951 33C172.741 32.4063 172.607 31.5274 172.549 30.3633C171.816 31.3179 170.879 32.0571 169.738 32.5809C168.609 33.0931 167.41 33.3492 166.141 33.3492C164.325 33.3492 162.852 32.8428 161.723 31.8301C160.606 30.8173 160.047 29.5368 160.047 27.9886C160.047 26.1493 160.809 24.6942 162.334 23.6232C163.871 22.5523 166.007 22.0168 168.743 22.0168H172.532V19.869C172.532 18.5187 172.113 17.4594 171.274 16.6911C170.448 15.9111 169.237 15.5211 167.643 15.5211C166.187 15.5211 164.983 15.8937 164.028 16.6387C163.073 17.3837 162.596 18.28 162.596 19.3277L160.501 19.3103C160.501 17.8086 161.199 16.5106 162.596 15.4164C163.993 14.3105 165.71 13.7575 167.747 13.7575C169.854 13.7575 171.513 14.2872 172.724 15.3465C173.946 16.3942 174.575 17.861 174.61 19.7468V28.687C174.61 30.5147 174.802 31.8825 175.186 32.7905V33H172.951ZM166.385 31.4983C167.782 31.4983 169.028 31.1607 170.122 30.4856C171.228 29.8104 172.031 28.9082 172.532 27.779V23.6232H168.795C166.711 23.6465 165.082 24.0307 163.906 24.7757C162.73 25.5091 162.142 26.5218 162.142 27.814C162.142 28.8733 162.532 29.7522 163.312 30.4506C164.104 31.1491 165.128 31.4983 166.385 31.4983ZM197.552 23.7455C197.552 26.6906 196.9 29.0304 195.596 30.7649C194.292 32.4878 192.54 33.3492 190.34 33.3492C187.709 33.3492 185.719 32.3714 184.368 30.4157L184.281 33H182.325V6.1793H184.403V16.8482C185.73 14.7878 187.698 13.7575 190.305 13.7575C192.54 13.7575 194.304 14.6132 195.596 16.3244C196.9 18.0239 197.552 20.3929 197.552 23.4312V23.7455ZM195.456 23.3788C195.456 20.8876 194.973 18.9669 194.007 17.6165C193.041 16.2545 191.679 15.5735 189.921 15.5735C188.582 15.5735 187.447 15.9053 186.516 16.5688C185.585 17.2207 184.881 18.1811 184.403 19.45V27.9711C185.451 30.3459 187.302 31.5332 189.956 31.5332C191.679 31.5332 193.023 30.8522 193.99 29.4903C194.968 28.1283 195.456 26.0911 195.456 23.3788ZM216.251 33C216.041 32.4063 215.907 31.5274 215.849 30.3633C215.116 31.3179 214.179 32.0571 213.038 32.5809C211.909 33.0931 210.71 33.3492 209.441 33.3492C207.625 33.3492 206.152 32.8428 205.023 31.8301C203.906 30.8173 203.347 29.5368 203.347 27.9886C203.347 26.1493 204.109 24.6942 205.634 23.6232C207.171 22.5523 209.307 22.0168 212.043 22.0168H215.832V19.869C215.832 18.5187 215.413 17.4594 214.575 16.6911C213.748 15.9111 212.537 15.5211 210.943 15.5211C209.487 15.5211 208.283 15.8937 207.328 16.6387C206.374 17.3837 205.896 18.28 205.896 19.3277L203.801 19.3103C203.801 17.8086 204.499 16.5106 205.896 15.4164C207.293 14.3105 209.01 13.7575 211.047 13.7575C213.154 13.7575 214.813 14.2872 216.024 15.3465C217.246 16.3942 217.875 17.861 217.91 19.7468V28.687C217.91 30.5147 218.102 31.8825 218.486 32.7905V33H216.251ZM209.685 31.4983C211.082 31.4983 212.328 31.1607 213.422 30.4856C214.528 29.8104 215.331 28.9082 215.832 27.779V23.6232H212.095C210.011 23.6465 208.382 24.0307 207.206 24.7757C206.03 25.5091 205.442 26.5218 205.442 27.814C205.442 28.8733 205.832 29.7522 206.612 30.4506C207.404 31.1491 208.428 31.4983 209.685 31.4983Z" fill="#259DD9"/>
<path d="M8.87519 8.43489C14.324 7.40295 19.3421 12.1472 20.668 14.2667C17.8554 16.1229 15.9172 17.6089 9.26283 17.4151C2.60846 17.2212 0.620094 13.0838 0.620094 13.0838C0.620094 13.0838 3.42639 9.46684 8.87519 8.43489Z" fill="#259DD9"/>
<path d="M43.5884 8.43489C38.1396 7.40295 33.1216 12.1472 31.7956 14.2667C34.6083 16.1229 36.5464 17.6089 43.2008 17.4151C49.8552 17.2212 51.8435 13.0838 51.8435 13.0838C51.8435 13.0838 49.0372 9.46684 43.5884 8.43489Z" fill="#259DD9"/>
<path d="M24.5779 17.5178C25.7491 23.5997 23.7102 30.0438 20.7629 32.8296C16.99 36.3958 15.9175 37.352 15.9175 37.352C15.9175 37.352 15.8846 37.248 15.8286 37.0576C15.3789 35.528 13.4416 28.4223 15.1422 24.8831C17.3342 20.3214 21.8078 17.9327 24.5779 17.5178C24.8286 17.4802 25.0654 17.4588 25.2853 17.4535C26.1449 17.4325 27.0657 17.4592 27.9992 17.5864C29.9422 17.8514 31.9401 18.5522 33.5548 20.1669C35.9452 22.5573 38.0126 25.3353 37.8834 30.31C37.78 34.2897 36.8928 36.5336 36.4621 37.1581C34.0501 35.6937 29.0195 31.6279 28.1925 27.0797C27.6932 24.3334 27.42 20.9238 27.9992 17.5864C27.0657 17.4592 26.1449 17.4325 25.2853 17.4535C25.0654 17.4588 24.8286 17.4802 24.5779 17.5178Z" fill="#259DD9"/>
<path d="M1.8335 6.53513C4.26697 4.72617 11.0075 2.45206 18.5017 7.82724C27.8695 14.5462 25.4791 28.3718 20.7629 32.8296C16.99 36.3958 15.9175 37.352 15.9175 37.352M15.9175 37.352C15.9175 37.352 15.8846 37.248 15.8286 37.0576M15.9175 37.352L15.8286 37.0576M50.8691 6.41302C50.4168 5.89617 47.8326 4.91998 47.5742 4.91998C45.0546 4.33853 38.7232 4.14472 33.5548 8.02105C27.0943 12.8665 27.1589 21.3944 28.1925 27.0797C29.0195 31.6279 34.0501 35.6937 36.4621 37.1581C36.8928 36.5336 37.78 34.2897 37.8834 30.31C38.0126 25.3353 35.9452 22.5573 33.5548 20.1669C31.1644 17.7765 27.9341 17.3889 25.2853 17.4535C22.6365 17.5181 17.5326 19.9085 15.1422 24.8831C13.4416 28.4223 15.3789 35.528 15.8286 37.0576" stroke="#259DD9" stroke-width="0.528156" stroke-linecap="round" stroke-linejoin="round"/>
<path d="M219.395 9.09573C219.395 8.47642 219.538 7.90157 219.823 7.37118C220.111 6.84079 220.508 6.42383 221.014 6.12031C221.523 5.81373 222.072 5.66043 222.661 5.66043C223.249 5.66043 223.797 5.81373 224.302 6.12031C224.811 6.42383 225.208 6.84079 225.493 7.37118C225.782 7.90157 225.926 8.47642 225.926 9.09573C225.926 9.72116 225.78 10.3006 225.489 10.8341C225.198 11.3645 224.799 11.7814 224.293 12.0849C223.79 12.3885 223.246 12.5402 222.661 12.5402C222.069 12.5402 221.52 12.3869 221.014 12.0803C220.511 11.7738 220.116 11.3553 219.828 10.8249C219.54 10.2945 219.395 9.7181 219.395 9.09573ZM225.36 9.09573C225.36 8.58679 225.245 8.11465 225.015 7.6793C224.785 7.24088 224.46 6.89137 224.04 6.63078C223.62 6.36711 223.16 6.23528 222.661 6.23528C222.173 6.23528 221.719 6.36098 221.299 6.61238C220.882 6.86378 220.554 7.21022 220.315 7.65171C220.076 8.09319 219.957 8.57453 219.957 9.09573C219.957 9.61692 220.075 10.0983 220.311 10.5397C220.55 10.9812 220.878 11.3307 221.295 11.5883C221.715 11.8427 222.17 11.97 222.661 11.97C223.151 11.97 223.606 11.8397 224.026 11.5791C224.45 11.3185 224.778 10.9674 225.011 10.5259C225.244 10.0845 225.36 9.60772 225.36 9.09573ZM221.998 9.44523V10.995H221.304V7.08606H222.596C223.059 7.08606 223.424 7.19183 223.691 7.40337C223.957 7.61185 224.091 7.90924 224.091 8.29554C224.091 8.63891 223.918 8.90564 223.571 9.09573C223.758 9.19077 223.889 9.32413 223.962 9.49582C224.039 9.66444 224.077 9.87445 224.077 10.1259C224.077 10.3773 224.082 10.5551 224.091 10.6593C224.103 10.7636 224.125 10.8509 224.155 10.9214V10.995H223.442C223.403 10.8908 223.383 10.5934 223.383 10.1029C223.383 9.86986 223.332 9.70277 223.231 9.60159C223.13 9.49735 222.961 9.44523 222.725 9.44523H221.998ZM221.998 8.829H222.624C222.851 8.829 223.036 8.77994 223.18 8.68184C223.327 8.58373 223.401 8.45496 223.401 8.29554C223.401 8.08093 223.346 7.92917 223.235 7.84026C223.128 7.74828 222.932 7.70076 222.647 7.6977H221.998V8.829Z" fill="#259DD9"/>
</svg>
