<svg width="349" height="51" viewBox="0 0 349 51" fill="none" xmlns="http://www.w3.org/2000/svg">
<path d="M262.091 31.4355H270.482V34H258.879V15.5156H262.091V31.4355ZM280.256 34.2539C278.301 34.2539 276.714 33.6403 275.496 32.4131C274.285 31.1774 273.68 29.5355 273.68 27.4873V27.1064C273.68 25.7354 273.942 24.5124 274.467 23.4375C275 22.3542 275.745 21.512 276.702 20.9111C277.658 20.3102 278.724 20.0098 279.901 20.0098C281.771 20.0098 283.214 20.6064 284.23 21.7998C285.254 22.9932 285.766 24.6816 285.766 26.8652V28.1094H276.79C276.884 29.2435 277.26 30.1406 277.92 30.8008C278.589 31.4609 279.427 31.791 280.434 31.791C281.847 31.791 282.998 31.2197 283.887 30.0771L285.55 31.6641C285 32.485 284.264 33.124 283.341 33.5811C282.427 34.0296 281.399 34.2539 280.256 34.2539ZM279.888 22.4854C279.042 22.4854 278.356 22.7816 277.831 23.374C277.315 23.9665 276.985 24.7917 276.841 25.8496H282.719V25.6211C282.651 24.5885 282.376 23.8099 281.894 23.2852C281.412 22.752 280.743 22.4854 279.888 22.4854ZM292.595 20.2637L292.683 21.8506C293.699 20.6234 295.032 20.0098 296.682 20.0098C299.543 20.0098 300.999 21.6475 301.05 24.9229V34H297.965V25.1006C297.965 24.2288 297.774 23.5856 297.393 23.1709C297.021 22.7477 296.407 22.5361 295.553 22.5361C294.308 22.5361 293.382 23.099 292.772 24.2246V34H289.687V20.2637H292.595ZM305.187 27.0303C305.187 24.9144 305.678 23.2174 306.659 21.9395C307.641 20.653 308.957 20.0098 310.608 20.0098C312.063 20.0098 313.24 20.5176 314.137 21.5332V14.5H317.222V34H314.429L314.277 32.5781C313.354 33.6953 312.123 34.2539 310.582 34.2539C308.974 34.2539 307.671 33.6064 306.672 32.3115C305.682 31.0166 305.187 29.2562 305.187 27.0303ZM308.272 27.2969C308.272 28.6934 308.538 29.7852 309.072 30.5723C309.613 31.3509 310.379 31.7402 311.369 31.7402C312.631 31.7402 313.553 31.1774 314.137 30.0518V24.1865C313.57 23.0863 312.656 22.5361 311.395 22.5361C310.396 22.5361 309.626 22.9339 309.084 23.7295C308.543 24.5166 308.272 25.7057 308.272 27.2969ZM328.05 34.2539C326.094 34.2539 324.508 33.6403 323.289 32.4131C322.079 31.1774 321.473 29.5355 321.473 27.4873V27.1064C321.473 25.7354 321.736 24.5124 322.261 23.4375C322.794 22.3542 323.539 21.512 324.495 20.9111C325.451 20.3102 326.518 20.0098 327.694 20.0098C329.565 20.0098 331.008 20.6064 332.023 21.7998C333.047 22.9932 333.559 24.6816 333.559 26.8652V28.1094H324.584C324.677 29.2435 325.053 30.1406 325.714 30.8008C326.382 31.4609 327.22 31.791 328.227 31.791C329.641 31.791 330.792 31.2197 331.68 30.0771L333.344 31.6641C332.793 32.485 332.057 33.124 331.135 33.5811C330.22 34.0296 329.192 34.2539 328.05 34.2539ZM327.681 22.4854C326.835 22.4854 326.15 22.7816 325.625 23.374C325.108 23.9665 324.778 24.7917 324.635 25.8496H330.512V25.6211C330.445 24.5885 330.17 23.8099 329.687 23.2852C329.205 22.752 328.536 22.4854 327.681 22.4854ZM344.717 23.082C344.311 23.0143 343.892 22.9805 343.46 22.9805C342.047 22.9805 341.095 23.5221 340.604 24.6055V34H337.519V20.2637H340.464L340.54 21.7998C341.285 20.6064 342.318 20.0098 343.638 20.0098C344.078 20.0098 344.442 20.069 344.73 20.1875L344.717 23.082Z" fill="white"/>
<path d="M67.8786 35.7358H80.4333V37.5518H65.7134V12.128H67.8786V35.7358ZM98.1546 37.5518C97.945 36.9581 97.8112 36.0792 97.7529 34.9151C97.0196 35.8696 96.0825 36.6088 94.9417 37.1327C93.8125 37.6449 92.6135 37.901 91.3446 37.901C89.5286 37.901 88.0561 37.3946 86.9269 36.3818C85.8094 35.3691 85.2506 34.0886 85.2506 32.5403C85.2506 30.7011 86.0131 29.246 87.538 28.175C89.0746 27.104 91.2107 26.5685 93.9464 26.5685H97.7355V24.4208C97.7355 23.0704 97.3164 22.0111 96.4783 21.2428C95.6518 20.4629 94.4411 20.0729 92.8463 20.0729C91.3912 20.0729 90.1863 20.4454 89.2318 21.1904C88.2772 21.9355 87.8 22.8318 87.8 23.8795L85.7046 23.862C85.7046 22.3603 86.403 21.0624 87.8 19.9681C89.1969 18.8622 90.9139 18.3093 92.9511 18.3093C95.0581 18.3093 96.7169 18.839 97.9276 19.8983C99.1499 20.946 99.7785 22.4127 99.8134 24.2986V33.2388C99.8134 35.0664 100.005 36.4342 100.39 37.3422V37.5518H98.1546ZM91.5891 36.0501C92.986 36.0501 94.2316 35.7125 95.3258 35.0373C96.4317 34.3621 97.2349 33.46 97.7355 32.3308V28.175H93.9988C91.915 28.1983 90.2853 28.5824 89.1096 29.3274C87.9338 30.0608 87.346 31.0736 87.346 32.3657C87.346 33.425 87.7359 34.3039 88.5159 35.0024C89.3075 35.7008 90.3319 36.0501 91.5891 36.0501ZM122.756 28.2972C122.756 31.2424 122.104 33.5822 120.8 35.3167C119.496 37.0396 117.744 37.901 115.544 37.901C112.913 37.901 110.923 36.9231 109.572 34.9675L109.485 37.5518H107.529V10.7311H109.607V21.4C110.934 19.3395 112.902 18.3093 115.509 18.3093C117.744 18.3093 119.508 19.1649 120.8 20.8761C122.104 22.5757 122.756 24.9446 122.756 27.9829V28.2972ZM120.66 27.9305C120.66 25.4394 120.177 23.5186 119.211 22.1683C118.245 20.8063 116.883 20.1253 115.125 20.1253C113.786 20.1253 112.651 20.4571 111.72 21.1206C110.789 21.7725 110.084 22.7329 109.607 24.0017V32.5229C110.655 34.8976 112.506 36.085 115.16 36.085C116.883 36.085 118.227 35.404 119.193 34.042C120.171 32.68 120.66 30.6429 120.66 27.9305ZM141.455 37.5518C141.245 36.9581 141.111 36.0792 141.053 34.9151C140.32 35.8696 139.383 36.6088 138.242 37.1327C137.113 37.6449 135.914 37.901 134.645 37.901C132.829 37.901 131.356 37.3946 130.227 36.3818C129.109 35.3691 128.551 34.0886 128.551 32.5403C128.551 30.7011 129.313 29.246 130.838 28.175C132.375 27.104 134.511 26.5685 137.246 26.5685H141.036V24.4208C141.036 23.0704 140.616 22.0111 139.778 21.2428C138.952 20.4629 137.741 20.0729 136.146 20.0729C134.691 20.0729 133.486 20.4454 132.532 21.1904C131.577 21.9355 131.1 22.8318 131.1 23.8795L129.005 23.862C129.005 22.3603 129.703 21.0624 131.1 19.9681C132.497 18.8622 134.214 18.3093 136.251 18.3093C138.358 18.3093 140.017 18.839 141.228 19.8983C142.45 20.946 143.079 22.4127 143.113 24.2986V33.2388C143.113 35.0664 143.306 36.4342 143.69 37.3422V37.5518H141.455ZM134.889 36.0501C136.286 36.0501 137.532 35.7125 138.626 35.0373C139.732 34.3621 140.535 33.46 141.036 32.3308V28.175H137.299C135.215 28.1983 133.585 28.5824 132.41 29.3274C131.234 30.0608 130.646 31.0736 130.646 32.3657C130.646 33.425 131.036 34.3039 131.816 35.0024C132.608 35.7008 133.632 36.0501 134.889 36.0501ZM153.187 37.5518H151.091V10.7311H153.187V37.5518ZM172.951 37.5518C172.741 36.9581 172.607 36.0792 172.549 34.9151C171.816 35.8696 170.879 36.6088 169.738 37.1327C168.609 37.6449 167.41 37.901 166.141 37.901C164.325 37.901 162.852 37.3946 161.723 36.3818C160.606 35.3691 160.047 34.0886 160.047 32.5403C160.047 30.7011 160.809 29.246 162.334 28.175C163.871 27.104 166.007 26.5685 168.743 26.5685H172.532V24.4208C172.532 23.0704 172.113 22.0111 171.274 21.2428C170.448 20.4629 169.237 20.0729 167.643 20.0729C166.187 20.0729 164.983 20.4454 164.028 21.1904C163.073 21.9355 162.596 22.8318 162.596 23.8795L160.501 23.862C160.501 22.3603 161.199 21.0624 162.596 19.9681C163.993 18.8622 165.71 18.3093 167.747 18.3093C169.854 18.3093 171.513 18.839 172.724 19.8983C173.946 20.946 174.575 22.4127 174.61 24.2986V33.2388C174.61 35.0664 174.802 36.4342 175.186 37.3422V37.5518H172.951ZM166.385 36.0501C167.782 36.0501 169.028 35.7125 170.122 35.0373C171.228 34.3621 172.031 33.46 172.532 32.3308V28.175H168.795C166.711 28.1983 165.082 28.5824 163.906 29.3274C162.73 30.0608 162.142 31.0736 162.142 32.3657C162.142 33.425 162.532 34.3039 163.312 35.0024C164.104 35.7008 165.128 36.0501 166.385 36.0501ZM197.552 28.2972C197.552 31.2424 196.9 33.5822 195.596 35.3167C194.292 37.0396 192.54 37.901 190.34 37.901C187.709 37.901 185.719 36.9231 184.368 34.9675L184.281 37.5518H182.325V10.7311H184.403V21.4C185.73 19.3395 187.698 18.3093 190.305 18.3093C192.54 18.3093 194.304 19.1649 195.596 20.8761C196.9 22.5757 197.552 24.9446 197.552 27.9829V28.2972ZM195.456 27.9305C195.456 25.4394 194.973 23.5186 194.007 22.1683C193.041 20.8063 191.679 20.1253 189.921 20.1253C188.582 20.1253 187.447 20.4571 186.516 21.1206C185.585 21.7725 184.881 22.7329 184.403 24.0017V32.5229C185.451 34.8976 187.302 36.085 189.956 36.085C191.679 36.085 193.023 35.404 193.99 34.042C194.968 32.68 195.456 30.6429 195.456 27.9305ZM216.251 37.5518C216.041 36.9581 215.907 36.0792 215.849 34.9151C215.116 35.8696 214.179 36.6088 213.038 37.1327C211.909 37.6449 210.71 37.901 209.441 37.901C207.625 37.901 206.152 37.3946 205.023 36.3818C203.906 35.3691 203.347 34.0886 203.347 32.5403C203.347 30.7011 204.109 29.246 205.634 28.175C207.171 27.104 209.307 26.5685 212.043 26.5685H215.832V24.4208C215.832 23.0704 215.413 22.0111 214.575 21.2428C213.748 20.4629 212.537 20.0729 210.943 20.0729C209.487 20.0729 208.283 20.4454 207.328 21.1904C206.374 21.9355 205.896 22.8318 205.896 23.8795L203.801 23.862C203.801 22.3603 204.499 21.0624 205.896 19.9681C207.293 18.8622 209.01 18.3093 211.047 18.3093C213.154 18.3093 214.813 18.839 216.024 19.8983C217.246 20.946 217.875 22.4127 217.91 24.2986V33.2388C217.91 35.0664 218.102 36.4342 218.486 37.3422V37.5518H216.251ZM209.685 36.0501C211.082 36.0501 212.328 35.7125 213.422 35.0373C214.528 34.3621 215.331 33.46 215.832 32.3308V28.175H212.095C210.011 28.1983 208.382 28.5824 207.206 29.3274C206.03 30.0608 205.442 31.0736 205.442 32.3657C205.442 33.425 205.832 34.3039 206.612 35.0024C207.404 35.7008 208.428 36.0501 209.685 36.0501Z" fill="white"/>
<path d="M8.87519 12.9867C14.324 11.9547 19.3421 16.699 20.668 18.8184C17.8554 20.6747 15.9172 22.1606 9.26283 21.9668C2.60846 21.773 0.620094 17.6355 0.620094 17.6355C0.620094 17.6355 3.42639 14.0186 8.87519 12.9867Z" fill="white"/>
<path d="M43.5884 12.9867C38.1396 11.9547 33.1216 16.699 31.7956 18.8184C34.6083 20.6747 36.5464 22.1606 43.2008 21.9668C49.8552 21.773 51.8435 17.6355 51.8435 17.6355C51.8435 17.6355 49.0372 14.0186 43.5884 12.9867Z" fill="white"/>
<path d="M24.5779 22.0695C25.7491 28.1515 23.7102 34.5956 20.7629 37.3813C16.99 40.9476 15.9175 41.9037 15.9175 41.9037C15.9175 41.9037 15.8846 41.7997 15.8286 41.6094C15.3789 40.0798 13.4416 32.9741 15.1422 29.4348C17.3342 24.8732 21.8078 22.4845 24.5779 22.0695C24.8286 22.032 25.0654 22.0106 25.2853 22.0052C26.1449 21.9842 27.0657 22.0109 27.9992 22.1382C29.9422 22.4031 31.9401 23.104 33.5548 24.7186C35.9452 27.1091 38.0126 29.8871 37.8834 34.8617C37.78 38.8414 36.8928 41.0854 36.4621 41.7099C34.0501 40.2455 29.0195 36.1797 28.1925 31.6314C27.6932 28.8852 27.42 25.4756 27.9992 22.1382C27.0657 22.0109 26.1449 21.9842 25.2853 22.0052C25.0654 22.0106 24.8286 22.032 24.5779 22.0695Z" fill="white"/>
<path d="M1.8335 11.0869C4.26697 9.27793 11.0075 7.00382 18.5017 12.379C27.8695 19.098 25.4791 32.9235 20.7629 37.3813C16.99 40.9476 15.9175 41.9037 15.9175 41.9037M15.9175 41.9037C15.9175 41.9037 15.8846 41.7997 15.8286 41.6094M15.9175 41.9037L15.8286 41.6094M50.8691 10.9648C50.4168 10.4479 47.8326 9.47174 47.5742 9.47173C45.0546 8.89028 38.7232 8.69648 33.5548 12.5728C27.0943 17.4182 27.1589 25.9462 28.1925 31.6314C29.0195 36.1797 34.0501 40.2455 36.4621 41.7099C36.8928 41.0854 37.78 38.8414 37.8834 34.8617C38.0126 29.8871 35.9452 27.1091 33.5548 24.7186C31.1644 22.3282 27.9341 21.9406 25.2853 22.0052C22.6365 22.0698 17.5326 24.4602 15.1422 29.4348C13.4416 32.9741 15.3789 40.0798 15.8286 41.6094" stroke="white" stroke-width="0.528156" stroke-linecap="round" stroke-linejoin="round"/>
<path d="M219.395 13.6475C219.395 13.0282 219.538 12.4533 219.823 11.9229C220.111 11.3925 220.508 10.9756 221.014 10.6721C221.523 10.3655 222.072 10.2122 222.661 10.2122C223.249 10.2122 223.797 10.3655 224.302 10.6721C224.811 10.9756 225.208 11.3925 225.493 11.9229C225.782 12.4533 225.926 13.0282 225.926 13.6475C225.926 14.2729 225.78 14.8524 225.489 15.3858C225.198 15.9162 224.799 16.3332 224.293 16.6367C223.79 16.9402 223.246 17.092 222.661 17.092C222.069 17.092 221.52 16.9387 221.014 16.6321C220.511 16.3255 220.116 15.907 219.828 15.3766C219.54 14.8462 219.395 14.2699 219.395 13.6475ZM225.36 13.6475C225.36 13.1386 225.245 12.6664 225.015 12.2311C224.785 11.7926 224.46 11.4431 224.04 11.1825C223.62 10.9189 223.16 10.787 222.661 10.787C222.173 10.787 221.719 10.9127 221.299 11.1641C220.882 11.4155 220.554 11.762 220.315 12.2035C220.076 12.6449 219.957 13.1263 219.957 13.6475C219.957 14.1687 220.075 14.65 220.311 15.0915C220.55 15.533 220.878 15.8825 221.295 16.14C221.715 16.3945 222.17 16.5217 222.661 16.5217C223.151 16.5217 223.606 16.3914 224.026 16.1308C224.45 15.8702 224.778 15.5192 225.011 15.0777C225.244 14.6362 225.36 14.1595 225.36 13.6475ZM221.998 13.997V15.5468H221.304V11.6378H222.596C223.059 11.6378 223.424 11.7436 223.691 11.9551C223.957 12.1636 224.091 12.461 224.091 12.8473C224.091 13.1907 223.918 13.4574 223.571 13.6475C223.758 13.7425 223.889 13.8759 223.962 14.0476C224.039 14.2162 224.077 14.4262 224.077 14.6776C224.077 14.929 224.082 15.1068 224.091 15.2111C224.103 15.3153 224.125 15.4027 224.155 15.4732V15.5468H223.442C223.403 15.4425 223.383 15.1452 223.383 14.6546C223.383 14.4216 223.332 14.2545 223.231 14.1534C223.13 14.0491 222.961 13.997 222.725 13.997H221.998ZM221.998 13.3808H222.624C222.851 13.3808 223.036 13.3317 223.18 13.2336C223.327 13.1355 223.401 13.0067 223.401 12.8473C223.401 12.6327 223.346 12.4809 223.235 12.392C223.128 12.3 222.932 12.2525 222.647 12.2495H221.998V13.3808Z" fill="white"/>
<rect x="241" width="2" height="51" fill="white"/>
</svg>
