<svg width="24" height="19" viewBox="0 0 24 19" fill="none" xmlns="http://www.w3.org/2000/svg">
<path d="M19.5506 9.16299C19.5506 9.16299 24.0005 7.38893 24.0005 3.0403C24.0005 2.45517 23.8873 1.89651 23.6821 1.38475L19.4972 0L15.419 1.38475C15.2138 1.89651 15.1006 2.45522 15.1006 3.0403C15.1006 7.49027 19.5506 9.16299 19.5506 9.16299ZM19.5423 0.875741L23.0421 2.03381C23.136 2.35923 23.1833 2.69644 23.1833 3.04035C23.1833 4.58432 22.5397 5.94615 21.2702 7.08803C20.6009 7.69014 19.9194 8.07664 19.5428 8.26607C19.5426 8.26597 19.5424 8.26587 19.5422 8.26577V0.875741H19.5423Z" fill="#12191D"/>
<path d="M21.0599 16.4103C21.0599 16.5279 21.0268 16.6353 20.9779 16.7343L15.7075 11.4635L17.6199 9.55117C17.2704 9.32538 16.8875 9.04676 16.5024 8.70949C16.4758 8.68617 16.45 8.66245 16.4238 8.63893L11.5055 13.5573C11.3825 13.6803 11.1685 13.6803 11.0454 13.5573L2.86355 5.37514H14.2264C14.0653 4.89514 13.9557 4.39711 13.8984 3.88416H2.23637C1.00319 3.88416 0 4.88735 0 6.12058V16.4102C0 17.6434 1.00319 18.6467 2.23637 18.6467H20.3143C21.5476 18.6467 22.5508 17.6434 22.5508 16.4102V8.71234C22.0232 9.17341 21.4961 9.5294 21.0598 9.7879V16.4103H21.0599ZM1.57244 16.7343C1.52399 16.6353 1.49098 16.5279 1.49098 16.4103V6.12063C1.49098 6.11773 1.49243 6.11558 1.49243 6.11269L6.84331 11.4635L1.57244 16.7343ZM3.25929 17.1558L7.8975 12.5177L9.99118 14.6114C10.3345 14.9546 10.7906 15.1435 11.2754 15.1435C11.7603 15.1435 12.2164 14.9546 12.5597 14.6114L14.6535 12.5177L19.2911 17.1558H3.25929Z" fill="#12191D"/>
</svg>
