<svg width="98" height="98" viewBox="0 0 98 98" fill="none" xmlns="http://www.w3.org/2000/svg">
<path d="M49 96C74.9574 96 96 74.9574 96 49C96 23.0426 74.9574 2 49 2C23.0426 2 2 23.0426 2 49C2 74.9574 23.0426 96 49 96Z" fill="#259DD9" stroke="#4CB449" stroke-width="4"/>
<path d="M37.502 69.2996L60.6408 92.4384C79.8048 87.328 94.0004 69.8675 94.0004 48.9999C94.0004 48.5741 94.0004 48.1482 94.0004 47.7223L75.83 30.9716L37.502 69.2996Z" fill="#1984B9"/>
<path d="M50.1355 59.0789C52.1229 61.0663 52.1229 64.4732 50.1355 66.4606L46.0188 70.5773C44.0314 72.5647 40.6245 72.5647 38.6371 70.5773L20.6087 52.407C18.6213 50.4196 18.6213 47.0126 20.6087 45.0253L24.7254 40.9085C26.7128 38.9212 30.1197 38.9212 32.1071 40.9085L50.1355 59.0789Z" fill="#B4E7FD"/>
<path d="M65.8927 27.7067C67.8801 25.7193 71.287 25.7193 73.2744 27.7067L77.3911 31.8234C79.3785 33.8108 79.3785 37.2177 77.3911 39.2051L46.1608 70.2934C44.1735 72.2808 40.7665 72.2808 38.7791 70.2934L34.6624 66.1767C32.675 64.1893 32.675 60.7824 34.6624 58.795L65.8927 27.7067Z" fill="#B4E7FD"/>
</svg>
