<svg width="24" height="24" viewBox="0 0 24 24" fill="none" xmlns="http://www.w3.org/2000/svg">
<path d="M9.70312 12C9.70312 13.2686 10.7314 14.2969 12 14.2969C13.2686 14.2969 14.2969 13.2686 14.2969 12C14.2969 10.7314 13.2686 9.70312 12 9.70312C10.7314 9.70312 9.70312 10.7314 9.70312 12Z" fill="#12191D"/>
<path d="M6.62842 7.93622C6.73883 7.63702 6.91498 7.36621 7.14386 7.14392C7.36615 6.91504 7.63678 6.73889 7.93616 6.62848C8.17895 6.53418 8.5437 6.42194 9.21551 6.39136C9.94226 6.35822 10.1602 6.35107 12 6.35107C13.84 6.35107 14.0579 6.35803 14.7845 6.39117C15.4563 6.42194 15.8212 6.53418 16.0638 6.62848C16.3632 6.73889 16.634 6.91504 16.8561 7.14392C17.085 7.36621 17.2612 7.63684 17.3718 7.93622C17.4661 8.17902 17.5783 8.54395 17.6089 9.21576C17.642 9.94232 17.6492 10.1602 17.6492 12.0002C17.6492 13.8401 17.642 14.058 17.6089 14.7847C17.5783 15.4565 17.4661 15.8213 17.3718 16.0641C17.2612 16.3635 17.0852 16.6341 16.8563 16.8564C16.634 17.0853 16.3634 17.2614 16.064 17.3718C15.8212 17.4663 15.4563 17.5786 14.7845 17.6091C14.0579 17.6423 13.8402 17.6492 12.0002 17.6492C10.16 17.6492 9.94208 17.6423 9.2157 17.6091C8.54388 17.5786 8.17895 17.4663 7.93616 17.3718C7.3352 17.14 6.86023 16.665 6.62842 16.0641C6.53412 15.8213 6.42187 15.4565 6.39111 14.7847C6.35797 14.058 6.35101 13.8401 6.35101 12.0002C6.35101 10.1602 6.35797 9.94232 6.39111 9.21576C6.42169 8.54395 6.53393 8.17902 6.62842 7.93622ZM12 15.5384C13.9543 15.5384 15.5385 13.9543 15.5385 12.0001C15.5385 10.0458 13.9543 8.46173 12 8.46173C10.0459 8.46173 8.46167 10.0458 8.46167 12.0001C8.46167 13.9543 10.0459 15.5384 12 15.5384ZM8.32178 9.14874C8.77844 9.14874 9.14868 8.7785 9.14868 8.32184C9.14868 7.86517 8.77844 7.49493 8.32178 7.49493C7.86511 7.49493 7.49487 7.86517 7.49487 8.32184C7.49505 8.7785 7.86511 9.14874 8.32178 9.14874Z" fill="#12191D"/>
<path d="M12 0C18.6264 0 24 5.3736 24 12C24 18.6264 18.6264 24 12 24C5.3736 24 0 18.6264 0 12C0 5.3736 5.3736 0 12 0ZM5.15094 14.8409C5.18427 15.5744 5.3009 16.0752 5.47119 16.5135C5.82916 17.4391 6.56085 18.1708 7.48645 18.5288C7.92462 18.6991 8.4256 18.8156 9.15894 18.8491C9.89374 18.8826 10.1285 18.8906 11.9998 18.8906C13.8713 18.8906 14.1059 18.8826 14.8409 18.8491C15.5742 18.8156 16.0752 18.6991 16.5134 18.5288C16.9733 18.3558 17.3897 18.0846 17.7339 17.7339C18.0844 17.3899 18.3556 16.9733 18.5286 16.5135C18.6989 16.0754 18.8156 15.5744 18.8489 14.8411C18.8828 14.1061 18.8906 13.8713 18.8906 12C18.8906 10.1287 18.8828 9.89392 18.8491 9.15912C18.8157 8.4256 18.6993 7.9248 18.529 7.48645C18.356 7.02667 18.0846 6.61011 17.7339 6.26605C17.3899 5.91541 16.9733 5.64423 16.5135 5.47119C16.0752 5.3009 15.5744 5.18445 14.8409 5.15094C14.1061 5.11743 13.8713 5.10938 12 5.10938C10.1287 5.10938 9.89392 5.11743 9.15912 5.15112C8.4256 5.18445 7.9248 5.3009 7.48645 5.47101C7.02667 5.64404 6.61011 5.91541 6.26587 6.26605C5.91541 6.61029 5.64404 7.02667 5.47119 7.48645C5.30072 7.9248 5.18427 8.4256 5.15076 9.15912C5.11725 9.89392 5.10938 10.1287 5.10938 12C5.10938 13.8713 5.11725 14.1061 5.15094 14.8409Z" fill="#12191D"/>
</svg>
