<svg width="24" height="24" viewBox="0 0 24 24" fill="none" xmlns="http://www.w3.org/2000/svg">
<path d="M15.8437 17.1559C16.3615 17.1559 16.7812 16.7361 16.7812 16.2184C16.7812 15.7006 16.3615 15.2809 15.8437 15.2809C15.326 15.2809 14.9062 15.7006 14.9062 16.2184C14.9062 16.7361 15.326 17.1559 15.8437 17.1559Z" fill="#12191D"/>
<path d="M11.1562 22.125H3.75C2.71612 22.125 1.875 21.2839 1.875 20.25V12.5625C1.875 11.5286 2.71612 10.6875 3.75 10.6875H17.25C18.2839 10.6875 19.125 11.5286 19.125 12.5625V14.4375C19.125 14.9553 19.5447 15.375 20.0625 15.375C20.5803 15.375 21 14.9553 21 14.4375V12.5625C21 10.4948 19.3177 8.8125 17.25 8.8125H16.1233V5.50622C16.1233 2.47008 13.5999 0 10.4983 0C7.39664 0 4.87326 2.47008 4.87326 5.50622V8.8125H3.75C1.68225 8.8125 0 10.4948 0 12.5625V20.25C0 22.3178 1.68225 24 3.75 24H11.1562C11.674 24 12.0937 23.5803 12.0937 23.0625C12.0937 22.5447 11.674 22.125 11.1562 22.125ZM6.74826 5.50622C6.74826 3.50395 8.43051 1.875 10.4983 1.875C12.566 1.875 14.2483 3.50395 14.2483 5.50622V8.8125H6.74826V5.50622Z" fill="#12191D"/>
<path d="M23.6083 15.2685C23.1873 14.967 22.6016 15.064 22.3003 15.485L17.6794 21.9397C17.5532 22.086 17.395 22.1176 17.3103 22.1233C17.2234 22.129 17.056 22.118 16.9087 21.9798L13.9224 19.0655C13.5518 18.7038 12.9582 18.7112 12.5967 19.0817C12.235 19.4522 12.2422 20.0458 12.6128 20.4074L15.6044 23.3268C15.6072 23.3295 15.61 23.3323 15.6128 23.3349C16.0613 23.7619 16.6599 23.9994 17.2759 23.9994C17.3288 23.9994 17.3818 23.9977 17.4349 23.9941C18.1059 23.9494 18.7324 23.6231 19.1536 23.099C19.1645 23.0854 19.175 23.0715 19.1852 23.0574L23.8249 16.5765C24.1263 16.1555 24.0293 15.5698 23.6083 15.2685Z" fill="#12191D"/>
<path d="M12.2812 17.1559C12.799 17.1559 13.2187 16.7361 13.2187 16.2184C13.2187 15.7006 12.799 15.2809 12.2812 15.2809C11.7635 15.2809 11.3438 15.7006 11.3438 16.2184C11.3438 16.7361 11.7635 17.1559 12.2812 17.1559Z" fill="#12191D"/>
<path d="M5.25 17.1559C5.76777 17.1559 6.1875 16.7361 6.1875 16.2184C6.1875 15.7006 5.76777 15.2809 5.25 15.2809C4.73223 15.2809 4.3125 15.7006 4.3125 16.2184C4.3125 16.7361 4.73223 17.1559 5.25 17.1559Z" fill="#12191D"/>
<path d="M8.76562 17.1559C9.28339 17.1559 9.70312 16.7361 9.70312 16.2184C9.70312 15.7006 9.28339 15.2809 8.76562 15.2809C8.24786 15.2809 7.82812 15.7006 7.82812 16.2184C7.82812 16.7361 8.24786 17.1559 8.76562 17.1559Z" fill="#12191D"/>
</svg>
