<svg width="24" height="27" viewBox="0 0 24 27" fill="none" xmlns="http://www.w3.org/2000/svg">
<path d="M12.0002 13.3846C12.5098 13.3846 12.9233 12.9711 12.9233 12.4615V0.923077C12.9233 0.413538 12.5098 0 12.0002 0C11.4907 0 11.0771 0.413538 11.0771 0.923077V12.4615C11.0771 12.9711 11.4907 13.3846 12.0002 13.3846Z" fill="#BFBFBF"/>
<path d="M23.9622 13.3961C23.9589 13.3541 23.9562 13.3116 23.9525 13.2696C23.5555 8.6418 20.5338 4.76672 16.3818 3.13657C16.3394 3.11995 16.2978 3.10288 16.2554 3.08672C15.9858 2.98472 15.7122 2.89195 15.4338 2.80888C15.4135 2.80288 15.3942 2.79457 15.3738 2.78857C15.3683 2.78718 15.3628 2.78857 15.3572 2.78718C14.7928 2.62288 14.2108 2.50103 13.6154 2.42026V4.28395C18.4491 5.0598 22.1538 9.25841 22.1538 14.3076C22.1538 19.9066 17.5989 24.4615 12 24.4615C6.40108 24.4615 1.84615 19.9066 1.84615 14.3076C1.84615 9.25841 5.55092 5.0598 10.3846 4.28349V2.4198C9.79477 2.50011 9.21738 2.62057 8.65754 2.78257C8.652 2.78395 8.646 2.78257 8.64046 2.78395C8.61877 2.79042 8.59846 2.79872 8.57723 2.80518C8.29846 2.8878 8.02431 2.98011 7.75431 3.08257C7.71277 3.09826 7.67215 3.11534 7.63062 3.13149C7.05138 3.35811 6.49385 3.62811 5.96262 3.93826C5.958 3.94103 5.95338 3.94334 5.94831 3.94611C2.67323 5.8638 0.389538 9.28749 0.0475384 13.2683C0.0438461 13.3103 0.0410769 13.3527 0.0378462 13.3952C0.0152308 13.6966 0 14.0003 0 14.3076C0 20.9349 5.37277 26.3076 12 26.3076C18.6272 26.3076 24 20.9349 24 14.3076C24 14.0007 23.9848 13.697 23.9622 13.3961Z" fill="#BFBFBF"/>
</svg>
