<svg width="83" height="21" viewBox="0 0 83 21" fill="none" xmlns="http://www.w3.org/2000/svg">
<path d="M43.4697 0.671553C43.4811 0.652288 43.4942 0.652288 43.51 0.671553L43.4864 0.690818L43.4697 0.671553Z" fill="white"/>
<path d="M23.593 7.31939C23.843 6.56323 24.0801 5.8486 24.3119 5.14002C24.3405 5.0535 24.3985 5.03361 24.4737 5.01976C25.7256 4.78617 26.9827 4.58718 28.2615 4.65033C29.1638 4.69273 30.0316 4.87701 30.8085 5.3615C31.8623 6.01731 32.3442 7.00533 32.4125 8.21657C32.4523 8.91304 32.339 9.60085 32.2395 10.2826C32.0327 11.6721 31.8199 13.0598 31.6201 14.4493C31.6146 14.5075 31.5936 14.5633 31.5592 14.6106C31.5248 14.6579 31.4783 14.6952 31.4245 14.7183C30.6095 15.1656 29.7253 15.4105 28.8169 15.5593C27.6927 15.7541 26.546 15.7832 25.4133 15.6458C24.4694 15.5273 23.5895 15.234 22.9043 14.5401C22.6069 14.2356 22.3761 13.8727 22.2264 13.4743C22.0768 13.0758 22.0116 12.6507 22.0349 12.2257C22.0582 11.8007 22.1697 11.3853 22.3621 11.0056C22.5545 10.626 22.8237 10.2905 23.1526 10.0205C23.8551 9.44252 24.6857 9.15528 25.5604 8.96927C26.885 8.68896 28.2217 8.72703 29.5592 8.82912C29.7262 8.84123 29.7625 8.79018 29.7703 8.64137C29.83 7.59797 29.2036 6.84874 28.104 6.64715C27.3409 6.50699 26.5917 6.62812 25.8424 6.75097C25.0779 6.87676 24.3255 7.06691 23.593 7.31939ZM28.2718 10.4669C27.7957 10.4638 27.3201 10.4988 26.8495 10.5716C26.3408 10.6581 25.8468 10.7922 25.4367 11.1296C24.9729 11.5111 24.8492 12.0233 24.9409 12.5874C25.0274 13.1022 25.3874 13.3842 25.8537 13.5504C26.0674 13.6256 26.2898 13.6735 26.5155 13.6931C27.3496 13.7736 28.1594 13.6282 28.964 13.4292C29.0186 13.422 29.0686 13.3951 29.1046 13.3535C29.1407 13.3119 29.1602 13.2585 29.1595 13.2034C29.2694 12.3858 29.3784 11.5674 29.4995 10.7515C29.5203 10.6105 29.4736 10.5837 29.3559 10.5612C28.9975 10.502 28.6351 10.4705 28.2718 10.4669Z" fill="white"/>
<path d="M62.2178 13.0174C62.0793 13.4379 61.9582 13.8142 61.8302 14.1906C61.7281 14.4994 61.6191 14.8057 61.5222 15.1172C61.5129 15.1648 61.4897 15.2087 61.4555 15.2432C61.4213 15.2777 61.3777 15.3013 61.3301 15.311C60.0064 15.664 58.6654 15.8552 57.2984 15.683C55.7411 15.4866 54.4537 14.8178 53.6647 13.3894C53.1793 12.5052 53.0253 11.5423 53.0911 10.5499C53.2165 8.66212 54.003 7.09703 55.4651 5.88492C56.3536 5.1478 57.3901 4.76885 58.5304 4.65638C59.3168 4.57938 60.099 4.59409 60.8664 4.80778C62.4289 5.24037 63.4705 6.45594 63.6704 8.06516C63.7855 8.99002 63.6704 9.89846 63.5207 10.8078C63.5025 10.9211 63.4454 10.9246 63.3589 10.9246C62.9393 10.9246 62.5188 10.9246 62.0992 10.9246C60.0805 10.9246 58.0618 10.9246 56.043 10.9246C55.8804 10.9246 55.8328 10.9643 55.8302 11.1313C55.8077 12.4914 56.5587 13.3894 57.8954 13.6187C58.8834 13.7917 59.8446 13.6421 60.8041 13.4327C61.2839 13.3254 61.7561 13.1867 62.2178 13.0174ZM58.6879 9.15873H60.6258C61.2176 9.15873 61.2176 9.15873 61.2375 8.56696C61.2782 7.36869 60.5454 6.58744 59.354 6.52083C57.9291 6.44037 56.5855 7.47251 56.2394 9.00387C56.2109 9.13105 56.2394 9.16219 56.3692 9.16133C57.1401 9.15527 57.9092 9.15873 58.6879 9.15873Z" fill="white"/>
<path d="M67.1928 15.7176C65.9224 15.7091 64.6614 15.4989 63.457 15.0946C63.3367 15.0531 63.3047 15.0185 63.3479 14.8879C63.5458 14.2886 63.7352 13.6864 63.9164 13.0814C63.9613 12.9326 64.0141 12.9447 64.1335 13.0018C65.2903 13.5676 66.5968 13.7518 67.865 13.5278C68.1625 13.4825 68.4449 13.3668 68.6886 13.1904C68.8014 13.1122 68.8952 13.0098 68.9632 12.8905C69.0311 12.7713 69.0715 12.6384 69.0813 12.5015C69.0911 12.3646 69.0701 12.2273 69.0198 12.0996C68.9695 11.972 68.8912 11.8572 68.7907 11.7637C68.5708 11.5602 68.324 11.3878 68.0571 11.2516C67.3952 10.8813 66.7221 10.5343 66.0931 10.1052C64.4035 8.94846 64.6094 6.54069 66.2731 5.48432C67.0102 5.01626 67.8174 4.7818 68.6748 4.69268C70.1041 4.54474 71.4857 4.78958 72.8475 5.19967C72.9721 5.23688 73.0041 5.27062 72.9565 5.40299C72.7515 5.97141 72.5534 6.54328 72.3674 7.11862C72.318 7.27003 72.2592 7.25878 72.1424 7.20514C71.2906 6.80323 70.358 6.60197 69.4163 6.61683C68.9594 6.62807 68.5139 6.70334 68.1271 6.97328C67.9628 7.07811 67.8373 7.23401 67.7701 7.41703C67.7029 7.60006 67.6976 7.80009 67.7551 7.98639C67.8296 8.19532 67.9703 8.37423 68.1557 8.49598C68.5563 8.79706 69.0148 9.00038 69.4535 9.24089C69.9901 9.52111 70.5024 9.84582 70.9848 10.2116C72.4106 11.3433 72.2661 13.4993 70.8983 14.5946C70.0158 15.2997 68.9828 15.5817 67.884 15.6821C67.608 15.7063 67.3338 15.7106 67.1928 15.7176Z" fill="white"/>
<path d="M76.5255 15.7176C75.272 15.7055 74.0282 15.4973 72.839 15.1007C72.7015 15.0549 72.666 15.0142 72.717 14.8689C72.9126 14.2823 73.0977 13.6922 73.2777 13.1004C73.3209 12.9568 73.3642 12.9361 73.5043 13.0035C74.6562 13.5641 75.9552 13.7487 77.2176 13.5313C77.4882 13.4888 77.7474 13.3923 77.9799 13.2475C78.5535 12.8816 78.6236 12.2093 78.1391 11.7387C77.9359 11.5561 77.7099 11.4005 77.4668 11.2758C76.7747 10.883 76.0557 10.5317 75.4043 10.0646C73.9014 8.97877 74.0883 7.01396 75.0071 6.02766C75.6266 5.36408 76.4087 5.00763 77.2765 4.81642C78.428 4.55687 79.5787 4.61916 80.7285 4.832C81.213 4.91851 81.6871 5.05002 82.1612 5.17806C82.3187 5.22219 82.3758 5.26891 82.3092 5.44886C82.1093 5.99133 81.9276 6.53985 81.7512 7.09269C81.7018 7.2441 81.6525 7.26572 81.5037 7.20084C80.6633 6.80622 79.7449 6.60546 78.8165 6.61338C78.3839 6.62117 77.966 6.68519 77.5888 6.91187C77.2315 7.12557 77.0507 7.43616 77.1043 7.86356C77.1381 8.13522 77.3016 8.3247 77.5075 8.48043C77.9401 8.80833 78.4375 9.02462 78.9082 9.28417C79.4446 9.58093 79.9741 9.88979 80.4421 10.2886C81.7537 11.4134 81.6058 13.4984 80.2899 14.5712C79.583 15.1483 78.7628 15.4477 77.8778 15.6025C77.4306 15.6752 76.9785 15.7136 76.5255 15.7176Z" fill="white"/>
<path d="M42.2499 13.1705C42.2058 13.43 42.0942 13.6628 42.012 13.9076C41.8554 14.374 41.6884 14.836 41.5335 15.3031C41.5222 15.3499 41.4963 15.3918 41.4596 15.4229C41.4229 15.4539 41.3773 15.4726 41.3294 15.4762C40.2912 15.6492 39.2417 15.7591 38.1871 15.6795C36.6133 15.561 35.2636 14.9874 34.3362 13.6463C33.6821 12.7016 33.4511 11.6279 33.5091 10.4971C33.606 8.61104 34.4054 7.06757 35.8788 5.88575C36.7232 5.20918 37.7164 4.87696 38.7745 4.73853C40.0843 4.55289 41.418 4.63262 42.6963 4.97299C42.9403 5.03961 43.1756 5.13305 43.4153 5.21092C43.5018 5.2386 43.5243 5.2758 43.4923 5.37011C43.2881 5.96708 43.0857 6.56578 42.8945 7.16707C42.8521 7.29944 42.7924 7.27262 42.7067 7.23888C42.0958 6.98838 41.4489 6.83681 40.7904 6.78985C39.3654 6.70939 38.1265 7.10132 37.2371 8.28747C36.4039 9.39921 36.275 11.2455 37.167 12.3616C37.7216 13.0537 38.4535 13.4205 39.3222 13.5218C40.2592 13.6308 41.165 13.4499 42.0596 13.193C42.1167 13.1766 42.1746 13.1653 42.2326 13.1515L42.2499 13.1705Z" fill="white"/>
<path d="M52.1126 13.1584C51.9136 13.7311 51.6852 14.2978 51.5217 14.8827C51.4031 15.3092 51.2033 15.5117 50.7378 15.5584C49.44 15.6882 48.1423 15.8335 46.8445 15.49C44.8036 14.9476 43.4704 13.3193 43.3596 11.2031C43.2385 8.90347 44.1192 7.06585 45.9716 5.70666C46.7502 5.13652 47.6587 4.86658 48.6069 4.74286C49.9163 4.55783 51.2496 4.63727 52.5278 4.97646C52.7649 5.04135 52.9924 5.13825 53.2286 5.20659C53.3524 5.24293 53.3558 5.29917 53.3152 5.40731C53.117 5.98611 52.9206 6.56492 52.7364 7.14804C52.6922 7.28733 52.6395 7.28214 52.5261 7.23888C51.6194 6.89281 50.692 6.70507 49.7134 6.8063C48.0515 6.98452 46.7866 8.08329 46.4673 9.7003C46.2372 10.8674 46.4483 11.935 47.3783 12.7613C48.1198 13.4188 49.0222 13.6022 49.9834 13.546C50.6615 13.5013 51.3315 13.3735 51.9785 13.1653C52.0174 13.1584 52.052 13.1264 52.1126 13.1584Z" fill="white"/>
<path d="M19.1532 10.7774L8.37573 0V1.65421L17.499 10.7774L17.5024 10.7809L9.59995 18.6834L9.59043 18.6739L1.69314 10.7774L1.68622 10.7705L5.56306 6.89369H3.8803L0 10.774L0.00346077 10.7774L9.58697 20.361L9.59043 20.3575L19.1618 10.7861L19.1532 10.7774Z" fill="white"/>
<path d="M8.37233 2.79279V4.447L14.7063 10.7809L9.60347 15.8837L4.49636 10.7775L4.48944 10.7705L8.36628 6.8937H6.68352L2.80322 10.774L2.80668 10.7775L8.7582 16.729L9.5905 17.5613L10.4366 16.716L16.3657 10.7861L8.37233 2.79279Z" fill="white"/>
<path d="M13.5718 10.7775L10.4114 7.61353L9.57042 6.77258L8.74332 7.59969L5.56641 10.774L8.74505 13.9526L9.57734 14.7849L10.4218 13.9397L13.5805 10.7861L13.5718 10.7775ZM9.59205 13.1134L7.25609 10.7775L7.24917 10.7705L9.57907 8.44064L11.915 10.7766L9.59205 13.1134Z" fill="white"/>
</svg>
