<svg width="163" height="158" viewBox="0 0 163 158" fill="none" xmlns="http://www.w3.org/2000/svg">
<path d="M76.9316 77.3138L78.7245 79.8574C78.7245 79.8574 93.7717 61.3131 102.63 48.3142C100.564 45.7404 100.643 42.2465 98.7991 41.683C90.0352 52.8169 76.9316 77.3138 76.9316 77.3138Z" fill="#A67171"/>
<path d="M155.159 135.427L161.065 138.286L162.802 136.12L158.633 133C158.546 133.087 154.116 134.3 155.159 135.427Z" fill="#A67171"/>
<path d="M162.217 136.078C162.217 136.078 152.402 140.585 155.095 146.738L162.912 136.078" fill="#433041"/>
<path d="M121.741 69.2606C122.001 69.694 132.077 83.6468 133.814 102.973C134.075 105.833 135.378 108.519 137.81 110.166C142.327 113.112 149.276 117.619 152.924 122.385C158.483 129.752 159.438 132.092 159.438 132.092L156.224 136.771C156.224 136.771 117.571 120.132 113.141 85.0334C108.711 49.9347 121.741 69.2606 121.741 69.2606Z" fill="#007EC5"/>
<path opacity="0.35" d="M120.741 108.696C120.741 108.696 129.254 90.7569 122.479 86.6837C115.79 82.6106 112.837 97.6033 120.741 108.696Z" fill="#007EC5"/>
<path d="M92.0337 153.758C92.9023 153.931 94.2921 155.751 95.595 155.231C95.9424 153.758 98.2008 145.698 98.8088 143.531L94.2052 142.925C93.7709 145.698 94.0315 151.678 93.2497 153.498C93.076 153.844 91.5994 153.671 92.0337 153.758Z" fill="#A67171"/>
<path d="M120.61 67.7874C114.356 67.7874 107.755 61.4609 107.755 61.4609C107.755 61.4609 107.06 66.1408 105.584 76.2804C104.889 81.0469 99.3295 105.139 97.9397 111.466C96.8974 116.146 92.0332 134.345 92.0332 145.524L99.9375 146.738C101.067 142.751 103.065 138.591 103.759 135.298C105.497 126.805 110.535 113.632 112.011 110.079C113.488 106.526 123.737 92.3131 125.214 84.2534C126.951 75.3271 122.087 67.7874 120.61 67.7874Z" fill="#007EC5"/>
<path d="M99.9382 40.4885C99.9382 40.4885 101.849 37.1953 102.11 35.8086C102.37 34.3354 103.065 28.9622 101.154 27.1423C101.154 27.1423 98.2879 30.9555 95.2477 28.7022C91.339 25.7557 92.8156 12.3228 94.2054 10.6762C95.5952 9.1163 98.0273 4.26315 103.5 4.86979C108.972 5.47644 111.578 21.1625 108.016 24.1957C108.016 24.1957 108.103 33.7287 111.056 35.0287C111.056 35.0287 106.627 41.3551 103.326 41.0951C100.025 41.0084 99.9382 40.4885 99.9382 40.4885Z" fill="#A67171"/>
<path opacity="0.29" d="M100.981 28.5289L101.242 27.0556C101.242 27.0556 103.5 24.889 103.761 23.4158C103.761 23.4158 103.326 27.4023 101.676 28.6156C99.9387 29.8289 100.981 28.5289 100.981 28.5289Z" fill="#826E4F"/>
<path d="M114.618 33.0354C108.798 30.1755 104.281 36.4152 102.978 37.2819C101.675 38.1485 102.37 34.5086 102.37 34.5086L100.025 37.0219C94.3789 48.3748 96.9848 47.2482 97.1585 53.7479C97.4191 63.0209 103.152 75.3271 105.497 76.3671L112.793 72.8139C118.092 70.5606 121.653 68.8274 120.785 65.3608C120.263 63.1076 117.31 58.1678 118.787 51.668C119.829 47.0748 120.35 35.8953 114.618 33.0354Z" fill="#12ABBF"/>
<path d="M93.0758 15.0093C93.0758 15.0093 89.0802 15.0093 88.9933 12.6694C88.9065 10.3294 92.7284 10.3294 92.7284 10.3294C92.7284 10.3294 86.735 9.20282 88.2116 6.60292C89.6882 3.91635 96.4634 4.52299 96.4634 4.52299C96.4634 4.52299 94.1181 2.52973 95.421 0.623136C96.724 -1.1968 105.584 1.14312 106.539 5.38963C106.539 5.38963 113.314 3.91635 112.098 13.016C110.795 22.1157 107.929 24.2823 107.929 24.2823C107.929 24.2823 105.931 22.6357 105.584 19.5158C105.584 19.5158 106.713 20.2091 107.408 19.0825C108.103 17.9558 108.45 15.7026 107.668 15.0959C106.974 14.4893 104.541 17.4358 104.541 17.4358C104.541 17.4358 101.588 15.5293 102.022 13.4493C102.457 11.4561 100.893 11.7161 100.893 11.7161C100.893 11.7161 96.2028 14.9226 93.4232 13.016C93.6838 13.016 93.3364 13.536 93.0758 15.0093Z" fill="#432931"/>
<path d="M12.5 158C14.433 158 16 156.433 16 154.5C16 152.567 14.433 151 12.5 151C10.567 151 9 152.567 9 154.5C9 156.433 10.567 158 12.5 158Z" fill="#483A87"/>
<path d="M53.5 158C55.433 158 57 156.433 57 154.5C57 152.567 55.433 151 53.5 151C51.567 151 50 152.567 50 154.5C50 156.433 51.567 158 53.5 158Z" fill="#483A87"/>
<path d="M64.9224 136.28H5.73699L0 96.3568L73.8547 89.0388L64.9224 136.28ZM6.39057 135.555H64.2688L72.9106 89.9807L0.871442 97.0813L6.39057 135.555Z" fill="#648FB1"/>
<path d="M64.922 150.118H6.68066V149.321H64.922C66.5923 149.321 70.0781 147.583 70.0781 142.366C70.0781 137.221 65.0673 136.352 64.8494 136.28L64.9946 135.483C65.0673 135.483 70.8769 136.497 70.8769 142.293C70.8769 148.235 66.8828 150.118 64.922 150.118Z" fill="#648FB1"/>
<path d="M13.3379 135.843L9.82324 95.711L9.02746 95.7804L12.5421 135.912L13.3379 135.843Z" fill="#648FB1"/>
<path d="M22.7315 135.824L21.9512 94.1705L21.1525 94.1854L21.9328 135.839L22.7315 135.824Z" fill="#648FB1"/>
<path d="M35.6479 93.416L34.8496 93.3865L33.2679 135.888L34.0662 135.917L35.6479 93.416Z" fill="#648FB1"/>
<path d="M49.6637 91.9077L48.8701 91.8166L43.7902 135.866L44.5838 135.958L49.6637 91.9077Z" fill="#648FB1"/>
<path d="M63.6887 90.7781L62.9004 90.649L55.4698 135.836L56.2581 135.965L63.6887 90.7781Z" fill="#648FB1"/>
<path d="M71.538 99.6413L71.4756 98.8468L1.61439 104.314L1.67685 105.108L71.538 99.6413Z" fill="#648FB1"/>
<path d="M69.2018 113.324L69.1689 112.528L3.13748 115.238L3.17031 116.034L69.2018 113.324Z" fill="#648FB1"/>
<path d="M66.4568 126.97L66.4521 126.173L4.72503 126.534L4.72971 127.331L66.4568 126.97Z" fill="#648FB1"/>
<path d="M95.6817 154.971C95.6817 154.971 87.2562 148.211 83 153.324L96.0291 155.578" fill="#433041"/>
<path d="M115.924 41.4623C115.201 40.7476 114.962 39.3973 114.301 39.379C111.414 39.003 106.938 42.284 102.039 46.8972C103.817 47.8119 106.203 49.4836 107.699 52.4631C113.227 46.8994 116.968 42.5161 115.924 41.4623Z" fill="#0895A8"/>
<path d="M77.2092 76.2965L78.4689 79.167C78.4689 79.167 96.6075 63.6691 107.7 52.463C106.088 49.5259 103.703 47.8542 102.04 46.8971C90.7403 57.7217 77.2092 76.2965 77.2092 76.2965Z" fill="#A67171"/>
<path d="M73 90.3284L74.9459 81H76L74.1351 90.3284L73 91" fill="#648FB1"/>
<path d="M72 89L72.0556 79L73 79.411L72.5 89H72Z" fill="#648FB1"/>
<path d="M71 78.4396L72.0633 76L77.9873 79.5604C77.9873 79.5604 80.2658 82 77.9873 82C75.6329 82 71 78.4396 71 78.4396Z" fill="#648FB1"/>
<path d="M78.7971 76.1695C78.7971 76.1695 74.2749 73.3226 73.5153 76.2169C72.7556 79.1112 74.9493 82.0302 76.02 80.3289C77.127 78.5489 76.4641 77.2893 77.5387 78.0706C78.6132 78.8519 78.7971 76.1695 78.7971 76.1695Z" fill="#A67171"/>
<path d="M79.8674 77.9985C79.8674 77.9985 75.3452 75.1516 74.5856 78.0459C73.8259 80.9401 76.0196 83.8592 77.0903 82.1579C78.1973 80.3779 77.5344 79.1182 78.609 79.8996C79.7624 80.7172 79.8674 77.9985 79.8674 77.9985Z" fill="#A67171"/>
</svg>
