<svg width="358" height="43" viewBox="0 0 358 43" fill="none" xmlns="http://www.w3.org/2000/svg">
<path d="M261.184 17.2031L264.875 27.0117L268.558 17.2031H271.432V30H269.217V25.7812L269.437 20.1387L265.657 30H264.066L260.296 20.1475L260.516 25.7812V30H258.301V17.2031H261.184ZM279.13 30.1758C277.776 30.1758 276.678 29.751 275.834 28.9014C274.996 28.0459 274.577 26.9092 274.577 25.4912V25.2275C274.577 24.2783 274.759 23.4316 275.122 22.6875C275.491 21.9375 276.007 21.3545 276.669 20.9385C277.331 20.5225 278.069 20.3145 278.884 20.3145C280.179 20.3145 281.178 20.7275 281.881 21.5537C282.59 22.3799 282.944 23.5488 282.944 25.0605V25.9219H276.73C276.795 26.707 277.056 27.3281 277.513 27.7852C277.976 28.2422 278.556 28.4707 279.253 28.4707C280.231 28.4707 281.028 28.0752 281.643 27.2842L282.795 28.3828C282.414 28.9512 281.904 29.3936 281.266 29.71C280.633 30.0205 279.921 30.1758 279.13 30.1758ZM278.875 22.0283C278.289 22.0283 277.814 22.2334 277.451 22.6436C277.094 23.0537 276.865 23.625 276.766 24.3574H280.835V24.1992C280.788 23.4844 280.598 22.9453 280.264 22.582C279.93 22.2129 279.467 22.0283 278.875 22.0283ZM290.669 22.4414C290.388 22.3945 290.097 22.3711 289.799 22.3711C288.82 22.3711 288.161 22.7461 287.821 23.4961V30H285.685V20.4902H287.724L287.777 21.5537C288.293 20.7275 289.008 20.3145 289.922 20.3145C290.226 20.3145 290.478 20.3555 290.678 20.4375L290.669 22.4414ZM296.829 28.4707C297.362 28.4707 297.804 28.3154 298.156 28.0049C298.508 27.6943 298.695 27.3105 298.719 26.8535H300.731C300.708 27.4453 300.523 27.999 300.178 28.5146C299.832 29.0244 299.363 29.4287 298.771 29.7275C298.179 30.0264 297.541 30.1758 296.855 30.1758C295.525 30.1758 294.47 29.7451 293.691 28.8838C292.912 28.0225 292.522 26.833 292.522 25.3154V25.0957C292.522 23.6484 292.909 22.4912 293.682 21.624C294.456 20.751 295.511 20.3145 296.846 20.3145C297.977 20.3145 298.897 20.6455 299.606 21.3076C300.321 21.9639 300.696 22.8281 300.731 23.9004H298.719C298.695 23.3555 298.508 22.9072 298.156 22.5557C297.81 22.2041 297.368 22.0283 296.829 22.0283C296.137 22.0283 295.604 22.2803 295.229 22.7842C294.854 23.2822 294.664 24.041 294.658 25.0605V25.4033C294.658 26.4346 294.843 27.2051 295.212 27.7148C295.587 28.2188 296.126 28.4707 296.829 28.4707ZM305.529 21.5273C306.226 20.7188 307.108 20.3145 308.174 20.3145C310.202 20.3145 311.23 21.4717 311.259 23.7861V30H309.124V23.8652C309.124 23.209 308.98 22.7461 308.693 22.4766C308.412 22.2012 307.996 22.0635 307.445 22.0635C306.59 22.0635 305.951 22.4443 305.529 23.2061V30H303.393V16.5H305.529V21.5273ZM320.188 30C320.094 29.8184 320.012 29.5225 319.942 29.1123C319.262 29.8213 318.43 30.1758 317.446 30.1758C316.491 30.1758 315.712 29.9033 315.108 29.3584C314.504 28.8135 314.203 28.1396 314.203 27.3369C314.203 26.3232 314.578 25.5469 315.328 25.0078C316.084 24.4629 317.162 24.1904 318.562 24.1904H319.872V23.5664C319.872 23.0742 319.734 22.6816 319.459 22.3887C319.183 22.0898 318.764 21.9404 318.202 21.9404C317.715 21.9404 317.317 22.0635 317.006 22.3096C316.696 22.5498 316.541 22.8574 316.541 23.2324H314.405C314.405 22.7109 314.578 22.2246 314.923 21.7734C315.269 21.3164 315.738 20.959 316.33 20.7012C316.927 20.4434 317.592 20.3145 318.325 20.3145C319.438 20.3145 320.326 20.5957 320.988 21.1582C321.65 21.7148 321.99 22.5 322.007 23.5137V27.8027C322.007 28.6582 322.128 29.3408 322.368 29.8506V30H320.188ZM317.841 28.4619C318.263 28.4619 318.659 28.3594 319.028 28.1543C319.403 27.9492 319.684 27.6738 319.872 27.3281V25.5352H318.72C317.929 25.5352 317.335 25.6729 316.936 25.9482C316.538 26.2236 316.338 26.6133 316.338 27.1172C316.338 27.5273 316.473 27.8555 316.743 28.1016C317.018 28.3418 317.384 28.4619 317.841 28.4619ZM327.306 20.4902L327.368 21.5889C328.071 20.7393 328.994 20.3145 330.136 20.3145C332.117 20.3145 333.125 21.4482 333.16 23.7158V30H331.024V23.8389C331.024 23.2354 330.892 22.79 330.628 22.5029C330.371 22.21 329.946 22.0635 329.354 22.0635C328.493 22.0635 327.851 22.4531 327.429 23.2324V30H325.293V20.4902H327.306ZM339.1 18.1787V20.4902H340.779V22.0723H339.1V27.3809C339.1 27.7441 339.17 28.0078 339.311 28.1719C339.457 28.3301 339.715 28.4092 340.084 28.4092C340.331 28.4092 340.58 28.3799 340.831 28.3213V29.9736C340.345 30.1084 339.876 30.1758 339.425 30.1758C337.785 30.1758 336.964 29.2705 336.964 27.46V22.0723H335.4V20.4902H336.964V18.1787H339.1ZM348.828 27.416C348.828 27.0352 348.67 26.7451 348.354 26.5459C348.043 26.3467 347.525 26.1709 346.798 26.0186C346.072 25.8662 345.465 25.6729 344.979 25.4385C343.912 24.9229 343.379 24.1758 343.379 23.1973C343.379 22.377 343.725 21.6914 344.416 21.1406C345.108 20.5898 345.987 20.3145 347.053 20.3145C348.19 20.3145 349.107 20.5957 349.804 21.1582C350.507 21.7207 350.859 22.4502 350.859 23.3467H348.723C348.723 22.9365 348.571 22.5967 348.266 22.3271C347.961 22.0518 347.557 21.9141 347.053 21.9141C346.584 21.9141 346.201 22.0225 345.902 22.2393C345.609 22.4561 345.462 22.7461 345.462 23.1094C345.462 23.4375 345.6 23.6924 345.875 23.874C346.151 24.0557 346.707 24.2402 347.545 24.4277C348.383 24.6094 349.039 24.8291 349.514 25.0869C349.994 25.3389 350.349 25.6436 350.577 26.001C350.812 26.3584 350.929 26.792 350.929 27.3018C350.929 28.1572 350.575 28.8516 349.866 29.3848C349.157 29.9121 348.228 30.1758 347.079 30.1758C346.3 30.1758 345.606 30.0352 344.996 29.7539C344.387 29.4727 343.912 29.0859 343.573 28.5938C343.233 28.1016 343.063 27.5713 343.063 27.0029H345.137C345.166 27.5068 345.357 27.8965 345.708 28.1719C346.06 28.4414 346.526 28.5762 347.106 28.5762C347.668 28.5762 348.096 28.4707 348.389 28.2598C348.682 28.043 348.828 27.7617 348.828 27.416Z" fill="white"/>
<path d="M67.8785 31.7358H80.4332V33.5518H65.7133V8.12797H67.8785V31.7358ZM98.1544 33.5518C97.9449 32.9581 97.811 32.0792 97.7528 30.9151C97.0194 31.8696 96.0824 32.6088 94.9415 33.1327C93.8124 33.6449 92.6134 33.901 91.3445 33.901C89.5285 33.901 88.0559 33.3946 86.9268 32.3818C85.8092 31.3691 85.2505 30.0886 85.2505 28.5403C85.2505 26.7011 86.013 25.246 87.5379 24.175C89.0745 23.104 91.2106 22.5685 93.9462 22.5685H97.7354V20.4208C97.7354 19.0704 97.3163 18.0111 96.4781 17.2428C95.6516 16.4629 94.441 16.0729 92.8462 16.0729C91.3911 16.0729 90.1862 16.4454 89.2317 17.1904C88.2771 17.9355 87.7998 18.8318 87.7998 19.8795L85.7045 19.862C85.7045 18.3603 86.4029 17.0624 87.7998 15.9681C89.1967 14.8622 90.9138 14.3093 92.9509 14.3093C95.058 14.3093 96.7168 14.839 97.9274 15.8983C99.1497 16.946 99.7783 18.4127 99.8133 20.2986V29.2388C99.8133 31.0664 100.005 32.4342 100.389 33.3422V33.5518H98.1544ZM91.589 32.0501C92.9859 32.0501 94.2314 31.7125 95.3257 31.0373C96.4316 30.3621 97.2348 29.46 97.7354 28.3308V24.175H93.9986C91.9149 24.1983 90.2852 24.5824 89.1094 25.3274C87.9337 26.0608 87.3458 27.0736 87.3458 28.3657C87.3458 29.425 87.7358 30.3039 88.5158 31.0024C89.3073 31.7008 90.3317 32.0501 91.589 32.0501ZM122.755 24.2972C122.755 27.2424 122.104 29.5822 120.8 31.3167C119.496 33.0396 117.744 33.901 115.544 33.901C112.913 33.901 110.922 32.9231 109.572 30.9675L109.485 33.5518H107.529V6.73106H109.607V17.4C110.934 15.3395 112.901 14.3093 115.509 14.3093C117.744 14.3093 119.508 15.1649 120.8 16.8761C122.104 18.5757 122.755 20.9446 122.755 23.9829V24.2972ZM120.66 23.9305C120.66 21.4394 120.177 19.5186 119.211 18.1683C118.245 16.8063 116.883 16.1253 115.125 16.1253C113.786 16.1253 112.651 16.4571 111.72 17.1206C110.789 17.7725 110.084 18.7329 109.607 20.0017V28.5229C110.655 30.8976 112.506 32.085 115.16 32.085C116.883 32.085 118.227 31.404 119.193 30.042C120.171 28.68 120.66 26.6429 120.66 23.9305ZM141.455 33.5518C141.245 32.9581 141.111 32.0792 141.053 30.9151C140.32 31.8696 139.382 32.6088 138.242 33.1327C137.112 33.6449 135.913 33.901 134.645 33.901C132.829 33.901 131.356 33.3946 130.227 32.3818C129.109 31.3691 128.551 30.0886 128.551 28.5403C128.551 26.7011 129.313 25.246 130.838 24.175C132.375 23.104 134.511 22.5685 137.246 22.5685H141.035V20.4208C141.035 19.0704 140.616 18.0111 139.778 17.2428C138.952 16.4629 137.741 16.0729 136.146 16.0729C134.691 16.0729 133.486 16.4454 132.532 17.1904C131.577 17.9355 131.1 18.8318 131.1 19.8795L129.005 19.862C129.005 18.3603 129.703 17.0624 131.1 15.9681C132.497 14.8622 134.214 14.3093 136.251 14.3093C138.358 14.3093 140.017 14.839 141.228 15.8983C142.45 16.946 143.078 18.4127 143.113 20.2986V29.2388C143.113 31.0664 143.305 32.4342 143.69 33.3422V33.5518H141.455ZM134.889 32.0501C136.286 32.0501 137.532 31.7125 138.626 31.0373C139.732 30.3621 140.535 29.46 141.035 28.3308V24.175H137.299C135.215 24.1983 133.585 24.5824 132.41 25.3274C131.234 26.0608 130.646 27.0736 130.646 28.3657C130.646 29.425 131.036 30.3039 131.816 31.0024C132.607 31.7008 133.632 32.0501 134.889 32.0501ZM153.186 33.5518H151.091V6.73106H153.186V33.5518ZM172.951 33.5518C172.741 32.9581 172.607 32.0792 172.549 30.9151C171.816 31.8696 170.879 32.6088 169.738 33.1327C168.609 33.6449 167.41 33.901 166.141 33.901C164.325 33.901 162.852 33.3946 161.723 32.3818C160.605 31.3691 160.047 30.0886 160.047 28.5403C160.047 26.7011 160.809 25.246 162.334 24.175C163.871 23.104 166.007 22.5685 168.742 22.5685H172.532V20.4208C172.532 19.0704 172.113 18.0111 171.274 17.2428C170.448 16.4629 169.237 16.0729 167.642 16.0729C166.187 16.0729 164.982 16.4454 164.028 17.1904C163.073 17.9355 162.596 18.8318 162.596 19.8795L160.501 19.862C160.501 18.3603 161.199 17.0624 162.596 15.9681C163.993 14.8622 165.71 14.3093 167.747 14.3093C169.854 14.3093 171.513 14.839 172.724 15.8983C173.946 16.946 174.575 18.4127 174.61 20.2986V29.2388C174.61 31.0664 174.802 32.4342 175.186 33.3422V33.5518H172.951ZM166.385 32.0501C167.782 32.0501 169.028 31.7125 170.122 31.0373C171.228 30.3621 172.031 29.46 172.532 28.3308V24.175H168.795C166.711 24.1983 165.081 24.5824 163.906 25.3274C162.73 26.0608 162.142 27.0736 162.142 28.3657C162.142 29.425 162.532 30.3039 163.312 31.0024C164.104 31.7008 165.128 32.0501 166.385 32.0501ZM197.552 24.2972C197.552 27.2424 196.9 29.5822 195.596 31.3167C194.292 33.0396 192.54 33.901 190.34 33.901C187.709 33.901 185.719 32.9231 184.368 30.9675L184.281 33.5518H182.325V6.73106H184.403V17.4C185.73 15.3395 187.698 14.3093 190.305 14.3093C192.54 14.3093 194.304 15.1649 195.596 16.8761C196.9 18.5757 197.552 20.9446 197.552 23.9829V24.2972ZM195.456 23.9305C195.456 21.4394 194.973 19.5186 194.007 18.1683C193.041 16.8063 191.679 16.1253 189.921 16.1253C188.582 16.1253 187.447 16.4571 186.516 17.1206C185.585 17.7725 184.881 18.7329 184.403 20.0017V28.5229C185.451 30.8976 187.302 32.085 189.956 32.085C191.679 32.085 193.023 31.404 193.99 30.042C194.967 28.68 195.456 26.6429 195.456 23.9305ZM216.251 33.5518C216.041 32.9581 215.907 32.0792 215.849 30.9151C215.116 31.8696 214.179 32.6088 213.038 33.1327C211.909 33.6449 210.71 33.901 209.441 33.901C207.625 33.901 206.152 33.3946 205.023 32.3818C203.906 31.3691 203.347 30.0886 203.347 28.5403C203.347 26.7011 204.109 25.246 205.634 24.175C207.171 23.104 209.307 22.5685 212.043 22.5685H215.832V20.4208C215.832 19.0704 215.413 18.0111 214.574 17.2428C213.748 16.4629 212.537 16.0729 210.942 16.0729C209.487 16.0729 208.283 16.4454 207.328 17.1904C206.373 17.9355 205.896 18.8318 205.896 19.8795L203.801 19.862C203.801 18.3603 204.499 17.0624 205.896 15.9681C207.293 14.8622 209.01 14.3093 211.047 14.3093C213.154 14.3093 214.813 14.839 216.024 15.8983C217.246 16.946 217.875 18.4127 217.91 20.2986V29.2388C217.91 31.0664 218.102 32.4342 218.486 33.3422V33.5518H216.251ZM209.685 32.0501C211.082 32.0501 212.328 31.7125 213.422 31.0373C214.528 30.3621 215.331 29.46 215.832 28.3308V24.175H212.095C210.011 24.1983 208.381 24.5824 207.206 25.3274C206.03 26.0608 205.442 27.0736 205.442 28.3657C205.442 29.425 205.832 30.3039 206.612 31.0024C207.404 31.7008 208.428 32.0501 209.685 32.0501Z" fill="white"/>
<path d="M8.87532 8.98665C14.3241 7.95471 19.3422 12.699 20.6681 14.8184C17.8555 16.6747 15.9173 18.1606 9.26295 17.9668C2.60858 17.773 0.620217 13.6355 0.620217 13.6355C0.620217 13.6355 3.42651 10.0186 8.87532 8.98665Z" fill="white"/>
<path d="M43.5884 8.98665C38.1396 7.95471 33.1216 12.699 31.7956 14.8184C34.6083 16.6747 36.5464 18.1606 43.2008 17.9668C49.8552 17.773 51.8435 13.6355 51.8435 13.6355C51.8435 13.6355 49.0372 10.0186 43.5884 8.98665Z" fill="white"/>
<path d="M24.5778 18.0695C25.7491 24.1515 23.7101 30.5956 20.7629 33.3813C16.9899 36.9476 15.9174 37.9037 15.9174 37.9037C15.9174 37.9037 15.8845 37.7997 15.8285 37.6094C15.3789 36.0798 13.4415 28.9741 15.1422 25.4348C17.3341 20.8732 21.8078 18.4845 24.5778 18.0695C24.8286 18.032 25.0654 18.0106 25.2852 18.0052C26.1448 17.9842 27.0657 18.0109 27.9991 18.1382C29.9422 18.4031 31.9401 19.104 33.5547 20.7186C35.9451 23.1091 38.0125 25.8871 37.8833 30.8617C37.7799 34.8414 36.8927 37.0854 36.462 37.7099C34.0501 36.2455 29.0194 32.1797 28.1925 27.6314C27.6932 24.8852 27.42 21.4756 27.9991 18.1382C27.0657 18.0109 26.1448 17.9842 25.2852 18.0052C25.0654 18.0106 24.8286 18.032 24.5778 18.0695Z" fill="white"/>
<path d="M1.83344 7.08688C4.26691 5.27793 11.0074 3.00382 18.5017 8.37899C27.8695 15.098 25.4791 28.9235 20.7629 33.3813C16.9899 36.9476 15.9174 37.9037 15.9174 37.9037M15.9174 37.9037C15.9174 37.9037 15.8845 37.7997 15.8285 37.6094M15.9174 37.9037L15.8285 37.6094M50.869 6.96478C50.4168 6.44793 47.8326 5.47174 47.5741 5.47173C45.0545 4.89028 38.7232 4.69648 33.5547 8.57281C27.0942 13.4182 27.1588 21.9462 28.1925 27.6314C29.0194 32.1797 34.0501 36.2455 36.462 37.7099C36.8927 37.0854 37.7799 34.8414 37.8833 30.8617C38.0125 25.8871 35.9451 23.1091 33.5547 20.7186C31.1643 18.3282 27.9341 17.9406 25.2852 18.0052C22.6364 18.0698 17.5326 20.4602 15.1422 25.4348C13.4415 28.9741 15.3789 36.0798 15.8285 37.6094" stroke="white" stroke-width="0.528156" stroke-linecap="round" stroke-linejoin="round"/>
<path d="M219.395 9.64748C219.395 9.02818 219.538 8.45333 219.823 7.92294C220.111 7.39255 220.508 6.97559 221.014 6.67207C221.523 6.36548 222.072 6.21219 222.661 6.21219C223.249 6.21219 223.797 6.36548 224.302 6.67207C224.811 6.97559 225.208 7.39255 225.493 7.92294C225.782 8.45333 225.926 9.02818 225.926 9.64748C225.926 10.2729 225.78 10.8524 225.489 11.3858C225.198 11.9162 224.799 12.3332 224.293 12.6367C223.79 12.9402 223.246 13.092 222.661 13.092C222.069 13.092 221.52 12.9387 221.014 12.6321C220.511 12.3255 220.116 11.907 219.828 11.3766C219.54 10.8462 219.395 10.2699 219.395 9.64748ZM225.36 9.64748C225.36 9.13855 225.245 8.66641 225.015 8.23106C224.785 7.79264 224.46 7.44313 224.04 7.18253C223.62 6.91887 223.16 6.78704 222.661 6.78704C222.173 6.78704 221.719 6.91274 221.299 7.16414C220.882 7.41554 220.554 7.76198 220.315 8.20347C220.076 8.64495 219.957 9.12629 219.957 9.64748C219.957 10.1687 220.075 10.65 220.311 11.0915C220.55 11.533 220.878 11.8825 221.295 12.14C221.715 12.3945 222.17 12.5217 222.661 12.5217C223.151 12.5217 223.606 12.3914 224.026 12.1308C224.45 11.8702 224.778 11.5192 225.011 11.0777C225.244 10.6362 225.36 10.1595 225.36 9.64748ZM221.998 9.99699V11.5468H221.304V7.63781H222.596C223.059 7.63781 223.424 7.74359 223.691 7.95513C223.957 8.16361 224.091 8.461 224.091 8.8473C224.091 9.19067 223.918 9.4574 223.571 9.64748C223.758 9.74253 223.889 9.87589 223.962 10.0476C224.039 10.2162 224.077 10.4262 224.077 10.6776C224.077 10.929 224.082 11.1068 224.091 11.2111C224.103 11.3153 224.125 11.4027 224.155 11.4732V11.5468H223.442C223.403 11.4425 223.383 11.1452 223.383 10.6546C223.383 10.4216 223.332 10.2545 223.231 10.1534C223.13 10.0491 222.961 9.99699 222.725 9.99699H221.998ZM221.998 9.38075H222.624C222.851 9.38075 223.036 9.3317 223.18 9.23359C223.327 9.13549 223.401 9.00672 223.401 8.8473C223.401 8.63269 223.346 8.48093 223.235 8.39202C223.128 8.30004 222.932 8.25252 222.647 8.24945H221.998V9.38075Z" fill="white"/>
</svg>
