<svg width="485" height="500" viewBox="0 0 485 500" fill="none" xmlns="http://www.w3.org/2000/svg">
<g filter="url(#filter0_d)">
<rect x="53" y="56" width="302.871" height="393.733" rx="27.6535" fill="white"/>
</g>
<rect x="66.1683" y="71.802" width="276.535" height="363.446" rx="14.4851" fill="#CEE3EE"/>
<rect x="174.148" y="135.01" width="142.218" height="21.0693" rx="6.58416" fill="#4F4F4F" fill-opacity="0.3"/>
<rect x="174.148" y="162.663" width="142.218" height="21.0693" rx="6.58416" fill="#4F4F4F" fill-opacity="0.3"/>
<rect x="95.1386" y="135.01" width="71.1089" height="107.98" rx="6.58416" fill="#4F4F4F" fill-opacity="0.3"/>
<g filter="url(#filter1_d)">
<rect x="186" y="204.802" width="266" height="107.98" rx="7.90099" fill="white"/>
</g>
<path d="M213.301 229.576C213.301 230.134 213.169 230.661 212.906 231.156C212.642 231.651 212.221 232.057 211.641 232.373C211.062 232.678 210.319 232.831 209.413 232.831H207.422V237.287H205.621V226.305H209.413C210.256 226.305 210.967 226.452 211.547 226.747C212.136 227.032 212.574 227.421 212.858 227.917C213.153 228.412 213.301 228.965 213.301 229.576ZM209.413 231.361C210.098 231.361 210.609 231.209 210.946 230.903C211.283 230.587 211.452 230.145 211.452 229.576C211.452 228.375 210.772 227.774 209.413 227.774H207.422V231.361H209.413ZM214.418 232.894C214.418 232.02 214.597 231.245 214.955 230.571C215.324 229.897 215.819 229.376 216.441 229.007C217.073 228.628 217.768 228.438 218.527 228.438C219.211 228.438 219.807 228.575 220.312 228.849C220.829 229.112 221.239 229.444 221.545 229.844V228.58H223.362V237.287H221.545V235.991C221.239 236.402 220.823 236.745 220.297 237.018C219.77 237.292 219.169 237.429 218.495 237.429C217.747 237.429 217.062 237.24 216.441 236.86C215.819 236.471 215.324 235.933 214.955 235.249C214.597 234.553 214.418 233.769 214.418 232.894ZM221.545 232.926C221.545 232.325 221.418 231.804 221.166 231.361C220.923 230.919 220.602 230.582 220.202 230.35C219.801 230.118 219.369 230.002 218.906 230.002C218.442 230.002 218.01 230.118 217.61 230.35C217.21 230.571 216.883 230.903 216.63 231.346C216.388 231.777 216.267 232.294 216.267 232.894C216.267 233.495 216.388 234.021 216.63 234.474C216.883 234.927 217.21 235.275 217.61 235.517C218.021 235.749 218.453 235.865 218.906 235.865C219.369 235.865 219.801 235.749 220.202 235.517C220.602 235.286 220.923 234.948 221.166 234.506C221.418 234.053 221.545 233.526 221.545 232.926ZM233.566 228.58L228.225 241.38H226.36L228.13 237.145L224.701 228.58H226.708L229.157 235.217L231.701 228.58H233.566ZM240.832 235.833H244.545V237.287H239.03V226.305H240.832V235.833ZM245.451 232.894C245.451 232.02 245.63 231.245 245.988 230.571C246.357 229.897 246.852 229.376 247.474 229.007C248.106 228.628 248.801 228.438 249.56 228.438C250.244 228.438 250.84 228.575 251.345 228.849C251.862 229.112 252.272 229.444 252.578 229.844V228.58H254.395V237.287H252.578V235.991C252.272 236.402 251.856 236.745 251.329 237.018C250.803 237.292 250.202 237.429 249.528 237.429C248.78 237.429 248.095 237.24 247.474 236.86C246.852 236.471 246.357 235.933 245.988 235.249C245.63 234.553 245.451 233.769 245.451 232.894ZM252.578 232.926C252.578 232.325 252.451 231.804 252.199 231.361C251.956 230.919 251.635 230.582 251.235 230.35C250.834 230.118 250.402 230.002 249.939 230.002C249.475 230.002 249.043 230.118 248.643 230.35C248.243 230.571 247.916 230.903 247.663 231.346C247.421 231.777 247.3 232.294 247.3 232.894C247.3 233.495 247.421 234.021 247.663 234.474C247.916 234.927 248.243 235.275 248.643 235.517C249.054 235.749 249.486 235.865 249.939 235.865C250.402 235.865 250.834 235.749 251.235 235.517C251.635 235.286 251.956 234.948 252.199 234.506C252.451 234.053 252.578 233.526 252.578 232.926ZM258.863 230.05V234.869C258.863 235.196 258.937 235.433 259.084 235.58C259.242 235.717 259.505 235.786 259.874 235.786H260.98V237.287H259.558C258.747 237.287 258.125 237.097 257.694 236.718C257.262 236.339 257.046 235.723 257.046 234.869V230.05H256.018V228.58H257.046V226.415H258.863V228.58H260.98V230.05H258.863ZM270.621 232.72C270.621 233.047 270.6 233.342 270.557 233.605H263.905C263.957 234.301 264.216 234.859 264.679 235.28C265.143 235.702 265.711 235.912 266.386 235.912C267.355 235.912 268.04 235.507 268.44 234.696H270.384C270.12 235.496 269.641 236.155 268.946 236.671C268.261 237.176 267.408 237.429 266.386 237.429C265.553 237.429 264.806 237.245 264.142 236.876C263.489 236.497 262.972 235.97 262.593 235.296C262.225 234.611 262.04 233.821 262.04 232.926C262.04 232.03 262.219 231.245 262.577 230.571C262.946 229.887 263.457 229.36 264.11 228.991C264.774 228.622 265.532 228.438 266.386 228.438C267.207 228.438 267.94 228.617 268.582 228.975C269.225 229.333 269.725 229.839 270.083 230.492C270.442 231.135 270.621 231.878 270.621 232.72ZM268.74 232.151C268.73 231.488 268.493 230.956 268.029 230.555C267.566 230.155 266.991 229.955 266.307 229.955C265.685 229.955 265.153 230.155 264.711 230.555C264.268 230.945 264.005 231.477 263.921 232.151H268.74ZM274.195 229.844C274.458 229.402 274.806 229.06 275.238 228.817C275.68 228.564 276.202 228.438 276.802 228.438V230.303H276.344C275.638 230.303 275.101 230.482 274.732 230.84C274.374 231.198 274.195 231.82 274.195 232.705V237.287H272.393V228.58H274.195V229.844ZM283.479 227.427C283.153 227.427 282.879 227.316 282.658 227.095C282.436 226.874 282.326 226.6 282.326 226.273C282.326 225.947 282.436 225.673 282.658 225.451C282.879 225.23 283.153 225.12 283.479 225.12C283.795 225.12 284.064 225.23 284.285 225.451C284.507 225.673 284.617 225.947 284.617 226.273C284.617 226.6 284.507 226.874 284.285 227.095C284.064 227.316 283.795 227.427 283.479 227.427ZM284.364 228.58V237.287H282.563V228.58H284.364ZM291.122 228.438C291.807 228.438 292.418 228.58 292.955 228.865C293.503 229.149 293.93 229.57 294.235 230.129C294.541 230.687 294.694 231.361 294.694 232.151V237.287H292.908V232.42C292.908 231.641 292.713 231.045 292.323 230.634C291.934 230.213 291.402 230.002 290.727 230.002C290.053 230.002 289.516 230.213 289.115 230.634C288.726 231.045 288.531 231.641 288.531 232.42V237.287H286.729V228.58H288.531V229.576C288.826 229.218 289.2 228.938 289.653 228.738C290.116 228.538 290.606 228.438 291.122 228.438ZM300.828 228.612C300.891 227.632 301.265 226.868 301.95 226.321C302.645 225.773 303.53 225.499 304.604 225.499C305.342 225.499 305.979 225.631 306.516 225.894C307.054 226.157 307.459 226.515 307.733 226.968C308.007 227.421 308.144 227.932 308.144 228.501C308.144 229.154 307.97 229.713 307.622 230.176C307.275 230.64 306.859 230.951 306.374 231.109V231.172C306.996 231.361 307.48 231.709 307.828 232.215C308.176 232.71 308.349 233.347 308.349 234.127C308.349 234.748 308.207 235.301 307.923 235.786C307.638 236.271 307.217 236.655 306.659 236.939C306.1 237.213 305.431 237.35 304.652 237.35C303.514 237.35 302.576 237.061 301.839 236.481C301.112 235.891 300.722 235.048 300.67 233.953H302.408C302.45 234.511 302.666 234.969 303.056 235.328C303.445 235.675 303.972 235.849 304.636 235.849C305.278 235.849 305.774 235.675 306.121 235.328C306.469 234.969 306.643 234.511 306.643 233.953C306.643 233.215 306.406 232.694 305.932 232.388C305.468 232.072 304.752 231.914 303.783 231.914H303.372V230.429H303.798C304.652 230.419 305.3 230.276 305.742 230.002C306.195 229.728 306.422 229.297 306.422 228.707C306.422 228.201 306.258 227.801 305.932 227.506C305.605 227.2 305.142 227.047 304.541 227.047C303.951 227.047 303.493 227.2 303.166 227.506C302.84 227.801 302.645 228.169 302.582 228.612H300.828ZM310.242 231.377C310.242 229.555 310.547 228.132 311.158 227.111C311.78 226.078 312.844 225.562 314.35 225.562C315.857 225.562 316.915 226.078 317.526 227.111C318.148 228.132 318.459 229.555 318.459 231.377C318.459 233.221 318.148 234.664 317.526 235.707C316.915 236.739 315.857 237.256 314.35 237.256C312.844 237.256 311.78 236.739 311.158 235.707C310.547 234.664 310.242 233.221 310.242 231.377ZM316.689 231.377C316.689 230.524 316.631 229.802 316.515 229.212C316.41 228.622 316.188 228.143 315.851 227.774C315.514 227.395 315.014 227.205 314.35 227.205C313.686 227.205 313.186 227.395 312.849 227.774C312.512 228.143 312.285 228.622 312.169 229.212C312.064 229.802 312.011 230.524 312.011 231.377C312.011 232.262 312.064 233.005 312.169 233.605C312.275 234.206 312.496 234.69 312.833 235.059C313.181 235.428 313.686 235.612 314.35 235.612C315.014 235.612 315.514 235.428 315.851 235.059C316.199 234.69 316.425 234.206 316.531 233.605C316.636 233.005 316.689 232.262 316.689 231.377ZM320.001 232.894C320.001 232.02 320.18 231.245 320.539 230.571C320.907 229.897 321.402 229.376 322.024 229.007C322.656 228.628 323.357 228.438 324.126 228.438C324.695 228.438 325.253 228.564 325.801 228.817C326.359 229.06 326.801 229.386 327.128 229.797V225.594H328.945V237.287H327.128V235.976C326.833 236.397 326.422 236.745 325.895 237.018C325.379 237.292 324.784 237.429 324.11 237.429C323.351 237.429 322.656 237.24 322.024 236.86C321.402 236.471 320.907 235.933 320.539 235.249C320.18 234.553 320.001 233.769 320.001 232.894ZM327.128 232.926C327.128 232.325 327.002 231.804 326.749 231.361C326.506 230.919 326.185 230.582 325.785 230.35C325.385 230.118 324.953 230.002 324.489 230.002C324.026 230.002 323.594 230.118 323.193 230.35C322.793 230.571 322.466 230.903 322.214 231.346C321.971 231.777 321.85 232.294 321.85 232.894C321.85 233.495 321.971 234.021 322.214 234.474C322.466 234.927 322.793 235.275 323.193 235.517C323.604 235.749 324.036 235.865 324.489 235.865C324.953 235.865 325.385 235.749 325.785 235.517C326.185 235.286 326.506 234.948 326.749 234.506C327.002 234.053 327.128 233.526 327.128 232.926ZM330.711 232.894C330.711 232.02 330.89 231.245 331.248 230.571C331.617 229.897 332.112 229.376 332.734 229.007C333.366 228.628 334.061 228.438 334.819 228.438C335.504 228.438 336.099 228.575 336.605 228.849C337.121 229.112 337.532 229.444 337.838 229.844V228.58H339.655V237.287H337.838V235.991C337.532 236.402 337.116 236.745 336.589 237.018C336.062 237.292 335.462 237.429 334.788 237.429C334.04 237.429 333.355 237.24 332.734 236.86C332.112 236.471 331.617 235.933 331.248 235.249C330.89 234.553 330.711 233.769 330.711 232.894ZM337.838 232.926C337.838 232.325 337.711 231.804 337.458 231.361C337.216 230.919 336.895 230.582 336.494 230.35C336.094 230.118 335.662 230.002 335.199 230.002C334.735 230.002 334.303 230.118 333.903 230.35C333.503 230.571 333.176 230.903 332.923 231.346C332.681 231.777 332.56 232.294 332.56 232.894C332.56 233.495 332.681 234.021 332.923 234.474C333.176 234.927 333.503 235.275 333.903 235.517C334.314 235.749 334.746 235.865 335.199 235.865C335.662 235.865 336.094 235.749 336.494 235.517C336.895 235.286 337.216 234.948 337.458 234.506C337.711 234.053 337.838 233.526 337.838 232.926ZM349.859 228.58L344.518 241.38H342.653L344.423 237.145L340.994 228.58H343.001L345.45 235.217L347.994 228.58H349.859ZM354.379 237.429C353.694 237.429 353.078 237.308 352.53 237.066C351.992 236.813 351.566 236.476 351.25 236.055C350.934 235.623 350.765 235.143 350.744 234.617H352.609C352.64 234.985 352.814 235.296 353.13 235.549C353.457 235.791 353.862 235.912 354.347 235.912C354.853 235.912 355.242 235.818 355.516 235.628C355.801 235.428 355.943 235.175 355.943 234.869C355.943 234.543 355.785 234.301 355.469 234.143C355.163 233.984 354.674 233.811 353.999 233.621C353.346 233.442 352.814 233.268 352.403 233.1C351.992 232.931 351.634 232.673 351.329 232.325C351.034 231.978 350.886 231.519 350.886 230.951C350.886 230.487 351.023 230.066 351.297 229.686C351.571 229.297 351.961 228.991 352.466 228.77C352.983 228.549 353.573 228.438 354.236 228.438C355.227 228.438 356.022 228.691 356.622 229.196C357.233 229.692 357.56 230.371 357.602 231.235H355.801C355.769 230.845 355.611 230.534 355.327 230.303C355.042 230.071 354.658 229.955 354.173 229.955C353.699 229.955 353.336 230.045 353.083 230.224C352.83 230.403 352.704 230.64 352.704 230.935C352.704 231.166 352.788 231.361 352.956 231.519C353.125 231.677 353.33 231.804 353.573 231.899C353.815 231.983 354.173 232.094 354.647 232.23C355.279 232.399 355.795 232.573 356.196 232.752C356.607 232.92 356.96 233.173 357.254 233.51C357.549 233.848 357.702 234.295 357.713 234.854C357.713 235.349 357.576 235.791 357.302 236.181C357.028 236.571 356.638 236.876 356.133 237.097C355.637 237.319 355.053 237.429 354.379 237.429ZM361.634 235.122L359.722 239.484H358.553L359.675 235.122H361.634ZM371.706 228.438C372.391 228.438 373.002 228.58 373.539 228.865C374.087 229.149 374.514 229.57 374.819 230.129C375.125 230.687 375.278 231.361 375.278 232.151V237.287H373.492V232.42C373.492 231.641 373.297 231.045 372.907 230.634C372.517 230.213 371.985 230.002 371.311 230.002C370.637 230.002 370.1 230.213 369.699 230.634C369.31 231.045 369.115 231.641 369.115 232.42V237.287H367.313V228.58H369.115V229.576C369.41 229.218 369.784 228.938 370.237 228.738C370.7 228.538 371.19 228.438 371.706 228.438ZM381.352 237.429C380.53 237.429 379.788 237.245 379.124 236.876C378.46 236.497 377.939 235.97 377.56 235.296C377.18 234.611 376.991 233.821 376.991 232.926C376.991 232.041 377.186 231.256 377.575 230.571C377.965 229.887 378.497 229.36 379.171 228.991C379.846 228.622 380.599 228.438 381.431 228.438C382.263 228.438 383.016 228.622 383.691 228.991C384.365 229.36 384.897 229.887 385.287 230.571C385.676 231.256 385.871 232.041 385.871 232.926C385.871 233.811 385.671 234.596 385.271 235.28C384.871 235.965 384.323 236.497 383.628 236.876C382.943 237.245 382.184 237.429 381.352 237.429ZM381.352 235.865C381.816 235.865 382.247 235.754 382.648 235.533C383.059 235.312 383.39 234.98 383.643 234.538C383.896 234.095 384.023 233.558 384.023 232.926C384.023 232.294 383.901 231.762 383.659 231.33C383.417 230.887 383.096 230.555 382.695 230.334C382.295 230.113 381.863 230.002 381.399 230.002C380.936 230.002 380.504 230.113 380.104 230.334C379.714 230.555 379.403 230.887 379.171 231.33C378.94 231.762 378.824 232.294 378.824 232.926C378.824 233.863 379.061 234.59 379.535 235.106C380.019 235.612 380.625 235.865 381.352 235.865ZM395.407 230.05H393.795V237.287H391.978V230.05H390.951V228.58H391.978V227.964C391.978 226.963 392.242 226.236 392.768 225.783C393.306 225.32 394.143 225.088 395.281 225.088V226.589C394.733 226.589 394.349 226.695 394.127 226.905C393.906 227.105 393.795 227.458 393.795 227.964V228.58H395.407V230.05ZM404.984 232.72C404.984 233.047 404.963 233.342 404.921 233.605H398.268C398.321 234.301 398.579 234.859 399.042 235.28C399.506 235.702 400.075 235.912 400.749 235.912C401.718 235.912 402.403 235.507 402.803 234.696H404.747C404.483 235.496 404.004 236.155 403.309 236.671C402.624 237.176 401.771 237.429 400.749 237.429C399.917 237.429 399.169 237.245 398.505 236.876C397.852 236.497 397.336 235.97 396.956 235.296C396.588 234.611 396.403 233.821 396.403 232.926C396.403 232.03 396.582 231.245 396.941 230.571C397.309 229.887 397.82 229.36 398.473 228.991C399.137 228.622 399.896 228.438 400.749 228.438C401.571 228.438 402.303 228.617 402.945 228.975C403.588 229.333 404.088 229.839 404.447 230.492C404.805 231.135 404.984 231.878 404.984 232.72ZM403.103 232.151C403.093 231.488 402.856 230.956 402.392 230.555C401.929 230.155 401.355 229.955 400.67 229.955C400.048 229.955 399.516 230.155 399.074 230.555C398.631 230.945 398.368 231.477 398.284 232.151H403.103ZM414.737 232.72C414.737 233.047 414.715 233.342 414.673 233.605H408.021C408.073 234.301 408.331 234.859 408.795 235.28C409.259 235.702 409.827 235.912 410.502 235.912C411.471 235.912 412.156 235.507 412.556 234.696H414.5C414.236 235.496 413.757 236.155 413.062 236.671C412.377 237.176 411.523 237.429 410.502 237.429C409.669 237.429 408.921 237.245 408.258 236.876C407.605 236.497 407.088 235.97 406.709 235.296C406.34 234.611 406.156 233.821 406.156 232.926C406.156 232.03 406.335 231.245 406.693 230.571C407.062 229.887 407.573 229.36 408.226 228.991C408.89 228.622 409.648 228.438 410.502 228.438C411.323 228.438 412.055 228.617 412.698 228.975C413.341 229.333 413.841 229.839 414.199 230.492C414.557 231.135 414.737 231.878 414.737 232.72ZM412.856 232.151C412.846 231.488 412.609 230.956 412.145 230.555C411.681 230.155 411.107 229.955 410.423 229.955C409.801 229.955 409.269 230.155 408.827 230.555C408.384 230.945 408.121 231.477 408.037 232.151H412.856ZM419.67 237.429C418.985 237.429 418.369 237.308 417.821 237.066C417.284 236.813 416.857 236.476 416.541 236.055C416.225 235.623 416.056 235.143 416.035 234.617H417.9C417.932 234.985 418.105 235.296 418.421 235.549C418.748 235.791 419.154 235.912 419.638 235.912C420.144 235.912 420.534 235.818 420.807 235.628C421.092 235.428 421.234 235.175 421.234 234.869C421.234 234.543 421.076 234.301 420.76 234.143C420.455 233.984 419.965 233.811 419.29 233.621C418.637 233.442 418.105 233.268 417.694 233.1C417.284 232.931 416.925 232.673 416.62 232.325C416.325 231.978 416.177 231.519 416.177 230.951C416.177 230.487 416.314 230.066 416.588 229.686C416.862 229.297 417.252 228.991 417.758 228.77C418.274 228.549 418.864 228.438 419.528 228.438C420.518 228.438 421.313 228.691 421.914 229.196C422.525 229.692 422.851 230.371 422.893 231.235H421.092C421.06 230.845 420.902 230.534 420.618 230.303C420.333 230.071 419.949 229.955 419.464 229.955C418.99 229.955 418.627 230.045 418.374 230.224C418.121 230.403 417.995 230.64 417.995 230.935C417.995 231.166 418.079 231.361 418.248 231.519C418.416 231.677 418.622 231.804 418.864 231.899C419.106 231.983 419.464 232.094 419.938 232.23C420.57 232.399 421.087 232.573 421.487 232.752C421.898 232.92 422.251 233.173 422.546 233.51C422.841 233.848 422.993 234.295 423.004 234.854C423.004 235.349 422.867 235.791 422.593 236.181C422.319 236.571 421.929 236.876 421.424 237.097C420.929 237.319 420.344 237.429 419.67 237.429ZM425.677 237.398C425.351 237.398 425.077 237.287 424.856 237.066C424.634 236.845 424.524 236.571 424.524 236.244C424.524 235.918 424.634 235.644 424.856 235.422C425.077 235.201 425.351 235.091 425.677 235.091C425.993 235.091 426.262 235.201 426.483 235.422C426.704 235.644 426.815 235.918 426.815 236.244C426.815 236.571 426.704 236.845 426.483 237.066C426.262 237.287 425.993 237.398 425.677 237.398Z" fill="#4F4F4F"/>
<path d="M213.301 257.229C213.301 257.788 213.169 258.314 212.906 258.809C212.642 259.305 212.221 259.71 211.641 260.026C211.062 260.332 210.319 260.484 209.413 260.484H207.422V264.941H205.621V253.958H209.413C210.256 253.958 210.967 254.106 211.547 254.401C212.136 254.685 212.574 255.075 212.858 255.57C213.153 256.065 213.301 256.618 213.301 257.229ZM209.413 259.015C210.098 259.015 210.609 258.862 210.946 258.557C211.283 258.241 211.452 257.798 211.452 257.229C211.452 256.028 210.772 255.428 209.413 255.428H207.422V259.015H209.413ZM214.418 260.548C214.418 259.673 214.597 258.899 214.955 258.225C215.324 257.551 215.819 257.029 216.441 256.66C217.073 256.281 217.768 256.092 218.527 256.092C219.211 256.092 219.807 256.228 220.312 256.502C220.829 256.766 221.239 257.098 221.545 257.498V256.234H223.362V264.941H221.545V263.645C221.239 264.056 220.823 264.398 220.297 264.672C219.77 264.946 219.169 265.083 218.495 265.083C217.747 265.083 217.062 264.893 216.441 264.514C215.819 264.124 215.324 263.587 214.955 262.902C214.597 262.207 214.418 261.422 214.418 260.548ZM221.545 260.579C221.545 259.979 221.418 259.457 221.166 259.015C220.923 258.572 220.602 258.235 220.202 258.004C219.801 257.772 219.369 257.656 218.906 257.656C218.442 257.656 218.01 257.772 217.61 258.004C217.21 258.225 216.883 258.557 216.63 258.999C216.388 259.431 216.267 259.947 216.267 260.548C216.267 261.148 216.388 261.675 216.63 262.128C216.883 262.581 217.21 262.928 217.61 263.171C218.021 263.403 218.453 263.518 218.906 263.518C219.369 263.518 219.801 263.403 220.202 263.171C220.602 262.939 220.923 262.602 221.166 262.159C221.418 261.706 221.545 261.18 221.545 260.579ZM233.566 256.234L228.225 269.033H226.36L228.13 264.798L224.701 256.234H226.708L229.157 262.871L231.701 256.234H233.566ZM240.832 263.487H244.545V264.941H239.03V253.958H240.832V263.487ZM245.451 260.548C245.451 259.673 245.63 258.899 245.988 258.225C246.357 257.551 246.852 257.029 247.474 256.66C248.106 256.281 248.801 256.092 249.56 256.092C250.244 256.092 250.84 256.228 251.345 256.502C251.862 256.766 252.272 257.098 252.578 257.498V256.234H254.395V264.941H252.578V263.645C252.272 264.056 251.856 264.398 251.329 264.672C250.803 264.946 250.202 265.083 249.528 265.083C248.78 265.083 248.095 264.893 247.474 264.514C246.852 264.124 246.357 263.587 245.988 262.902C245.63 262.207 245.451 261.422 245.451 260.548ZM252.578 260.579C252.578 259.979 252.451 259.457 252.199 259.015C251.956 258.572 251.635 258.235 251.235 258.004C250.834 257.772 250.402 257.656 249.939 257.656C249.475 257.656 249.043 257.772 248.643 258.004C248.243 258.225 247.916 258.557 247.663 258.999C247.421 259.431 247.3 259.947 247.3 260.548C247.3 261.148 247.421 261.675 247.663 262.128C247.916 262.581 248.243 262.928 248.643 263.171C249.054 263.403 249.486 263.518 249.939 263.518C250.402 263.518 250.834 263.403 251.235 263.171C251.635 262.939 251.956 262.602 252.199 262.159C252.451 261.706 252.578 261.18 252.578 260.579ZM258.863 257.703V262.523C258.863 262.849 258.937 263.087 259.084 263.234C259.242 263.371 259.505 263.439 259.874 263.439H260.98V264.941H259.558C258.747 264.941 258.125 264.751 257.694 264.372C257.262 263.992 257.046 263.376 257.046 262.523V257.703H256.018V256.234H257.046V254.069H258.863V256.234H260.98V257.703H258.863ZM270.621 260.374C270.621 260.7 270.6 260.995 270.557 261.259H263.905C263.957 261.954 264.216 262.512 264.679 262.934C265.143 263.355 265.711 263.566 266.386 263.566C267.355 263.566 268.04 263.16 268.44 262.349H270.384C270.12 263.15 269.641 263.808 268.946 264.324C268.261 264.83 267.408 265.083 266.386 265.083C265.553 265.083 264.806 264.898 264.142 264.53C263.489 264.151 262.972 263.624 262.593 262.95C262.225 262.265 262.04 261.475 262.04 260.579C262.04 259.684 262.219 258.899 262.577 258.225C262.946 257.54 263.457 257.013 264.11 256.645C264.774 256.276 265.532 256.092 266.386 256.092C267.207 256.092 267.94 256.271 268.582 256.629C269.225 256.987 269.725 257.493 270.083 258.146C270.442 258.788 270.621 259.531 270.621 260.374ZM268.74 259.805C268.73 259.141 268.493 258.609 268.029 258.209C267.566 257.809 266.991 257.608 266.307 257.608C265.685 257.608 265.153 257.809 264.711 258.209C264.268 258.599 264.005 259.131 263.921 259.805H268.74ZM274.195 257.498C274.458 257.055 274.806 256.713 275.238 256.471C275.68 256.218 276.202 256.092 276.802 256.092V257.956H276.344C275.638 257.956 275.101 258.135 274.732 258.493C274.374 258.852 274.195 259.473 274.195 260.358V264.941H272.393V256.234H274.195V257.498ZM283.479 255.08C283.153 255.08 282.879 254.97 282.658 254.748C282.436 254.527 282.326 254.253 282.326 253.927C282.326 253.6 282.436 253.326 282.658 253.105C282.879 252.884 283.153 252.773 283.479 252.773C283.795 252.773 284.064 252.884 284.285 253.105C284.507 253.326 284.617 253.6 284.617 253.927C284.617 254.253 284.507 254.527 284.285 254.748C284.064 254.97 283.795 255.08 283.479 255.08ZM284.364 256.234V264.941H282.563V256.234H284.364ZM291.122 256.092C291.807 256.092 292.418 256.234 292.955 256.518C293.503 256.803 293.93 257.224 294.235 257.782C294.541 258.341 294.694 259.015 294.694 259.805V264.941H292.908V260.074C292.908 259.294 292.713 258.699 292.323 258.288C291.934 257.867 291.402 257.656 290.727 257.656C290.053 257.656 289.516 257.867 289.115 258.288C288.726 258.699 288.531 259.294 288.531 260.074V264.941H286.729V256.234H288.531V257.229C288.826 256.871 289.2 256.592 289.653 256.392C290.116 256.192 290.606 256.092 291.122 256.092ZM307.054 256.092C306.938 255.607 306.727 255.243 306.422 255.001C306.116 254.759 305.689 254.638 305.142 254.638C304.309 254.638 303.688 254.959 303.277 255.602C302.866 256.234 302.65 257.287 302.629 258.762C302.903 258.299 303.303 257.94 303.83 257.688C304.357 257.435 304.926 257.308 305.537 257.308C306.232 257.308 306.843 257.461 307.37 257.767C307.907 258.061 308.323 258.493 308.618 259.062C308.923 259.631 309.076 260.311 309.076 261.101C309.076 261.838 308.929 262.497 308.634 263.076C308.349 263.655 307.923 264.114 307.354 264.451C306.785 264.777 306.1 264.941 305.3 264.941C304.214 264.941 303.361 264.704 302.74 264.23C302.129 263.745 301.697 263.065 301.444 262.191C301.202 261.317 301.08 260.226 301.08 258.92C301.08 255.064 302.439 253.137 305.157 253.137C306.211 253.137 307.038 253.421 307.638 253.99C308.249 254.559 308.607 255.259 308.713 256.092H307.054ZM305.142 258.825C304.499 258.825 303.951 259.02 303.498 259.41C303.056 259.789 302.834 260.342 302.834 261.069C302.834 261.796 303.04 262.375 303.451 262.807C303.872 263.229 304.457 263.439 305.205 263.439C305.868 263.439 306.39 263.234 306.769 262.823C307.159 262.412 307.354 261.864 307.354 261.18C307.354 260.463 307.164 259.895 306.785 259.473C306.416 259.041 305.868 258.825 305.142 258.825ZM325.88 256.092C326.564 256.092 327.175 256.234 327.713 256.518C328.26 256.803 328.687 257.224 328.993 257.782C329.309 258.341 329.467 259.015 329.467 259.805V264.941H327.681V260.074C327.681 259.294 327.486 258.699 327.096 258.288C326.707 257.867 326.175 257.656 325.5 257.656C324.826 257.656 324.289 257.867 323.888 258.288C323.499 258.699 323.304 259.294 323.304 260.074V264.941H321.518V260.074C321.518 259.294 321.323 258.699 320.934 258.288C320.544 257.867 320.012 257.656 319.338 257.656C318.663 257.656 318.126 257.867 317.726 258.288C317.336 258.699 317.141 259.294 317.141 260.074V264.941H315.34V256.234H317.141V257.229C317.436 256.871 317.81 256.592 318.263 256.392C318.716 256.192 319.201 256.092 319.717 256.092C320.412 256.092 321.034 256.239 321.581 256.534C322.129 256.829 322.551 257.256 322.846 257.814C323.109 257.287 323.52 256.871 324.078 256.566C324.636 256.25 325.237 256.092 325.88 256.092ZM335.536 265.083C334.714 265.083 333.971 264.898 333.307 264.53C332.644 264.151 332.122 263.624 331.743 262.95C331.364 262.265 331.174 261.475 331.174 260.579C331.174 259.694 331.369 258.91 331.759 258.225C332.149 257.54 332.681 257.013 333.355 256.645C334.029 256.276 334.782 256.092 335.615 256.092C336.447 256.092 337.2 256.276 337.874 256.645C338.548 257.013 339.08 257.54 339.47 258.225C339.86 258.91 340.055 259.694 340.055 260.579C340.055 261.464 339.855 262.249 339.454 262.934C339.054 263.619 338.506 264.151 337.811 264.53C337.126 264.898 336.368 265.083 335.536 265.083ZM335.536 263.518C335.999 263.518 336.431 263.408 336.831 263.187C337.242 262.965 337.574 262.634 337.827 262.191C338.08 261.749 338.206 261.211 338.206 260.579C338.206 259.947 338.085 259.415 337.843 258.983C337.6 258.541 337.279 258.209 336.879 257.988C336.478 257.767 336.046 257.656 335.583 257.656C335.119 257.656 334.687 257.767 334.287 257.988C333.897 258.209 333.587 258.541 333.355 258.983C333.123 259.415 333.007 259.947 333.007 260.579C333.007 261.517 333.244 262.244 333.718 262.76C334.203 263.266 334.809 263.518 335.536 263.518ZM346.229 256.092C346.913 256.092 347.524 256.234 348.062 256.518C348.61 256.803 349.036 257.224 349.342 257.782C349.647 258.341 349.8 259.015 349.8 259.805V264.941H348.014V260.074C348.014 259.294 347.819 258.699 347.43 258.288C347.04 257.867 346.508 257.656 345.834 257.656C345.159 257.656 344.622 257.867 344.222 258.288C343.832 258.699 343.637 259.294 343.637 260.074V264.941H341.836V256.234H343.637V257.229C343.932 256.871 344.306 256.592 344.759 256.392C345.223 256.192 345.712 256.092 346.229 256.092ZM354.199 257.703V262.523C354.199 262.849 354.273 263.087 354.421 263.234C354.579 263.371 354.842 263.439 355.211 263.439H356.317V264.941H354.895C354.084 264.941 353.462 264.751 353.03 264.372C352.598 263.992 352.382 263.376 352.382 262.523V257.703H351.355V256.234H352.382V254.069H354.199V256.234H356.317V257.703H354.199ZM362.481 256.092C363.144 256.092 363.734 256.234 364.251 256.518C364.777 256.803 365.188 257.224 365.483 257.782C365.789 258.341 365.941 259.015 365.941 259.805V264.941H364.156V260.074C364.156 259.294 363.961 258.699 363.571 258.288C363.181 257.867 362.649 257.656 361.975 257.656C361.301 257.656 360.764 257.867 360.363 258.288C359.974 258.699 359.779 259.294 359.779 260.074V264.941H357.977V253.247H359.779V257.245C360.084 256.876 360.469 256.592 360.932 256.392C361.406 256.192 361.922 256.092 362.481 256.092ZM370.214 262.776L368.302 267.137H367.133L368.255 262.776H370.214ZM380.286 256.092C380.971 256.092 381.582 256.234 382.119 256.518C382.667 256.803 383.094 257.224 383.399 257.782C383.705 258.341 383.858 259.015 383.858 259.805V264.941H382.072V260.074C382.072 259.294 381.877 258.699 381.487 258.288C381.097 257.867 380.565 257.656 379.891 257.656C379.217 257.656 378.68 257.867 378.279 258.288C377.89 258.699 377.695 259.294 377.695 260.074V264.941H375.893V256.234H377.695V257.229C377.99 256.871 378.364 256.592 378.817 256.392C379.28 256.192 379.77 256.092 380.286 256.092ZM389.932 265.083C389.11 265.083 388.368 264.898 387.704 264.53C387.04 264.151 386.519 263.624 386.14 262.95C385.76 262.265 385.571 261.475 385.571 260.579C385.571 259.694 385.766 258.91 386.155 258.225C386.545 257.54 387.077 257.013 387.751 256.645C388.426 256.276 389.179 256.092 390.011 256.092C390.843 256.092 391.596 256.276 392.271 256.645C392.945 257.013 393.477 257.54 393.867 258.225C394.256 258.91 394.451 259.694 394.451 260.579C394.451 261.464 394.251 262.249 393.851 262.934C393.451 263.619 392.903 264.151 392.207 264.53C391.523 264.898 390.764 265.083 389.932 265.083ZM389.932 263.518C390.396 263.518 390.827 263.408 391.228 263.187C391.639 262.965 391.97 262.634 392.223 262.191C392.476 261.749 392.603 261.211 392.603 260.579C392.603 259.947 392.481 259.415 392.239 258.983C391.997 258.541 391.675 258.209 391.275 257.988C390.875 257.767 390.443 257.656 389.979 257.656C389.516 257.656 389.084 257.767 388.684 257.988C388.294 258.209 387.983 258.541 387.751 258.983C387.52 259.415 387.404 259.947 387.404 260.579C387.404 261.517 387.641 262.244 388.115 262.76C388.599 263.266 389.205 263.518 389.932 263.518ZM403.987 257.703H402.375V264.941H400.558V257.703H399.531V256.234H400.558V255.617C400.558 254.617 400.822 253.89 401.348 253.437C401.886 252.973 402.723 252.741 403.861 252.741V254.243C403.313 254.243 402.929 254.348 402.707 254.559C402.486 254.759 402.375 255.112 402.375 255.617V256.234H403.987V257.703ZM413.564 260.374C413.564 260.7 413.543 260.995 413.501 261.259H406.848C406.901 261.954 407.159 262.512 407.622 262.934C408.086 263.355 408.655 263.566 409.329 263.566C410.298 263.566 410.983 263.16 411.383 262.349H413.327C413.063 263.15 412.584 263.808 411.889 264.324C411.204 264.83 410.351 265.083 409.329 265.083C408.497 265.083 407.749 264.898 407.085 264.53C406.432 264.151 405.916 263.624 405.536 262.95C405.168 262.265 404.983 261.475 404.983 260.579C404.983 259.684 405.162 258.899 405.521 258.225C405.889 257.54 406.4 257.013 407.053 256.645C407.717 256.276 408.476 256.092 409.329 256.092C410.151 256.092 410.883 256.271 411.525 256.629C412.168 256.987 412.668 257.493 413.026 258.146C413.385 258.788 413.564 259.531 413.564 260.374ZM411.683 259.805C411.673 259.141 411.436 258.609 410.972 258.209C410.509 257.809 409.935 257.608 409.25 257.608C408.628 257.608 408.096 257.809 407.654 258.209C407.211 258.599 406.948 259.131 406.864 259.805H411.683ZM423.317 260.374C423.317 260.7 423.295 260.995 423.253 261.259H416.601C416.653 261.954 416.911 262.512 417.375 262.934C417.839 263.355 418.407 263.566 419.082 263.566C420.051 263.566 420.736 263.16 421.136 262.349H423.08C422.816 263.15 422.337 263.808 421.642 264.324C420.957 264.83 420.103 265.083 419.082 265.083C418.249 265.083 417.501 264.898 416.838 264.53C416.185 264.151 415.668 263.624 415.289 262.95C414.92 262.265 414.736 261.475 414.736 260.579C414.736 259.684 414.915 258.899 415.273 258.225C415.642 257.54 416.153 257.013 416.806 256.645C417.47 256.276 418.228 256.092 419.082 256.092C419.903 256.092 420.635 256.271 421.278 256.629C421.921 256.987 422.421 257.493 422.779 258.146C423.137 258.788 423.317 259.531 423.317 260.374ZM421.436 259.805C421.426 259.141 421.189 258.609 420.725 258.209C420.261 257.809 419.687 257.608 419.003 257.608C418.381 257.608 417.849 257.809 417.407 258.209C416.964 258.599 416.701 259.131 416.616 259.805H421.436ZM428.25 265.083C427.565 265.083 426.949 264.962 426.401 264.719C425.864 264.467 425.437 264.129 425.121 263.708C424.805 263.276 424.636 262.797 424.615 262.27H426.48C426.512 262.639 426.685 262.95 427.001 263.202C427.328 263.445 427.734 263.566 428.218 263.566C428.724 263.566 429.114 263.471 429.387 263.281C429.672 263.081 429.814 262.828 429.814 262.523C429.814 262.196 429.656 261.954 429.34 261.796C429.035 261.638 428.545 261.464 427.87 261.275C427.217 261.095 426.685 260.922 426.274 260.753C425.864 260.585 425.505 260.326 425.2 259.979C424.905 259.631 424.757 259.173 424.757 258.604C424.757 258.14 424.894 257.719 425.168 257.34C425.442 256.95 425.832 256.645 426.338 256.423C426.854 256.202 427.444 256.092 428.108 256.092C429.098 256.092 429.893 256.344 430.494 256.85C431.105 257.345 431.431 258.025 431.473 258.888H429.672C429.64 258.499 429.482 258.188 429.198 257.956C428.913 257.724 428.529 257.608 428.044 257.608C427.57 257.608 427.207 257.698 426.954 257.877C426.701 258.056 426.575 258.293 426.575 258.588C426.575 258.82 426.659 259.015 426.828 259.173C426.996 259.331 427.202 259.457 427.444 259.552C427.686 259.636 428.044 259.747 428.518 259.884C429.15 260.053 429.667 260.226 430.067 260.405C430.478 260.574 430.831 260.827 431.126 261.164C431.421 261.501 431.573 261.949 431.584 262.507C431.584 263.002 431.447 263.445 431.173 263.834C430.899 264.224 430.509 264.53 430.004 264.751C429.509 264.972 428.924 265.083 428.25 265.083ZM434.257 265.051C433.931 265.051 433.657 264.941 433.436 264.719C433.214 264.498 433.104 264.224 433.104 263.898C433.104 263.571 433.214 263.297 433.436 263.076C433.657 262.855 433.931 262.744 434.257 262.744C434.573 262.744 434.842 262.855 435.063 263.076C435.284 263.297 435.395 263.571 435.395 263.898C435.395 264.224 435.284 264.498 435.063 264.719C434.842 264.941 434.573 265.051 434.257 265.051Z" fill="#4F4F4F"/>
<path d="M213.301 284.883C213.301 285.441 213.169 285.968 212.906 286.463C212.642 286.958 212.221 287.364 211.641 287.68C211.062 287.985 210.319 288.138 209.413 288.138H207.422V292.594H205.621V281.612H209.413C210.256 281.612 210.967 281.759 211.547 282.054C212.136 282.339 212.574 282.728 212.858 283.223C213.153 283.719 213.301 284.272 213.301 284.883ZM209.413 286.668C210.098 286.668 210.609 286.516 210.946 286.21C211.283 285.894 211.452 285.452 211.452 284.883C211.452 283.682 210.772 283.081 209.413 283.081H207.422V286.668H209.413ZM214.418 288.201C214.418 287.327 214.597 286.552 214.955 285.878C215.324 285.204 215.819 284.683 216.441 284.314C217.073 283.935 217.768 283.745 218.527 283.745C219.211 283.745 219.807 283.882 220.312 284.156C220.829 284.419 221.239 284.751 221.545 285.151V283.887H223.362V292.594H221.545V291.298C221.239 291.709 220.823 292.052 220.297 292.325C219.77 292.599 219.169 292.736 218.495 292.736C217.747 292.736 217.062 292.547 216.441 292.167C215.819 291.778 215.324 291.24 214.955 290.556C214.597 289.86 214.418 289.075 214.418 288.201ZM221.545 288.233C221.545 287.632 221.418 287.111 221.166 286.668C220.923 286.226 220.602 285.889 220.202 285.657C219.801 285.425 219.369 285.309 218.906 285.309C218.442 285.309 218.01 285.425 217.61 285.657C217.21 285.878 216.883 286.21 216.63 286.653C216.388 287.084 216.267 287.601 216.267 288.201C216.267 288.802 216.388 289.328 216.63 289.781C216.883 290.234 217.21 290.582 217.61 290.824C218.021 291.056 218.453 291.172 218.906 291.172C219.369 291.172 219.801 291.056 220.202 290.824C220.602 290.592 220.923 290.255 221.166 289.813C221.418 289.36 221.545 288.833 221.545 288.233ZM233.566 283.887L228.225 296.687H226.36L228.13 292.452L224.701 283.887H226.708L229.157 290.524L231.701 283.887H233.566ZM240.832 291.14H244.545V292.594H239.03V281.612H240.832V291.14ZM245.451 288.201C245.451 287.327 245.63 286.552 245.988 285.878C246.357 285.204 246.852 284.683 247.474 284.314C248.106 283.935 248.801 283.745 249.56 283.745C250.244 283.745 250.84 283.882 251.345 284.156C251.862 284.419 252.272 284.751 252.578 285.151V283.887H254.395V292.594H252.578V291.298C252.272 291.709 251.856 292.052 251.329 292.325C250.803 292.599 250.202 292.736 249.528 292.736C248.78 292.736 248.095 292.547 247.474 292.167C246.852 291.778 246.357 291.24 245.988 290.556C245.63 289.86 245.451 289.075 245.451 288.201ZM252.578 288.233C252.578 287.632 252.451 287.111 252.199 286.668C251.956 286.226 251.635 285.889 251.235 285.657C250.834 285.425 250.402 285.309 249.939 285.309C249.475 285.309 249.043 285.425 248.643 285.657C248.243 285.878 247.916 286.21 247.663 286.653C247.421 287.084 247.3 287.601 247.3 288.201C247.3 288.802 247.421 289.328 247.663 289.781C247.916 290.234 248.243 290.582 248.643 290.824C249.054 291.056 249.486 291.172 249.939 291.172C250.402 291.172 250.834 291.056 251.235 290.824C251.635 290.592 251.956 290.255 252.199 289.813C252.451 289.36 252.578 288.833 252.578 288.233ZM258.863 285.357V290.176C258.863 290.503 258.937 290.74 259.084 290.887C259.242 291.024 259.505 291.093 259.874 291.093H260.98V292.594H259.558C258.747 292.594 258.125 292.404 257.694 292.025C257.262 291.646 257.046 291.03 257.046 290.176V285.357H256.018V283.887H257.046V281.722H258.863V283.887H260.98V285.357H258.863ZM270.621 288.027C270.621 288.354 270.6 288.649 270.557 288.912H263.905C263.957 289.607 264.216 290.166 264.679 290.587C265.143 291.009 265.711 291.219 266.386 291.219C267.355 291.219 268.04 290.814 268.44 290.003H270.384C270.12 290.803 269.641 291.462 268.946 291.978C268.261 292.483 267.408 292.736 266.386 292.736C265.553 292.736 264.806 292.552 264.142 292.183C263.489 291.804 262.972 291.277 262.593 290.603C262.225 289.918 262.04 289.128 262.04 288.233C262.04 287.337 262.219 286.552 262.577 285.878C262.946 285.193 263.457 284.667 264.11 284.298C264.774 283.929 265.532 283.745 266.386 283.745C267.207 283.745 267.94 283.924 268.582 284.282C269.225 284.64 269.725 285.146 270.083 285.799C270.442 286.442 270.621 287.185 270.621 288.027ZM268.74 287.458C268.73 286.795 268.493 286.263 268.029 285.862C267.566 285.462 266.991 285.262 266.307 285.262C265.685 285.262 265.153 285.462 264.711 285.862C264.268 286.252 264.005 286.784 263.921 287.458H268.74ZM274.195 285.151C274.458 284.709 274.806 284.366 275.238 284.124C275.68 283.871 276.202 283.745 276.802 283.745V285.61H276.344C275.638 285.61 275.101 285.789 274.732 286.147C274.374 286.505 274.195 287.127 274.195 288.011V292.594H272.393V283.887H274.195V285.151ZM283.479 282.734C283.153 282.734 282.879 282.623 282.658 282.402C282.436 282.181 282.326 281.907 282.326 281.58C282.326 281.253 282.436 280.98 282.658 280.758C282.879 280.537 283.153 280.427 283.479 280.427C283.795 280.427 284.064 280.537 284.285 280.758C284.507 280.98 284.617 281.253 284.617 281.58C284.617 281.907 284.507 282.181 284.285 282.402C284.064 282.623 283.795 282.734 283.479 282.734ZM284.364 283.887V292.594H282.563V283.887H284.364ZM291.122 283.745C291.807 283.745 292.418 283.887 292.955 284.172C293.503 284.456 293.93 284.877 294.235 285.436C294.541 285.994 294.694 286.668 294.694 287.458V292.594H292.908V287.727C292.908 286.947 292.713 286.352 292.323 285.941C291.934 285.52 291.402 285.309 290.727 285.309C290.053 285.309 289.516 285.52 289.115 285.941C288.726 286.352 288.531 286.947 288.531 287.727V292.594H286.729V283.887H288.531V284.883C288.826 284.525 289.2 284.245 289.653 284.045C290.116 283.845 290.606 283.745 291.122 283.745ZM304.257 292.736C303.572 292.736 302.956 292.615 302.408 292.373C301.871 292.12 301.444 291.783 301.128 291.362C300.812 290.93 300.643 290.45 300.622 289.924H302.487C302.518 290.292 302.692 290.603 303.008 290.856C303.335 291.098 303.74 291.219 304.225 291.219C304.731 291.219 305.12 291.124 305.394 290.935C305.679 290.735 305.821 290.482 305.821 290.176C305.821 289.85 305.663 289.607 305.347 289.449C305.041 289.291 304.552 289.118 303.877 288.928C303.224 288.749 302.692 288.575 302.281 288.407C301.871 288.238 301.512 287.98 301.207 287.632C300.912 287.285 300.764 286.826 300.764 286.257C300.764 285.794 300.901 285.373 301.175 284.993C301.449 284.604 301.839 284.298 302.345 284.077C302.861 283.856 303.451 283.745 304.114 283.745C305.105 283.745 305.9 283.998 306.501 284.503C307.112 284.999 307.438 285.678 307.48 286.542H305.679C305.647 286.152 305.489 285.841 305.205 285.61C304.92 285.378 304.536 285.262 304.051 285.262C303.577 285.262 303.214 285.351 302.961 285.531C302.708 285.71 302.582 285.947 302.582 286.242C302.582 286.473 302.666 286.668 302.834 286.826C303.003 286.984 303.208 287.111 303.451 287.206C303.693 287.29 304.051 287.4 304.525 287.537C305.157 287.706 305.674 287.88 306.074 288.059C306.485 288.227 306.838 288.48 307.133 288.817C307.428 289.154 307.58 289.602 307.591 290.161C307.591 290.656 307.454 291.098 307.18 291.488C306.906 291.878 306.516 292.183 306.011 292.404C305.516 292.626 304.931 292.736 304.257 292.736ZM317.517 288.027C317.517 288.354 317.496 288.649 317.454 288.912H310.801C310.854 289.607 311.112 290.166 311.576 290.587C312.039 291.009 312.608 291.219 313.282 291.219C314.252 291.219 314.936 290.814 315.337 290.003H317.28C317.017 290.803 316.538 291.462 315.842 291.978C315.158 292.483 314.304 292.736 313.282 292.736C312.45 292.736 311.702 292.552 311.039 292.183C310.385 291.804 309.869 291.277 309.49 290.603C309.121 289.918 308.937 289.128 308.937 288.233C308.937 287.337 309.116 286.552 309.474 285.878C309.843 285.193 310.354 284.667 311.007 284.298C311.671 283.929 312.429 283.745 313.282 283.745C314.104 283.745 314.836 283.924 315.479 284.282C316.121 284.64 316.622 285.146 316.98 285.799C317.338 286.442 317.517 287.185 317.517 288.027ZM315.637 287.458C315.626 286.795 315.389 286.263 314.926 285.862C314.462 285.462 313.888 285.262 313.203 285.262C312.582 285.262 312.05 285.462 311.607 285.862C311.165 286.252 310.902 286.784 310.817 287.458H315.637ZM322.656 290.982L325.121 283.887H327.033L323.715 292.594H321.566L318.263 283.887H320.191L322.656 290.982ZM336.375 288.027C336.375 288.354 336.354 288.649 336.312 288.912H329.659C329.712 289.607 329.97 290.166 330.433 290.587C330.897 291.009 331.466 291.219 332.14 291.219C333.109 291.219 333.794 290.814 334.194 290.003H336.138C335.874 290.803 335.395 291.462 334.7 291.978C334.015 292.483 333.162 292.736 332.14 292.736C331.308 292.736 330.56 292.552 329.896 292.183C329.243 291.804 328.727 291.277 328.347 290.603C327.979 289.918 327.794 289.128 327.794 288.233C327.794 287.337 327.973 286.552 328.332 285.878C328.7 285.193 329.211 284.667 329.864 284.298C330.528 283.929 331.287 283.745 332.14 283.745C332.962 283.745 333.694 283.924 334.336 284.282C334.979 284.64 335.479 285.146 335.838 285.799C336.196 286.442 336.375 287.185 336.375 288.027ZM334.494 287.458C334.484 286.795 334.247 286.263 333.783 285.862C333.32 285.462 332.746 285.262 332.061 285.262C331.439 285.262 330.907 285.462 330.465 285.862C330.022 286.252 329.759 286.784 329.675 287.458H334.494ZM339.949 285.151C340.212 284.709 340.56 284.366 340.992 284.124C341.434 283.871 341.956 283.745 342.556 283.745V285.61H342.098C341.392 285.61 340.855 285.789 340.486 286.147C340.128 286.505 339.949 287.127 339.949 288.011V292.594H338.148V283.887H339.949V285.151ZM343.612 288.201C343.612 287.327 343.791 286.552 344.149 285.878C344.518 285.204 345.013 284.683 345.634 284.314C346.266 283.935 346.962 283.745 347.72 283.745C348.405 283.745 349 283.882 349.506 284.156C350.022 284.419 350.433 284.751 350.738 285.151V283.887H352.556V292.594H350.738V291.298C350.433 291.709 350.017 292.052 349.49 292.325C348.963 292.599 348.363 292.736 347.689 292.736C346.941 292.736 346.256 292.547 345.634 292.167C345.013 291.778 344.518 291.24 344.149 290.556C343.791 289.86 343.612 289.075 343.612 288.201ZM350.738 288.233C350.738 287.632 350.612 287.111 350.359 286.668C350.117 286.226 349.796 285.889 349.395 285.657C348.995 285.425 348.563 285.309 348.099 285.309C347.636 285.309 347.204 285.425 346.804 285.657C346.403 285.878 346.077 286.21 345.824 286.653C345.582 287.084 345.461 287.601 345.461 288.201C345.461 288.802 345.582 289.328 345.824 289.781C346.077 290.234 346.403 290.582 346.804 290.824C347.215 291.056 347.646 291.172 348.099 291.172C348.563 291.172 348.995 291.056 349.395 290.824C349.796 290.592 350.117 290.255 350.359 289.813C350.612 289.36 350.738 288.833 350.738 288.233ZM356.723 280.901V292.594H354.922V280.901H356.723ZM373.733 283.745C374.418 283.745 375.029 283.887 375.566 284.172C376.114 284.456 376.54 284.877 376.846 285.436C377.162 285.994 377.32 286.668 377.32 287.458V292.594H375.534V287.727C375.534 286.947 375.34 286.352 374.95 285.941C374.56 285.52 374.028 285.309 373.354 285.309C372.68 285.309 372.142 285.52 371.742 285.941C371.352 286.352 371.157 286.947 371.157 287.727V292.594H369.372V287.727C369.372 286.947 369.177 286.352 368.787 285.941C368.397 285.52 367.865 285.309 367.191 285.309C366.517 285.309 365.979 285.52 365.579 285.941C365.189 286.352 364.995 286.947 364.995 287.727V292.594H363.193V283.887H364.995V284.883C365.289 284.525 365.663 284.245 366.116 284.045C366.569 283.845 367.054 283.745 367.57 283.745C368.266 283.745 368.887 283.892 369.435 284.187C369.983 284.482 370.404 284.909 370.699 285.467C370.962 284.941 371.373 284.525 371.932 284.219C372.49 283.903 373.09 283.745 373.733 283.745ZM383.389 292.736C382.567 292.736 381.825 292.552 381.161 292.183C380.497 291.804 379.976 291.277 379.597 290.603C379.217 289.918 379.028 289.128 379.028 288.233C379.028 287.348 379.223 286.563 379.612 285.878C380.002 285.193 380.534 284.667 381.208 284.298C381.883 283.929 382.636 283.745 383.468 283.745C384.3 283.745 385.053 283.929 385.728 284.298C386.402 284.667 386.934 285.193 387.324 285.878C387.713 286.563 387.908 287.348 387.908 288.233C387.908 289.118 387.708 289.902 387.308 290.587C386.908 291.272 386.36 291.804 385.664 292.183C384.98 292.552 384.221 292.736 383.389 292.736ZM383.389 291.172C383.853 291.172 384.284 291.061 384.685 290.84C385.096 290.619 385.427 290.287 385.68 289.845C385.933 289.402 386.06 288.865 386.06 288.233C386.06 287.601 385.938 287.069 385.696 286.637C385.454 286.194 385.132 285.862 384.732 285.641C384.332 285.42 383.9 285.309 383.436 285.309C382.973 285.309 382.541 285.42 382.141 285.641C381.751 285.862 381.44 286.194 381.208 286.637C380.977 287.069 380.861 287.601 380.861 288.233C380.861 289.17 381.098 289.897 381.572 290.413C382.056 290.919 382.662 291.172 383.389 291.172ZM394.082 283.745C394.767 283.745 395.378 283.887 395.915 284.172C396.463 284.456 396.89 284.877 397.195 285.436C397.501 285.994 397.653 286.668 397.653 287.458V292.594H395.868V287.727C395.868 286.947 395.673 286.352 395.283 285.941C394.893 285.52 394.361 285.309 393.687 285.309C393.013 285.309 392.476 285.52 392.075 285.941C391.685 286.352 391.491 286.947 391.491 287.727V292.594H389.689V283.887H391.491V284.883C391.786 284.525 392.16 284.245 392.613 284.045C393.076 283.845 393.566 283.745 394.082 283.745ZM402.053 285.357V290.176C402.053 290.503 402.127 290.74 402.274 290.887C402.432 291.024 402.695 291.093 403.064 291.093H404.17V292.594H402.748C401.937 292.594 401.315 292.404 400.884 292.025C400.452 291.646 400.236 291.03 400.236 290.176V285.357H399.209V283.887H400.236V281.722H402.053V283.887H404.17V285.357H402.053ZM410.334 283.745C410.998 283.745 411.588 283.887 412.104 284.172C412.631 284.456 413.042 284.877 413.337 285.436C413.642 285.994 413.795 286.668 413.795 287.458V292.594H412.009V287.727C412.009 286.947 411.814 286.352 411.425 285.941C411.035 285.52 410.503 285.309 409.829 285.309C409.154 285.309 408.617 285.52 408.217 285.941C407.827 286.352 407.632 286.947 407.632 287.727V292.594H405.831V280.901H407.632V284.898C407.938 284.53 408.322 284.245 408.786 284.045C409.26 283.845 409.776 283.745 410.334 283.745ZM419.253 292.736C418.568 292.736 417.952 292.615 417.404 292.373C416.867 292.12 416.44 291.783 416.124 291.362C415.808 290.93 415.64 290.45 415.619 289.924H417.483C417.515 290.292 417.689 290.603 418.005 290.856C418.331 291.098 418.737 291.219 419.221 291.219C419.727 291.219 420.117 291.124 420.391 290.935C420.675 290.735 420.817 290.482 420.817 290.176C420.817 289.85 420.659 289.607 420.343 289.449C420.038 289.291 419.548 289.118 418.874 288.928C418.221 288.749 417.689 288.575 417.278 288.407C416.867 288.238 416.509 287.98 416.203 287.632C415.908 287.285 415.761 286.826 415.761 286.257C415.761 285.794 415.898 285.373 416.172 284.993C416.446 284.604 416.835 284.298 417.341 284.077C417.857 283.856 418.447 283.745 419.111 283.745C420.101 283.745 420.896 283.998 421.497 284.503C422.108 284.999 422.435 285.678 422.477 286.542H420.675C420.644 286.152 420.486 285.841 420.201 285.61C419.917 285.378 419.532 285.262 419.048 285.262C418.574 285.262 418.21 285.351 417.957 285.531C417.704 285.71 417.578 285.947 417.578 286.242C417.578 286.473 417.662 286.668 417.831 286.826C417.999 286.984 418.205 287.111 418.447 287.206C418.689 287.29 419.048 287.4 419.522 287.537C420.154 287.706 420.67 287.88 421.07 288.059C421.481 288.227 421.834 288.48 422.129 288.817C422.424 289.154 422.577 289.602 422.587 290.161C422.587 290.656 422.45 291.098 422.176 291.488C421.903 291.878 421.513 292.183 421.007 292.404C420.512 292.626 419.927 292.736 419.253 292.736ZM425.261 292.705C424.934 292.705 424.66 292.594 424.439 292.373C424.218 292.152 424.107 291.878 424.107 291.551C424.107 291.225 424.218 290.951 424.439 290.729C424.66 290.508 424.934 290.398 425.261 290.398C425.577 290.398 425.845 290.508 426.067 290.729C426.288 290.951 426.398 291.225 426.398 291.551C426.398 291.878 426.288 292.152 426.067 292.373C425.845 292.594 425.577 292.705 425.261 292.705Z" fill="#4F4F4F"/>
<rect x="95.1386" y="347.02" width="221.228" height="46.0891" rx="6.58416" fill="#4F4F4F"/>
<path d="M189.856 374.524H185.257L184.467 376.768H182.587L186.521 365.77H188.607L192.542 376.768H190.646L189.856 374.524ZM189.35 373.054L187.564 367.95L185.763 373.054H189.35ZM196.054 369.341C196.36 368.941 196.776 368.604 197.303 368.33C197.829 368.056 198.425 367.919 199.088 367.919C199.847 367.919 200.537 368.108 201.158 368.488C201.79 368.856 202.286 369.378 202.644 370.052C203.002 370.726 203.181 371.501 203.181 372.375C203.181 373.249 203.002 374.034 202.644 374.729C202.286 375.414 201.79 375.952 201.158 376.341C200.537 376.721 199.847 376.91 199.088 376.91C198.425 376.91 197.835 376.778 197.318 376.515C196.802 376.241 196.381 375.904 196.054 375.504V380.908H194.253V368.061H196.054V369.341ZM201.348 372.375C201.348 371.775 201.222 371.258 200.969 370.826C200.726 370.384 200.4 370.052 199.989 369.831C199.589 369.599 199.157 369.483 198.693 369.483C198.24 369.483 197.808 369.599 197.397 369.831C196.997 370.063 196.671 370.4 196.418 370.842C196.175 371.285 196.054 371.806 196.054 372.407C196.054 373.007 196.175 373.534 196.418 373.987C196.671 374.429 196.997 374.766 197.397 374.998C197.808 375.23 198.24 375.346 198.693 375.346C199.157 375.346 199.589 375.23 199.989 374.998C200.4 374.756 200.726 374.408 200.969 373.955C201.222 373.502 201.348 372.975 201.348 372.375ZM206.764 369.341C207.069 368.941 207.485 368.604 208.012 368.33C208.539 368.056 209.134 367.919 209.798 367.919C210.556 367.919 211.246 368.108 211.868 368.488C212.5 368.856 212.995 369.378 213.353 370.052C213.711 370.726 213.89 371.501 213.89 372.375C213.89 373.249 213.711 374.034 213.353 374.729C212.995 375.414 212.5 375.952 211.868 376.341C211.246 376.721 210.556 376.91 209.798 376.91C209.134 376.91 208.544 376.778 208.028 376.515C207.512 376.241 207.09 375.904 206.764 375.504V380.908H204.962V368.061H206.764V369.341ZM212.057 372.375C212.057 371.775 211.931 371.258 211.678 370.826C211.436 370.384 211.109 370.052 210.698 369.831C210.298 369.599 209.866 369.483 209.403 369.483C208.95 369.483 208.518 369.599 208.107 369.831C207.707 370.063 207.38 370.4 207.127 370.842C206.885 371.285 206.764 371.806 206.764 372.407C206.764 373.007 206.885 373.534 207.127 373.987C207.38 374.429 207.707 374.766 208.107 374.998C208.518 375.23 208.95 375.346 209.403 375.346C209.866 375.346 210.298 375.23 210.698 374.998C211.109 374.756 211.436 374.408 211.678 373.955C211.931 373.502 212.057 372.975 212.057 372.375ZM217.473 365.074V376.768H215.672V365.074H217.473ZM227.676 368.061L222.335 380.861H220.471L222.24 376.626L218.811 368.061H220.818L223.267 374.698L225.812 368.061H227.676Z" fill="white"/>
<defs>
<filter id="filter0_d" x="0.326733" y="0.693069" width="408.218" height="499.079" filterUnits="userSpaceOnUse" color-interpolation-filters="sRGB">
<feFlood flood-opacity="0" result="BackgroundImageFix"/>
<feColorMatrix in="SourceAlpha" type="matrix" values="0 0 0 0 0 0 0 0 0 0 0 0 0 0 0 0 0 0 127 0"/>
<feOffset dy="-2.63366"/>
<feGaussianBlur stdDeviation="26.3366"/>
<feColorMatrix type="matrix" values="0 0 0 0 0 0 0 0 0 0 0 0 0 0 0 0 0 0 0.1 0"/>
<feBlend mode="normal" in2="BackgroundImageFix" result="effect1_dropShadow"/>
<feBlend mode="normal" in="SourceGraphic" in2="effect1_dropShadow" result="shape"/>
</filter>
<filter id="filter1_d" x="153.079" y="185.05" width="331.842" height="173.822" filterUnits="userSpaceOnUse" color-interpolation-filters="sRGB">
<feFlood flood-opacity="0" result="BackgroundImageFix"/>
<feColorMatrix in="SourceAlpha" type="matrix" values="0 0 0 0 0 0 0 0 0 0 0 0 0 0 0 0 0 0 127 0"/>
<feOffset dy="13.1683"/>
<feGaussianBlur stdDeviation="16.4604"/>
<feColorMatrix type="matrix" values="0 0 0 0 0 0 0 0 0 0 0 0 0 0 0 0 0 0 0.15 0"/>
<feBlend mode="normal" in2="BackgroundImageFix" result="effect1_dropShadow"/>
<feBlend mode="normal" in="SourceGraphic" in2="effect1_dropShadow" result="shape"/>
</filter>
</defs>
</svg>
