<svg width="110" height="110" viewBox="0 0 110 110" fill="none" xmlns="http://www.w3.org/2000/svg">
<g opacity="0.3" filter="url(#filter0_d)">
<rect x="25" y="15" width="60" height="60" rx="5" fill="#F0648C"/>
</g>
<path d="M109.023 69.057C109.023 68.2753 108.792 67.5111 108.357 66.8611C107.923 66.211 107.306 65.7044 106.584 65.4053C105.862 65.1062 105.067 65.028 104.3 65.1807C103.534 65.3334 102.83 65.71 102.277 66.263L98.567 69.973V39H64.223L55 48.224V93.024H98.567V81.15L107.867 71.85C108.235 71.4839 108.527 71.0485 108.725 70.5689C108.924 70.0893 109.025 69.5751 109.024 69.056L109.023 69.057ZM87.673 84.2L89.94 86.467L86.766 87.393L87.673 84.2ZM91.6 85.655L90.655 84.71L103.095 72.269L104.041 73.215L91.6 85.655ZM89.422 83.477L88.476 82.531L100.914 70.09L101.86 71.036L89.422 83.477ZM63.722 41.977V47.714H57.974L63.722 41.977ZM96.825 91.281H56.742V49.456H65.456V40.743H96.825V71.715L86.463 82.076L84.228 89.946L92.054 87.663L96.824 82.893L96.825 91.281ZM106.635 70.619L105.27 71.983L102.145 68.858L103.509 67.494C103.923 67.0796 104.486 66.8468 105.072 66.8468C105.658 66.8468 106.22 67.0796 106.634 67.494C107.048 67.9084 107.281 68.4705 107.281 69.0565C107.281 69.6426 107.048 70.2046 106.634 70.619H106.635Z" fill="#F0648C"/>
<path d="M72.6531 75.011L68.9031 79.137C67.8142 78.0451 66.3524 77.4056 64.8115 77.3472C63.2705 77.2888 61.7645 77.8156 60.5961 78.822C59.4276 79.8283 58.6833 81.2395 58.5126 82.7721C58.3419 84.3047 58.7576 85.8451 59.676 87.0838C60.5944 88.3226 61.9476 89.1679 63.4636 89.4499C64.9797 89.7319 66.5463 89.4297 67.8487 88.6041C69.1511 87.7785 70.0929 86.4906 70.4847 84.9991C70.8766 83.5077 70.6895 81.9232 69.9611 80.564L73.9431 76.183L72.6531 75.011ZM68.9411 83.439C68.9467 84.4577 68.5972 85.4465 67.9527 86.2353C67.3081 87.0241 66.4089 87.5637 65.4095 87.7612C64.4102 87.9587 63.3732 87.8018 62.4771 87.3174C61.5809 86.8331 60.8816 86.0516 60.4993 85.1074C60.117 84.1631 60.0757 83.1152 60.3825 82.1439C60.6893 81.1725 61.325 80.3384 62.1803 79.785C63.0356 79.2317 64.057 78.9937 65.0687 79.1119C66.0805 79.2302 67.0195 79.6973 67.7241 80.433L64.4441 84.041L62.4541 82.715L61.4851 84.165L64.7231 86.324L68.6701 81.982C68.8426 82.4486 68.9333 82.9416 68.9381 83.439H68.9411Z" fill="#F0648C"/>
<path d="M68.9031 63.452C67.8142 62.3601 66.3524 61.7206 64.8115 61.6622C63.2705 61.6037 61.7645 62.1306 60.5961 63.1369C59.4276 64.1433 58.6833 65.5545 58.5126 67.0871C58.3419 68.6197 58.7576 70.1601 59.676 71.3988C60.5944 72.6375 61.9476 73.4828 63.4636 73.7648C64.9797 74.0469 66.5463 73.7446 67.8487 72.919C69.1511 72.0934 70.0929 70.8055 70.4847 69.3141C70.8766 67.8226 70.6895 66.2382 69.9611 64.879L73.9431 60.498L72.6531 59.325L68.9031 63.452ZM68.9411 67.752C68.9467 68.7706 68.5972 69.7594 67.9527 70.5483C67.3081 71.3371 66.4089 71.8767 65.4095 72.0742C64.4102 72.2717 63.3732 72.1147 62.4771 71.6304C61.5809 71.146 60.8816 70.3646 60.4993 69.4203C60.117 68.4761 60.0757 67.4282 60.3825 66.4568C60.6893 65.4855 61.325 64.6514 62.1803 64.0979C63.0356 63.5447 64.057 63.3066 65.0687 63.4249C66.0805 63.5432 67.0195 64.0103 67.7241 64.746L64.4441 68.354L62.4541 67.028L61.4851 68.4799L64.7231 70.639L68.6701 66.297C68.8426 66.7636 68.9333 67.2565 68.9381 67.754L68.9411 67.752Z" fill="#F0648C"/>
<path d="M93.3394 66.8831H95.0824V68.6261H93.3394V66.8831Z" fill="#F0648C"/>
<path d="M74.1694 66.8831H91.5964V68.6261H74.1694V66.8831Z" fill="#F0648C"/>
<path d="M74.1694 63.3979H95.0824V65.1409H74.1694V63.3979Z" fill="#F0648C"/>
<path d="M74.1694 70.3691H95.0824V72.1121H74.1694V70.3691Z" fill="#F0648C"/>
<path d="M74.1694 82.5681H83.7544V84.3111H74.1694V82.5681Z" fill="#F0648C"/>
<path d="M74.1694 86.053H83.7544V87.796H74.1694V86.053Z" fill="#F0648C"/>
<path d="M74.1694 79.082H83.7544V80.825H74.1694V79.082Z" fill="#F0648C"/>
<path d="M71.5552 58.1701H90.7252C91.8803 58.1688 92.9878 57.7093 93.8046 56.8925C94.6214 56.0757 95.0809 54.9682 95.0822 53.8131V46.8431C95.0809 45.688 94.6214 44.5805 93.8046 43.7637C92.9878 42.9469 91.8803 42.4874 90.7252 42.4861H71.5552C70.4001 42.4874 69.2926 42.9469 68.4758 43.7637C67.659 44.5805 67.1995 45.688 67.1982 46.8431V53.8141C67.1998 54.9691 67.6594 56.0763 68.4762 56.8929C69.2929 57.7094 70.4002 58.1688 71.5552 58.1701ZM68.9412 46.8421C68.942 46.1491 69.2177 45.4846 69.7077 44.9946C70.1978 44.5045 70.8622 44.2289 71.5552 44.2281H90.7252C91.4182 44.2289 92.0827 44.5045 92.5727 44.9946C93.0628 45.4846 93.3384 46.1491 93.3392 46.8421V53.8131C93.3384 54.5061 93.0628 55.1706 92.5727 55.6606C92.0827 56.1506 91.4182 56.4263 90.7252 56.4271H71.5552C70.8622 56.4263 70.1978 56.1506 69.7077 55.6606C69.2177 55.1706 68.942 54.5061 68.9412 53.8131V46.8421Z" fill="#F0648C"/>
<path d="M91.5962 47.7141H86.3682V52.9421H91.5962V47.7141ZM89.8531 51.1991H88.1102V49.4571H89.8531V51.1991Z" fill="#F0648C"/>
<path d="M83.7544 47.7141H78.5264V52.9421H83.7544V47.7141ZM82.0114 51.1991H80.2684V49.4571H82.0114V51.1991Z" fill="#F0648C"/>
<path d="M75.9121 47.7141H70.6841V52.9421H75.9121V47.7141ZM74.1691 51.1991H72.4261V49.4571H74.1691V51.1991Z" fill="#F0648C"/>
<defs>
<filter id="filter0_d" x="0" y="0" width="110" height="110" filterUnits="userSpaceOnUse" color-interpolation-filters="sRGB">
<feFlood flood-opacity="0" result="BackgroundImageFix"/>
<feColorMatrix in="SourceAlpha" type="matrix" values="0 0 0 0 0 0 0 0 0 0 0 0 0 0 0 0 0 0 127 0"/>
<feOffset dy="10"/>
<feGaussianBlur stdDeviation="12.5"/>
<feColorMatrix type="matrix" values="0 0 0 0 0 0 0 0 0 0 0 0 0 0 0 0 0 0 0.15 0"/>
<feBlend mode="normal" in2="BackgroundImageFix" result="effect1_dropShadow"/>
<feBlend mode="normal" in="SourceGraphic" in2="effect1_dropShadow" result="shape"/>
</filter>
</defs>
</svg>
