<svg width="370" height="360" viewBox="0 0 370 360" fill="none" xmlns="http://www.w3.org/2000/svg">
<rect width="370" height="360" fill="url(#paint0_linear)"/>
<path d="M147.154 192.375H158.389V194H145.217V171.25H147.154V192.375ZM174.246 194C174.059 193.469 173.939 192.682 173.887 191.641C173.231 192.495 172.392 193.156 171.371 193.625C170.361 194.083 169.288 194.312 168.152 194.312C166.527 194.312 165.21 193.859 164.199 192.953C163.199 192.047 162.699 190.901 162.699 189.516C162.699 187.87 163.382 186.568 164.746 185.609C166.121 184.651 168.033 184.172 170.481 184.172H173.871V182.25C173.871 181.042 173.496 180.094 172.746 179.406C172.007 178.708 170.923 178.359 169.496 178.359C168.194 178.359 167.116 178.693 166.262 179.359C165.408 180.026 164.981 180.828 164.981 181.766L163.106 181.75C163.106 180.406 163.731 179.245 164.981 178.266C166.231 177.276 167.767 176.781 169.59 176.781C171.475 176.781 172.96 177.255 174.043 178.203C175.137 179.141 175.699 180.453 175.731 182.141V190.141C175.731 191.776 175.902 193 176.246 193.812V194H174.246ZM168.371 192.656C169.621 192.656 170.736 192.354 171.715 191.75C172.705 191.146 173.423 190.339 173.871 189.328V185.609H170.527C168.663 185.63 167.205 185.974 166.152 186.641C165.1 187.297 164.574 188.203 164.574 189.359C164.574 190.307 164.923 191.094 165.621 191.719C166.33 192.344 167.246 192.656 168.371 192.656ZM196.26 185.719C196.26 188.354 195.677 190.448 194.51 192C193.343 193.542 191.776 194.312 189.807 194.312C187.453 194.312 185.671 193.438 184.463 191.688L184.385 194H182.635V170H184.494V179.547C185.682 177.703 187.442 176.781 189.776 176.781C191.776 176.781 193.354 177.547 194.51 179.078C195.677 180.599 196.26 182.719 196.26 185.438V185.719ZM194.385 185.391C194.385 183.161 193.953 181.443 193.088 180.234C192.223 179.016 191.005 178.406 189.432 178.406C188.234 178.406 187.218 178.703 186.385 179.297C185.552 179.88 184.921 180.74 184.494 181.875V189.5C185.432 191.625 187.088 192.688 189.463 192.688C191.005 192.688 192.208 192.078 193.072 190.859C193.947 189.641 194.385 187.818 194.385 185.391ZM212.992 194C212.805 193.469 212.685 192.682 212.633 191.641C211.977 192.495 211.138 193.156 210.117 193.625C209.107 194.083 208.034 194.312 206.899 194.312C205.274 194.312 203.956 193.859 202.946 192.953C201.946 192.047 201.446 190.901 201.446 189.516C201.446 187.87 202.128 186.568 203.492 185.609C204.867 184.651 206.779 184.172 209.227 184.172H212.617V182.25C212.617 181.042 212.242 180.094 211.492 179.406C210.753 178.708 209.67 178.359 208.242 178.359C206.94 178.359 205.862 178.693 205.008 179.359C204.154 180.026 203.727 180.828 203.727 181.766L201.852 181.75C201.852 180.406 202.477 179.245 203.727 178.266C204.977 177.276 206.513 176.781 208.336 176.781C210.222 176.781 211.706 177.255 212.789 178.203C213.883 179.141 214.446 180.453 214.477 182.141V190.141C214.477 191.776 214.649 193 214.992 193.812V194H212.992ZM207.117 192.656C208.367 192.656 209.482 192.354 210.461 191.75C211.451 191.146 212.17 190.339 212.617 189.328V185.609H209.274C207.409 185.63 205.951 185.974 204.899 186.641C203.847 187.297 203.321 188.203 203.321 189.359C203.321 190.307 203.67 191.094 204.367 191.719C205.076 192.344 205.992 192.656 207.117 192.656ZM223.491 194H221.616V170H223.491V194ZM241.176 194C240.989 193.469 240.869 192.682 240.817 191.641C240.161 192.495 239.322 193.156 238.301 193.625C237.291 194.083 236.218 194.312 235.082 194.312C233.457 194.312 232.14 193.859 231.129 192.953C230.129 192.047 229.629 190.901 229.629 189.516C229.629 187.87 230.312 186.568 231.676 185.609C233.051 184.651 234.963 184.172 237.411 184.172H240.801V182.25C240.801 181.042 240.426 180.094 239.676 179.406C238.937 178.708 237.853 178.359 236.426 178.359C235.124 178.359 234.046 178.693 233.192 179.359C232.338 180.026 231.911 180.828 231.911 181.766L230.036 181.75C230.036 180.406 230.661 179.245 231.911 178.266C233.161 177.276 234.697 176.781 236.52 176.781C238.405 176.781 239.89 177.255 240.973 178.203C242.067 179.141 242.629 180.453 242.661 182.141V190.141C242.661 191.776 242.832 193 243.176 193.812V194H241.176ZM235.301 192.656C236.551 192.656 237.666 192.354 238.645 191.75C239.635 191.146 240.353 190.339 240.801 189.328V185.609H237.457C235.593 185.63 234.135 185.974 233.082 186.641C232.03 187.297 231.504 188.203 231.504 189.359C231.504 190.307 231.853 191.094 232.551 191.719C233.26 192.344 234.176 192.656 235.301 192.656ZM263.19 185.719C263.19 188.354 262.607 190.448 261.44 192C260.273 193.542 258.706 194.312 256.737 194.312C254.383 194.312 252.601 193.438 251.393 191.688L251.315 194H249.565V170H251.424V179.547C252.612 177.703 254.372 176.781 256.706 176.781C258.706 176.781 260.284 177.547 261.44 179.078C262.607 180.599 263.19 182.719 263.19 185.438V185.719ZM261.315 185.391C261.315 183.161 260.883 181.443 260.018 180.234C259.153 179.016 257.935 178.406 256.362 178.406C255.164 178.406 254.148 178.703 253.315 179.297C252.482 179.88 251.851 180.74 251.424 181.875V189.5C252.362 191.625 254.018 192.688 256.393 192.688C257.935 192.688 259.138 192.078 260.002 190.859C260.877 189.641 261.315 187.818 261.315 185.391ZM279.922 194C279.735 193.469 279.615 192.682 279.563 191.641C278.907 192.495 278.068 193.156 277.047 193.625C276.037 194.083 274.964 194.312 273.829 194.312C272.204 194.312 270.886 193.859 269.876 192.953C268.876 192.047 268.376 190.901 268.376 189.516C268.376 187.87 269.058 186.568 270.422 185.609C271.797 184.651 273.709 184.172 276.157 184.172H279.547V182.25C279.547 181.042 279.172 180.094 278.422 179.406C277.683 178.708 276.6 178.359 275.172 178.359C273.87 178.359 272.792 178.693 271.938 179.359C271.084 180.026 270.657 180.828 270.657 181.766L268.782 181.75C268.782 180.406 269.407 179.245 270.657 178.266C271.907 177.276 273.443 176.781 275.266 176.781C277.152 176.781 278.636 177.255 279.719 178.203C280.813 179.141 281.376 180.453 281.407 182.141V190.141C281.407 191.776 281.579 193 281.922 193.812V194H279.922ZM274.047 192.656C275.297 192.656 276.412 192.354 277.391 191.75C278.381 191.146 279.1 190.339 279.547 189.328V185.609H276.204C274.339 185.63 272.881 185.974 271.829 186.641C270.777 187.297 270.251 188.203 270.251 189.359C270.251 190.307 270.6 191.094 271.297 191.719C272.006 192.344 272.922 192.656 274.047 192.656Z" fill="white"/>
<path d="M92.8588 165.228C97.6835 163.977 102.127 169.73 103.301 172.3C100.81 174.551 99.0942 176.353 93.202 176.118C87.3098 175.882 85.5492 170.865 85.5492 170.865C85.5492 170.865 88.0341 166.48 92.8588 165.228Z" fill="white"/>
<path d="M123.596 165.228C118.772 163.977 114.328 169.73 113.154 172.3C115.645 174.551 117.361 176.353 123.253 176.118C129.145 175.882 130.906 170.865 130.906 170.865C130.906 170.865 128.421 166.48 123.596 165.228Z" fill="white"/>
<path d="M106.762 176.242C107.799 183.617 105.994 191.431 103.384 194.809C100.044 199.133 99.0939 200.293 99.0939 200.293C99.0939 200.293 99.0648 200.166 99.0152 199.936C98.617 198.081 96.9016 189.465 98.4074 185.173C100.348 179.641 104.31 176.745 106.762 176.242C106.984 176.196 107.194 176.17 107.389 176.164C108.15 176.138 108.965 176.171 109.792 176.325C111.512 176.646 113.281 177.496 114.711 179.454C116.828 182.353 118.658 185.721 118.544 191.754C118.452 196.579 117.667 199.3 117.285 200.058C115.15 198.282 110.695 193.352 109.963 187.836C109.521 184.506 109.279 180.372 109.792 176.325C108.965 176.171 108.15 176.138 107.389 176.164C107.194 176.17 106.984 176.196 106.762 176.242Z" fill="white"/>
<path d="M86.623 162.924C88.7778 160.731 94.7463 157.973 101.382 164.491C109.677 172.638 107.56 189.403 103.384 194.809C100.044 199.133 99.0939 200.293 99.0939 200.293M99.0939 200.293C99.0939 200.293 99.0648 200.166 99.0152 199.936M99.0939 200.293L99.0152 199.936M130.042 162.776C129.642 162.15 127.354 160.966 127.125 160.966C124.894 160.261 119.288 160.026 114.711 164.726C108.991 170.602 109.048 180.943 109.963 187.836C110.695 193.352 115.15 198.282 117.285 200.058C117.667 199.3 118.452 196.579 118.544 191.754C118.658 185.721 116.828 182.353 114.711 179.454C112.594 176.556 109.734 176.085 107.389 176.164C105.043 176.242 100.524 179.141 98.4074 185.173C96.9016 189.465 98.617 198.081 99.0152 199.936" stroke="white" stroke-width="0.416476" stroke-linecap="round" stroke-linejoin="round"/>
<defs>
<linearGradient id="paint0_linear" x1="324.264" y1="16.2" x2="84.048" y2="260.896" gradientUnits="userSpaceOnUse">
<stop stop-color="#127CB4"/>
<stop offset="1" stop-color="#145B7F"/>
</linearGradient>
</defs>
</svg>
