<svg width="122" height="122" viewBox="0 0 122 122" fill="none" xmlns="http://www.w3.org/2000/svg">
<g style="mix-blend-mode:luminosity" opacity="0.3">
<path d="M7.67087 23.9314H53.6294V103.625H7.67087C4.43359 103.625 1.8125 101.001 1.8125 97.7641V29.7898C1.8125 26.5525 4.43359 23.9314 7.67087 23.9314Z" fill="#B4E7FD"/>
<path d="M120.188 29.7898V97.7641C120.188 101.001 117.565 103.625 114.329 103.625H61V23.9314H114.329C117.565 23.9314 120.188 26.5525 120.188 29.7898Z" fill="#B4E7FD"/>
<path d="M90.5704 12.1226H31.4283C27.344 12.1226 24.0332 15.4334 24.0332 19.5177V108.036C24.0332 112.121 27.344 115.432 31.4283 115.432H90.5704C94.6547 115.432 97.9665 112.121 97.9665 108.036V19.5177C97.9665 15.4334 94.6547 12.1226 90.5704 12.1226Z" fill="#E1EBF0"/>
<path d="M89.2771 34.8561C89.2771 50.4738 76.6166 63.1343 60.9989 63.1343C45.3813 63.1343 32.7207 50.4738 32.7207 34.8561C32.7207 19.2384 45.3813 6.57788 60.9989 6.57788C76.6166 6.57788 89.2771 19.2384 89.2771 34.8561Z" fill="#259DD9"/>
<path d="M79.9708 55.8267C74.953 60.368 68.2997 63.1343 60.9986 63.1343C53.7003 63.1343 47.0452 60.368 42.0273 55.8295C45.1343 48.4176 52.4587 43.2136 60.9986 43.2136C69.5358 43.2136 76.8611 48.4176 79.9708 55.8267Z" fill="#B4E7FD"/>
<path d="M73.8528 30.3566C73.8528 37.4557 68.0978 43.2108 60.9987 43.2108C53.8996 43.2108 48.1445 37.4557 48.1445 30.3566C48.1445 23.2585 53.8996 17.5034 60.9987 17.5034C68.0978 17.5034 73.8528 23.2585 73.8528 30.3566Z" fill="#B4E7FD"/>
<path d="M120.188 45.9874C121.189 45.9874 122 45.1757 122 44.1751V29.7917C122 25.5612 118.558 22.1192 114.328 22.1192H99.7766V19.5177C99.7766 14.4411 95.6467 10.3112 90.5701 10.3112H78.3871C73.4735 6.81987 67.4718 4.76562 60.9991 4.76562C54.5264 4.76562 48.5247 6.81987 43.6111 10.3112H31.428C26.3515 10.3112 22.2207 14.4411 22.2207 19.5177V22.1192H7.66968C3.44019 22.1192 0 25.5603 0 29.7898V97.767C0 101.996 3.44019 105.437 7.66968 105.437H22.2207V108.036C22.2207 113.113 26.3515 117.243 31.4271 117.243H90.5692C95.6467 117.243 99.7766 113.113 99.7766 108.036V105.437H114.328C118.558 105.437 122 101.995 122 97.7642V51.4231C122 50.4225 121.188 49.6109 120.188 49.6109C119.187 49.6109 118.376 50.4225 118.376 51.4231V97.7651C118.376 99.9971 116.56 101.813 114.328 101.813H99.7766V86.8349H109.832C110.832 86.8349 111.643 86.0242 111.643 85.0236C111.643 84.023 110.832 83.2113 109.832 83.2113H99.7766V78.6403H109.832C110.832 78.6403 111.643 77.8295 111.643 76.8289C111.643 75.8284 110.832 75.0167 109.832 75.0167H99.7766V70.7314H109.832C110.832 70.7314 111.643 69.9197 111.643 68.9191C111.643 67.9185 110.832 67.1078 109.832 67.1078H99.7766V25.7437H114.328C116.56 25.7437 118.376 27.5596 118.376 29.7917V44.1751C118.376 45.1757 119.187 45.9874 120.188 45.9874ZM87.466 34.8561C87.466 41.7513 84.8142 48.0388 80.4786 52.7532C77.8472 48.0965 73.6773 44.5977 68.7693 42.7873C72.9066 40.1913 75.6645 35.5914 75.6645 30.3567C75.6645 22.27 69.0857 15.6912 60.9991 15.6912C52.9124 15.6912 46.3336 22.2709 46.3336 30.3567C46.3336 35.5914 49.0915 40.1913 53.2298 42.7873C48.3199 44.5986 44.1509 48.0965 41.5214 52.7551C37.1849 48.0397 34.5322 41.7523 34.5322 34.8561C34.5322 20.2623 46.4053 8.38918 60.9991 8.38918C75.5929 8.38918 87.466 20.2623 87.466 34.8561ZM60.9991 41.3995C54.9108 41.3995 49.9572 36.4459 49.9572 30.3567C49.9572 24.2684 54.9108 19.3147 60.9991 19.3147C67.0873 19.3147 72.041 24.2684 72.041 30.3567C72.041 36.4459 67.0873 41.3995 60.9991 41.3995ZM61 45.024C68.1363 45.024 74.5746 49.0301 77.7486 55.3324C73.1831 59.0742 67.3489 61.323 60.9991 61.323C54.6502 61.323 48.8169 59.0751 44.2514 55.3334C47.4236 49.0301 53.8609 45.024 61 45.024ZM96.153 108.036C96.153 111.115 93.6483 113.619 90.5701 113.619H31.428C28.349 113.619 25.8451 111.115 25.8451 108.036V99.1427C25.8451 98.1421 25.0335 97.3304 24.0329 97.3304C23.0323 97.3304 22.2207 98.1421 22.2207 99.1427V101.813H7.66968C5.43858 101.813 3.62355 99.9981 3.62355 97.767V29.7898C3.62355 27.5587 5.43858 25.7428 7.66968 25.7428H22.2207V67.1069H12.1663C11.1648 67.1069 10.3541 67.9185 10.3541 68.9191C10.3541 69.9197 11.1648 70.7314 12.1663 70.7314H22.2207V75.0167H12.1663C11.1648 75.0167 10.3541 75.8274 10.3541 76.8289C10.3541 77.8295 11.1648 78.6403 12.1663 78.6403H22.2207V83.2113H12.1663C11.1648 83.2113 10.3541 84.0221 10.3541 85.0227C10.3541 86.0233 11.1648 86.8349 12.1663 86.8349H22.2207V91.8947C22.2207 92.8952 23.0314 93.7069 24.0329 93.7069C25.0335 93.7069 25.8442 92.8952 25.8442 91.8947V19.5177C25.8442 16.4395 28.349 13.9348 31.4271 13.9348H39.3946C34.145 19.3538 30.9086 26.734 30.9086 34.8561C30.9086 51.4483 44.4069 64.9465 60.9991 64.9465C77.5913 64.9465 91.0895 51.4483 91.0895 34.8561C91.0895 26.734 87.8532 19.3538 82.6035 13.9348H90.5692C93.6483 13.9348 96.153 16.4395 96.153 19.5177V108.036Z" fill="#4CB449"/>
<path d="M86.694 74.3717H35.3035C34.3029 74.3717 33.4912 75.1833 33.4912 76.1839C33.4912 77.1845 34.3029 77.9962 35.3035 77.9962H86.6949C87.6955 77.9962 88.5063 77.1845 88.5063 76.1839C88.5063 75.1833 87.6955 74.3717 86.694 74.3717Z" fill="#60D1E0"/>
<path d="M86.694 82.2833H35.3035C34.3029 82.2833 33.4912 83.094 33.4912 84.0946C33.4912 85.0952 34.3029 85.9069 35.3035 85.9069H86.6949C87.6955 85.9069 88.5063 85.0952 88.5063 84.0946C88.5063 83.094 87.6955 82.2833 86.694 82.2833Z" fill="#60D1E0"/>
<path d="M48.327 90.4752H35.3035C34.3029 90.4752 33.4912 91.2869 33.4912 92.2875C33.4912 93.2881 34.3029 94.0988 35.3035 94.0988H48.327C49.3285 94.0988 50.1393 93.2881 50.1393 92.2875C50.1393 91.2869 49.3285 90.4752 48.327 90.4752Z" fill="#60D1E0"/>
</g>
</svg>
