<svg width="52" height="52" viewBox="0 0 52 52" fill="none" xmlns="http://www.w3.org/2000/svg">
<g clip-path="url(#clip0)">
<path d="M50.984 42.1495H42.6816C42.1208 42.1495 41.666 41.6947 41.666 41.1339C41.666 40.5731 42.1208 40.1183 42.6816 40.1183H50.984C51.5448 40.1183 51.9996 40.5731 51.9996 41.1339C51.9996 41.6947 51.5448 42.1495 50.984 42.1495Z" fill="black"/>
<path d="M33.4997 42.1495H25.1973C24.6363 42.1495 24.1816 41.6947 24.1816 41.1339C24.1816 40.5731 24.6363 40.1183 25.1973 40.1183H33.4997C34.0606 40.1183 34.5153 40.5731 34.5153 41.1339C34.5153 41.6947 34.0605 42.1495 33.4997 42.1495Z" fill="black"/>
<path d="M38.1098 42.1494C37.6835 42.1494 37.2993 41.8745 37.1545 41.4754C37.0122 41.0832 37.1346 40.6289 37.4529 40.3596C37.7863 40.0775 38.2747 40.0426 38.6458 40.2719C39.002 40.4921 39.1863 40.9218 39.1052 41.3318C39.0124 41.8009 38.5881 42.1494 38.1098 42.1494Z" fill="black"/>
<path d="M50.9846 36.8433H25.1973C24.6363 36.8433 24.1816 36.3886 24.1816 35.8276C24.1816 35.2668 24.6363 34.812 25.1973 34.812H50.9846C51.5454 34.812 52.0002 35.2668 52.0002 35.8276C52.0002 36.3885 51.5454 36.8433 50.9846 36.8433Z" fill="black"/>
<path d="M50.9846 47.4558H25.1973C24.6363 47.4558 24.1816 47.001 24.1816 46.4402C24.1816 45.8794 24.6363 45.4246 25.1973 45.4246H50.9846C51.5454 45.4246 52.0002 45.8794 52.0002 46.4402C52.0002 47.001 51.5454 47.4558 50.9846 47.4558Z" fill="black"/>
<path d="M20.3122 4.54419H1.01562C0.454695 4.54419 0 4.99899 0 5.55981V46.4401C0 47.001 0.454695 47.4558 1.01562 47.4558H20.3122C20.8731 47.4558 21.3278 47.001 21.3278 46.4401V5.55981C21.3278 4.99899 20.8731 4.54419 20.3122 4.54419ZM2.03125 6.57544H19.2966V34.8219H2.03125V6.57544ZM19.2966 45.4245H2.03125V36.8531H19.2966V45.4245Z" fill="black"/>
<path d="M35.5011 31.555H25.1973C24.6363 31.555 24.1816 31.1004 24.1816 30.5394V20.4852C24.1816 19.9243 24.6363 19.4696 25.1973 19.4696H35.5011C36.0619 19.4696 36.5167 19.9243 36.5167 20.4852V30.5394C36.5167 31.1004 36.0619 31.555 35.5011 31.555ZM26.2129 29.5238H34.4855V21.5009H26.2129V29.5238Z" fill="black"/>
<path d="M50.9835 31.555H40.6797C40.1189 31.555 39.6641 31.1004 39.6641 30.5394V20.4852C39.6641 19.9243 40.1189 19.4696 40.6797 19.4696H50.9835C51.5443 19.4696 51.9991 19.9243 51.9991 20.4852V30.5394C51.9991 31.1004 51.5443 31.555 50.9835 31.555ZM41.6953 29.5238H49.9679V21.5009H41.6953V29.5238Z" fill="black"/>
<path d="M50.9846 16.6296H25.1973C24.6363 16.6296 24.1816 16.1748 24.1816 15.614V5.55981C24.1816 4.99899 24.6363 4.54419 25.1973 4.54419H50.9846C51.5454 4.54419 52.0002 4.99899 52.0002 5.55981V15.614C52.0002 16.1749 51.5454 16.6296 50.9846 16.6296ZM26.213 14.5984H49.969V6.57544H26.213V14.5984Z" fill="black"/>
</g>
<defs>
<clipPath id="clip0">
<rect width="52" height="52" fill="white"/>
</clipPath>
</defs>
</svg>
