<svg width="15" height="15" viewBox="0 0 15 15" fill="none" xmlns="http://www.w3.org/2000/svg">
<path fill-rule="evenodd" clip-rule="evenodd" d="M10.4183 9.16676H9.75667L9.52667 8.93843C10.3392 7.99093 10.8333 6.7626 10.8333 5.41676C10.8333 2.4251 8.40833 9.53674e-05 5.41667 9.53674e-05C2.425 9.53674e-05 0 2.4251 0 5.41676C0 8.40843 2.425 10.8334 5.41667 10.8334C6.7625 10.8334 7.99 10.3401 8.9375 9.52843L9.1675 9.75676V10.4168L13.3325 14.5759L14.575 13.3334L10.4183 9.16676ZM5.41667 9.16676C3.345 9.16676 1.66667 7.48843 1.66667 5.41676C1.66667 3.34593 3.345 1.66676 5.41667 1.66676C7.4875 1.66676 9.16667 3.34593 9.16667 5.41676C9.16667 7.48843 7.4875 9.16676 5.41667 9.16676Z" fill="#12191D"/>
</svg>
