<svg width="24" height="24" viewBox="0 0 24 24" fill="none" xmlns="http://www.w3.org/2000/svg">
<g clip-path="url(#clip0)">
<path d="M17.0513 12.9343H13.7902C12.8977 12.9343 12.1719 13.6601 12.1719 14.5526V17.0537C12.1719 17.9462 12.8977 18.672 13.7902 18.672H17.0513C17.9438 18.672 18.6696 17.9462 18.6696 17.0537V14.5526C18.6696 13.6601 17.9438 12.9343 17.0513 12.9343ZM17.4927 17.0537C17.4927 17.2989 17.2916 17.495 17.0513 17.495H13.7902C13.545 17.495 13.3488 17.294 13.3488 17.0537V14.5526C13.3488 14.3074 13.5499 14.1113 13.7902 14.1113H17.0513C17.2965 14.1113 17.4927 14.3123 17.4927 14.5526V17.0537Z" fill="white"/>
<path d="M24 8.38825C24 8.28527 23.9755 8.18719 23.9215 8.09892L20.3514 1.82185C20.2485 1.6404 20.0523 1.52271 19.8414 1.52271H4.15366C3.94279 1.52271 3.74663 1.6355 3.64365 1.82185L0.0784634 8.09892C0.0294238 8.18719 0 8.28527 0 8.38825C0 9.79569 0.848386 11.0021 2.05966 11.5366V21.8889C2.05966 22.2125 2.32448 22.4773 2.64814 22.4773H5.89947C5.90437 22.4773 5.90928 22.4773 5.91418 22.4773H10.4749C10.4798 22.4773 10.4847 22.4773 10.4896 22.4773H21.347C21.6706 22.4773 21.9354 22.2125 21.9354 21.8889V11.6102C21.9354 11.5856 21.9354 11.566 21.9305 11.5464C23.1467 11.0119 24 9.8006 24 8.38825ZM4.49693 2.70456H19.4982L22.2885 7.61343H1.71148L4.49693 2.70456ZM17.0805 8.78547C16.8942 9.84473 15.9673 10.649 14.8541 10.649C13.7409 10.649 12.8141 9.84473 12.6277 8.78547H17.0805ZM11.3772 8.78547C11.1908 9.84473 10.264 10.649 9.1508 10.649C8.0376 10.649 7.11075 9.84473 6.91949 8.78547H11.3772ZM1.21618 8.78547H5.67389C5.48754 9.84473 4.55578 10.649 3.44258 10.649C2.32938 10.6539 1.40253 9.84473 1.21618 8.78547ZM9.88639 21.3004H6.50266V14.9498C6.50266 14.4888 6.87536 14.1112 7.34123 14.1112H9.05272C9.51369 14.1112 9.8913 14.4839 9.8913 14.9498V21.3004H9.88639ZM20.7585 21.3004H11.0633V14.9498C11.0633 13.8415 10.161 12.9342 9.04781 12.9342H7.33633C6.22803 12.9342 5.3208 13.8366 5.3208 14.9498V21.3053H3.23662V11.8259C3.30527 11.8308 3.37393 11.8308 3.44258 11.8308C4.62934 11.8308 5.67879 11.2276 6.29669 10.3106C6.91459 11.2276 7.96404 11.8308 9.1508 11.8308C10.3376 11.8308 11.3821 11.2276 12.0049 10.3106C12.6228 11.2276 13.6723 11.8308 14.8541 11.8308C16.0409 11.8308 17.0854 11.2276 17.7033 10.3106C18.3212 11.2276 19.3707 11.8308 20.5574 11.8308C20.6261 11.8308 20.6898 11.8259 20.7585 11.8259V21.3004ZM20.5574 10.6539C19.4442 10.6539 18.5174 9.84963 18.331 8.79038H22.7887C22.5975 9.84473 21.6706 10.6539 20.5574 10.6539Z" fill="white"/>
</g>
<defs>
<clipPath id="clip0">
<rect width="24" height="24" fill="white"/>
</clipPath>
</defs>
</svg>
