<svg width="48" height="48" viewBox="0 0 48 48" fill="none" xmlns="http://www.w3.org/2000/svg">
<g clip-path="url(#clip0)">
<path d="M20.1277 37.7651C17.8 37.7651 15.9062 39.6589 15.9062 41.9866C15.9062 44.3143 17.8 46.2081 20.1277 46.2081C22.4555 46.2081 24.3492 44.3143 24.3492 41.9866C24.3491 39.6589 22.4554 37.7651 20.1277 37.7651ZM20.1277 43.8508C19.0997 43.8508 18.2633 43.0144 18.2633 41.9864C18.2633 40.9584 19.0998 40.122 20.1277 40.122C21.1557 40.122 21.9921 40.9585 21.9921 41.9864C21.9921 43.0146 21.1557 43.8508 20.1277 43.8508Z" fill="#4CB449"/>
<path d="M34.9363 37.7651C32.6086 37.7651 30.7148 39.6589 30.7148 41.9866C30.7148 44.3143 32.6086 46.2081 34.9363 46.2081C37.264 46.2081 39.1578 44.3143 39.1578 41.9866C39.1577 39.6589 37.2639 37.7651 34.9363 37.7651ZM34.9363 43.8508C33.9083 43.8508 33.0719 43.0144 33.0719 41.9864C33.0719 40.9584 33.9083 40.122 34.9363 40.122C35.9644 40.122 36.8007 40.9585 36.8007 41.9864C36.8007 43.0146 35.9643 43.8508 34.9363 43.8508Z" fill="#4CB449"/>
<path d="M35.9738 15.54H19.0848C18.4339 15.54 17.9062 16.0677 17.9062 16.7186C17.9062 17.3695 18.434 17.8971 19.0848 17.8971H35.9738C36.6247 17.8971 37.1523 17.3695 37.1523 16.7186C37.1523 16.0676 36.6247 15.54 35.9738 15.54Z" fill="#259DD9"/>
<path d="M35.0532 21.6597H20.0028C19.3518 21.6597 18.8242 22.1873 18.8242 22.8382C18.8242 23.4891 19.3518 24.0167 20.0028 24.0167H35.0531C35.704 24.0167 36.2317 23.4891 36.2317 22.8382C36.2317 22.1874 35.704 21.6597 35.0532 21.6597Z" fill="#259DD9"/>
<path d="M47.4695 10.2886C47.0201 9.73695 46.3541 9.42063 45.6424 9.42063H8.93236L8.19099 5.82166C8.0362 5.07091 7.52414 4.44053 6.82092 4.13519L1.64807 1.88987C1.05089 1.63046 0.356855 1.90449 0.0978235 2.5015C-0.161489 3.09868 0.112542 3.79281 0.709449 4.05184L5.88239 6.29725L11.5848 33.978C11.8095 35.0682 12.7803 35.8594 13.8934 35.8594H42.1278C42.7787 35.8594 43.3063 35.3318 43.3063 34.6809C43.3063 34.03 42.7787 33.5023 42.1278 33.5023H13.8935L13.1999 30.1352H42.346C43.459 30.1352 44.43 29.344 44.6545 28.2538L47.951 12.253C48.0946 11.5563 47.9191 10.8401 47.4695 10.2886ZM42.346 27.7783H12.7143L9.41799 11.7776L45.6424 11.7777L42.346 27.7783Z" fill="#259DD9"/>
</g>
<defs>
<clipPath id="clip0">
<rect width="48" height="48" fill="white"/>
</clipPath>
</defs>
</svg>
