<svg width="26" height="26" viewBox="0 0 26 26" fill="none" xmlns="http://www.w3.org/2000/svg">
<path fill-rule="evenodd" clip-rule="evenodd" d="M24.2167 0H1.00743C0.451043 0 0 0.451043 0 1.00743V24.2167C0 24.7731 0.451043 25.2241 1.00743 25.2241H24.2167C24.7731 25.2241 25.2241 24.7731 25.2241 24.2167V1.00743C25.2241 0.451043 24.7731 0 24.2167 0ZM5.17249 8.27V9.20186H7.23382V10.0599H5.17249V11.7324H4.22199V7.41218H7.51134V8.27H5.17249ZM11.3288 11.5997C11.4681 11.5334 11.5996 11.4516 11.7207 11.3559C11.8436 11.258 11.9589 11.1509 12.0656 11.0355L11.4608 10.4245C11.3079 10.5696 11.1368 10.694 10.9517 10.7947C10.781 10.8853 10.5721 10.9306 10.3252 10.9306C10.1545 10.9326 9.98544 10.8978 9.82943 10.8286C9.67343 10.7594 9.53417 10.6573 9.42114 10.5295C9.31033 10.4023 9.22379 10.2559 9.16584 10.0975C9.10348 9.92966 9.07208 9.7519 9.07316 9.57285V9.56059C9.07188 9.38253 9.10329 9.20573 9.16584 9.03901C9.2247 8.88112 9.31259 8.73565 9.42497 8.6101C9.53595 8.4867 9.67153 8.38791 9.82299 8.32007C9.98114 8.24932 10.1527 8.21353 10.3259 8.21514C10.5298 8.21198 10.7316 8.2563 10.9154 8.34458C11.1028 8.43956 11.2762 8.55983 11.4309 8.702L12.0365 8.00477C11.9371 7.90558 11.8298 7.81473 11.7156 7.73312C11.598 7.64968 11.4718 7.57931 11.339 7.52326C11.1928 7.46271 11.0408 7.4172 10.8853 7.38744C10.7033 7.35327 10.5183 7.33677 10.3331 7.33817C10.0196 7.33356 9.70845 7.39281 9.41859 7.51228C9.152 7.62336 8.91059 7.78713 8.70884 7.99379C8.51055 8.19847 8.35341 8.43933 8.24597 8.70328C8.13367 8.97879 8.077 9.27381 8.07926 9.57132V9.58357C8.0773 9.8818 8.13394 10.1775 8.24597 10.4539C8.35201 10.7178 8.50934 10.958 8.70884 11.1606C8.91012 11.3626 9.14921 11.523 9.41246 11.6326C9.69191 11.7494 9.99218 11.8082 10.295 11.8055C10.4856 11.8073 10.6759 11.7896 10.8628 11.7529C11.0238 11.7209 11.1803 11.6695 11.3288 11.5997ZM16.2072 11.7324V8.91184L14.9912 10.7572H14.9657L13.7622 8.93047V11.7324H12.8252V7.41218H13.8495L14.9851 9.23914L16.1207 7.41218H17.1452V11.7324H16.2072ZM21.4077 11.436C21.5456 11.3417 21.6578 11.2144 21.7342 11.0658C21.8129 10.9043 21.8517 10.7262 21.8473 10.5466V10.5343C21.8475 10.247 21.7758 10.0222 21.6323 9.85978C21.4888 9.69741 21.2923 9.56882 21.0426 9.47402C21.1203 9.43285 21.1933 9.38319 21.2601 9.32594C21.3287 9.26764 21.3888 9.20011 21.4388 9.12527C21.4913 9.04628 21.5326 8.96035 21.5614 8.86997C21.5937 8.76403 21.6093 8.65368 21.6076 8.54292V8.52939C21.6074 8.18796 21.481 7.9164 21.2284 7.71471C20.9759 7.51302 20.6279 7.41218 20.1845 7.41218H18.1821V11.7324H20.2333C20.4567 11.7347 20.6796 11.7099 20.8971 11.6584C21.0794 11.616 21.2524 11.5407 21.4077 11.436ZM20.509 8.35961C20.6159 8.43569 20.6693 8.54573 20.6693 8.68972L20.6686 8.70198C20.6686 8.86248 20.6069 8.97873 20.4835 9.05072C20.3601 9.12272 20.1934 9.15872 19.9836 9.15872H19.1079V8.24549H20.0461C20.2478 8.24549 20.4021 8.28353 20.509 8.35961ZM20.8692 10.2257C20.8983 10.2855 20.9123 10.3514 20.9101 10.4179L20.9113 10.4286C20.9115 10.5891 20.8519 10.7074 20.7326 10.7835C20.6133 10.8596 20.4487 10.8976 20.2389 10.8976H19.1094V9.9471H20.2072C20.4535 9.94795 20.6322 9.9905 20.7434 10.0747C20.797 10.1141 20.8402 10.1659 20.8692 10.2257ZM21.7763 14.5007V16.6162H4.1276V15.5035C4.12757 15.3718 4.15348 15.2414 4.20387 15.1197C4.25426 14.9981 4.32812 14.8875 4.42125 14.7944C4.51438 14.7012 4.62495 14.6274 4.74663 14.577C4.86832 14.5266 4.99874 14.5007 5.13044 14.5007H21.7763ZM21.7763 17.3012H4.1276V18.4135C4.12754 18.5452 4.15343 18.6757 4.2038 18.7974C4.25417 18.9191 4.32803 19.0297 4.42116 19.1229C4.51429 19.216 4.62487 19.2899 4.74657 19.3403C4.86827 19.3907 4.99871 19.4166 5.13044 19.4166H21.7763V17.3012Z" fill="white"/>
</svg>
